<svg width="113" height="106" viewBox="0 0 113 106" fill="none" xmlns="http://www.w3.org/2000/svg">
<path d="M101.166 32.379C117.358 29.5816 106.842 -6.6543 104.406 1.08036C101.966 8.81756 83.2431 4.76569 83.9942 16.9337C90.9579 20.1722 96.3566 27.3764 101.166 32.379Z" fill="#F08C2B"/>
<path d="M99.6741 27.6539C110.013 28.4659 108.438 -0.551691 105.174 7.34458C102.739 13.2388 89.4687 8.61378 86.6021 18.22C91.5661 20.8414 95.8994 24.055 99.6741 27.6539Z" fill="#F2D7BB"/>
<path d="M11.5105 32.379C-4.68017 29.5816 5.83703 -6.6543 8.27463 1.08036C10.7105 8.81756 29.4386 4.76569 28.687 16.9337C21.7225 20.1722 16.3277 27.3764 11.5105 32.379Z" fill="#F08C2B"/>
<path d="M13.0036 27.6539C2.66769 28.4659 4.23543 -0.551691 7.50463 7.34458C9.94263 13.2388 23.2098 8.61378 26.075 18.22C21.1145 20.8414 16.775 24.055 13.0036 27.6539Z" fill="#F2D7BB"/>
<path d="M112.759 64.0695C112.759 78.1523 93.6247 105.414 56.3771 105.414C19.1443 105.414 0 77.8566 0 64.0695C0 50.2816 11.6183 6.14569 56.3771 6.14569C101.149 6.14569 112.759 49.9883 112.759 64.0695Z" fill="#F08C2B"/>
<path d="M88.7124 75.1644C81.3691 62.6524 63.8481 71.9925 55.506 71.9925C47.1555 71.9925 31.4279 61.0029 23.2336 73.9139C18.1388 81.9431 23.2727 100.386 55.506 100.386C87.7337 100.386 96.0577 87.6764 88.7124 75.1644Z" fill="#F2D2AA"/>
<path d="M35.4779 55.9081C35.4779 58.407 33.3639 60.4269 30.755 60.4269C28.1539 60.4269 26.041 58.407 26.041 55.9081C26.041 53.4149 28.1539 51.3909 30.755 51.3909C33.3639 51.3909 35.4779 53.4149 35.4779 55.9081Z" fill="#FFFBFD"/>
<path d="M29.8205 56.4524C29.3013 56.4524 28.8789 56.0498 28.8789 55.555C28.8789 55.0566 29.3013 54.6509 29.8205 54.6509C30.3377 54.6509 30.7549 55.0566 30.7549 55.555C30.7549 56.0498 30.3377 56.4524 29.8205 56.4524ZM29.3696 57.5737C29.1033 57.5737 28.8852 57.3644 28.8852 57.1149C28.8852 56.8592 29.1033 56.654 29.3696 56.654C29.632 56.654 29.8492 56.8592 29.8492 57.1149C29.8492 57.3644 29.632 57.5737 29.3696 57.5737ZM30.682 54.0993C28.9481 54.0993 28.1143 55.3124 28.1143 56.5602C28.1143 57.9176 29.2617 59.019 30.682 59.019C32.1013 59.019 33.2549 57.9176 33.2549 56.5602C33.2549 55.2004 32.1013 54.0993 30.682 54.0993Z" fill="#212121"/>
<path d="M23.8782 51.619C23.8474 51.619 23.8162 51.6165 23.785 51.6113C23.4933 51.5602 23.2985 51.2816 23.3501 50.9909C23.7287 48.7977 25.6365 47.2566 27.9995 47.2566C28.0085 47.2566 28.0173 47.2566 28.0261 47.2566C28.6807 47.2566 29.3698 47.3696 30.073 47.6097C30.3527 47.7056 30.5022 48.0113 30.4069 48.2909C30.3304 48.5138 30.1219 48.6539 29.899 48.6539C29.8418 48.6539 29.7834 48.6446 29.7261 48.6242C29.1277 48.4206 28.5574 48.3285 28.0261 48.3285C26.1031 48.3403 24.7094 49.4988 24.4058 51.1764C24.36 51.4362 24.1334 51.619 23.8782 51.619Z" fill="#54391C"/>
<path d="M77.2808 55.9081C77.2808 58.407 79.3954 60.4269 82.0012 60.4269C84.6089 60.4269 86.7181 58.407 86.7181 55.9081C86.7181 53.4149 84.6089 51.3909 82.0012 51.3909C79.3954 51.3909 77.2808 53.4149 77.2808 55.9081Z" fill="#FFFBFD"/>
<path d="M82.0013 55.555C82.0013 55.0566 82.4205 54.6509 82.9393 54.6509C83.4643 54.6509 83.8809 55.0566 83.8809 55.555C83.8809 56.0498 83.4643 56.4524 82.9393 56.4524C82.4205 56.4524 82.0013 56.0498 82.0013 55.555ZM82.9133 57.1149C82.9133 56.8592 83.1315 56.654 83.3893 56.654C83.6591 56.654 83.8743 56.8592 83.8743 57.1149C83.8743 57.3644 83.6591 57.5737 83.3893 57.5737C83.1315 57.5737 82.9133 57.3644 82.9133 57.1149ZM79.5117 56.5602C79.5117 57.9176 80.6576 59.019 82.0778 59.019C83.4997 59.019 84.6503 57.9176 84.6503 56.5602C84.6503 55.3124 83.8112 54.0993 82.0778 54.0993C80.6576 54.0993 79.5117 55.2004 79.5117 56.5602Z" fill="#212121"/>
<path d="M88.8876 51.619C88.6329 51.619 88.4062 51.4378 88.3596 51.178C88.0502 49.4988 86.6569 48.3403 84.7366 48.3285C84.2065 48.3285 83.6357 48.4206 83.0398 48.6242C82.982 48.6446 82.9237 48.6539 82.8658 48.6539C82.6429 48.6539 82.4346 48.5138 82.3581 48.2909C82.2622 48.0113 82.4117 47.7056 82.692 47.6097C83.3934 47.3696 84.0814 47.2566 84.7346 47.2566C84.7357 47.2566 84.7362 47.2566 84.7366 47.2566C84.7456 47.2566 84.7544 47.2566 84.7638 47.2566C87.1249 47.2566 89.0302 48.7977 89.4156 50.9884C89.4676 51.2805 89.2742 51.5592 88.9822 51.6113C88.9502 51.6165 88.9183 51.619 88.8876 51.619Z" fill="#54391C"/>
<path d="M45.9598 90.7404C45.9926 90.8081 46.313 91.4712 47.1411 92.131C47.966 92.7909 49.3092 93.4233 51.2535 93.419C52.6911 93.419 54.452 93.0832 56.6078 92.2097C56.8775 92.0993 57.054 91.8378 57.054 91.5472V79.4618C57.054 79.066 56.7343 78.7457 56.3395 78.7457C55.9447 78.7457 55.625 79.066 55.625 79.4618L55.6244 91.5472H56.3395L56.0707 90.8842C54.0468 91.7056 52.4666 91.99 51.2535 91.99C49.6119 91.9857 48.6322 91.4842 48.0306 91.0113C47.7311 90.7737 47.5296 90.5389 47.4062 90.3696L47.2786 90.1764L47.2546 90.1326L47.2035 90.1592L47.2551 90.1352L47.2546 90.1326L47.2035 90.1592L47.2551 90.1352C47.0879 89.778 46.6624 89.6233 46.3046 89.79C45.9472 89.9576 45.7926 90.3832 45.9603 90.7404" fill="#1C0B0F"/>
<path d="M65.4722 90.1414C65.441 90.2044 65.1779 90.6951 64.5711 91.1575C63.9618 91.619 63.0191 92.0747 61.506 92.079C60.2946 92.079 58.7102 91.7747 56.6752 90.8908L56.391 91.5471H57.1055V79.4618C57.1055 79.0659 56.7852 78.7456 56.391 78.7456C55.9956 78.7456 55.6758 79.0659 55.6758 79.4618V91.5471C55.6758 91.831 55.8446 92.0883 56.106 92.2028C58.2779 93.1456 60.0544 93.508 61.506 93.508C63.4388 93.5123 64.7801 92.8508 65.6003 92.1654C66.4238 91.4815 66.7424 90.7992 66.7738 90.7336C66.9372 90.3736 66.7785 89.9498 66.4191 89.7867C66.0597 89.6232 65.6358 89.7831 65.4727 90.1414" fill="#1C0B0F"/>
<path d="M31.9834 77.9935C31.9834 78.431 31.608 78.7899 31.1485 78.7899C30.6918 78.7899 30.3184 78.431 30.3184 77.9935C30.3184 77.5523 30.6918 77.1925 31.1485 77.1925C31.608 77.1925 31.9834 77.5523 31.9834 77.9935Z" fill="#1C0B0F"/>
<path d="M37.8029 77.5419C37.8029 77.9842 37.429 78.3389 36.9676 78.3389C36.5097 78.3389 36.1348 77.9842 36.1348 77.5419C36.1348 77.1029 36.5097 76.7446 36.9676 76.7446C37.429 76.7446 37.8029 77.1029 37.8029 77.5419Z" fill="#1C0B0F"/>
<path d="M35.0686 81.6201C35.0686 82.0602 34.6977 82.4165 34.2394 82.4165C33.7801 82.4165 33.4082 82.0602 33.4082 81.6201C33.4082 81.178 33.7801 80.8206 34.2394 80.8206C34.6977 80.8206 35.0686 81.178 35.0686 81.6201Z" fill="#1C0B0F"/>
<path d="M33.4081 85.9534C33.4081 86.3951 33.0325 86.7498 32.5737 86.7498C32.1147 86.7498 31.7393 86.3951 31.7393 85.9534C31.7393 85.5138 32.1147 85.1539 32.5737 85.1539C33.0325 85.1539 33.4081 85.5138 33.4081 85.9534Z" fill="#1C0B0F"/>
<path d="M40.3338 85.332C40.3338 85.7722 39.9593 86.1268 39.4958 86.1268C39.0406 86.1268 38.6655 85.7722 38.6655 85.332C38.6655 84.8908 39.0406 84.5336 39.4958 84.5336C39.9593 84.5336 40.3338 84.8908 40.3338 85.332Z" fill="#1C0B0F"/>
<path d="M30.0675 83.2165C30.0675 83.6539 29.6981 84.0138 29.2415 84.0138C28.7763 84.0138 28.4033 83.6539 28.4033 83.2165C28.4033 82.7737 28.7763 82.4165 29.2415 82.4165C29.6981 82.4165 30.0675 82.7737 30.0675 83.2165Z" fill="#1C0B0F"/>
<path d="M40.9972 80.9566C40.9972 81.3951 40.6238 81.755 40.1623 81.755C39.703 81.755 39.332 81.3951 39.332 80.9566C39.332 80.519 39.703 80.1618 40.1623 80.1618C40.6238 80.1618 40.9972 80.519 40.9972 80.9566Z" fill="#1C0B0F"/>
<path d="M74.8614 78.6619C74.8614 79.1019 74.4869 79.4567 74.0254 79.4567C73.565 79.4567 73.1885 79.1019 73.1885 78.6619C73.1885 78.2191 73.565 77.8619 74.0254 77.8619C74.4869 77.8619 74.8614 78.2191 74.8614 78.6619Z" fill="#1C0B0F"/>
<path d="M80.6801 78.2097C80.6801 78.6523 80.3025 79.0081 79.8472 79.0081C79.3889 79.0081 79.0176 78.6523 79.0176 78.2097C79.0176 77.7711 79.3889 77.4123 79.8472 77.4123C80.3025 77.4123 80.6801 77.7711 80.6801 78.2097Z" fill="#1C0B0F"/>
<path d="M77.9474 82.2884C77.9474 82.7294 77.5755 83.0857 77.1126 83.0857C76.6531 83.0857 76.2798 82.7294 76.2798 82.2884C76.2798 81.8482 76.6531 81.4909 77.1126 81.4909C77.5755 81.4909 77.9474 81.8482 77.9474 82.2884Z" fill="#1C0B0F"/>
<path d="M76.2798 86.6233C76.2798 87.0619 75.9137 87.4191 75.4522 87.4191C74.9886 87.4191 74.6162 87.0619 74.6162 86.6233C74.6162 86.1832 74.9886 85.8259 75.4522 85.8259C75.9137 85.8259 76.2798 86.1832 76.2798 86.6233Z" fill="#1C0B0F"/>
<path d="M83.2095 86.0004C83.2095 86.4379 82.8398 86.7961 82.3783 86.7961C81.9163 86.7961 81.5439 86.4379 81.5439 86.0004C81.5439 85.5592 81.9163 85.2004 82.3783 85.2004C82.8398 85.2004 83.2095 85.5592 83.2095 86.0004Z" fill="#1C0B0F"/>
<path d="M72.9489 83.8832C72.9489 84.3243 72.5719 84.6805 72.1115 84.6805C71.6573 84.6805 71.2803 84.3243 71.2803 83.8832C71.2803 83.4457 71.6573 83.0857 72.1115 83.0857C72.5719 83.0857 72.9489 83.4457 72.9489 83.8832Z" fill="#1C0B0F"/>
<path d="M83.8739 81.6232C83.8739 82.0684 83.4993 82.4216 83.0379 82.4216C82.5821 82.4216 82.2051 82.0684 82.2051 81.6232C82.2051 81.1856 82.5821 80.8268 83.0379 80.8268C83.4993 80.8268 83.8739 81.1856 83.8739 81.6232Z" fill="#1C0B0F"/>
<path d="M41.0424 17.7242C52.1232 24.9602 48.6128 35.59 45.8415 46.3712C43.0737 57.1482 40.4019 70.2764 40.4019 70.2764L56.3768 69.531L72.3633 70.2764C72.3633 70.2764 69.6883 57.1482 66.9153 46.3712C64.1467 35.59 60.6357 24.9602 71.7159 17.7242C76.7669 14.4242 81.8164 13.907 85.8221 14.3149C78.1362 9.36597 68.4836 6.14571 56.3768 6.14571C44.3211 6.14571 34.6935 9.36023 27.0273 14.3081C31.0185 13.9138 36.0341 14.4498 41.0424 17.7242Z" fill="#B65921"/>
<path d="M72.4695 71.5747C72.4695 76.9138 63.2727 85.2815 55.6154 85.2815C47.9514 85.2815 40.293 76.9138 40.293 71.5747C40.293 66.2362 44.8159 65.9414 50.393 65.9414H62.3686C67.9456 65.9414 72.4695 66.2362 72.4695 71.5747Z" fill="#1C0B0F"/>
</svg>
