<svg width="141" height="189" viewBox="0 0 141 189" fill="none" xmlns="http://www.w3.org/2000/svg">
<path d="M120.293 130.455C114.386 120.971 108.933 115.944 97.926 111.974C74.2833 103.436 43.282 107.436 23.9967 132.757C15.9567 143.93 17.334 152.723 28.9287 164.436C40.8673 176.494 54.5273 188.473 71.886 188.363C86.3287 188.269 104.665 178.28 114.373 167.155C129.086 150.295 127.705 142.362 120.293 130.455Z" fill="#B4B5B3"/>
<path d="M97.9267 111.974C80.984 105.854 60.2587 106.179 42.7773 116.173C48.4627 123.992 56.516 135.683 59.9467 143.591C67.24 160.381 63.496 180.094 71.6107 180.094C79.728 180.094 79.3307 154.063 83.6693 144.115C88.84 132.271 97.3787 120.185 102.261 113.723C100.915 113.114 99.476 112.533 97.9267 111.974Z" fill="#C4C4C1"/>
<path d="M55.8259 162.58C55.8259 166.235 52.7299 169.199 48.9113 169.199C45.0953 169.199 42.002 166.235 42.002 162.58C42.002 158.928 45.0953 155.966 48.9113 155.966C52.7299 155.966 55.8259 158.928 55.8259 162.58Z" fill="#1E1C22"/>
<path d="M53.1381 163.84C53.1381 165.706 51.5608 167.214 49.6168 167.214C47.6674 167.214 46.0928 165.706 46.0928 163.84C46.0928 161.979 47.6674 160.471 49.6168 160.471C51.5608 160.471 53.1381 161.979 53.1381 163.84Z" fill="#18151A"/>
<path d="M44.1983 163.685C44.1983 160.714 46.7157 158.302 49.821 158.302C52.345 158.302 54.4757 159.89 55.1943 162.08C54.7157 159.364 52.2543 157.295 49.2783 157.295C45.9663 157.295 43.2783 159.867 43.2783 163.042C43.2783 165.463 44.8503 167.536 47.0677 168.38C45.357 167.455 44.1983 165.703 44.1983 163.685Z" fill="#FEF5E9"/>
<path d="M49.553 161.064C49.553 161.844 48.8916 162.479 48.0783 162.479C47.2663 162.479 46.605 161.844 46.605 161.064C46.605 160.287 47.2663 159.654 48.0783 159.654C48.8916 159.654 49.553 160.287 49.553 161.064Z" fill="#FEF5E9"/>
<path d="M47.5891 163.422C47.5891 163.94 47.1478 164.362 46.6051 164.362C46.0624 164.362 45.6211 163.94 45.6211 163.422C45.6211 162.9 46.0624 162.479 46.6051 162.479C47.1478 162.479 47.5891 162.9 47.5891 163.422Z" fill="#FEF5E9"/>
<path d="M88.8022 162.58C88.8022 166.235 91.8982 169.199 95.7156 169.199C99.5289 169.199 102.625 166.235 102.625 162.58C102.625 158.928 99.5289 155.966 95.7156 155.966C91.8982 155.966 88.8022 158.928 88.8022 162.58Z" fill="#1E1C22"/>
<path d="M91.4917 163.84C91.4917 165.706 93.0664 167.214 95.0104 167.214C96.9571 167.214 98.537 165.706 98.537 163.84C98.537 161.979 96.9571 160.471 95.0104 160.471C93.0664 160.471 91.4917 161.979 91.4917 163.84Z" fill="#18151A"/>
<path d="M100.43 163.685C100.43 160.714 97.914 158.302 94.806 158.302C92.282 158.302 90.15 159.89 89.4326 162.08C89.914 159.364 92.3713 157.295 95.3473 157.295C98.6633 157.295 101.351 159.867 101.351 163.042C101.351 165.463 99.7779 167.536 97.5619 168.38C99.2713 167.455 100.43 165.703 100.43 163.685Z" fill="#FEF5E9"/>
<path d="M95.0732 161.064C95.0732 161.844 95.7346 162.479 96.5479 162.479C97.3639 162.479 98.0239 161.844 98.0239 161.064C98.0239 160.287 97.3639 159.654 96.5479 159.654C95.7346 159.654 95.0732 160.287 95.0732 161.064Z" fill="#FEF5E9"/>
<path d="M97.0381 163.422C97.0381 163.94 97.4781 164.362 98.0234 164.362C98.5661 164.362 99.0061 163.94 99.0061 163.422C99.0061 162.9 98.5661 162.479 98.0234 162.479C97.4781 162.479 97.0381 162.9 97.0381 163.422Z" fill="#FEF5E9"/>
<path d="M53.2862 112.038C53.5142 112.615 53.8928 113.307 54.4595 113.603C54.6582 113.708 54.8902 113.539 54.8342 113.315C54.6808 112.695 54.1062 112.157 53.5968 111.799C53.4515 111.695 53.2195 111.867 53.2862 112.038Z" fill="#A9A8A6"/>
<path d="M54.9942 116.648C55.0849 117.45 55.3436 118.663 56.2342 118.914C56.4102 118.962 56.6129 118.823 56.6036 118.632C56.5649 117.883 55.8929 117.273 55.6689 116.556C55.5582 116.203 54.9476 116.247 54.9942 116.648Z" fill="#A9A8A6"/>
<path d="M59.216 114.548C59.2133 115.234 59.0786 116.585 59.8906 116.852L60.1306 116.755C60.5426 116.159 59.9133 115.086 59.7 114.485C59.6093 114.227 59.216 114.261 59.216 114.548Z" fill="#A9A8A6"/>
<path d="M62.7343 110.503C62.9063 111.239 63.0543 111.939 63.3716 112.63C63.4343 112.764 63.6236 112.663 63.5983 112.535C63.4463 111.794 63.2943 111.092 62.9916 110.394C62.9263 110.242 62.6983 110.354 62.7343 110.503Z" fill="#A9A8A6"/>
<path d="M63.3213 114.548C63.3813 115.294 63.3 116.414 63.9013 116.952C64.0413 117.076 64.3013 117.042 64.344 116.835C64.5013 116.09 64.0653 115.195 63.8747 114.474C63.7947 114.173 63.2947 114.226 63.3213 114.548Z" fill="#A9A8A6"/>
<path d="M58.6037 110.466C58.6757 111.252 58.7597 112.444 59.5264 112.864C59.7024 112.961 59.9997 112.887 60.033 112.657C60.1437 111.878 59.5504 111.11 59.3317 110.367C59.2184 109.979 58.565 110.038 58.6037 110.466Z" fill="#A9A8A6"/>
<path d="M67.1077 108.949C67.181 109.739 67.1571 110.573 67.5371 111.287C67.6291 111.462 67.9344 111.435 67.9717 111.231C68.1251 110.426 67.8384 109.654 67.6437 108.876C67.5704 108.581 67.0784 108.638 67.1077 108.949Z" fill="#A9A8A6"/>
<path d="M72.4997 109.067C72.5344 109.719 72.3571 110.455 72.6451 111.059C72.7224 111.22 72.9958 111.22 73.0718 111.059C73.3731 110.426 73.1637 109.644 72.9691 109.004C72.8917 108.754 72.4864 108.791 72.4997 109.067Z" fill="#A9A8A6"/>
<path d="M77.9836 109.768C77.9596 110.192 77.8529 110.645 78.0462 111.038C78.1116 111.168 78.3302 111.168 78.3969 111.038C78.5902 110.645 78.4836 110.192 78.4596 109.768C78.4422 109.461 77.9996 109.461 77.9836 109.768Z" fill="#A9A8A6"/>
<path d="M85.3251 110.994C85.1477 111.761 84.8411 112.481 84.7544 113.266C84.7357 113.439 84.9864 113.481 85.0664 113.35C85.4824 112.663 85.6198 111.892 85.7331 111.106C85.7718 110.844 85.3877 110.722 85.3251 110.994Z" fill="#A9A8A6"/>
<path d="M58.0194 121.242C58.3807 122.151 58.7007 123.471 59.5221 124.067C59.7007 124.196 59.9981 124.067 60.0407 123.856C60.2341 122.885 59.5421 121.796 59.1927 120.919C58.9061 120.197 57.7287 120.512 58.0194 121.242Z" fill="#A9A8A6"/>
<path d="M64.6717 120.022C64.7984 120.508 64.9277 120.994 65.0451 121.485C65.1491 121.919 65.1837 122.359 65.4424 122.731C65.5757 122.923 65.8491 122.894 65.9264 122.668C66.2184 121.811 65.6797 120.642 65.4544 119.806C65.3184 119.3 64.5397 119.515 64.6717 120.022Z" fill="#A9A8A6"/>
<path d="M69.0143 114.085C69.073 114.598 69.1663 115.103 69.2663 115.608C69.377 116.174 69.4023 116.75 69.6756 117.266C69.7756 117.452 70.0996 117.469 70.1943 117.266C70.6623 116.257 70.0276 114.998 69.8636 113.969C69.7863 113.491 68.9596 113.602 69.0143 114.085Z" fill="#A9A8A6"/>
<path d="M74.9863 116.067C74.9863 116.843 75.0223 117.556 75.1503 118.32C75.1743 118.464 75.4156 118.464 75.4396 118.32C75.569 117.556 75.6037 116.843 75.6037 116.067C75.6037 115.668 74.9863 115.668 74.9863 116.067Z" fill="#A9A8A6"/>
<path d="M82.6153 117.231C82.514 118.116 82.5513 118.918 82.6553 119.797C82.682 120.014 82.9567 120.059 83.0367 119.849C83.35 119.014 83.414 118.231 83.5513 117.357C83.658 116.673 82.694 116.545 82.6153 117.231Z" fill="#A9A8A6"/>
<path d="M74.497 113.481C74.237 114.161 73.981 114.936 74.2476 115.654C74.3196 115.845 74.5663 115.844 74.6383 115.654C74.8943 114.969 74.6757 114.206 74.637 113.499L74.497 113.481Z" fill="#A9A8A6"/>
<path d="M79.0825 113.481C79.2932 114.687 78.6972 116.215 79.3305 117.319C79.4812 117.583 79.8799 117.583 80.0305 117.319C80.7039 116.146 80.0092 114.499 79.7985 113.283C79.7159 112.814 79.0012 113.014 79.0825 113.481Z" fill="#A9A8A6"/>
<path d="M70.233 121.318C70.7797 122.73 70.4224 124.547 71.345 125.8C71.4984 126.01 71.921 126.047 71.9744 125.718C72.2197 124.179 71.689 122.485 71.0997 121.078C70.881 120.555 70.021 120.769 70.233 121.318Z" fill="#A9A8A6"/>
<path d="M85.4728 122.024C85.0395 122.603 84.8422 123.164 84.7982 123.88C84.7888 124.026 84.9982 124.042 85.0408 123.914C85.2355 123.33 85.4688 122.734 85.8235 122.23C85.9755 122.012 85.6275 121.82 85.4728 122.024Z" fill="#A9A8A6"/>
<path d="M79.9729 121.84C79.7862 122.786 79.3889 123.846 79.4782 124.814C79.4969 125.012 79.7396 125.092 79.8556 124.916C80.4076 124.078 80.3102 122.859 80.3716 121.895C80.3862 121.667 80.0169 121.616 79.9729 121.84Z" fill="#A9A8A6"/>
<path d="M62.6746 126.151C63.0053 127.276 63.2293 128.724 63.9293 129.687C64.056 129.862 64.3 129.754 64.268 129.544C64.176 128.936 63.8773 128.357 63.6653 127.78C63.456 127.206 63.2626 126.623 63.0653 126.042C62.9826 125.796 62.6 125.896 62.6746 126.151Z" fill="#A9A8A6"/>
<path d="M66.1077 126.178C66.2197 126.809 66.3303 127.442 66.4277 128.076C66.513 128.644 66.5397 129.199 66.7903 129.721C66.8863 129.923 67.209 129.868 67.257 129.661C67.5223 128.519 66.9663 127.123 66.7037 126.014C66.6103 125.621 66.0397 125.792 66.1077 126.178Z" fill="#A9A8A6"/>
<path d="M73.3344 126.562C73.2997 127.431 73.137 128.318 73.3264 129.168C73.353 129.294 73.541 129.318 73.5997 129.204C74.025 128.391 73.8824 127.455 73.8464 126.562C73.833 126.232 73.3477 126.232 73.3344 126.562Z" fill="#A9A8A6"/>
<path d="M74.3199 121.314C74.3026 122.018 74.1919 122.778 74.3959 123.461C74.4466 123.628 74.6866 123.628 74.7359 123.461C74.9412 122.778 74.8306 122.018 74.8132 121.314C74.8052 120.994 74.3266 120.994 74.3199 121.314Z" fill="#A9A8A6"/>
<path d="M77.6607 127.874C77.4901 128.855 76.9461 130.442 77.5207 131.354C77.6221 131.515 77.8447 131.51 77.9461 131.354C78.2367 130.908 78.2301 130.349 78.2341 129.831C78.2394 129.208 78.2714 128.583 78.3007 127.961C78.3194 127.596 77.7234 127.508 77.6607 127.874Z" fill="#A9A8A6"/>
<path d="M82.1316 128.715C81.9982 129.355 81.7676 129.997 81.6969 130.645C81.6769 130.839 81.9356 130.859 82.0262 130.733C82.4102 130.209 82.4689 129.466 82.5902 128.84C82.6489 128.543 82.1929 128.414 82.1316 128.715Z" fill="#A9A8A6"/>
<path d="M65.6344 135.287C65.9637 135.874 66.201 136.494 66.4263 137.126C66.5943 137.598 66.769 138.11 67.117 138.479C67.2277 138.594 67.465 138.512 67.449 138.34C67.3437 137.243 66.5757 135.986 65.9544 135.1C65.8197 134.907 65.5157 135.075 65.6344 135.287Z" fill="#A9A8A6"/>
<path d="M69.0448 132.859C69.1941 134.252 69.5488 135.596 70.0795 136.888C70.1541 137.073 70.4781 137.14 70.5221 136.888C70.7781 135.406 69.9915 134.169 69.5981 132.783C69.5141 132.487 69.0088 132.534 69.0448 132.859Z" fill="#A9A8A6"/>
<path d="M74.341 135.65C74.073 136.802 73.8437 137.955 74.205 139.106C74.2797 139.344 74.605 139.339 74.681 139.106C75.025 138.066 75.0477 136.976 75.2757 135.907C75.4077 135.299 74.4837 135.039 74.341 135.65Z" fill="#A9A8A6"/>
<path d="M69.0983 143.375C69.2543 143.619 69.3903 143.835 69.5889 144.047C69.6969 144.159 69.8716 144.04 69.8396 143.9C69.7649 143.563 69.7383 143.544 69.5809 143.171C69.4276 142.807 68.8983 143.062 69.0983 143.375Z" fill="#A9A8A6"/>
<path d="M71.0133 140.747C71.136 141.407 71.2013 142.135 71.4907 142.747C71.572 142.92 71.8053 142.815 71.8187 142.657C71.8787 141.981 71.6507 141.267 71.54 140.602C71.4827 140.256 70.948 140.4 71.0133 140.747Z" fill="#A9A8A6"/>
<path d="M71.4303 145.923C71.3876 146.832 71.1463 148.274 71.7036 149.062C71.7996 149.197 72.0529 149.208 72.0903 149.011C72.1836 148.528 72.0303 148.039 71.9676 147.552C71.8983 147.012 71.8796 146.466 71.8543 145.923C71.841 145.651 71.4423 145.651 71.4303 145.923Z" fill="#A9A8A6"/>
<path d="M74.8806 142.146C74.3953 143.407 74.1739 144.69 74.2833 146.04C74.2979 146.214 74.5459 146.263 74.5953 146.083C74.9473 144.822 74.9526 143.515 75.2206 142.239C75.2686 142.014 74.9619 141.935 74.8806 142.146Z" fill="#A9A8A6"/>
<path d="M78.5424 137.98C78.0704 139.179 77.4811 140.548 77.3571 141.84C77.3437 141.971 77.5464 142.022 77.6038 141.907C78.1824 140.75 78.3997 139.269 78.6277 138.003L78.5424 137.98Z" fill="#A9A8A6"/>
<path d="M80.8729 134.044C80.2676 135.1 79.5809 136.237 79.4476 137.467C79.4316 137.619 79.6582 137.664 79.7276 137.543C80.3276 136.486 80.6089 135.246 81.0169 134.104L80.8729 134.044Z" fill="#A9A8A6"/>
<path d="M78.0705 133.603C77.8518 134.715 77.6465 135.932 77.7252 137.062C77.7332 137.182 77.9105 137.257 77.9718 137.128C78.4732 136.094 78.3945 134.871 78.6145 133.754C78.6838 133.398 78.1398 133.246 78.0705 133.603Z" fill="#A9A8A6"/>
<path d="M72.6703 131.327C72.461 132.385 72.0863 133.878 72.509 134.906C72.6023 135.131 72.8756 135.131 72.969 134.906C73.3903 133.878 73.0169 132.385 72.8063 131.327H72.6703Z" fill="#A9A8A6"/>
<path d="M63.3836 131.461C63.4422 132.464 63.7876 133.661 64.5302 134.367C64.6489 134.479 64.8009 134.362 64.7809 134.22C64.6476 133.257 64.1182 132.242 63.6782 131.38C63.6076 131.242 63.3742 131.304 63.3836 131.461Z" fill="#A9A8A6"/>
<path d="M66.458 140.151C66.5473 140.92 66.798 141.851 67.386 142.392C67.5474 142.542 67.7513 142.39 67.7247 142.195C67.6207 141.442 67.0513 140.723 66.6393 140.102L66.458 140.151Z" fill="#A9A8A6"/>
<path d="M76.1262 148.651C75.9782 149.234 75.9049 149.807 75.8276 150.403C75.8062 150.562 76.0382 150.567 76.0876 150.438C76.2969 149.89 76.4596 149.349 76.6036 148.78C76.6809 148.473 76.2049 148.34 76.1262 148.651Z" fill="#A9A8A6"/>
<path d="M68.0462 149.494C68.1662 150.967 68.0982 152.782 68.7329 154.14C68.8356 154.36 69.1249 154.223 69.1436 154.03C69.2196 153.278 69.0369 152.507 68.9449 151.762C68.8542 151.007 68.7849 150.251 68.7169 149.494C68.6782 149.068 68.0116 149.062 68.0462 149.494Z" fill="#A9A8A6"/>
<path d="M67.7971 155.924C67.6104 157.235 67.3251 158.932 68.1944 160.047C68.3224 160.211 68.5878 160.103 68.6371 159.931C68.9878 158.682 68.3531 157.174 68.1544 155.924C68.1264 155.748 67.8224 155.746 67.7971 155.924Z" fill="#A9A8A6"/>
<path d="M70.8275 155.067C70.7342 155.854 70.6249 156.638 70.5942 157.43C70.5715 158.024 70.5142 158.634 70.9742 159.075C71.1155 159.21 71.3315 159.21 71.4728 159.075C71.9342 158.634 71.8769 158.024 71.8542 157.43C71.8235 156.638 71.7142 155.854 71.6209 155.067C71.5609 154.556 70.8862 154.556 70.8275 155.067Z" fill="#A9A8A6"/>
<path d="M75.3304 155.096C75.1144 155.782 74.8984 156.468 74.7971 157.182C74.7051 157.833 74.5744 158.421 75.0064 158.968C75.1477 159.145 75.4077 159.088 75.5557 158.968C76.0491 158.567 76.0184 157.936 76.0291 157.349C76.0411 156.626 75.9731 155.916 76.0584 155.195C76.1091 154.764 75.4504 154.715 75.3304 155.096Z" fill="#A9A8A6"/>
<path d="M71.8689 150.671C71.6636 151.388 71.7583 152.13 71.7756 152.863C71.7823 153.162 71.9729 153.416 72.2623 153.5C72.3863 153.538 72.4889 153.544 72.6129 153.5C72.8783 153.411 73.1223 153.166 73.0996 152.863C73.0436 152.127 72.9663 151.378 72.7369 150.671C72.6009 150.255 71.9956 150.231 71.8689 150.671Z" fill="#A9A8A6"/>
<path d="M64.5664 140.82C64.7477 141.716 64.6691 142.936 65.1571 143.732C65.2237 143.843 65.4064 143.8 65.4037 143.666C65.3877 142.742 64.9331 141.668 64.6171 140.804L64.5664 140.82Z" fill="#A9A8A6"/>
<path d="M64.6488 145.539C64.8035 146.381 64.7141 148.079 65.5195 148.596C65.6488 148.679 65.8741 148.635 65.9408 148.486C66.3328 147.606 65.4114 146.227 65.0728 145.422C64.9648 145.162 64.5955 145.254 64.6488 145.539Z" fill="#A9A8A6"/>
<path d="M61.1115 131.288C61.3342 131.986 61.3795 133.015 61.8888 133.559C62.0008 133.68 62.2049 133.587 62.2049 133.43C62.2075 132.714 61.8049 131.838 61.5715 131.163C61.4715 130.876 61.0169 130.994 61.1115 131.288Z" fill="#A9A8A6"/>
<path d="M87.1397 114.324C86.7983 114.731 86.641 115.263 86.4703 115.762C86.2797 116.32 86.0557 116.894 86.0743 117.491C86.081 117.752 86.409 117.911 86.601 117.711C87.297 116.979 87.7703 115.438 87.5823 114.442C87.5463 114.254 87.2637 114.179 87.1397 114.324Z" fill="#A9A8A6"/>
<path d="M74.9493 162.526C74.5533 163.619 74.1386 164.978 74.3612 166.147C74.4012 166.354 74.7413 166.408 74.8293 166.208C75.3079 165.122 75.1826 163.794 75.3412 162.635C75.3759 162.379 75.0413 162.275 74.9493 162.526Z" fill="#A9A8A6"/>
<path d="M72.4064 160.942C72.1731 161.86 71.7384 163.012 71.9971 163.961C72.0597 164.195 72.3571 164.266 72.5277 164.102C73.3157 163.342 73.0051 161.996 73.0304 161.027C73.0397 160.667 72.4944 160.596 72.4064 160.942Z" fill="#A9A8A6"/>
<path d="M68.0556 162.58C68.0556 163.926 67.945 165.552 68.6877 166.735C68.801 166.916 69.1477 166.919 69.1877 166.669C69.4063 165.311 68.9703 163.824 68.6956 162.492C68.621 162.126 68.0556 162.218 68.0556 162.58Z" fill="#A9A8A6"/>
<path d="M70.5612 166.954C69.9745 168.431 70.0452 170.496 70.5718 171.978C70.6572 172.218 70.9812 172.223 71.0652 171.978C71.5772 170.48 71.3985 168.416 70.7998 166.954H70.5612Z" fill="#A9A8A6"/>
<path d="M73.3021 169.061C72.7754 170.134 72.0901 171.567 72.5141 172.778C72.6128 173.061 72.9754 173.12 73.1421 172.86C73.7901 171.854 73.5488 170.391 73.7688 169.257C73.8208 168.99 73.4368 168.785 73.3021 169.061Z" fill="#A9A8A6"/>
<path d="M69.0396 172.818C69.0489 173.516 68.9996 174.664 69.6036 175.108L69.9529 175.018C70.1449 174.737 70.1223 174.606 70.0676 174.273C69.9903 173.785 69.9023 173.312 69.8863 172.818C69.8689 172.273 69.0329 172.269 69.0396 172.818Z" fill="#A9A8A6"/>
<path d="M72.5726 166.079C72.5526 166.74 72.402 167.502 72.678 168.119C72.7353 168.247 72.9566 168.247 73.0126 168.119C73.2886 167.502 73.138 166.74 73.1193 166.079C73.1086 165.726 72.582 165.726 72.5726 166.079Z" fill="#A9A8A6"/>
<path d="M77.9931 147.996C77.8917 148.728 77.7504 149.432 77.5637 150.147C77.4171 150.706 77.1544 151.364 77.3864 151.922C77.4877 152.161 77.7544 152.263 77.9624 152.074C78.4051 151.673 78.3891 151.098 78.4437 150.536C78.5237 149.72 78.4757 148.887 78.5304 148.07C78.5504 147.766 78.0357 147.691 77.9931 147.996Z" fill="#A9A8A6"/>
<path d="M79.1679 141.894C78.8852 142.661 78.5772 143.445 78.8932 144.233C78.9452 144.363 79.1599 144.442 79.2319 144.278C79.5439 143.575 79.5639 142.806 79.7799 142.063C79.8972 141.663 79.3079 141.516 79.1679 141.894Z" fill="#A9A8A6"/>
<path d="M94.9836 112.691C94.1836 113.52 93.897 114.652 93.821 115.774C93.8036 116.038 94.137 116.063 94.265 115.894C94.933 115.016 95.1076 113.963 95.3823 112.922C95.4423 112.695 95.153 112.516 94.9836 112.691Z" fill="#A9A8A6"/>
<path d="M91.7719 115.888C91.6799 117.1 90.9932 118.166 90.9572 119.388C90.9479 119.716 91.3492 119.757 91.5159 119.54C92.3519 118.45 92.6999 117.155 92.4305 115.799C92.3519 115.407 91.7999 115.534 91.7719 115.888Z" fill="#A9A8A6"/>
<path d="M96.0447 117.931C95.266 119.319 94.4326 120.575 93.8806 122.078C93.8033 122.288 94.106 122.38 94.2193 122.22C95.1633 120.907 95.9487 119.656 96.4793 118.114C96.5687 117.855 96.174 117.697 96.0447 117.931Z" fill="#A9A8A6"/>
<path d="M97.6905 114.351C97.4919 114.881 97.2572 115.436 97.2119 116.007C97.1919 116.252 97.4945 116.315 97.6479 116.188C98.0959 115.822 98.4039 115.269 98.6572 114.759C98.9985 114.071 97.9585 113.631 97.6905 114.351Z" fill="#A9A8A6"/>
<path d="M91.4024 121.797C90.8197 123.121 89.8704 124.426 89.6917 125.883C89.6611 126.145 90.0317 126.196 90.1531 126.008C90.9197 124.812 91.3584 123.3 91.7411 121.94C91.7971 121.743 91.4891 121.603 91.4024 121.797Z" fill="#A9A8A6"/>
<path d="M93.8914 124.536C93.4621 125.143 92.9727 125.771 92.6634 126.447C92.5887 126.608 92.7607 126.864 92.9407 126.726C93.5754 126.238 93.9007 125.454 94.3327 124.794C94.5167 124.515 94.0794 124.269 93.8914 124.536Z" fill="#A9A8A6"/>
<path d="M46.2705 116.054C46.9412 116.648 47.1758 117.811 48.0265 118.151C48.2265 118.228 48.4812 118.064 48.5265 117.867C48.7625 116.832 47.5585 115.852 46.7518 115.432C46.3665 115.231 45.9198 115.744 46.2705 116.054Z" fill="#A9A8A6"/>
<path d="M47.1319 120.552C47.5345 121.08 47.8905 121.887 48.5519 122.102C48.7359 122.161 48.8799 122.004 48.8985 121.838C48.9745 121.138 48.2625 120.507 47.8519 119.996C47.5265 119.592 46.8159 120.14 47.1319 120.552Z" fill="#A9A8A6"/>
<path d="M50.6904 116.857C50.8144 117.447 51.1318 118.05 51.4024 118.585C51.6958 119.166 51.9184 119.74 52.4371 120.161C52.7131 120.385 53.0838 120.242 53.1144 119.88C53.2198 118.669 52.1451 117.12 51.1304 116.519C50.8931 116.379 50.6384 116.608 50.6904 116.857Z" fill="#A9A8A6"/>
<path d="M50.4649 122.132C51.1089 123.13 51.6902 124.347 52.7236 124.985C52.9142 125.102 53.1822 124.95 53.1756 124.724C53.1316 123.409 51.9582 122.516 51.1156 121.63C50.7942 121.29 50.2089 121.733 50.4649 122.132Z" fill="#A9A8A6"/>
<path d="M54.4784 122.796C54.9544 123.783 55.2304 125.581 56.4837 125.881C56.7117 125.936 56.9211 125.812 56.9931 125.594C57.4064 124.34 56.0077 123.032 55.3091 122.156C54.9117 121.657 54.2331 122.291 54.4784 122.796Z" fill="#A9A8A6"/>
<path d="M56.0585 129.114C56.0225 128.8 56.0212 128.728 55.7745 128.528C55.6665 128.439 55.5092 128.467 55.4652 128.608C55.4012 128.818 55.3932 128.892 55.3878 129.114C55.3758 129.554 56.1065 129.536 56.0585 129.114Z" fill="#A9A8A6"/>
<path d="M53.9033 126.923C54.4033 127.454 54.846 128.051 55.2193 128.676C55.5287 129.197 55.7873 130.036 56.3367 130.342C56.4553 130.407 56.6433 130.327 56.6286 130.174C56.562 129.504 55.9513 128.783 55.5966 128.226C55.1833 127.576 54.7513 127.009 54.0153 126.731L53.9033 126.923Z" fill="#A9A8A6"/>
<path d="M57.8476 126.738C58.0423 127.52 58.3023 128.597 58.9663 129.118C59.1063 129.227 59.3503 129.174 59.3423 128.962C59.3116 128.095 58.6836 127.211 58.1423 126.566C58.0236 126.424 57.8076 126.578 57.8476 126.738Z" fill="#A9A8A6"/>
<path d="M57.5719 133.314C57.8492 134.023 58.0972 134.742 58.3652 135.455C58.5946 136.063 58.6852 136.9 59.2226 137.298C59.3359 137.38 59.5386 137.324 59.5972 137.2C59.8852 136.591 59.4879 135.943 59.2319 135.368C58.8786 134.576 58.2986 133.92 57.8146 133.212C57.7346 133.095 57.5146 133.166 57.5719 133.314Z" fill="#A9A8A6"/>
<path d="M61.0827 134.839C60.8947 135.435 61.164 136.176 61.3254 136.755C61.488 137.331 61.7974 138.316 62.3934 138.567C62.5147 138.619 62.6747 138.611 62.744 138.476C63.0334 137.9 62.6587 137.332 62.3827 136.823C62.1947 136.474 61.976 136.148 61.7747 135.81C61.5814 135.486 61.4814 135.122 61.26 134.818L61.0827 134.839Z" fill="#A9A8A6"/>
<path d="M82.1209 141.226C82.5036 140.78 82.6182 140.146 82.7902 139.594C82.9742 139.007 83.3596 138.442 83.3649 137.819C83.3676 137.588 83.1196 137.468 82.9276 137.567C82.3489 137.864 82.1089 138.538 81.8809 139.108C81.6476 139.692 81.3889 140.461 81.5769 141.083C81.6422 141.302 81.9556 141.42 82.1209 141.226Z" fill="#A9A8A6"/>
<path d="M84.0479 134.14C84.3012 133.559 84.5932 132.935 84.6119 132.294C84.6172 132.124 84.3972 132.038 84.2812 132.156C83.8039 132.65 83.7199 133.379 83.6532 134.034C83.6332 134.238 83.9652 134.33 84.0479 134.14Z" fill="#A9A8A6"/>
<path d="M86.9891 132.488C87.6197 131.799 88.5997 131.143 88.7837 130.167C88.8277 129.942 88.6091 129.752 88.3957 129.869C87.5211 130.347 87.1917 131.469 86.7251 132.285C86.6317 132.447 86.8584 132.631 86.9891 132.488Z" fill="#A9A8A6"/>
<path d="M86.1848 128.885C86.3475 128.171 86.9555 127.52 86.9141 126.769C86.9048 126.596 86.6982 126.494 86.5675 126.626C86.0262 127.168 85.7341 128.066 85.6475 128.812C85.6101 129.12 86.1168 129.182 86.1848 128.885Z" fill="#A9A8A6"/>
<path d="M88.593 121.683C88.649 121.292 88.8916 120.995 88.9623 120.616C88.9943 120.444 88.829 120.294 88.6636 120.387C88.225 120.635 88.137 121.148 88.1423 121.622C88.145 121.873 88.5543 121.944 88.593 121.683Z" fill="#A9A8A6"/>
<path d="M64.7209 151.419C65.0409 152.124 65.2316 152.912 65.4222 153.663L65.6302 153.635C65.6369 152.757 65.3849 152.045 64.9036 151.312C64.8289 151.196 64.6649 151.296 64.7209 151.419Z" fill="#A9A8A6"/>
<path d="M65.9811 160.12C66.0918 160.808 66.3304 161.455 66.4851 162.132L66.6224 162.112C66.5864 161.422 66.4198 160.757 66.3438 160.071C66.3144 159.804 65.9371 159.854 65.9811 160.12Z" fill="#A9A8A6"/>
<path d="M66.1651 166.351C66.1638 167.036 66.1878 167.683 66.2851 168.363C66.3758 168.986 66.4131 169.891 66.9424 170.302C67.0878 170.412 67.2904 170.451 67.4304 170.302C68.3678 169.298 67.0758 167.33 66.7718 166.269C66.6758 165.935 66.1664 165.999 66.1651 166.351Z" fill="#A9A8A6"/>
<path d="M76.6904 164.996C76.2144 165.512 76.0117 166.198 75.7664 166.842C75.5104 167.518 75.1837 168.291 75.4877 168.987C75.5611 169.154 75.8024 169.154 75.917 169.042C76.369 168.608 76.4317 167.939 76.5997 167.359C76.8024 166.652 77.113 165.885 77.037 165.14C77.0197 164.978 76.821 164.855 76.6904 164.996Z" fill="#A9A8A6"/>
<path d="M77.2237 157.048C77.145 157.309 76.9584 157.523 76.869 157.782C76.753 158.123 76.6637 158.455 76.5864 158.807C76.4544 159.406 76.2784 160.062 76.5584 160.635L76.8597 160.714C77.3237 160.406 77.473 159.887 77.589 159.36C77.6544 159.064 77.725 158.731 77.7384 158.428C77.757 158.004 77.6637 157.528 77.709 157.115C77.741 156.828 77.3024 156.794 77.2237 157.048Z" fill="#A9A8A6"/>
<path d="M79.9247 150.947C79.0514 151.324 78.5781 153.13 78.9354 153.943C79.0181 154.132 79.2874 154.13 79.4194 154.006C79.8007 153.647 79.8301 153.073 79.9101 152.583C79.9914 152.083 80.0954 151.568 80.1234 151.062L79.9247 150.947Z" fill="#A9A8A6"/>
<path d="M61.6064 141.319C61.457 141.949 61.765 142.604 61.9704 143.192C62.181 143.795 62.3077 144.507 62.8944 144.86C63.0504 144.954 63.293 144.904 63.377 144.734C63.681 144.114 63.397 143.528 63.1077 142.956C62.8024 142.349 62.489 141.594 61.917 141.192C61.8064 141.114 61.6357 141.192 61.6064 141.319Z" fill="#A9A8A6"/>
<path d="M26.9073 132.152C27.9886 132.197 29.0686 132.791 30.1499 132.481C30.4193 132.404 30.4019 132.04 30.1499 131.955C29.1339 131.611 27.9726 131.591 26.9073 131.587C26.5419 131.585 26.5459 132.136 26.9073 132.152Z" fill="#9D9D9B"/>
<path d="M29.3879 129.242C30.3519 129.533 31.3612 130.211 32.3892 130.143C32.6425 130.124 32.7385 129.807 32.5185 129.666C31.6732 129.123 30.5199 128.873 29.5479 128.663C29.1705 128.583 29.0159 129.13 29.3879 129.242Z" fill="#9D9D9B"/>
<path d="M31.3248 125.436C32.0888 125.592 32.8302 126.01 33.6075 126.043C33.8248 126.051 33.9115 125.78 33.7768 125.636C33.2195 125.034 32.2835 124.887 31.5075 124.771C31.0795 124.708 30.8835 125.344 31.3248 125.436Z" fill="#9D9D9B"/>
<path d="M34.441 128.378C35.1557 128.54 35.869 129.056 36.5944 129.051C36.8504 129.05 36.933 128.763 36.7877 128.585C36.293 127.98 35.2544 127.863 34.5224 127.771C34.1744 127.728 34.1064 128.302 34.441 128.378Z" fill="#9D9D9B"/>
<path d="M36.2213 122.86C36.8853 123.174 37.6879 123.896 38.4426 123.779C38.5999 123.755 38.7252 123.536 38.6639 123.388C38.3546 122.643 37.2172 122.403 36.5066 122.183C36.1106 122.059 35.8386 122.678 36.2213 122.86Z" fill="#9D9D9B"/>
<path d="M42.6492 124.63C43.0252 125.044 43.1385 125.469 43.7239 125.53C43.8559 125.544 43.9919 125.427 44.0212 125.303C44.1599 124.728 43.7159 124.332 43.3346 123.944C42.8946 123.494 42.2292 124.169 42.6492 124.63Z" fill="#9D9D9B"/>
<path d="M41.4771 120.38C41.8464 120.788 42.1597 121.271 42.6877 121.466C42.8917 121.542 43.0037 121.299 42.9371 121.143C42.7291 120.656 42.2251 120.362 41.8264 120.031C41.5824 119.828 41.2597 120.14 41.4771 120.38Z" fill="#9D9D9B"/>
<path d="M33.73 132.483C34.982 132.542 36.146 133.444 37.386 133.297C37.7247 133.257 37.9807 132.854 37.6847 132.575C36.6593 131.608 34.954 131.435 33.6166 131.651C33.1246 131.731 33.2753 132.462 33.73 132.483Z" fill="#9D9D9B"/>
<path d="M38.3117 126.257C39.0611 126.756 39.9117 127.603 40.8597 127.596C41.1611 127.595 41.2917 127.237 41.0971 127.024C40.8104 126.711 40.4464 126.536 40.0851 126.32C39.6371 126.052 39.213 125.747 38.7744 125.466C38.273 125.144 37.8224 125.932 38.3117 126.257Z" fill="#9D9D9B"/>
<path d="M100.776 118.606C101.32 117.775 102.123 117.014 102.46 116.073C102.531 115.878 102.271 115.668 102.097 115.794C101.275 116.392 100.747 117.433 100.259 118.304C100.068 118.644 100.565 118.93 100.776 118.606Z" fill="#9D9D9B"/>
<path d="M106.213 121.161C106.942 120.714 107.92 120.445 108.516 119.827C108.693 119.645 108.566 119.333 108.31 119.33C107.414 119.32 106.505 119.949 105.776 120.414C105.309 120.714 105.734 121.452 106.213 121.161Z" fill="#9D9D9B"/>
<path d="M112.207 125.224C113.117 125.171 113.967 125.076 114.768 124.619C114.947 124.516 114.919 124.215 114.708 124.167C113.779 123.957 113.008 124.304 112.113 124.532C111.732 124.628 111.805 125.248 112.207 125.224Z" fill="#9D9D9B"/>
<path d="M105.581 117.318C104.939 118.157 104.049 118.849 103.563 119.799L103.743 119.936C104.445 119.14 105.203 118.367 105.857 117.532C106.014 117.33 105.734 117.115 105.581 117.318Z" fill="#9D9D9B"/>
<path d="M104.877 124.042C103.974 124.771 102.566 125.476 102.017 126.536C101.909 126.747 102.086 127.03 102.335 126.951C103.51 126.583 104.455 125.298 105.251 124.416C105.483 124.157 105.138 123.83 104.877 124.042Z" fill="#9D9D9B"/>
<path d="M109.843 127.878C109.261 128.591 108.192 129.199 107.992 130.155C107.948 130.36 108.131 130.604 108.36 130.523C109.348 130.171 109.767 128.996 110.161 128.123C110.248 127.93 109.999 127.685 109.843 127.878Z" fill="#9D9D9B"/>
<path d="M110.701 122.632C110.161 123.306 109.358 123.881 108.981 124.663C108.909 124.812 109.063 125.007 109.223 124.904C109.956 124.428 110.529 123.591 111.007 122.868C111.127 122.686 110.84 122.461 110.701 122.632Z" fill="#9D9D9B"/>
<path d="M100.321 121.28C99.664 122.095 99.0227 122.869 98.6987 123.873C98.628 124.091 98.88 124.246 99.0614 124.152C100.028 123.651 100.453 122.71 101.041 121.836C101.331 121.407 100.649 120.875 100.321 121.28Z" fill="#9D9D9B"/>
<path d="M96.9436 129.067C97.0756 128.714 97.261 128.385 97.3956 128.035C97.4583 127.874 97.2356 127.778 97.1263 127.878C96.8156 128.157 96.585 128.463 96.4116 128.843C96.2343 129.228 96.797 129.463 96.9436 129.067Z" fill="#9D9D9B"/>
<path d="M103.509 137.223C104.436 136.457 105.407 135.706 106.197 134.799C106.361 134.609 106.16 134.371 105.941 134.467C104.807 134.969 103.952 135.938 103.025 136.739C102.69 137.031 103.173 137.499 103.509 137.223Z" fill="#9D9D9B"/>
<path d="M112.862 135.224C113.385 134.823 113.911 134.432 114.421 134.012C114.549 133.907 114.449 133.654 114.279 133.674C113.569 133.757 113.03 134.13 112.447 134.516C112.002 134.814 112.451 135.542 112.862 135.224Z" fill="#9D9D9B"/>
<path d="M113.277 129.263C113.489 129.015 113.689 128.769 113.933 128.556C114.042 128.461 113.957 128.266 113.814 128.269C113.452 128.285 113.098 128.436 112.812 128.657C112.346 129.016 112.936 129.663 113.277 129.263Z" fill="#9D9D9B"/>
<path d="M117.771 135.685C118.299 135.564 119.014 135.548 119.371 135.095C119.486 134.947 119.509 134.693 119.307 134.597C118.746 134.33 118.081 134.59 117.507 134.726C116.883 134.876 117.149 135.824 117.771 135.685Z" fill="#9D9D9B"/>
<path d="M115.973 131.064C116.257 130.864 116.476 130.685 116.641 130.376C116.733 130.204 116.662 129.942 116.449 129.902C116.112 129.836 115.838 129.869 115.509 129.964C114.628 130.219 115.28 131.554 115.973 131.064Z" fill="#9D9D9B"/>
<path d="M118.222 142.012C119.086 141.903 120.133 141.946 120.938 141.608C121.094 141.544 121.158 141.261 120.938 141.226C120.057 141.09 119.035 141.376 118.153 141.5C117.863 141.542 117.931 142.048 118.222 142.012Z" fill="#9D9D9B"/>
<path d="M119.148 146.876C119.847 146.932 120.484 147 121.157 146.776C121.3 146.73 121.3 146.538 121.157 146.491C120.484 146.267 119.847 146.335 119.148 146.391C118.836 146.416 118.836 146.851 119.148 146.876Z" fill="#9D9D9B"/>
<path d="M116.98 151.959C117.588 152.256 118.213 152.508 118.857 152.718C119.38 152.89 120.037 153.132 120.553 152.852C120.698 152.774 120.728 152.554 120.606 152.442C120.252 152.115 119.746 152.087 119.292 151.975C118.633 151.811 117.988 151.573 117.368 151.295C116.922 151.096 116.529 151.739 116.98 151.959Z" fill="#9D9D9B"/>
<path d="M115.077 157.15C115.852 157.7 116.598 158.762 117.64 158.752C117.812 158.751 117.956 158.544 117.849 158.387C117.298 157.592 116.346 156.878 115.565 156.314C115.058 155.947 114.57 156.79 115.077 157.15Z" fill="#9D9D9B"/>
<path d="M111.749 150.655C112.673 151.156 113.554 151.608 114.626 151.603C114.821 151.603 114.902 151.331 114.726 151.234C113.889 150.769 113.011 150.392 112.169 149.936C111.697 149.68 111.277 150.398 111.749 150.655Z" fill="#9D9D9B"/>
<path d="M113.467 146.502C114.211 146.604 114.868 146.632 115.608 146.499C115.781 146.468 115.809 146.202 115.657 146.124C115.015 145.802 114.401 145.761 113.701 145.654C113.143 145.567 112.909 146.426 113.467 146.502Z" fill="#9D9D9B"/>
<path d="M112.425 142.062C113.213 141.952 114.192 141.971 114.885 141.548C115.092 141.424 115.053 141.106 114.818 141.039C114.009 140.808 113.009 141.111 112.193 141.223C111.64 141.3 111.877 142.138 112.425 142.062Z" fill="#9D9D9B"/>
<path d="M106.552 139.559C107.06 139.422 107.537 139.206 108.037 139.042L108.001 138.911C107.489 139.026 106.994 139.195 106.476 139.283C106.297 139.315 106.37 139.608 106.552 139.559Z" fill="#9D9D9B"/>
<path d="M100.258 134.59C100.682 133.664 101.571 133.135 101.942 132.179C102.027 131.961 101.773 131.727 101.561 131.797C100.461 132.166 99.7021 133.126 99.2714 134.174C99.0381 134.739 100.003 135.143 100.258 134.59Z" fill="#9D9D9B"/>
<path d="M24.0381 134.868C24.8648 135.303 25.5448 136.066 26.4194 136.38L26.5274 136.193C25.8634 135.633 24.9541 134.914 24.0727 134.788L24.0381 134.868Z" fill="#9D9D9B"/>
<path d="M22.2623 140.154C23.1943 140.28 24.1369 140.755 25.0689 140.762C25.2263 140.763 25.2769 140.551 25.1476 140.473C24.3583 139.991 23.2196 139.773 22.3023 139.849C22.1409 139.862 22.0769 140.128 22.2623 140.154Z" fill="#9D9D9B"/>
<path d="M21.0436 144.992C21.9223 145.051 22.8223 145.388 23.6596 144.985C23.789 144.921 23.789 144.706 23.6596 144.642C22.8223 144.238 21.9223 144.575 21.0436 144.633C20.8116 144.648 20.8116 144.979 21.0436 144.992Z" fill="#9D9D9B"/>
<path d="M21.3862 148.924C22.0648 149.073 22.9182 149.415 23.5662 149.011C23.7355 148.906 23.7355 148.666 23.5662 148.561C22.9182 148.157 22.0648 148.499 21.3862 148.648C21.2502 148.678 21.2502 148.894 21.3862 148.924Z" fill="#9D9D9B"/>
<path d="M24.6345 153.683C25.9505 153.914 27.4745 154.081 28.7732 153.69C28.9865 153.624 28.9865 153.323 28.7732 153.257C27.4745 152.866 25.9505 153.034 24.6345 153.264C24.4265 153.3 24.4265 153.647 24.6345 153.683Z" fill="#9D9D9B"/>
<path d="M27.2024 149.992C27.7731 150.019 28.3277 150.108 28.8837 150.231C29.3304 150.33 29.7597 150.483 30.2197 150.432C30.4184 150.411 30.5024 150.168 30.3237 150.05C29.505 149.514 28.1584 149.49 27.2024 149.495C26.8811 149.497 26.8851 149.978 27.2024 149.992Z" fill="#9D9D9B"/>
<path d="M26.5767 144.07C27.3634 144.138 28.234 144.52 29.0167 144.406C29.1647 144.383 29.2047 144.167 29.1047 144.074C28.4754 143.494 27.3674 143.587 26.5767 143.635C26.2954 143.654 26.2994 144.047 26.5767 144.07Z" fill="#9D9D9B"/>
<path d="M30.025 136.28C31.1237 136.647 32.1104 137.234 33.1917 137.635C33.341 137.69 33.4677 137.468 33.3477 137.364C32.4504 136.588 31.277 136.151 30.161 135.791C29.8464 135.69 29.7157 136.179 30.025 136.28Z" fill="#9D9D9B"/>
<path d="M32.5972 144.924C33.4399 145.54 34.3999 146.462 35.4506 146.659C35.6226 146.692 35.7199 146.512 35.6132 146.38C34.9479 145.547 33.7546 145.031 32.8666 144.463C32.5706 144.274 32.3252 144.726 32.5972 144.924Z" fill="#9D9D9B"/>
<path d="M30.7731 139.552C31.8051 139.74 32.5718 140.412 33.5491 140.706C33.7878 140.776 33.9064 140.488 33.7731 140.322C33.0971 139.485 31.8785 139.112 30.8465 139.004C30.5331 138.971 30.4638 139.496 30.7731 139.552Z" fill="#9D9D9B"/>
<path d="M39.9115 141.026C40.6635 141.514 41.5008 142.18 42.3675 142.427C42.5115 142.467 42.5981 142.291 42.5061 142.187C41.9048 141.506 40.8901 141.136 40.1248 140.661C39.8915 140.516 39.6848 140.879 39.9115 141.026Z" fill="#9D9D9B"/>
<path d="M36.6954 136.838C37.402 137.12 38.1047 137.461 38.8474 137.621C38.9927 137.655 39.098 137.485 38.9927 137.374C38.4194 136.771 37.5887 136.419 36.7514 136.424C36.498 136.426 36.4834 136.755 36.6954 136.838Z" fill="#9D9D9B"/>
<path d="M42.0239 133.368C42.5012 133.714 42.9332 134.175 43.4945 134.379C43.6159 134.423 43.7505 134.259 43.6692 134.151C43.3012 133.661 42.7705 133.29 42.2799 132.928C42.0172 132.733 41.7599 133.176 42.0239 133.368Z" fill="#9D9D9B"/>
<path d="M46.2727 128.599C47.254 129.324 47.5834 130.608 48.5607 131.318C48.754 131.456 48.9647 131.227 48.926 131.036C48.6834 129.83 47.63 128.661 46.5794 128.073C46.2287 127.878 45.9647 128.369 46.2727 128.599Z" fill="#9D9D9B"/>
<path d="M46.272 135.835C46.6107 136.443 47.0373 136.971 47.524 137.467C47.9267 137.878 48.3427 138.418 48.9414 138.486C49.0934 138.503 49.2294 138.343 49.2254 138.2C49.2134 137.648 48.748 137.283 48.3587 136.942C47.8134 136.464 47.2454 136.003 46.7774 135.444C46.536 135.155 46.0987 135.526 46.272 135.835Z" fill="#9D9D9B"/>
<path d="M42.7423 128.38C43.2889 128.971 43.8089 129.612 44.3983 130.161C44.5476 130.299 44.7729 130.162 44.7303 129.968C44.5383 129.083 43.7263 128.591 43.0676 128.054C42.8409 127.871 42.5383 128.157 42.7423 128.38Z" fill="#9D9D9B"/>
<path d="M43.0488 138.266C43.2875 138.722 43.6542 139.062 44.0195 139.418C44.3968 139.783 44.8128 140.182 45.3502 140.262C45.5675 140.292 45.7835 140.09 45.6515 139.869C45.4168 139.479 45.0435 139.223 44.6808 138.957C44.2128 138.611 43.7648 138.234 43.1955 138.075L43.0488 138.266Z" fill="#9D9D9B"/>
<path d="M36.2342 143.391C36.9595 143.963 37.7342 144.603 38.5969 144.951C38.7329 145.006 38.8342 144.806 38.7355 144.714C38.0769 144.095 37.2289 143.666 36.5155 143.11C36.3155 142.955 36.0329 143.232 36.2342 143.391Z" fill="#9D9D9B"/>
<path d="M35.3383 152.542C36.241 153.034 37.1983 153.657 38.2116 153.883C38.3756 153.92 38.509 153.719 38.381 153.594C37.637 152.867 36.557 152.491 35.6516 152.004C35.2996 151.815 34.9863 152.349 35.3383 152.542Z" fill="#9D9D9B"/>
<path d="M34.2396 149.233C34.8676 149.585 35.5156 149.93 36.2116 150.124C36.3449 150.161 36.4582 149.985 36.3502 149.885C35.8089 149.397 35.1156 149.162 34.4849 148.818C34.2102 148.666 33.9676 149.083 34.2396 149.233Z" fill="#9D9D9B"/>
<path d="M42.1743 148.807C43.1943 148.978 43.8783 149.999 44.9156 150.043C45.1103 150.05 45.2529 149.845 45.2023 149.664C44.8809 148.491 43.3703 147.956 42.2796 148.027C41.8583 148.054 41.7089 148.73 42.1743 148.807Z" fill="#9D9D9B"/>
<path d="M96.7185 140.82C97.1345 140.156 97.6811 139.585 97.9678 138.844C98.0278 138.687 97.8051 138.58 97.6971 138.687C97.1345 139.25 96.7265 139.912 96.3865 140.627C96.2798 140.849 96.5851 141.034 96.7185 140.82Z" fill="#9D9D9B"/>
<path d="M92.3732 138.68C92.4678 137.442 93.4758 136.648 93.7225 135.485C93.7611 135.302 93.5425 135.154 93.4012 135.296C92.5625 136.143 91.9465 137.485 91.9385 138.68C91.9358 138.963 92.3518 138.956 92.3732 138.68Z" fill="#9D9D9B"/>
<path d="M104.097 130.364C104.798 129.845 105.614 129.447 106.212 128.806C106.313 128.697 106.216 128.496 106.061 128.547C105.23 128.818 104.52 129.387 103.833 129.914C103.572 130.114 103.824 130.564 104.097 130.364Z" fill="#9D9D9B"/>
<path d="M98.4833 145.857C99.4087 145.444 100.278 144.843 101.05 144.187C101.153 144.099 101.043 143.915 100.917 143.959C99.9433 144.299 99.2113 145.106 98.3887 145.696L98.4833 145.857Z" fill="#9D9D9B"/>
<path d="M102.617 146.436C103.303 146.074 104.004 145.935 104.737 145.72L104.718 145.588C103.958 145.638 103.207 145.95 102.549 146.319L102.617 146.436Z" fill="#9D9D9B"/>
<path d="M107.566 137.535C108.39 137.231 109.324 137.33 110.11 136.952C110.258 136.881 110.265 136.624 110.11 136.556C109.213 136.156 108.152 136.536 107.328 136.967C107.018 137.128 107.234 137.657 107.566 137.535Z" fill="#9D9D9B"/>
<path d="M103.965 149.396C104.994 149.408 106.626 149.543 107.492 148.892C107.664 148.764 107.674 148.466 107.428 148.404C106.93 148.282 106.441 148.408 105.942 148.488C105.289 148.594 104.626 148.634 103.965 148.652C103.486 148.664 103.484 149.391 103.965 149.396Z" fill="#9D9D9B"/>
<path d="M107.613 144.682C108.407 144.54 109.187 144.346 109.794 143.787C109.969 143.624 109.815 143.386 109.618 143.363C108.838 143.273 108.11 143.603 107.355 143.747C106.741 143.864 107.003 144.79 107.613 144.682Z" fill="#9D9D9B"/>
<path d="M88.3941 145.364C88.6301 144.682 88.9141 144.007 89.0514 143.295C89.0874 143.108 88.8514 143.004 88.7448 143.166C88.3314 143.79 88.1221 144.522 87.8794 145.223C87.7661 145.548 88.2821 145.688 88.3941 145.364Z" fill="#9D9D9B"/>
<path d="M92.992 144.9C93.5867 144.307 94.252 143.648 94.5854 142.867C94.6694 142.671 94.4547 142.478 94.284 142.632C93.6654 143.197 93.1867 143.903 92.5787 144.487C92.3067 144.748 92.724 145.166 92.992 144.9Z" fill="#9D9D9B"/>
<path d="M46.8213 141.991C47.1986 142.578 47.524 143.162 47.9666 143.706C48.3613 144.19 48.7626 144.743 49.3773 144.939C49.5533 144.994 49.7559 144.807 49.6906 144.626C49.4973 144.096 49.0626 143.748 48.6613 143.367C48.1213 142.856 47.532 142.373 47.0173 141.84L46.8213 141.991Z" fill="#9D9D9B"/>
<path d="M52.4848 137.152C53.1208 138.35 53.7901 139.838 54.9461 140.621C55.1741 140.775 55.4421 140.523 55.3848 140.285C55.0608 138.966 54.0594 137.79 53.4288 136.6C53.0981 135.978 52.1555 136.53 52.4848 137.152Z" fill="#9D9D9B"/>
<path d="M53.3943 145.89C53.7116 146.359 53.9916 146.846 54.2743 147.335C54.5249 147.767 54.7703 148.264 55.237 148.485C55.3996 148.559 55.5983 148.436 55.5476 148.246C55.4223 147.78 55.0676 147.419 54.7876 147.036C54.441 146.562 54.1076 146.08 53.7463 145.619C53.5889 145.419 53.2529 145.68 53.3943 145.89Z" fill="#9D9D9B"/>
<path d="M45.9212 144.554C46.4986 144.99 46.9199 145.518 47.3639 146.083C47.7865 146.62 48.1479 147.296 48.7839 147.607C49.0252 147.726 49.3079 147.533 49.2399 147.257C49.0612 146.539 48.4572 146 47.9612 145.485C47.4505 144.956 46.8092 144.485 46.1772 144.114C45.8865 143.943 45.6652 144.362 45.9212 144.554Z" fill="#9D9D9B"/>
<path d="M28.8944 157.212C29.9504 157.526 31.2344 158.19 32.3531 158.052C32.5891 158.023 32.7037 157.731 32.4784 157.59C31.5317 156.996 30.1197 156.875 29.0331 156.709C28.7091 156.659 28.5637 157.114 28.8944 157.212Z" fill="#9D9D9B"/>
<path d="M40.1784 153.363C40.7571 153.755 41.3091 154.05 41.9797 154.255C42.1571 154.309 42.2944 154.071 42.1611 153.943C41.6637 153.469 41.1557 153.042 40.6104 152.623C40.1797 152.292 39.7171 153.05 40.1784 153.363Z" fill="#9D9D9B"/>
<path d="M107.484 154.844C108.516 154.707 109.644 154.451 110.56 153.942C110.69 153.871 110.597 153.691 110.465 153.715C109.437 153.906 108.488 154.366 107.44 154.515C107.253 154.542 107.297 154.869 107.484 154.844Z" fill="#9D9D9B"/>
<path d="M98.721 151.947C99.1704 151.495 99.6584 151.061 100.166 150.676C100.708 150.269 101.288 149.938 101.762 149.45C101.941 149.266 101.764 148.939 101.508 149.014C100.312 149.363 98.681 150.462 98.3477 151.731C98.2903 151.945 98.561 152.107 98.721 151.947Z" fill="#9D9D9B"/>
<path d="M91.6421 150.849C92.3421 149.621 93.4648 148.745 94.2048 147.556C94.3021 147.399 94.1008 147.176 93.9408 147.294C92.7914 148.127 91.8141 149.307 91.1608 150.567C90.9954 150.885 91.4634 151.163 91.6421 150.849Z" fill="#9D9D9B"/>
<path d="M85.152 148.294C84.8947 149.3 84.5987 150.264 84.552 151.308C84.5427 151.497 84.8213 151.573 84.9093 151.406C85.396 150.481 85.8027 149.557 86.0973 148.554C86.276 147.945 85.308 147.682 85.152 148.294Z" fill="#9D9D9B"/>
<path d="M137.509 8.52434C135.433 4.21101 130.231 -5.93033 118.151 6.32434C108.879 15.599 104.215 25.455 101.906 33.7777C95.4166 53.259 87.4139 106.375 94.9619 121.574C94.9619 121.574 108.742 123.923 110.43 120.968C110.43 120.968 131.547 59.911 135.094 48.3537C140.034 33.927 142.693 19.9443 137.509 8.52434Z" fill="#B4B5B3"/>
<path d="M128.172 26.491C123.764 5.94166 109.016 39.115 107.233 45.547C102.221 60.603 97.8026 115.598 97.0186 121.39C97.0186 121.39 102.387 124.503 107.863 122.575C107.863 122.575 120.876 65.931 123.621 56.9977C127.436 45.8483 130.219 36.0443 128.172 26.491Z" fill="#C4C4C1"/>
<path d="M39.0116 34.0429C33.8049 36.4176 28.7863 39.0136 23.4129 41.1736C21.9356 41.7696 20.2183 42.4363 18.6689 43.2483C19.0689 44.1069 19.4663 44.9669 19.8769 45.8256C25.8089 59.2203 45.9969 117.992 45.9969 117.992C47.1316 118.885 62.1756 116.207 62.1756 116.207C64.5436 98.7095 59.8103 47.9056 52.9463 30.7229C48.2849 32.2683 43.3863 32.0509 39.0116 34.0429Z" fill="#A8A8A6"/>
<path d="M45.3529 33.3844C45.3529 33.3844 29.0196 45.1484 32.3916 52.2457C36.9783 62.5977 48.4183 118.132 48.4183 118.132C49.1676 118.668 60.4836 116.496 60.4836 116.496C58.4983 109.724 52.7463 50.5124 45.3529 33.3844Z" fill="#C4C4C1"/>
<path d="M25.657 27.6763C20.349 28.1856 14.9597 35.8776 9.20637 43.979C5.6757 48.9456 -2.7803 72.491 1.54103 74.235C5.86237 75.983 37.577 54.3603 41.7864 49.3176C50.4317 39.131 69.6517 23.455 25.657 27.6763Z" fill="#B4B5B3"/>
<path d="M84.5051 186.195C87.8717 181.612 75.0677 172.288 71.4584 172.419C67.8051 172.55 65.8757 175.657 60.6077 179.933C57.6357 182.343 58.0211 184.623 58.9211 186.155C63.0117 187.579 67.3197 188.391 71.8864 188.363C75.8837 188.335 80.1771 187.55 84.5051 186.195Z" fill="#F4EAE5"/>
<path d="M71.2943 181.692C71.2943 181.696 71.2943 184.468 71.2943 185.988C71.2956 186.302 71.1476 186.648 70.877 186.912C70.6076 187.176 70.2303 187.355 69.7703 187.355C69.0636 187.356 68.0943 186.921 67.0623 185.491C66.941 185.323 66.7063 185.285 66.537 185.407C66.369 185.528 66.3303 185.763 66.4516 185.932C67.5636 187.478 68.7396 188.107 69.7703 188.108C71.097 188.102 72.0423 187.07 72.0476 185.988C72.0476 184.468 72.0476 181.696 72.0476 181.692C72.0476 181.485 71.8796 181.316 71.6716 181.316C71.4636 181.316 71.2956 181.485 71.2956 181.692" fill="#242327"/>
<path d="M71.2344 181.692C71.2344 181.696 71.2344 184.468 71.2344 185.988C71.2397 187.07 72.1864 188.102 73.5144 188.108C74.545 188.107 75.721 187.478 76.8344 185.932C76.9557 185.763 76.917 185.528 76.749 185.407C76.581 185.285 76.345 185.323 76.2237 185.491C75.1904 186.921 74.221 187.356 73.5144 187.355C73.053 187.355 72.6757 187.176 72.405 186.912C72.1357 186.648 71.9864 186.302 71.9877 185.988C71.9877 184.468 71.9877 181.696 71.9877 181.692C71.9877 181.485 71.8184 181.316 71.6104 181.316C71.4024 181.316 71.2344 181.485 71.2344 181.692Z" fill="#242327"/>
<path d="M77.9288 180.164C76.9928 181.507 75.3915 182.727 73.5248 183.403C72.5621 183.752 70.3568 183.752 69.3995 183.406C67.5355 182.734 65.9341 181.518 64.9941 180.178C64.4301 179.375 63.1568 175.52 71.4541 175.52C79.7581 175.52 78.4875 179.366 77.9288 180.164Z" fill="#3A3941"/>
<path d="M69.2147 183.336C69.636 182.985 69.84 182.531 69.84 182.035C69.84 180.908 68.832 179.995 66.5133 179.995C65.9187 179.995 65.416 180.056 64.9854 180.164C65.8934 181.464 67.4253 182.651 69.2147 183.336Z" fill="#242327"/>
<path d="M77.9292 180.164C77.5026 180.056 76.9933 179.995 76.4013 179.995C74.0813 179.995 73.0732 180.908 73.0732 182.035C73.0732 182.53 73.2786 182.985 73.6959 183.336C75.4866 182.651 77.0226 181.464 77.9292 180.164Z" fill="#242327"/>
<path d="M75.1067 176.68C75.1067 176.68 73.3453 175.294 68.996 176.345C65.1813 177.269 65.1693 179.323 65.4893 179.34C65.808 179.36 68.1347 178.808 69.6654 180.132C71.2014 181.456 66.78 177.609 75.1067 176.68Z" fill="#4A4954"/>
<path d="M65.8062 183.336C65.8062 184.71 64.6435 185.82 63.2115 185.82C61.7795 185.82 60.6182 184.71 60.6182 183.336C60.6182 181.967 61.7795 180.855 63.2115 180.855C64.6435 180.855 65.8062 181.967 65.8062 183.336Z" fill="#F1C6AB"/>
<path d="M82.1225 183.336C82.1225 184.71 80.9638 185.82 79.5291 185.82C78.0985 185.82 76.9385 184.71 76.9385 183.336C76.9385 181.967 78.0985 180.855 79.5291 180.855C80.9638 180.855 82.1225 181.967 82.1225 183.336Z" fill="#F1C6AB"/>
</svg>
