<svg width="151" height="136" viewBox="0 0 151 136" fill="none" xmlns="http://www.w3.org/2000/svg">
<path d="M142.719 43.983C134.756 27.6323 127.528 24.327 112.688 17.475C80.82 2.76833 31.9813 9.08036 12.9146 47.9457C3.93462 66.2417 3.93864 82.363 19.5613 102.548C49.0413 140.624 105.924 149.459 134.743 107.228C154.571 78.1737 152.713 64.503 142.719 43.983Z" fill="#AC8B6D"/>
<path d="M13.632 49.199C15.3053 49.2683 16.9667 50.1923 18.6387 49.7123C19.0533 49.5923 19.028 49.0283 18.6387 48.8963C17.068 48.371 15.2773 48.3297 13.632 48.3257C13.0666 48.3243 13.072 49.175 13.632 49.199Z" fill="#8F745A"/>
<path d="M17.4597 44.7056C18.9504 45.1522 20.513 46.2016 22.1036 46.0963C22.4943 46.0696 22.6437 45.5776 22.3023 45.359C20.9957 44.523 19.2103 44.1309 17.705 43.8123C17.1237 43.6883 16.885 44.5336 17.4597 44.7056Z" fill="#8F745A"/>
<path d="M20.4574 38.8269C21.64 39.0629 22.7787 39.7083 23.9827 39.7629C24.32 39.7776 24.4467 39.3589 24.2427 39.1349C23.3907 38.2043 21.932 37.9736 20.7387 37.8016C20.0787 37.7083 19.7734 38.6896 20.4574 38.8269Z" fill="#8F745A"/>
<path d="M25.0812 41.2069C25.6798 41.3403 26.2625 41.519 26.8279 41.7616C27.3825 41.999 27.7879 42.2536 28.4052 42.251C28.8012 42.2496 28.9265 41.8043 28.7038 41.531C27.9505 40.603 26.3319 40.4056 25.2079 40.2696C24.6692 40.2056 24.5612 41.0923 25.0812 41.2069Z" fill="#8F745A"/>
<path d="M26.6134 33.851C27.208 34.1364 27.7853 34.4483 28.3533 34.779C28.8653 35.0777 29.4413 35.4163 30.0427 35.2723C30.2947 35.2136 30.464 34.9177 30.3854 34.6697C30.1894 34.0604 29.62 33.8056 29.0747 33.547C28.4307 33.243 27.7334 33.019 27.0547 32.8056C26.4414 32.6123 26.0254 33.5697 26.6134 33.851Z" fill="#8F745A"/>
<path d="M36.1535 35.5136C36.5201 35.8963 36.7748 36.3697 37.1588 36.7337C37.7908 37.335 38.6201 36.583 38.2988 35.8537C38.0668 35.3297 37.6215 34.851 37.2135 34.4537C36.5175 33.7803 35.4841 34.8163 36.1535 35.5136Z" fill="#8F745A"/>
<path d="M34.3452 28.9483C34.8426 29.4963 35.4439 30.5097 36.2186 30.6257C36.4813 30.6657 36.6892 30.4803 36.6359 30.2083C36.4866 29.4336 35.4599 28.8843 34.8853 28.4097C34.5093 28.1003 34.0092 28.579 34.3452 28.9483Z" fill="#8F745A"/>
<path d="M40.7651 23.8843C41.3358 24.3803 41.7358 24.9696 42.0825 25.6363C42.4238 26.2896 42.7865 26.8429 43.4798 27.1189C43.7878 27.2416 44.1798 26.9883 44.2505 26.6816C44.6091 25.111 42.7625 23.5576 41.5078 22.9216C40.9158 22.6216 40.2131 23.407 40.7651 23.8843Z" fill="#8F745A"/>
<path d="M42.0934 30.8349C42.4734 31.3296 42.848 31.8283 43.204 32.3403C43.5254 32.8016 43.8147 33.1896 44.4014 33.2403C44.5974 33.2576 44.7494 33.0976 44.8094 32.931C45.0174 32.3483 44.656 31.8616 44.3227 31.407C43.9654 30.919 43.5854 30.4469 43.2067 29.9776C42.7027 29.3536 41.6054 30.2003 42.0934 30.8349Z" fill="#8F745A"/>
<path d="M48.5986 19.9363C48.9359 20.7883 49.5799 22.0723 50.4986 22.3896C50.7292 22.471 51.0212 22.2576 50.9986 22.0096C50.9159 21.035 49.8332 20.1003 49.0786 19.5656C48.8532 19.4069 48.4946 19.6723 48.5986 19.9363Z" fill="#8F745A"/>
<path d="M50.2625 27.2364C50.3759 28.3271 50.8278 30.5457 52.1798 30.7311C52.4838 30.7724 52.7225 30.6151 52.7492 30.2977C52.7958 29.7311 52.4238 29.2283 52.1132 28.783C51.7558 28.2683 51.4878 27.695 51.3065 27.0964C51.1385 26.5444 50.1972 26.6191 50.2625 27.2364Z" fill="#8F745A"/>
<path d="M57.7531 23.8151C57.7557 24.8871 57.5638 26.7924 58.7211 27.339C58.8798 27.4137 59.0797 27.3884 59.1691 27.2217C59.4784 26.647 59.3371 26.2337 59.1598 25.6351C58.9651 24.9844 58.733 24.3524 58.501 23.7137C58.361 23.3204 57.7517 23.3644 57.7531 23.8151Z" fill="#8F745A"/>
<path d="M63.1921 17.5644C63.4641 18.7004 63.6787 19.7831 64.1787 20.8457C64.2747 21.0511 64.5694 20.9004 64.5268 20.6991C64.2854 19.5564 64.0627 18.4724 63.5907 17.3978C63.4867 17.1631 63.1361 17.3338 63.1921 17.5644Z" fill="#8F745A"/>
<path d="M64.0997 23.815C64.1917 24.959 64.0544 26.8363 65.0798 27.5896C65.3024 27.7523 65.6077 27.575 65.6811 27.3456C65.8531 26.791 65.6504 26.2496 65.4984 25.7136C65.3117 25.0443 65.1331 24.3723 64.9557 23.699C64.8317 23.2323 64.0584 23.3163 64.0997 23.815Z" fill="#8F745A"/>
<path d="M56.8118 17.507C56.8718 18.203 56.9865 18.8843 57.1585 19.5603C57.3225 20.2083 57.6478 21.1217 58.3745 21.263C58.5918 21.3043 58.8691 21.243 58.9731 21.0177C59.2598 20.399 58.9705 19.9724 58.7278 19.3844C58.4492 18.7057 58.1398 18.0643 57.9371 17.355C57.7625 16.7523 56.7558 16.847 56.8118 17.507Z" fill="#8F745A"/>
<path d="M69.9467 15.1644C70.0587 16.3817 70.0293 17.671 70.6146 18.7723C70.7586 19.0417 71.228 18.999 71.288 18.6844C71.5227 17.4444 71.0746 16.2483 70.776 15.0523C70.664 14.599 69.9027 14.6844 69.9467 15.1644Z" fill="#8F745A"/>
<path d="M78.2773 15.3457C78.3453 16.3497 78.0587 17.4843 78.5053 18.419C78.624 18.667 79.0467 18.6683 79.164 18.419C79.6267 17.447 79.3146 16.223 78.9986 15.2483C78.8773 14.8683 78.248 14.915 78.2773 15.3457Z" fill="#8F745A"/>
<path d="M86.7415 16.427C86.7068 17.0723 86.5442 17.7857 86.8388 18.3844C86.9415 18.5884 87.2788 18.5884 87.3815 18.3844C87.6762 17.7857 87.5135 17.0723 87.4788 16.427C87.4522 15.9523 86.7682 15.9523 86.7415 16.427Z" fill="#8F745A"/>
<path d="M98.0851 18.319C97.8184 19.5017 97.3091 20.6163 97.2037 21.8297C97.1797 22.103 97.5558 22.1603 97.6864 21.9603C98.3491 20.9323 98.5491 19.6897 98.7158 18.4924C98.7718 18.0884 98.1798 17.8977 98.0851 18.319Z" fill="#8F745A"/>
<path d="M108.494 18.867C107.262 20.1377 106.788 21.907 106.689 23.631C106.67 23.9337 107.116 24.1443 107.317 23.891C108.397 22.5243 108.668 20.867 109.108 19.2243C109.204 18.8736 108.754 18.6004 108.494 18.867Z" fill="#8F745A"/>
<path d="M117.429 28.0096C118.272 26.723 119.515 25.5483 120.036 24.095C120.144 23.791 119.741 23.4683 119.475 23.6629C118.209 24.5856 117.385 26.1963 116.629 27.5416C116.335 28.0656 117.104 28.5056 117.429 28.0096Z" fill="#8F745A"/>
<path d="M125.839 31.955C126.397 31.6083 126.972 31.2937 127.561 31.0017C128.223 30.6763 128.869 30.4324 129.389 29.895C129.664 29.6124 129.465 29.135 129.072 29.1284C127.695 29.1057 126.285 30.0777 125.164 30.8017C124.445 31.2683 125.103 32.411 125.839 31.955Z" fill="#8F745A"/>
<path d="M131.206 38.5883C132.602 38.5163 133.945 38.3803 135.161 37.6497C135.437 37.483 135.396 37.0337 135.069 36.9523C133.65 36.6003 132.426 37.1817 131.061 37.5177C130.468 37.663 130.588 38.6203 131.206 38.5883Z" fill="#8F745A"/>
<path d="M28.78 46.623C30.7146 46.7177 32.5119 48.111 34.4279 47.8857C34.9519 47.8243 35.3466 47.2017 34.8893 46.7697C33.3079 45.2764 30.6719 45.0083 28.6066 45.339C27.8453 45.4603 28.08 46.5897 28.78 46.623Z" fill="#8F745A"/>
<path d="M35.9494 41.8976C37.1107 42.6603 38.428 43.9856 39.8827 43.9656C40.344 43.9603 40.5533 43.4122 40.248 43.0829C39.748 42.5416 39.1187 42.2616 38.4973 41.8749C37.8773 41.4882 37.2813 41.0643 36.6653 40.6736C35.888 40.1829 35.192 41.399 35.9494 41.8976Z" fill="#8F745A"/>
<path d="M47.0946 38.0909C47.5266 38.9843 48.1292 39.9936 49.0559 40.423C49.4346 40.599 49.8159 40.3163 49.7359 39.9003C49.5639 39.0043 48.8999 38.3123 48.5626 37.471C48.1306 36.3896 46.5866 37.0403 47.0946 38.0909Z" fill="#8F745A"/>
<path d="M55.9118 34.1496C56.4665 35.551 56.9638 37.595 58.2398 38.515C58.5145 38.7137 58.9772 38.515 59.0412 38.1883C59.3319 36.687 58.2612 35.0043 57.7239 33.6496C57.2839 32.5363 55.4652 33.0203 55.9118 34.1496Z" fill="#8F745A"/>
<path d="M66.1868 32.2671C66.3668 32.9564 66.5521 33.6471 66.7201 34.3404C66.8921 35.0511 66.9441 35.8404 67.3788 36.4497C67.5881 36.7444 68.0015 36.6991 68.1255 36.3511C68.3655 35.6737 68.1722 34.9711 68.0162 34.2911C67.8335 33.4991 67.6081 32.7164 67.3948 31.9338C67.1841 31.1538 65.9828 31.4844 66.1868 32.2671Z" fill="#8F745A"/>
<path d="M72.8957 23.0923C72.9904 23.9443 73.1503 24.7829 73.313 25.6243C73.4717 26.4403 73.5183 27.2629 73.913 28.0096C74.0663 28.3003 74.5663 28.3243 74.713 28.0096C75.437 26.4576 74.4517 24.5003 74.2077 22.9149C74.093 22.1736 72.8157 22.3456 72.8957 23.0923Z" fill="#8F745A"/>
<path d="M82.1196 26.1537C82.1196 26.7244 82.1196 27.2964 82.1196 27.8671C82.1196 28.4578 82.2743 29.0564 82.3743 29.639C82.4103 29.8617 82.7823 29.8617 82.8196 29.639C82.9023 29.151 83.0663 28.6124 83.0716 28.1177C83.077 27.4631 83.0729 26.8084 83.0729 26.1537C83.0729 25.5391 82.1196 25.5391 82.1196 26.1537Z" fill="#8F745A"/>
<path d="M93.9028 27.955C93.7415 29.3243 93.8028 30.5576 93.9628 31.919C94.0015 32.2563 94.4281 32.3243 94.5521 31.9977C94.7961 31.3497 95.0054 30.739 95.1201 30.0537C95.2254 29.4257 95.2468 28.7816 95.3481 28.151C95.5174 27.0936 94.0281 26.8936 93.9028 27.955Z" fill="#8F745A"/>
<path d="M81.3627 22.1629C80.9641 23.1856 80.5401 24.4416 80.9747 25.5203C81.0947 25.8176 81.4587 25.8176 81.5787 25.5203C81.9974 24.487 81.6294 23.2656 81.5774 22.1923C81.5707 22.0643 81.4067 22.0496 81.3627 22.1629Z" fill="#8F745A"/>
<path d="M88.4411 22.1617C88.7705 24.0244 87.8505 26.3857 88.8278 28.0924C89.0611 28.4977 89.6771 28.499 89.9105 28.0924C90.9491 26.2764 89.8758 23.7337 89.5451 21.8577C89.4158 21.1323 88.3145 21.4404 88.4411 22.1617Z" fill="#8F745A"/>
<path d="M74.7731 34.267C75.6211 36.4484 75.0679 39.255 76.4932 41.1937C76.7292 41.5163 77.3825 41.5737 77.4625 41.067C77.8425 38.6897 77.0252 36.067 76.1132 33.8963C75.7745 33.091 74.4438 33.4217 74.7731 34.267Z" fill="#8F745A"/>
<path d="M98.3734 35.3017C97.6734 36.1964 97.3334 37.0964 97.2734 38.2257C97.26 38.4497 97.5827 38.4737 97.6467 38.2764C97.9401 37.3804 98.304 36.4457 98.8653 35.6817C99.0747 35.395 98.5907 35.0217 98.3734 35.3017Z" fill="#8F745A"/>
<path d="M89.8223 35.0791C89.5343 36.5377 88.921 38.171 89.0543 39.6657C89.0837 39.9764 89.4596 40.0964 89.6396 39.8244C90.489 38.5364 90.3437 36.6444 90.4383 35.1617C90.4597 34.8111 89.889 34.7324 89.8223 35.0791Z" fill="#8F745A"/>
<path d="M103.533 23.815C103.385 25.683 102.327 27.3283 102.265 29.215C102.249 29.7243 102.872 29.7816 103.128 29.4496C104.425 27.7696 104.961 25.7697 104.549 23.6763C104.429 23.0697 103.575 23.267 103.533 23.815Z" fill="#8F745A"/>
<path d="M111.256 30.111C110.052 32.259 108.764 34.203 107.912 36.5257C107.792 36.851 108.26 36.991 108.436 36.7457C109.895 34.7137 111.108 32.7777 111.929 30.395C112.065 29.9964 111.457 29.7536 111.256 30.111Z" fill="#8F745A"/>
<path d="M117.548 36.463C116.563 37.7683 115.173 38.8257 114.429 40.295C114.343 40.467 114.569 40.6683 114.708 40.5096C115.788 39.275 116.971 38.091 117.976 36.7936C118.219 36.4816 117.785 36.1496 117.548 36.463Z" fill="#8F745A"/>
<path d="M125.019 39.015C124.243 39.6457 123.447 40.2483 122.64 40.839C121.881 41.3963 121.045 42.019 120.604 42.8683C120.435 43.1923 120.712 43.627 121.096 43.5083C122.909 42.9443 124.373 40.9563 125.597 39.5937C125.955 39.195 125.424 38.687 125.019 39.015Z" fill="#8F745A"/>
<path d="M119.148 33.2136C118.806 33.5416 118.606 33.923 118.473 34.3737C118.401 34.619 118.728 34.815 118.905 34.6243C119.177 34.335 119.517 34.143 119.804 33.8697C120.234 33.455 119.58 32.8003 119.148 33.2136Z" fill="#8F745A"/>
<path d="M106.647 41.607C105.753 42.7177 104.096 43.6443 103.785 45.1243C103.72 45.443 103.999 45.8217 104.356 45.695C105.881 45.1524 106.539 43.339 107.139 41.987C107.271 41.6897 106.887 41.307 106.647 41.607Z" fill="#8F745A"/>
<path d="M41.8226 48.7163C43.444 49.5536 45.1546 50.871 47.0319 50.967C47.3533 50.983 47.444 50.539 47.1893 50.3816C45.6746 49.455 43.776 48.5616 42.0213 48.243C41.7493 48.1936 41.5453 48.5736 41.8226 48.7163Z" fill="#8F745A"/>
<path d="M47.8371 45.939C48.5944 46.575 49.3731 47.155 50.0838 47.847C50.7864 48.5337 51.4451 49.051 52.3385 49.471C52.6451 49.6137 52.9371 49.2617 52.7025 48.999C51.4518 47.6084 50.1371 45.7804 48.2878 45.1644C47.8598 45.0231 47.4811 45.6403 47.8371 45.939Z" fill="#8F745A"/>
<path d="M55.8397 44.0497C56.3891 45.6404 57.1437 47.0684 58.1371 48.4217C58.2731 48.6044 58.6238 48.503 58.5358 48.2524C57.9718 46.675 56.9797 45.3763 56.265 43.8723C56.1517 43.635 55.7557 43.8044 55.8397 44.0497Z" fill="#8F745A"/>
<path d="M63.0998 41.7284C63.6078 43.471 63.9598 45.707 65.0398 47.1937C65.2358 47.463 65.6105 47.2963 65.5625 46.9737C65.4199 46.0337 64.9572 45.1403 64.6305 44.2497C64.3038 43.3603 64.0038 42.4604 63.7038 41.5617C63.5758 41.1817 62.9865 41.3377 63.0998 41.7284Z" fill="#8F745A"/>
<path d="M68.4 41.771C68.5747 42.7484 68.7467 43.7243 68.8961 44.7057C69.0307 45.583 69.0707 46.439 69.4587 47.2484C69.608 47.5564 70.108 47.4737 70.1814 47.155C70.588 45.387 69.7307 43.2324 69.32 41.519C69.1747 40.9137 68.2934 41.1764 68.4 41.771Z" fill="#8F745A"/>
<path d="M79.5667 42.3697C79.5147 43.7084 79.268 45.075 79.5493 46.391C79.592 46.587 79.8813 46.619 79.9733 46.447C80.636 45.2003 80.412 43.739 80.3587 42.3697C80.3373 41.8604 79.588 41.8604 79.5667 42.3697Z" fill="#8F745A"/>
<path d="M81.0868 34.2604C81.0615 35.315 80.8455 36.5644 81.2055 37.5764C81.2975 37.8351 81.6388 37.8351 81.7308 37.5764C82.0908 36.5644 81.8748 35.315 81.8495 34.2604C81.8375 33.7684 81.0988 33.7684 81.0868 34.2604Z" fill="#8F745A"/>
<path d="M86.248 44.3951C86.08 45.3404 85.9227 46.2857 85.7894 47.235C85.6694 48.087 85.5534 49.0084 86.032 49.7657C86.1894 50.0137 86.5321 50.007 86.6907 49.7657C87.1401 49.0804 87.1281 48.2137 87.1334 47.4177C87.1401 46.4537 87.188 45.491 87.2374 44.5297C87.2667 43.967 86.3467 43.8324 86.248 44.3951Z" fill="#8F745A"/>
<path d="M93.1561 45.6923C92.9467 46.6803 92.6014 47.6736 92.4881 48.6723C92.4521 48.9736 92.8548 48.999 92.9961 48.8096C93.5921 48.0043 93.6721 46.8483 93.8641 45.887C93.9574 45.4257 93.2534 45.227 93.1561 45.6923Z" fill="#8F745A"/>
<path d="M97.2852 49.831C96.9106 50.4296 96.5639 51.0509 96.2412 51.6789L96.4118 51.8109C96.8772 51.2616 97.2198 50.6216 97.6398 50.0376C97.7905 49.8243 97.4279 49.6056 97.2852 49.831Z" fill="#8F745A"/>
<path d="M67.6719 55.8417C68.1452 56.6897 68.4985 57.5817 68.8292 58.4923C69.1132 59.2817 69.3812 60.1563 69.9665 60.7737C70.1358 60.9523 70.5038 60.827 70.4785 60.5617C70.3145 58.8617 69.1265 56.9257 68.1665 55.5524C67.9572 55.255 67.4905 55.515 67.6719 55.8417Z" fill="#8F745A"/>
<path d="M72.9412 52.0963C73.1679 54.247 73.7198 56.3203 74.5398 58.315C74.6558 58.599 75.1559 58.703 75.2212 58.315C75.6199 56.027 74.3985 54.1216 73.7972 51.9803C73.6679 51.5203 72.8865 51.595 72.9412 52.0963Z" fill="#8F745A"/>
<path d="M81.1214 56.3977C80.7081 58.179 80.3507 59.963 80.9081 61.7443C81.0241 62.111 81.5254 62.103 81.6454 61.7443C82.176 60.135 82.2134 58.4497 82.5667 56.7963C82.7694 55.8563 81.3414 55.4537 81.1214 56.3977Z" fill="#8F745A"/>
<path d="M73.024 68.3349C73.2547 68.6989 73.4466 69.0936 73.7746 69.3763C73.912 69.4923 74.1933 69.4323 74.1706 69.2123C74.1279 68.7843 73.9373 68.4163 73.772 68.0203C73.5346 67.4576 72.7173 67.8509 73.024 68.3349Z" fill="#8F745A"/>
<path d="M75.9799 64.279C76.1692 65.3004 76.2719 66.4244 76.7159 67.367C76.8425 67.635 77.2025 67.471 77.2225 67.2284C77.3172 66.187 76.9638 65.083 76.7945 64.055C76.7065 63.5217 75.8812 63.7444 75.9799 64.279Z" fill="#8F745A"/>
<path d="M76.6236 72.271C76.5823 73.1616 76.549 74.051 76.569 74.9416C76.5863 75.6483 76.6103 76.551 77.0449 77.1243C77.2009 77.3296 77.5729 77.351 77.6423 77.047C77.7996 76.3523 77.5609 75.643 77.4729 74.9416C77.3583 74.0563 77.3196 73.163 77.277 72.271C77.2583 71.851 76.6436 71.8496 76.6236 72.271Z" fill="#8F745A"/>
<path d="M81.9572 66.4364C81.2039 68.3831 80.8638 70.3657 81.0318 72.4497C81.0532 72.7177 81.4359 72.7937 81.5119 72.5151C82.0572 70.5671 82.0652 68.5497 82.4839 66.5817C82.5559 66.2324 82.0826 66.1111 81.9572 66.4364Z" fill="#8F745A"/>
<path d="M87.6104 60.0043C86.8784 61.8563 85.9651 63.9736 85.7771 65.9683C85.7597 66.1696 86.0704 66.2483 86.1584 66.071C87.049 64.279 87.3864 61.9963 87.7411 60.0416L87.6104 60.0043Z" fill="#8F745A"/>
<path d="M93.0265 54.5563C92.0931 56.1857 91.0357 57.9403 90.8317 59.8403C90.8077 60.0777 91.1571 60.147 91.2651 59.9576C92.1891 58.3243 92.6198 56.411 93.2504 54.651C93.2984 54.5177 93.0945 54.4363 93.0265 54.5563Z" fill="#8F745A"/>
<path d="M86.8814 53.239C86.5428 54.9603 86.2254 56.8297 86.3428 58.5804C86.3561 58.767 86.6281 58.8804 86.7228 58.683C87.5014 57.0884 87.3841 55.195 87.7215 53.471C87.8308 52.9217 86.9894 52.687 86.8814 53.239Z" fill="#8F745A"/>
<path d="M78.5397 49.7229C78.2157 51.3616 77.6371 53.6656 78.2904 55.2562C78.4331 55.6029 78.857 55.6029 78.9984 55.2562C79.653 53.6656 79.0744 51.3616 78.7504 49.7229H78.5397Z" fill="#8F745A"/>
<path d="M62.7828 51.1937C62.8228 52.7163 63.4401 54.6257 64.5561 55.6817C64.7388 55.8537 64.9761 55.6763 64.9441 55.4563C64.8295 54.6403 64.5295 54.0097 64.1948 53.2644C63.8695 52.539 63.6188 51.7684 63.2388 51.0697C63.1241 50.8564 62.7761 50.951 62.7828 51.1937Z" fill="#8F745A"/>
<path d="M56.2906 53.6896C56.9519 54.4083 57.5519 55.1003 58.2799 55.7576C58.8919 56.3096 59.6426 57.3616 60.4746 57.5203C60.7266 57.5696 60.9705 57.4123 60.9759 57.1403C60.9892 56.2656 60.0412 55.6203 59.4065 55.1483C58.5199 54.487 57.4505 54.067 56.5985 53.3816C56.3839 53.2083 56.0959 53.479 56.2906 53.6896Z" fill="#8F745A"/>
<path d="M62.665 61.4563C63.437 62.3043 63.789 63.4684 64.7116 64.1857C64.9343 64.359 65.2517 64.2057 65.189 63.9084C64.9263 62.663 64.041 61.6937 62.9624 61.0724C62.7157 60.9297 62.481 61.2537 62.665 61.4563Z" fill="#8F745A"/>
<path d="M67.9585 63.627C68.0878 64.7696 68.4705 66.3163 69.3918 67.0896C69.5785 67.2456 69.9545 67.167 69.9278 66.8683C69.8145 65.6763 68.8785 64.5217 68.2385 63.551C68.1638 63.439 67.9411 63.4683 67.9585 63.627Z" fill="#8F745A"/>
<path d="M105.525 47.379C104.703 48.431 103.455 49.3057 102.869 50.515C102.759 50.7443 102.996 51.0483 103.241 50.8883C104.372 50.1577 105.275 48.8616 105.997 47.7416C106.179 47.459 105.736 47.1083 105.525 47.379Z" fill="#8F745A"/>
<path d="M98.5681 41.3017C97.7987 42.7164 96.5535 44.3297 96.4241 45.9697C96.3868 46.4257 96.9494 46.5457 97.2374 46.307C97.8774 45.7764 98.2068 45.0457 98.5721 44.3163C98.9628 43.5403 99.3534 42.7657 99.7454 41.9897C100.139 41.2111 98.9907 40.5257 98.5681 41.3017Z" fill="#8F745A"/>
<path d="M112.201 41.6856C111.2 42.9256 110.146 44.1429 109.7 45.6883C109.6 46.0336 109.97 46.2549 110.26 46.1189C111.757 45.4136 112.428 43.8603 113.314 42.5443C113.761 41.8816 112.708 41.0589 112.201 41.6856Z" fill="#8F745A"/>
<path d="M112.664 21.4337C112.364 22.2604 112 23.111 111.932 23.9924C111.903 24.371 112.368 24.4696 112.607 24.2723C113.296 23.7056 113.773 22.8563 114.159 22.063C114.679 20.9937 113.068 20.3204 112.664 21.4337Z" fill="#8F745A"/>
<path d="M17.1854 95.8217C18.7334 95.8177 20.4254 95.763 21.896 95.2524C22.2734 95.1204 22.3 94.5803 21.896 94.4603C20.32 93.9923 18.7627 94.9057 17.1854 94.975C16.6427 94.9977 16.6374 95.823 17.1854 95.8217Z" fill="#8F745A"/>
<path d="M21.0254 100.336C22.4414 100.014 24.1348 99.6043 25.3508 98.791C25.6734 98.575 25.5441 98.1017 25.1588 98.0777C23.6534 97.983 22.1855 99.0257 20.7855 99.4697C20.2335 99.6457 20.4588 100.466 21.0254 100.336Z" fill="#8F745A"/>
<path d="M23.8772 106.343C25.0038 106.171 26.4025 105.926 27.1811 105.016C27.3678 104.799 27.2652 104.386 26.9292 104.407C25.7865 104.476 24.7238 105.112 23.6038 105.348C22.9411 105.488 23.2358 106.44 23.8772 106.343Z" fill="#8F745A"/>
<path d="M28.0814 103.878C29.2174 103.727 30.7161 103.499 31.4454 102.542C31.6401 102.286 31.3747 101.923 31.0921 101.924C30.5574 101.927 30.1894 102.124 29.7201 102.356C29.1587 102.632 28.5654 102.824 27.9574 102.968C27.4588 103.087 27.5587 103.946 28.0814 103.878Z" fill="#8F745A"/>
<path d="M29.8212 111.335C30.7639 111.02 32.6705 110.575 32.9652 109.486C33.0318 109.244 32.8865 108.958 32.6332 108.9C32.0665 108.771 31.6452 109.078 31.1545 109.324C30.5532 109.627 29.9972 110.018 29.3932 110.322C28.8305 110.603 29.2252 111.535 29.8212 111.335Z" fill="#8F745A"/>
<path d="M39.3998 109.694C39.8451 109.232 40.2491 108.719 40.4958 108.127C40.5825 107.919 40.4864 107.582 40.3144 107.44L40.1704 107.33C39.9024 107.167 39.5358 107.218 39.3171 107.44C38.9531 107.812 38.7198 108.278 38.3718 108.664C37.7491 109.359 38.7438 110.372 39.3998 109.694Z" fill="#8F745A"/>
<path d="M37.1975 115.746C37.7388 115.268 38.7228 114.7 38.8508 113.95C38.8948 113.69 38.7055 113.495 38.4442 113.543C37.6909 113.679 37.1428 114.671 36.6735 115.222C36.3655 115.586 36.8362 116.063 37.1975 115.746Z" fill="#8F745A"/>
<path d="M43.4371 121.22C44.6371 120.566 46.4038 118.996 46.0278 117.484C45.9252 117.067 45.4811 116.97 45.1345 117.12C44.4985 117.396 44.2225 118.02 43.9118 118.614C43.5838 119.242 43.2425 119.804 42.7171 120.287C42.2051 120.758 42.8585 121.538 43.4371 121.22Z" fill="#8F745A"/>
<path d="M45.1476 114.028C45.6716 113.335 46.8997 112.18 46.5463 111.232C46.4583 111.002 46.2783 110.914 46.041 110.947C45.5396 111.015 45.2623 111.43 45.005 111.83C44.6756 112.346 44.317 112.839 43.9597 113.335C43.437 114.062 44.6236 114.72 45.1476 114.028Z" fill="#8F745A"/>
<path d="M50.5626 124.586C51.2786 124.043 52.3172 123.102 52.3799 122.151C52.3932 121.916 52.1186 121.695 51.8932 121.78C50.9999 122.122 50.4052 123.375 50.0972 124.226C50.0065 124.476 50.3426 124.752 50.5626 124.586Z" fill="#8F745A"/>
<path d="M52.6718 117.06C52.8425 116.454 53.1025 115.902 53.4305 115.364C53.7105 114.906 54.0758 114.427 54.0252 113.862C53.9972 113.562 53.7691 113.387 53.4731 113.44C52.1478 113.676 51.7559 115.834 51.6599 116.924C51.6079 117.518 52.5185 117.606 52.6718 117.06Z" fill="#8F745A"/>
<path d="M59.4398 120.444C59.6585 119.804 59.8865 119.174 60.0625 118.52C60.2238 117.916 60.3651 117.522 60.0638 116.943C59.9825 116.784 59.7771 116.754 59.6305 116.83C58.5038 117.418 58.7052 119.267 58.7132 120.346C58.7158 120.776 59.3065 120.832 59.4398 120.444Z" fill="#8F745A"/>
<path d="M64.2441 126.71C64.6828 125.648 64.8854 124.579 65.1067 123.459C65.1441 123.266 64.8587 123.114 64.768 123.316C64.292 124.382 64.088 125.463 63.8347 126.598C63.7747 126.871 64.1414 126.955 64.2441 126.71Z" fill="#8F745A"/>
<path d="M65.5106 120.458C65.664 119.862 65.8226 119.268 65.972 118.671C66.124 118.07 66.3866 117.438 66.1973 116.819C66.1026 116.51 65.7666 116.46 65.5346 116.644C65.0119 117.055 64.9519 117.751 64.8586 118.366C64.7599 119.02 64.7306 119.686 64.68 120.346C64.644 120.827 65.3946 120.914 65.5106 120.458Z" fill="#8F745A"/>
<path d="M58.909 126.8C59.085 126.16 59.3184 125.554 59.585 124.947C59.8504 124.342 60.1717 123.788 59.8824 123.15C59.785 122.938 59.5064 122.862 59.2997 122.912C58.613 123.08 58.437 123.772 58.2077 124.367C57.937 125.067 57.877 125.911 57.8197 126.654C57.7703 127.291 58.7477 127.391 58.909 126.8Z" fill="#8F745A"/>
<path d="M70.9971 129.103C71.2784 127.91 71.7051 126.711 71.4717 125.478C71.4157 125.176 70.9544 125.127 70.8197 125.392C70.2571 126.5 70.2944 127.778 70.1904 128.994C70.1518 129.459 70.8891 129.547 70.9971 129.103Z" fill="#8F745A"/>
<path d="M78.7357 128.91C79.0344 127.93 79.3344 126.722 78.8864 125.747C78.7757 125.504 78.3597 125.506 78.2491 125.747C77.8171 126.687 78.0931 127.811 78.0357 128.815C78.0117 129.228 78.6224 129.283 78.7357 128.91Z" fill="#8F745A"/>
<path d="M86.7198 127.734C86.7544 127.088 86.9131 126.382 86.6265 125.78C86.5318 125.583 86.1958 125.583 86.1011 125.78C85.8144 126.382 85.9731 127.088 86.0064 127.734C86.0318 128.194 86.6958 128.194 86.7198 127.734Z" fill="#8F745A"/>
<path d="M97.3103 125.752C97.149 124.534 96.9769 123.266 96.3223 122.204C96.1983 122.003 95.8316 122.07 95.8529 122.33C95.9489 123.539 96.4316 124.656 96.6863 125.836C96.7623 126.182 97.357 126.108 97.3103 125.752Z" fill="#8F745A"/>
<path d="M107.079 124.936C106.688 123.34 106.455 121.696 105.448 120.348C105.255 120.088 104.767 120.139 104.783 120.528C104.859 122.238 105.308 123.987 106.483 125.283C106.732 125.558 107.161 125.268 107.079 124.936Z" fill="#8F745A"/>
<path d="M114.14 116.611C114.828 117.912 115.572 119.51 116.748 120.43C117.012 120.636 117.495 120.459 117.367 120.07C116.896 118.632 115.708 117.438 114.916 116.158C114.611 115.663 113.869 116.1 114.14 116.611Z" fill="#8F745A"/>
<path d="M122.175 113.34C123.228 114.06 124.547 115.019 125.865 115.022C126.26 115.023 126.425 114.552 126.173 114.276C125.747 113.81 125.227 113.559 124.664 113.28C124.031 112.968 123.421 112.608 122.829 112.22C122.124 111.76 121.493 112.874 122.175 113.34Z" fill="#8F745A"/>
<path d="M127.736 106.627C129.025 106.958 130.173 107.536 131.52 107.195C131.84 107.114 131.872 106.684 131.608 106.518C130.471 105.807 129.197 105.663 127.877 105.588C127.275 105.554 127.165 106.479 127.736 106.627Z" fill="#8F745A"/>
<path d="M31.2744 98.8004C33.2224 99.1257 35.753 98.8364 37.205 97.3778C37.629 96.9524 37.281 96.3537 36.757 96.2951C34.9424 96.0911 33.2757 97.4671 31.4437 97.5538C30.7637 97.5858 30.5384 98.6764 31.2744 98.8004Z" fill="#8F745A"/>
<path d="M38.88 103.467C39.4266 103.096 39.9586 102.706 40.5039 102.332C41.1106 101.916 41.764 101.623 42.252 101.067C42.532 100.747 42.356 100.208 41.896 100.21C40.5 100.212 39.2733 101.516 38.1839 102.279C37.4679 102.783 38.1386 103.967 38.88 103.467Z" fill="#8F745A"/>
<path d="M50.0904 106.686C50.4051 105.85 51.0384 105.136 51.1904 104.252C51.2584 103.86 50.8997 103.556 50.5304 103.744C49.6317 104.199 49.0717 105.195 48.6637 106.086C48.1917 107.115 49.6904 107.742 50.0904 106.686Z" fill="#8F745A"/>
<path d="M58.7201 110.502C59.2254 109.148 60.2468 107.459 59.9468 105.976C59.8588 105.544 59.3481 105.522 59.0628 105.743C57.9055 106.643 57.4548 108.696 56.9628 110.018C56.5508 111.122 58.3148 111.595 58.7201 110.502Z" fill="#8F745A"/>
<path d="M67.816 112.219C68.0146 111.436 68.2199 110.654 68.4013 109.864C68.5546 109.19 68.7333 108.482 68.5013 107.81C68.3866 107.476 67.9746 107.426 67.7759 107.714C67.4079 108.254 67.34 108.907 67.2106 109.535C67.044 110.327 66.836 111.11 66.644 111.896C66.456 112.658 67.6226 112.98 67.816 112.219Z" fill="#8F745A"/>
<path d="M74.2317 121.239C74.4651 119.652 75.3997 117.711 74.7011 116.158C74.5637 115.854 74.0691 115.875 73.9251 116.158C73.5451 116.906 73.4944 117.724 73.3531 118.542C73.2064 119.382 73.0478 120.216 72.9598 121.067C72.8851 121.791 74.1251 121.96 74.2317 121.239Z" fill="#8F745A"/>
<path d="M82.5734 118.004C82.5734 117.435 82.5734 116.864 82.5734 116.294C82.5734 115.704 82.4227 115.107 82.3281 114.526C82.2934 114.311 81.9294 114.311 81.8947 114.526C81.8147 115.014 81.6547 115.55 81.6507 116.044C81.6454 116.698 81.6494 117.351 81.6494 118.004C81.6494 118.602 82.5734 118.602 82.5734 118.004Z" fill="#8F745A"/>
<path d="M94.1384 116.016C94.0424 115.384 94.0251 114.74 93.9237 114.111C93.8144 113.428 93.6117 112.815 93.3771 112.164C93.2611 111.843 92.8437 111.918 92.8064 112.242C92.6464 113.6 92.5851 114.838 92.7357 116.207C92.8491 117.236 94.2931 117.044 94.1384 116.016Z" fill="#8F745A"/>
<path d="M81.1546 121.968C81.2159 120.896 81.5732 119.683 81.1665 118.646C81.0532 118.358 80.6932 118.356 80.5812 118.646C80.1612 119.72 80.5679 120.968 80.9466 121.996C80.9879 122.108 81.1479 122.091 81.1546 121.968Z" fill="#8F745A"/>
<path d="M88.6707 122.298C88.9841 120.411 90.0188 117.904 89.0134 116.078C88.7961 115.682 88.1814 115.683 87.9641 116.078C87.0148 117.8 87.9107 120.134 87.6014 122.003C87.4854 122.703 88.5534 123.003 88.6707 122.298Z" fill="#8F745A"/>
<path d="M76.0266 110.259C76.8893 108.076 77.6759 105.464 77.2919 103.099C77.2133 102.614 76.5746 102.652 76.3493 102.975C74.9786 104.939 75.5253 107.708 74.7266 109.899C74.4266 110.724 75.7133 111.051 76.0266 110.259Z" fill="#8F745A"/>
<path d="M97.4343 108.486C96.9023 107.711 96.5624 106.779 96.2824 105.886C96.2224 105.694 95.909 105.72 95.9197 105.936C95.973 107.016 96.2664 107.912 96.9077 108.792C97.1357 109.103 97.6583 108.812 97.4343 108.486Z" fill="#8F745A"/>
<path d="M89.5015 108.998C89.4175 107.514 89.5682 105.648 88.7522 104.34C88.5829 104.07 88.2135 104.2 88.1842 104.494C88.0428 105.987 88.6322 107.619 88.9042 109.079C88.9668 109.418 89.5201 109.338 89.5015 108.998Z" fill="#8F745A"/>
<path d="M102.788 120.479C103.191 118.404 102.693 116.418 101.453 114.715C101.208 114.378 100.606 114.46 100.616 114.942C100.653 116.823 101.662 118.484 101.801 120.346C101.841 120.88 102.673 121.068 102.788 120.479Z" fill="#8F745A"/>
<path d="M109.736 113.767C108.973 111.399 107.831 109.46 106.444 107.416C106.276 107.168 105.831 107.318 105.937 107.631C106.724 109.942 107.944 111.892 109.084 114.042C109.275 114.398 109.861 114.154 109.736 113.767Z" fill="#8F745A"/>
<path d="M115.467 107.424C114.508 106.114 113.383 104.903 112.347 103.655C112.216 103.494 111.999 103.698 112.077 103.862C112.768 105.312 114.085 106.394 115.011 107.69C115.208 107.966 115.668 107.698 115.467 107.424Z" fill="#8F745A"/>
<path d="M122.605 104.574C121.457 103.216 120.105 101.264 118.361 100.664C117.981 100.534 117.736 100.979 117.885 101.286C118.261 102.07 118.997 102.68 119.673 103.206C120.478 103.828 121.272 104.47 122.045 105.134C122.434 105.47 122.936 104.963 122.605 104.574Z" fill="#8F745A"/>
<path d="M117.148 110.303C116.883 110.028 116.556 109.83 116.301 109.544C116.129 109.35 115.82 109.554 115.883 109.787C116.001 110.231 116.192 110.606 116.512 110.938C116.916 111.356 117.552 110.719 117.148 110.303Z" fill="#8F745A"/>
<path d="M105.259 102.254C104.689 100.884 104.107 99.0763 102.604 98.4749C102.255 98.3349 101.996 98.7309 102.051 99.0283C102.315 100.462 103.872 101.395 104.703 102.488C104.891 102.735 105.403 102.6 105.259 102.254Z" fill="#8F745A"/>
<path d="M43.9133 95.9083C45.5773 95.5803 47.3626 94.675 48.7853 93.7697C49.0266 93.6163 48.9493 93.1843 48.6319 93.203C46.8413 93.3097 45.2466 94.6203 43.7199 95.4497C43.4573 95.5923 43.6453 95.9603 43.9133 95.9083Z" fill="#8F745A"/>
<path d="M49.8146 98.9844C51.5906 98.3377 52.8026 96.5377 53.976 95.1537C54.1893 94.9004 53.9266 94.5444 53.6226 94.6964C52.7746 95.123 52.1453 95.6404 51.4893 96.3244C50.8253 97.0177 50.0907 97.5977 49.3773 98.2324C49.0493 98.5257 49.392 99.1377 49.8146 98.9844Z" fill="#8F745A"/>
<path d="M57.3295 100.284C58.0015 98.783 58.9414 97.4737 59.4614 95.903C59.5414 95.663 59.2041 95.5524 59.0748 95.7404C58.1334 97.103 57.4281 98.5337 56.9188 100.111C56.8401 100.351 57.2228 100.519 57.3295 100.284Z" fill="#8F745A"/>
<path d="M64.3317 102.594C64.6171 101.695 64.9037 100.798 65.2064 99.9057C65.5077 99.0097 65.9518 98.1217 66.0824 97.183C66.1238 96.8763 65.7624 96.6977 65.5744 96.9683C64.5358 98.475 64.2251 100.687 63.7464 102.432C63.6424 102.812 64.2157 102.966 64.3317 102.594Z" fill="#8F745A"/>
<path d="M69.6277 102.635C70.0117 100.914 70.8317 98.771 70.433 97.007C70.3637 96.7003 69.8717 96.611 69.7317 96.9163C69.3597 97.7257 69.3144 98.5817 69.1957 99.4577C69.0624 100.436 68.8957 101.414 68.7343 102.39C68.6397 102.967 69.4957 103.226 69.6277 102.635Z" fill="#8F745A"/>
<path d="M80.0121 101.794C80.0654 100.423 80.2814 98.9764 79.6494 97.715C79.5628 97.5444 79.2774 97.583 79.2387 97.7697C78.9547 99.0857 79.1948 100.454 79.2468 101.794C79.2654 102.288 79.9947 102.288 80.0121 101.794Z" fill="#8F745A"/>
<path d="M81.4186 109.898C81.4426 108.842 81.6532 107.602 81.3039 106.587C81.2172 106.335 80.8812 106.335 80.7932 106.587C80.4439 107.602 80.6545 108.842 80.6785 109.898C80.6892 110.375 81.4079 110.375 81.4186 109.898Z" fill="#8F745A"/>
<path d="M86.4985 99.631C86.4518 98.6683 86.4145 97.7057 86.4012 96.7417C86.3905 95.9417 86.4105 95.095 85.9732 94.4003C85.8252 94.163 85.4812 94.1577 85.3345 94.4003C84.9025 95.111 84.9732 95.9403 85.0732 96.7417C85.2012 97.7523 85.3679 98.7577 85.5386 99.7617C85.6306 100.308 86.5252 100.176 86.4985 99.631Z" fill="#8F745A"/>
<path d="M92.7332 98.2736C92.5479 97.3149 92.4812 96.1709 91.9065 95.3536C91.7732 95.1616 91.3865 95.2016 91.4145 95.4882C91.5145 96.4842 91.8439 97.4802 92.0466 98.4642C92.1386 98.9162 92.8212 98.7229 92.7332 98.2736Z" fill="#8F745A"/>
<path d="M96.2743 94.1257C95.8796 93.5417 95.5597 92.9004 95.1183 92.3484L94.9517 92.4764C95.257 93.103 95.5769 93.7257 95.9343 94.3257C96.0636 94.547 96.4183 94.3364 96.2743 94.1257Z" fill="#8F745A"/>
<path d="M68.5307 88.6017C69.4467 87.219 70.5747 85.2804 70.712 83.5964C70.732 83.3444 70.38 83.2084 70.216 83.3897C69.7307 83.931 69.4694 84.667 69.244 85.351C68.908 86.367 68.5534 87.3724 68.052 88.3204C67.8827 88.6391 68.332 88.8977 68.5307 88.6017Z" fill="#8F745A"/>
<path d="M73.8386 92.1764C74.4119 90.0404 75.5692 88.1177 75.1786 85.8484C75.1159 85.4764 74.6266 85.5697 74.5172 85.8484C73.7252 87.8444 73.2186 89.923 73.0079 92.0644C72.9613 92.5484 73.7199 92.627 73.8386 92.1764Z" fill="#8F745A"/>
<path d="M82.1067 87.3697C81.7707 85.7137 81.7467 84.0297 81.2307 82.4164C81.1187 82.0657 80.6254 82.0591 80.5174 82.4164C79.9774 84.1951 80.3121 85.9737 80.7054 87.755C80.9067 88.6737 82.292 88.2817 82.1067 87.3697Z" fill="#8F745A"/>
<path d="M73.8144 76.1337C73.9678 75.7403 74.1531 75.3724 74.1838 74.9484C74.2011 74.7417 73.9344 74.667 73.8011 74.7897C73.4891 75.0777 73.3065 75.4657 73.0891 75.827C72.7985 76.311 73.5998 76.6817 73.8144 76.1337Z" fill="#8F745A"/>
<path d="M76.6611 80.103C76.8198 79.0737 77.1585 77.971 77.0585 76.9297C77.0371 76.6977 76.6838 76.5297 76.5665 76.7963C76.1451 77.7457 76.0505 78.8643 75.8691 79.8843C75.7771 80.4057 76.5798 80.6203 76.6611 80.103Z" fill="#8F745A"/>
<path d="M86.9587 84.1191C86.6281 82.1484 86.3054 79.9217 85.4734 78.0924C85.3934 77.915 85.0854 77.999 85.1054 78.1924C85.2961 80.1924 86.1307 82.283 86.8307 84.1564L86.9587 84.1191Z" fill="#8F745A"/>
<path d="M92.1466 89.511C91.5573 87.747 91.1533 85.8523 90.2759 84.2056C90.1759 84.015 89.8346 84.0937 89.8586 84.319C90.0426 86.2083 91.0427 87.9576 91.9293 89.603C91.9933 89.7203 92.1893 89.6403 92.1466 89.511Z" fill="#8F745A"/>
<path d="M86.9466 90.6897C86.6293 88.9617 86.7506 87.0857 86.0013 85.4777C85.9119 85.283 85.6453 85.399 85.6333 85.5777C85.5106 87.3244 85.8146 89.1897 86.1319 90.9137C86.2306 91.4497 87.0466 91.2217 86.9466 90.6897Z" fill="#8F745A"/>
<path d="M78.4945 94.4349C78.8105 92.7883 79.3732 90.5069 78.7359 88.9069C78.6025 88.5683 78.1825 88.5683 78.0492 88.9069C77.4119 90.5069 77.9746 92.7883 78.2906 94.4349H78.4945Z" fill="#8F745A"/>
<path d="M63.8933 93.0844C64.2426 92.3924 64.4986 91.6431 64.7853 90.9231C65.1013 90.1324 65.4012 89.4911 65.5066 88.6431C65.5319 88.4391 65.2493 88.3564 65.1226 88.4844C64.0413 89.5751 63.4919 91.4417 63.4493 92.9644C63.4439 93.1951 63.7853 93.2978 63.8933 93.0844Z" fill="#8F745A"/>
<path d="M57.6388 90.7711C58.4295 90.0964 59.4388 89.6137 60.2855 88.9951C60.8935 88.5524 61.8068 87.8484 61.7708 87.0217C61.7574 86.7644 61.5348 86.5991 61.2841 86.6524C60.5414 86.8124 59.9081 87.7191 59.3868 88.2391C59.0281 88.5951 58.6562 88.9351 58.2908 89.2831C57.9295 89.6297 57.6668 90.0951 57.3388 90.4724C57.1601 90.6791 57.4321 90.9484 57.6388 90.7711Z" fill="#8F745A"/>
<path d="M63.6282 83.0804C64.6695 82.4364 65.4935 81.4724 65.7282 80.247C65.7815 79.9684 65.4802 79.7924 65.2642 79.9764C64.3895 80.7177 64.0748 81.8537 63.3402 82.707C63.1708 82.903 63.3868 83.2284 63.6282 83.0804Z" fill="#8F745A"/>
<path d="M68.5961 80.6083C69.2055 79.6363 70.1041 78.471 70.1921 77.2936C70.2134 77.011 69.8534 76.9163 69.6721 77.079C68.7854 77.8776 68.4361 79.3976 68.3254 80.5363C68.3108 80.6883 68.5255 80.723 68.5961 80.6083Z" fill="#8F745A"/>
<path d="M145.114 80.147C143.93 79.9057 142.773 79.895 141.569 79.8817C141.363 79.8803 141.315 80.1977 141.52 80.2457C142.703 80.519 143.851 80.523 145.058 80.5616C145.294 80.5696 145.35 80.195 145.114 80.147Z" fill="#8F745A"/>
<path d="M138.386 80.0017C137.694 79.955 137.002 79.8977 136.31 79.8577C135.694 79.8217 135.113 79.715 134.542 79.9964C134.328 80.103 134.272 80.4631 134.462 80.6191C135.454 81.4337 137.217 80.9617 138.386 80.8484C138.926 80.7964 138.937 80.0404 138.386 80.0017Z" fill="#8F745A"/>
<path d="M146.349 73.3577C145.116 73.287 143.828 73.075 142.641 73.507C142.32 73.6243 142.283 74.0937 142.641 74.195C143.849 74.543 145.119 74.2817 146.349 74.1777C146.873 74.1323 146.883 73.387 146.349 73.3577Z" fill="#8F745A"/>
<path d="M144.83 66.091C143.821 65.975 142.538 65.8697 141.648 66.447C141.386 66.6163 141.412 67.0416 141.736 67.1243C142.738 67.3816 143.829 66.9177 144.83 66.8043C145.289 66.7523 145.288 66.143 144.83 66.091Z" fill="#8F745A"/>
<path d="M129.493 79.2243C128.101 79.139 126.161 78.6816 124.88 79.3643C124.638 79.4923 124.604 79.9323 124.88 80.0483C125.55 80.3323 126.246 80.2963 126.965 80.315C127.809 80.335 128.65 80.395 129.493 80.4403C130.277 80.483 130.27 79.2723 129.493 79.2243Z" fill="#8F745A"/>
<path d="M137.675 71.6324C136.069 71.679 133.932 71.107 132.505 72.0244C132.179 72.2337 132.229 72.7337 132.612 72.8457C133.347 73.0604 134.088 72.9991 134.844 72.9857C135.789 72.9671 136.731 72.9937 137.675 72.9297C138.499 72.871 138.517 71.6084 137.675 71.6324Z" fill="#8F745A"/>
<path d="M132.947 64.3336C131.752 64.5336 130.64 64.7683 129.489 65.151C129.253 65.2283 129.287 65.5936 129.549 65.5909C130.799 65.5803 131.96 65.4323 133.192 65.2269C133.78 65.1296 133.531 64.2376 132.947 64.3336Z" fill="#8F745A"/>
<path d="M137.334 65.0004C136.2 65.1271 134.896 64.9737 133.872 65.5644C133.656 65.6897 133.679 66.0698 133.944 66.1204C135.156 66.3578 136.353 65.7657 137.388 65.1977L137.334 65.0004Z" fill="#8F745A"/>
<path d="M126.243 71.8363C123.835 71.395 121.004 71.0097 118.639 71.8204C118.265 71.947 118.069 72.5697 118.515 72.763C120.841 73.7683 123.449 72.7563 125.884 73.1363C126.728 73.2697 127.104 71.9937 126.243 71.8363Z" fill="#8F745A"/>
<path d="M120.216 84.171C119.197 84.0484 118.179 83.9244 117.164 83.7831C116.231 83.6537 115.288 83.3977 114.345 83.4457C114.013 83.4631 113.992 83.8737 114.272 83.991C116.028 84.7297 118.336 84.6231 120.216 84.7777C120.611 84.8124 120.596 84.2164 120.216 84.171Z" fill="#8F745A"/>
<path d="M119.333 79.163C117.533 79.0896 115.232 78.6603 113.521 79.3403C113.192 79.471 113.121 79.979 113.521 80.0803C114.419 80.307 115.331 80.1936 116.247 80.155C117.275 80.111 118.305 80.103 119.333 80.0883C119.933 80.0803 119.929 79.187 119.333 79.163Z" fill="#8F745A"/>
<path d="M116.809 69.507C115.394 69.6883 113.847 69.703 112.648 70.535C112.465 70.6603 112.529 70.943 112.761 70.9523C114.165 71.0137 115.54 70.5403 116.911 70.2603C117.331 70.1736 117.238 69.451 116.809 69.507Z" fill="#8F745A"/>
<path d="M124.812 66.8124C123.72 66.9671 122.434 66.9724 121.441 67.4937C121.253 67.5937 121.276 67.9417 121.505 67.9777C122.646 68.1497 123.89 67.7337 125.009 67.5257C125.485 67.4364 125.273 66.7471 124.812 66.8124Z" fill="#8F745A"/>
<path d="M113.368 63.7697C112.38 63.9763 111.389 64.1737 110.395 64.3483C109.569 64.4937 108.759 64.627 108.105 65.175C107.873 65.3697 108.032 65.707 108.268 65.7937C109.862 66.383 112.113 65.2163 113.628 64.7137C114.228 64.5137 113.985 63.6417 113.368 63.7697Z" fill="#8F745A"/>
<path d="M105.101 82.5911C103.522 81.9684 101.369 81.2137 99.6557 81.3951C99.3851 81.4244 99.2371 81.7804 99.5078 81.9364C100.21 82.3391 101.056 82.4311 101.849 82.5337C102.897 82.6671 103.936 82.8337 104.952 83.1271C105.304 83.2271 105.425 82.7191 105.101 82.5911Z" fill="#8F745A"/>
<path d="M107.856 76.9764C105.604 76.7937 103.443 76.023 101.223 76.7724C100.925 76.875 100.867 77.367 101.223 77.4364C103.413 77.863 105.627 77.9937 107.856 77.823C108.401 77.7803 108.4 77.0204 107.856 76.9764Z" fill="#8F745A"/>
<path d="M101.668 69.947C99.9718 70.5617 98.1931 70.875 96.5745 71.6896C96.2105 71.875 96.4358 72.339 96.7625 72.3803C98.6158 72.6083 100.34 72.0003 102.053 71.3483C102.918 71.0203 102.554 69.6257 101.668 69.947Z" fill="#8F745A"/>
<path d="M91.4587 79.7537C91.0267 79.675 90.592 79.547 90.1533 79.5937C89.928 79.6177 89.8506 79.879 90.04 80.0124C90.3973 80.2684 90.8347 80.3724 91.248 80.519C91.7333 80.6924 91.96 79.8457 91.4587 79.7537Z" fill="#8F745A"/>
<path d="M94.9504 76.375C93.8664 76.3976 92.6931 76.2696 91.6397 76.5496C91.3904 76.6163 91.3824 76.9989 91.6397 77.0603C92.6971 77.3123 93.8664 77.1976 94.9504 77.1949C95.4797 77.1936 95.4797 76.3643 94.9504 76.375Z" fill="#8F745A"/>
<path d="M97.3823 65.9857C95.437 66.6164 93.1717 67.271 91.4517 68.4004C91.265 68.523 91.3823 68.815 91.6063 68.763C93.6076 68.2857 95.6356 67.0884 97.4343 66.1057L97.3823 65.9857Z" fill="#8F745A"/>
<path d="M109.423 72.2137C107.684 72.1844 105.229 72.0284 103.679 72.9324C103.425 73.0804 103.452 73.5217 103.764 73.5844C105.559 73.9471 107.783 73.0244 109.449 72.4217C109.56 72.3817 109.547 72.2151 109.423 72.2137Z" fill="#8F745A"/>
<path d="M110.509 86.2083C109.772 85.9963 108.987 85.8843 108.229 85.7443C107.363 85.5816 106.609 85.3856 105.725 85.4443C105.502 85.4603 105.418 85.7403 105.612 85.8643C106.948 86.7176 108.954 86.8936 110.509 86.6656C110.754 86.6309 110.72 86.2683 110.509 86.2083Z" fill="#8F745A"/>
<path d="M109.203 92.5016C108.349 91.8536 107.648 90.9443 106.835 90.2283C106.247 89.7096 105.437 89.0869 104.621 89.2563C104.367 89.3096 104.285 89.611 104.392 89.8203C104.744 90.507 105.709 90.9149 106.341 91.3216C106.732 91.5723 107.111 91.8403 107.495 92.1016C107.953 92.4136 108.5 92.599 108.989 92.867C109.235 93.0016 109.413 92.6616 109.203 92.5016Z" fill="#8F745A"/>
<path d="M100.267 88.1576C99.3906 87.2683 98.2493 86.6603 96.9799 86.6723C96.6799 86.675 96.6319 87.0309 96.8399 87.1896C97.7706 87.8976 98.9679 87.9869 99.9786 88.5323C100.216 88.6589 100.459 88.3536 100.267 88.1576Z" fill="#8F745A"/>
<path d="M96.876 83.9043C95.7934 83.4976 94.4387 82.8296 93.2587 82.9576C92.9521 82.9909 92.8507 83.3416 93.1054 83.5256C94.0894 84.2349 95.6707 84.2909 96.8361 84.1909C97.0027 84.1763 97.0307 83.9629 96.876 83.9043Z" fill="#8F745A"/>
<path d="M104.153 96.4203C103.477 95.315 102.626 94.0283 101.553 93.279C101.312 93.111 101.096 93.4256 101.192 93.6403C101.718 94.8176 102.886 95.6896 103.65 96.7136C103.869 97.007 104.353 96.7483 104.153 96.4203Z" fill="#8F745A"/>
<path d="M98.2692 102.179C97.9265 101.452 97.5825 100.726 97.2385 99.9989C96.8745 99.2283 96.5531 98.4349 95.9011 97.8616C95.6211 97.6149 95.0851 97.7576 95.1118 98.1883C95.2145 99.8083 96.4065 101.43 97.1278 102.846C97.5171 103.611 98.6292 102.94 98.2692 102.179Z" fill="#8F745A"/>
<path d="M111.05 101.627C110.22 100.314 109.604 98.7883 108.164 98.0483C107.878 97.903 107.535 98.1417 107.619 98.4683C108.003 99.943 108.95 101.116 109.862 102.32C110.382 103.006 111.534 102.395 111.05 101.627Z" fill="#8F745A"/>
<path d="M111.849 122.108C111.481 121.318 111.036 120.478 110.372 119.896C110.14 119.692 109.695 119.81 109.719 120.167C109.772 121.043 110.115 121.896 110.4 122.719C110.775 123.802 112.337 123.158 111.849 122.108Z" fill="#8F745A"/>
<path d="M114.441 92.1123C115.561 92.9736 116.644 94.1789 118.139 94.2589C118.449 94.2749 118.545 93.8976 118.372 93.6949C117.479 92.6402 116.113 91.9629 114.949 91.2456C114.383 90.8949 113.945 91.7309 114.441 92.1123Z" fill="#8F745A"/>
<path d="M120.33 89.9229C120.924 89.9643 121.457 90.1656 121.984 90.4363C122.466 90.6843 122.901 90.9803 123.46 90.9896C123.745 90.9936 123.886 90.6869 123.769 90.4523C123.222 89.3669 121.441 88.9443 120.33 88.9429C119.693 88.9429 119.708 89.8789 120.33 89.9229Z" fill="#8F745A"/>
<path d="M126.741 86.5737C127.76 86.903 128.905 87.479 129.989 87.2923C130.295 87.2403 130.407 86.7817 130.176 86.5857C129.352 85.8844 128.08 85.7177 127.064 85.4017C126.312 85.167 125.999 86.3337 126.741 86.5737Z" fill="#8F745A"/>
<path d="M137.392 86.6856C138.564 87.0603 139.729 87.8043 140.988 87.6936C141.285 87.6669 141.474 87.3203 141.24 87.0843C140.328 86.171 138.914 85.8883 137.694 85.5896C136.98 85.4136 136.696 86.463 137.392 86.6856Z" fill="#8F745A"/>
<path d="M133.304 92.6923C133.926 93.0456 134.57 93.351 135.217 93.659C135.854 93.9643 136.375 94.0816 137.075 94.107C137.309 94.1163 137.508 93.8136 137.36 93.6096C136.968 93.0736 136.605 92.7283 135.98 92.467C135.299 92.1816 134.617 91.903 133.957 91.5723C133.217 91.2016 132.572 92.2763 133.304 92.6923Z" fill="#8F745A"/>
<path d="M129.657 98.9471C130.615 99.4444 131.556 100.234 132.629 100.45C132.812 100.487 133.036 100.284 132.898 100.102C132.228 99.1977 131.092 98.6577 130.097 98.1951C129.595 97.9604 129.152 98.6871 129.657 98.9471Z" fill="#8F745A"/>
<path d="M122.444 96.5671C122.899 96.9244 123.356 97.2751 123.815 97.6257C124.26 97.9657 124.553 98.2857 125.132 98.2057C125.365 98.1724 125.436 97.9084 125.409 97.7164C125.343 97.2324 124.941 97.0351 124.572 96.7657C124.087 96.4111 123.6 96.0564 123.117 95.6951C122.615 95.3177 121.952 96.1777 122.444 96.5671Z" fill="#8F745A"/>
<path d="M126.436 93.1977C127.023 93.7364 127.728 94.335 128.576 94.171C128.851 94.119 128.931 93.7897 128.821 93.5697C128.527 92.983 127.839 92.695 127.371 92.263C126.744 91.687 125.807 92.619 126.436 93.1977Z" fill="#8F745A"/>
<path d="M97.8826 61.3803C99.5266 60.2177 101.475 59.6363 103.003 58.3216C103.224 58.1296 102.987 57.795 102.732 57.8563C100.733 58.339 98.9252 59.3696 97.3066 60.6323C96.8812 60.9656 97.4426 61.6923 97.8826 61.3803Z" fill="#8F745A"/>
<path d="M102.18 62.8217C102.895 62.747 103.553 62.359 104.205 62.0697C104.94 61.7444 105.671 61.3977 106.164 60.7471C106.381 60.4604 106.083 60.0804 105.775 60.071C105.025 60.0484 104.391 60.4244 103.745 60.763C103.108 61.099 102.329 61.443 101.825 61.963C101.547 62.2524 101.721 62.8697 102.18 62.8217Z" fill="#8F745A"/>
<path d="M108.301 53.6577C109.064 52.9191 109.939 52.3324 110.729 51.6338C110.863 51.5164 110.694 51.3404 110.553 51.4057C109.584 51.8457 108.728 52.5884 107.947 53.3017C107.708 53.5204 108.069 53.8831 108.301 53.6577Z" fill="#8F745A"/>
<path d="M108.272 57.4751C109.196 57.0777 110.397 56.7697 111.129 56.059C111.28 55.9124 111.179 55.5777 110.941 55.6071C109.893 55.7431 108.9 56.4871 107.977 56.9724C107.637 57.1524 107.937 57.6177 108.272 57.4751Z" fill="#8F745A"/>
<path d="M115.815 50.0457C117.256 49.3124 118.669 48.6377 119.968 47.6684C120.145 47.5364 120.051 47.1977 119.805 47.2817C118.255 47.8244 116.887 48.6271 115.455 49.4284C115.051 49.6551 115.407 50.2524 115.815 50.0457Z" fill="#8F745A"/>
<path d="M127.142 46.4057C128.856 46.6563 130.692 45.7937 132.022 44.763C132.301 44.547 132.054 44.1097 131.752 44.1083C130.093 44.099 128.556 45.2671 127.077 45.8977C126.864 45.9897 126.913 46.3723 127.142 46.4057Z" fill="#8F745A"/>
<path d="M132.065 54.2484C132.989 54.2097 133.881 54.051 134.78 53.851C135.633 53.6617 136.72 53.439 137.424 52.9124C137.739 52.6764 137.621 52.2417 137.231 52.1977C136.423 52.1071 135.637 52.5017 134.88 52.7537C133.911 53.0737 132.989 53.439 131.981 53.6244C131.627 53.6897 131.712 54.263 132.065 54.2484Z" fill="#8F745A"/>
<path d="M136.429 45.151C137.455 44.911 138.897 44.7723 139.679 44.0043C139.875 43.8136 139.787 43.4523 139.515 43.3856C138.437 43.1216 137.161 43.8083 136.148 44.1296C135.497 44.3363 135.764 45.3056 136.429 45.151Z" fill="#8F745A"/>
<path d="M141.501 57.471C142.627 57.8016 144.468 57.8937 145.228 56.8177C145.342 56.6577 145.27 56.3776 145.091 56.2936C144.064 55.807 142.524 56.355 141.501 56.679C141.117 56.8017 141.107 57.3536 141.501 57.471Z" fill="#8F745A"/>
<path d="M137.075 62.603C137.688 62.547 138.297 62.5457 138.913 62.547C139.417 62.5497 139.979 62.5604 140.327 62.147C140.496 61.9457 140.473 61.671 140.247 61.5244C139.796 61.231 139.265 61.375 138.765 61.455C138.164 61.5537 137.556 61.6284 136.959 61.747C136.479 61.8417 136.585 62.6497 137.075 62.603Z" fill="#8F745A"/>
<path d="M140.467 49.827C140.919 49.6563 141.367 49.5537 141.849 49.5163C142.256 49.4843 142.495 49.523 142.793 49.227C142.921 49.1003 142.932 48.867 142.793 48.7404C142.129 48.1337 140.843 48.7297 140.151 49.079C139.739 49.2857 140.031 49.9937 140.467 49.827Z" fill="#8F745A"/>
<path d="M120.332 59.8977C120.96 59.703 123.329 59.283 122.608 58.1457C122.477 57.9363 122.236 57.7657 121.979 57.7817C121.164 57.8363 120.528 58.3643 119.875 58.8097C119.337 59.175 119.657 60.1057 120.332 59.8977Z" fill="#8F745A"/>
<path d="M122.522 53.4523C123.246 53.227 123.969 53.0003 124.693 52.775C125.377 52.5616 126.132 52.415 126.533 51.7697C126.702 51.4964 126.53 51.1656 126.248 51.0723C125.58 50.847 124.941 51.1923 124.326 51.443C123.618 51.731 122.913 52.0177 122.208 52.307C121.517 52.587 121.773 53.6883 122.522 53.4523Z" fill="#8F745A"/>
<path d="M126.871 60.979C127.676 60.8576 128.458 60.7203 129.25 60.531C129.987 60.355 130.653 60.223 131.132 59.6016C131.312 59.3696 131.176 58.9696 130.934 58.8416C129.574 58.1283 127.655 59.4216 126.504 60.1083C126.009 60.4043 126.361 61.055 126.871 60.979Z" fill="#8F745A"/>
<path d="M112.611 61.7136C113.668 61.0417 115.771 61.2416 116.16 59.7656C116.223 59.527 116.122 59.279 115.911 59.1537C115.063 58.6417 114.117 59.2056 113.331 59.5776C112.623 59.9123 111.94 60.459 111.835 61.2683C111.785 61.6603 112.31 61.9043 112.611 61.7136Z" fill="#8F745A"/>
<path d="M28.5229 92.923C29.5509 92.4364 30.6362 92.1724 31.7322 91.8884C32.6708 91.647 33.6642 91.5484 34.4842 90.9964C34.7548 90.8164 34.7749 90.287 34.3829 90.2244C32.3042 89.8924 29.7869 91.0791 28.1215 92.2377C27.7015 92.5311 28.0589 93.1417 28.5229 92.923Z" fill="#8F745A"/>
<path d="M39.5027 91.7683C40.6694 91.1936 42.0827 91.223 43.0987 90.4056C43.2467 90.2856 43.212 89.9843 43.0347 89.9083C41.66 89.315 40.2307 90.3096 39.0507 90.9909C38.544 91.2829 38.9894 92.0216 39.5027 91.7683Z" fill="#8F745A"/>
<path d="M58.2441 80.9244C59.1961 80.3377 60.2081 79.9031 61.1254 79.2684C61.3147 79.1377 61.196 78.8657 60.9734 78.9057C59.8134 79.1137 58.8507 79.635 57.8587 80.263C57.4414 80.5257 57.8227 81.1844 58.2441 80.9244Z" fill="#8F745A"/>
<path d="M67.2037 74.2697C68.0357 73.9817 68.9864 73.9017 69.7451 73.4457C69.9291 73.3364 69.8624 73.0124 69.6317 73.0284C68.7651 73.0844 67.8638 73.4217 67.0545 73.7337C66.7278 73.8617 66.8611 74.3884 67.2037 74.2697Z" fill="#8F745A"/>
<path d="M14.8344 54.7897C16.3638 55.023 18.0918 56.0484 19.6611 55.6457C20.0038 55.5564 20.0118 55.1257 19.7518 54.9444C18.3958 53.9924 16.3865 54.6164 14.8665 54.5564C14.7331 54.551 14.7011 54.7697 14.8344 54.7897Z" fill="#8F745A"/>
<path d="M23.1134 52.0217C24.2881 52.8044 26.4134 54.8404 27.8854 53.6737C28.0414 53.551 28.0827 53.239 27.9614 53.083C27.4761 52.451 26.6214 52.323 25.8867 52.1044C25.06 51.8604 24.2387 51.5684 23.42 51.2964C22.9734 51.1484 22.7561 51.7817 23.1134 52.0217Z" fill="#8F745A"/>
<path d="M37.704 55.6723C38.716 56.3403 40.6893 57.715 41.8947 56.7937C42.1467 56.6017 42.228 56.3443 42.0907 56.051C41.7974 55.4363 41.0093 55.151 40.3787 55.0443C39.6267 54.919 38.9027 54.8017 38.192 54.5123C37.4947 54.2283 37.136 55.2977 37.704 55.6723Z" fill="#8F745A"/>
<path d="M32.8587 58.8457C33.5693 59.0723 36.0774 60.491 36.4467 59.1483C36.796 57.8803 33.732 57.7137 33.0173 57.6763C32.3227 57.6417 32.2413 58.647 32.8587 58.8457Z" fill="#8F745A"/>
<path d="M31.061 52.0723C31.853 52.7936 33.0744 53.703 34.177 53.119C34.4437 52.979 34.4544 52.619 34.269 52.4136C33.6504 51.731 32.5143 51.6577 31.7343 51.2004C31.197 50.8817 30.5904 51.6403 31.061 52.0723Z" fill="#8F745A"/>
<path d="M49.4414 59.1456C50.6694 59.9456 52.3227 61.7456 53.9373 61.3643C54.184 61.3069 54.3267 60.9789 54.1813 60.7629C53.7573 60.1309 53.0361 59.8763 52.3494 59.6083C51.4894 59.2723 50.6107 58.9589 49.7627 58.5963C49.3934 58.4389 49.0907 58.915 49.4414 59.1456Z" fill="#8F745A"/>
<path d="M57.7975 65.5977C58.8495 66.2857 59.9135 66.979 61.1002 67.4084C61.3322 67.4937 61.6189 67.3937 61.7882 67.2257C61.9415 67.0777 61.9975 66.9377 61.9975 66.7257C61.9975 66.4897 61.8642 66.2217 61.6455 66.1137C60.5642 65.5777 59.4108 65.2137 58.3055 64.7297C57.7202 64.475 57.2442 65.235 57.7975 65.5977Z" fill="#8F745A"/>
<path d="M43.5148 65.2257C44.2735 65.6897 45.1015 65.9804 45.9548 66.2137C46.6842 66.4151 47.5535 66.631 48.2629 66.3017C48.5415 66.1724 48.5295 65.7937 48.3535 65.5964C47.9308 65.1164 47.2121 65.0017 46.6041 64.9137C45.7388 64.7857 44.8948 64.6017 44.1135 64.2004C43.4348 63.8497 42.8561 64.8244 43.5148 65.2257Z" fill="#8F745A"/>
<path d="M11.3305 60.551C12.0118 60.6696 12.6865 60.8256 13.3612 60.9856C13.9398 61.1203 14.5225 61.283 15.1065 61.1096C15.3585 61.0363 15.4065 60.6923 15.1785 60.5536C14.6265 60.223 13.9611 60.2043 13.3345 60.1123C12.6985 60.0203 12.0625 59.9323 11.4212 59.8776C11.0359 59.8443 10.9478 60.487 11.3305 60.551Z" fill="#8F745A"/>
<path d="M12.5171 66.3896C13.0718 66.407 13.6252 66.3936 14.1798 66.3643C14.8825 66.327 15.3865 66.1496 16.0331 65.8803C16.2505 65.7883 16.3398 65.391 16.0331 65.343C15.5251 65.2656 15.0358 65.1416 14.5212 65.2203C13.8558 65.323 13.1905 65.403 12.5171 65.4363C11.9065 65.4696 11.9011 66.3696 12.5171 66.3896Z" fill="#8F745A"/>
<path d="M9.23182 73.6484C10.3692 73.6617 12.4292 73.887 12.8865 72.499C12.9598 72.2777 12.8439 71.995 12.6385 71.887C11.5185 71.2964 10.1705 72.547 9.12655 72.8697C8.70121 73.0017 8.77716 73.643 9.23182 73.6484Z" fill="#8F745A"/>
<path d="M12.3303 82.6083C13.5436 82.0803 14.773 81.5443 16.0076 81.0737C16.2343 80.9883 16.1436 80.6857 15.9089 80.7163C14.4889 80.9083 13.3369 81.519 12.0783 82.1763C11.7849 82.3283 12.0423 82.7363 12.3303 82.6083Z" fill="#8F745A"/>
<path d="M14.397 87.1749C15.8476 87.0603 17.7676 86.7203 18.953 85.8323C19.213 85.6389 19.1503 85.1949 18.7797 85.1923C17.2463 85.1843 15.8277 86.3243 14.321 86.6043C13.9983 86.6629 14.0716 87.2016 14.397 87.1749Z" fill="#8F745A"/>
<path d="M21.7961 88.847C22.4948 88.5896 23.2108 88.4083 23.9294 88.2136C24.6014 88.0323 25.3441 87.8843 25.8454 87.3723C25.9987 87.2163 25.8974 86.9043 25.6601 86.9216C24.9854 86.9696 24.3681 87.3136 23.7494 87.5656C23.0388 87.8576 22.3361 88.1603 21.6641 88.5336C21.4974 88.6256 21.6108 88.9163 21.7961 88.847Z" fill="#8F745A"/>
<path d="M23.6908 83.2137C24.2761 82.927 24.8721 82.6697 25.4814 82.4363C26.0721 82.2123 26.7161 82.067 27.1481 81.575C27.2921 81.4097 27.2667 81.0643 27.0014 81.023C26.3801 80.927 25.8614 81.159 25.3001 81.4083C24.5974 81.7203 23.9147 82.0736 23.2507 82.4616C22.7601 82.747 23.1908 83.4603 23.6908 83.2137Z" fill="#8F745A"/>
<path d="M19.4904 76.103C20.4197 75.8176 21.3117 75.5416 22.161 75.063C22.3117 74.9776 22.2557 74.6977 22.0663 74.7177C21.0957 74.8243 20.2437 75.1803 19.321 75.491C18.937 75.6216 19.0957 76.2243 19.4904 76.103Z" fill="#8F745A"/>
<path d="M17.9943 71.487C18.6863 71.5137 19.3757 71.491 20.0663 71.4256C20.6237 71.3723 21.2303 71.3256 21.6503 70.923C21.8143 70.7656 21.7357 70.471 21.5157 70.415C20.9983 70.2803 20.461 70.4723 19.9517 70.5803C19.3063 70.715 18.6517 70.7883 17.9943 70.8243C17.569 70.8496 17.5663 71.4697 17.9943 71.487Z" fill="#8F745A"/>
<path d="M19.873 64.7137C21.3357 64.7697 23.213 65.3096 24.5917 64.723C24.829 64.6216 24.8237 64.2097 24.5917 64.1057C23.9077 63.8057 23.197 63.8296 22.4597 63.8216C21.597 63.811 20.7357 63.7937 19.873 63.8163C19.2917 63.8297 19.2943 64.6923 19.873 64.7137Z" fill="#8F745A"/>
<path d="M22.4266 58.067C23.8466 58.3403 25.0026 59.4243 26.444 59.4883C26.74 59.499 26.8372 59.1416 26.6679 58.9456C25.7052 57.8323 23.9573 57.375 22.5359 57.263C22.0759 57.2256 21.9746 57.9816 22.4266 58.067Z" fill="#8F745A"/>
<path d="M30.9943 64.787C31.8037 64.9416 32.6596 65.2576 33.489 65.207C33.7743 65.1883 33.9623 64.8376 33.7316 64.619C33.0783 64.0003 32.1317 63.9056 31.2823 63.743C30.5997 63.611 30.309 64.6563 30.9943 64.787Z" fill="#8F745A"/>
<path d="M28.8651 69.8163C29.5304 69.9563 30.1532 69.9723 30.8292 69.979C30.9892 69.9803 31.0785 69.7283 30.9158 69.6576C30.2918 69.3923 29.6918 69.343 29.0345 69.2043C28.6345 69.119 28.4651 69.731 28.8651 69.8163Z" fill="#8F745A"/>
<path d="M29.4171 75.8816C30.0718 75.863 30.7225 75.7856 31.3691 75.6763C31.9771 75.571 32.7011 75.4403 33.2051 75.0723C33.4705 74.8763 33.4291 74.5123 33.1158 74.395C31.9411 73.9523 30.4505 74.851 29.3158 75.1296C28.8945 75.2323 28.9838 75.895 29.4171 75.8816Z" fill="#8F745A"/>
<path d="M32.8119 81.5857C34.1572 81.3337 36.3159 81.1363 37.1492 79.9137C37.3172 79.6657 37.1372 79.359 36.8879 79.2723C35.4732 78.779 33.7132 80.2617 32.4959 80.8363C32.0492 81.047 32.3839 81.6657 32.8119 81.5857Z" fill="#8F745A"/>
<path d="M36.8878 84.9083C38.4412 84.507 40.7958 84.231 41.9212 82.991C42.1105 82.7803 42.0705 82.3323 41.7331 82.283C39.9891 82.0257 38.2452 83.5243 36.6572 84.067C36.1292 84.247 36.3385 85.0497 36.8878 84.9083Z" fill="#8F745A"/>
<path d="M49.5665 77.131C50.7585 76.839 52.1399 76.5497 53.1972 75.9137C53.4639 75.7523 53.3399 75.363 53.0439 75.3457C51.7932 75.279 50.5252 75.959 49.3279 76.2643C48.7665 76.407 49.0039 77.2683 49.5665 77.131Z" fill="#8F745A"/>
<path d="M39.9009 71.8656C40.6489 71.8096 41.3943 71.763 42.1423 71.7203C42.7876 71.6857 43.441 71.6897 43.9943 71.3163C44.2623 71.135 44.2023 70.7736 43.9089 70.663C43.2836 70.4283 42.6409 70.587 42.0036 70.6963C41.2676 70.823 40.5303 70.9403 39.7916 71.059C39.3356 71.1336 39.4423 71.899 39.9009 71.8656Z" fill="#8F745A"/>
<path d="M36.1465 67.327C37.2945 67.3203 38.5198 67.4083 39.5905 66.935C39.8331 66.827 39.7758 66.3976 39.5144 66.355C38.4118 66.1736 37.2625 66.303 36.1465 66.2963C35.4811 66.2923 35.4811 67.331 36.1465 67.327Z" fill="#8F745A"/>
<path d="M41.3117 75.8337C42.0851 75.8484 42.8518 75.815 43.6211 75.7297C44.2665 75.6577 44.9438 75.5857 45.3918 75.079C45.6411 74.799 45.5144 74.439 45.1891 74.3057C44.6211 74.0737 44.0171 74.251 43.4358 74.3577C42.7344 74.487 42.0224 74.5404 41.3117 74.5657C40.4957 74.5964 40.4917 75.8204 41.3117 75.8337Z" fill="#8F745A"/>
<path d="M54.1387 71.8483C54.8814 71.8563 55.7108 72.1683 56.4294 71.9483C56.6628 71.879 56.8067 71.5297 56.5867 71.3523C55.9307 70.827 54.9507 70.7856 54.1387 70.7656C53.4401 70.7456 53.4401 71.8417 54.1387 71.8483Z" fill="#8F745A"/>
<path d="M59.7774 75.3604C60.5988 75.3604 61.7201 75.5804 62.3894 75.023C62.5414 74.8977 62.5414 74.6057 62.3894 74.4817C61.7201 73.9244 60.5988 74.1444 59.7774 74.1444C58.9948 74.1444 58.9948 75.3604 59.7774 75.3604Z" fill="#8F745A"/>
<path d="M84.8119 74.9656C87.1132 75.047 89.5159 73.571 91.4812 72.5256C91.6919 72.4136 91.5372 72.127 91.3279 72.163C89.1519 72.543 86.4413 72.7723 84.5519 74.0043C84.1199 74.2857 84.2892 74.947 84.8119 74.9656Z" fill="#8F745A"/>
<path d="M89.7491 66.4883C90.0824 66.291 90.3838 66.1216 90.5584 65.771C90.6758 65.5416 90.5278 65.3216 90.2851 65.2936C89.8731 65.2483 89.6171 65.467 89.2545 65.6443C88.6931 65.9176 89.1998 66.8136 89.7491 66.4883Z" fill="#8F745A"/>
<path d="M143.477 6.5803C127.33 -7.6077 109.504 4.34036 109.741 19.303C109.748 19.619 120.268 27.883 123.07 30.3123C126.164 32.9937 134.181 36.463 134.602 36.511C145.892 37.847 159.626 20.7696 143.477 6.5803Z" fill="#AC8B6D"/>
<path d="M137.351 13.291C129.711 5.48965 117.339 6.06968 113.912 22.1284C113.865 22.343 121.228 28.091 123.173 29.775C125.323 31.6403 130.889 34.0936 131.189 34.083C138.241 33.8856 145.275 21.3803 137.351 13.291Z" fill="#EECCAC"/>
<path d="M16.664 40.9736C17.0866 40.915 25.0267 37.2843 28.0573 34.5416C30.8053 32.0589 41.144 23.5777 41.14 23.2643C41.0413 8.30033 22.96 -3.28633 7.12934 11.231C-8.70266 25.7457 5.40531 42.5403 16.664 40.9736Z" fill="#AC8B6D"/>
<path d="M20.5386 38.407C20.8346 38.407 26.3506 35.8443 28.4573 33.935C30.3613 32.211 37.5933 26.3176 37.5413 26.1043C33.7599 10.119 21.38 9.79095 13.916 17.7443C6.17196 25.9936 13.4799 38.3523 20.5386 38.407Z" fill="#EECCAC"/>
<path d="M105.592 104.475C103.093 97.3749 100.809 93.1563 97.2146 86.3643C93.7106 79.7389 85.4453 66.4229 74.776 71.8336C69.4973 74.5123 64.0226 81.7363 61.8693 85.9123C58.9173 91.643 43.804 112.378 51.6946 122.522C61.8413 135.591 88.428 132.151 100.449 125.32C108.501 120.75 107.623 110.24 105.592 104.475Z" fill="#EECCAC"/>
<path d="M77.9894 106.248C77.9894 106.255 77.9894 109.858 77.9894 113.763C77.9894 117.667 77.9894 121.866 77.9894 123.042C77.9921 123.524 77.7614 124.06 77.3454 124.467C76.9281 124.872 76.3454 125.148 75.6361 125.15C74.5441 125.151 73.0481 124.479 71.4507 122.27C71.2627 122.008 70.9001 121.95 70.6401 122.138C70.3801 122.324 70.3201 122.688 70.5081 122.948C72.2268 125.339 74.0441 126.311 75.6361 126.312C77.6841 126.303 79.1428 124.708 79.1521 123.042C79.1521 120.69 79.1521 106.248 79.1521 106.248C79.1521 105.927 78.8921 105.667 78.5707 105.667C78.2494 105.667 77.9894 105.927 77.9894 106.248Z" fill="#242327"/>
<path d="M77.8999 106.248C77.8999 106.255 77.8999 109.858 77.8999 113.763C77.8999 117.667 77.8999 121.866 77.8999 123.042C77.9092 124.708 79.3666 126.303 81.4172 126.312C83.0079 126.311 84.8266 125.339 86.5466 122.948C86.7332 122.688 86.6746 122.324 86.4145 122.138C86.1546 121.95 85.7905 122.008 85.6039 122.27C84.0052 124.479 82.5079 125.151 81.4172 125.15C80.7066 125.148 80.1225 124.872 79.7065 124.466C79.2892 124.06 79.0599 123.524 79.0626 123.042C79.0626 120.69 79.0626 106.248 79.0626 106.248C79.0626 105.927 78.8012 105.667 78.4812 105.667C78.1599 105.667 77.8999 105.927 77.8999 106.248Z" fill="#242327"/>
<path d="M93.3601 108.31C91.2108 111.384 87.5441 114.184 83.2641 115.732C81.0601 116.53 75.9987 116.534 73.8041 115.743C69.5307 114.202 65.8588 111.411 63.7054 108.338C62.4121 106.495 59.4868 97.6629 78.5241 97.6629C97.5535 97.6629 94.6388 106.479 93.3601 108.31Z" fill="#3A3941"/>
<path d="M73.38 115.58C74.3466 114.774 74.8173 113.734 74.8173 112.602C74.8173 110.016 72.5026 107.922 67.1893 107.922C65.8266 107.922 64.6667 108.06 63.688 108.31C65.768 111.291 69.2773 114.01 73.38 115.58Z" fill="#242327"/>
<path d="M93.3598 108.31C92.3798 108.06 91.2185 107.922 89.8531 107.922C84.5425 107.922 82.2305 110.016 82.2305 112.602C82.2305 113.734 82.6971 114.774 83.6611 115.586C87.7678 114.012 91.2772 111.291 93.3598 108.31Z" fill="#242327"/>
<path d="M86.8949 100.32C86.8949 100.32 82.8495 97.1404 72.8775 99.5524C64.1349 101.674 64.1122 106.376 64.8375 106.419C65.5682 106.468 70.9042 105.198 74.4162 108.232C77.9349 111.268 67.7962 102.447 86.8949 100.32Z" fill="#4A4954"/>
<path d="M58.3718 82.8177C58.3718 87.1991 54.6612 90.7484 50.0825 90.7484C45.5092 90.7484 41.7998 87.1991 41.7998 82.8177C41.7998 78.4351 45.5092 74.8831 50.0825 74.8831C54.6612 74.8831 58.3718 78.4351 58.3718 82.8177Z" fill="#1E1C22"/>
<path d="M55.1518 84.3283C55.1518 86.5616 53.2624 88.3723 50.9224 88.3723C48.5957 88.3723 46.7051 86.5616 46.7051 84.3283C46.7051 82.0936 48.5957 80.283 50.9224 80.283C53.2624 80.283 55.1518 82.0936 55.1518 84.3283Z" fill="#18151A"/>
<path d="M44.4276 84.1417C44.4276 80.579 47.4516 77.6857 51.1756 77.6857C54.1996 77.6857 56.7556 79.5923 57.6116 82.2137C57.037 78.9603 54.085 76.4817 50.525 76.4817C46.5516 76.4817 43.3276 79.563 43.3276 83.3697C43.3276 86.275 45.2116 88.7537 47.8729 89.7697C45.8196 88.6577 44.4276 86.5563 44.4276 84.1417Z" fill="#FEF5E9"/>
<path d="M50.8519 80.9989C50.8519 81.9376 50.0613 82.6923 49.0826 82.6923C48.1079 82.6923 47.3159 81.9376 47.3159 80.9989C47.3159 80.0656 48.1079 79.3069 49.0826 79.3069C50.0613 79.3069 50.8519 80.0656 50.8519 80.9989Z" fill="#FEF5E9"/>
<path d="M48.4972 83.8229C48.4972 84.4442 47.9679 84.9523 47.3159 84.9523C46.6639 84.9523 46.1372 84.4442 46.1372 83.8229C46.1372 83.1989 46.6639 82.6922 47.3159 82.6922C47.9679 82.6922 48.4972 83.1989 48.4972 83.8229Z" fill="#FEF5E9"/>
<path d="M98.9185 82.8177C98.9185 87.1991 102.628 90.7484 107.205 90.7484C111.777 90.7484 115.49 87.1991 115.49 82.8177C115.49 78.4351 111.777 74.8831 107.205 74.8831C102.628 74.8831 98.9185 78.4351 98.9185 82.8177Z" fill="#1E1C22"/>
<path d="M102.143 84.3283C102.143 86.5616 104.032 88.3723 106.361 88.3723C108.695 88.3723 110.585 86.5616 110.585 84.3283C110.585 82.0936 108.695 80.283 106.361 80.283C104.032 80.283 102.143 82.0936 102.143 84.3283Z" fill="#18151A"/>
<path d="M112.858 84.1417C112.858 80.579 109.837 77.6857 106.113 77.6857C103.093 77.6857 100.533 79.5923 99.6758 82.2137C100.252 78.9603 103.198 76.4817 106.766 76.4817C110.737 76.4817 113.957 79.563 113.957 83.3697C113.957 86.275 112.077 88.7537 109.418 89.7697C111.47 88.6577 112.858 86.5563 112.858 84.1417Z" fill="#FEF5E9"/>
<path d="M106.435 80.9989C106.435 81.9376 107.227 82.6923 108.205 82.6923C109.183 82.6923 109.973 81.9376 109.973 80.9989C109.973 80.0656 109.183 79.3069 108.205 79.3069C107.227 79.3069 106.435 80.0656 106.435 80.9989Z" fill="#FEF5E9"/>
<path d="M108.793 83.8229C108.793 84.4442 109.324 84.9523 109.973 84.9523C110.621 84.9523 111.149 84.4442 111.149 83.8229C111.149 83.1989 110.621 82.6922 109.973 82.6922C109.324 82.6922 108.793 83.1989 108.793 83.8229Z" fill="#FEF5E9"/>
<path d="M65.725 115.991C65.725 119.012 63.1637 121.459 60.0117 121.459C56.8544 121.459 54.2983 119.012 54.2983 115.991C54.2983 112.966 56.8544 110.52 60.0117 110.52C63.1637 110.52 65.725 112.966 65.725 115.991Z" fill="#D8A5A7"/>
<path d="M101.678 115.991C101.678 119.012 99.1223 121.459 95.9677 121.459C92.8103 121.459 90.2544 119.012 90.2544 115.991C90.2544 112.966 92.8103 110.52 95.9677 110.52C99.1223 110.52 101.678 112.966 101.678 115.991Z" fill="#D8A5A7"/>
</svg>
