<svg width="145" height="200" viewBox="0 0 145 200" fill="none" xmlns="http://www.w3.org/2000/svg">
<path d="M39.5245 2.60822C41.1178 4.61888 42.5512 6.65224 43.8125 8.70425C45.1018 10.7522 46.2738 12.8163 47.3818 14.8896C49.5978 19.0336 51.4605 23.2216 53.1365 27.4336C56.4552 35.8656 58.8312 44.4162 60.5485 53.0496C62.2765 61.6829 63.4032 70.3923 63.7872 79.1949C63.9685 83.5989 63.9378 88.0296 63.6818 92.4869C63.3845 96.9523 62.9392 101.435 61.8258 106.003C59.8672 114.02 51.7792 118.934 43.7618 116.978C39.4952 115.932 36.0792 113.104 34.1378 109.527C31.9152 105.382 30.3618 101.154 28.9565 96.9055C27.5938 92.6522 26.4538 88.3696 25.5285 84.0629C23.6952 75.4429 22.6045 66.7295 22.1178 57.9389C21.6178 49.1509 21.7752 40.2762 22.8765 31.2856C23.4432 26.7869 24.2018 22.2629 25.3098 17.6976C25.8605 15.4136 26.4792 13.1203 27.2178 10.8149C27.9232 8.51226 28.8018 6.18691 29.8418 3.84025C31.1178 0.962914 34.4885 -0.339783 37.3658 0.938881C38.2325 1.32288 38.9712 1.91622 39.5245 2.60822Z" fill="#E6D2D4"/>
<path d="M139.417 82.6897C136.993 83.1977 134.627 83.555 132.325 83.7483C130.01 83.9696 127.737 84.083 125.489 84.127C120.989 84.2243 116.613 83.9936 112.305 83.5776C103.705 82.7203 95.438 80.9683 87.4047 78.5963L113.111 64.8443C111.959 72.5363 110.219 80.0883 107.751 87.4723C106.517 91.1656 105.062 94.8056 103.382 98.3936C101.671 101.974 99.8153 105.522 97.302 108.918C92.3047 115.667 82.782 117.091 76.0313 112.094C72.806 109.708 70.7927 106.258 70.1167 102.6C69.3593 98.4443 69.258 94.4443 69.2993 90.4749C69.374 86.5123 69.6727 82.6056 70.194 78.7483C71.234 71.031 73.002 63.4843 75.358 56.0763L76.2567 53.2523C79.2793 43.739 89.442 38.479 98.9567 41.5043C99.65 41.7256 100.417 42.0296 101.063 42.3243C108.665 45.8403 116.034 49.9736 123.066 55.0043C126.577 57.531 130.017 60.2443 133.335 63.2843C134.994 64.8043 136.631 66.3856 138.226 68.0803C139.83 69.7443 141.371 71.5736 142.858 73.5536C144.775 76.1096 144.255 79.7389 141.699 81.6549C141.009 82.1736 140.21 82.5177 139.417 82.6897Z" fill="#E6D2D4"/>
<path d="M41.5247 103.119C40.2074 97.8137 39.1928 92.4683 38.2848 87.1083C37.1114 79.9617 36.2114 72.7803 35.5208 65.5723C34.8341 58.3617 34.3594 51.127 34.2634 43.843C34.1621 36.5604 34.3207 29.243 35.2581 21.827C35.3741 20.9017 36.1634 20.2257 37.0727 20.2257C37.1501 20.2257 37.2274 20.231 37.3061 20.2404C37.9887 20.3257 38.5394 20.7817 38.7781 21.3803C41.5447 28.3243 43.5287 35.367 45.2554 42.4443C46.9874 49.5203 48.3381 56.6457 49.4781 63.7964C50.6154 70.947 51.5421 78.1244 52.1954 85.3377C52.6421 90.555 52.9901 95.7857 53.0634 101.05C49.0527 101.511 45.1914 102.186 41.5247 103.119Z" fill="#EDB4A7"/>
<path d="M90.4235 102.206C86.8248 101.472 83.0555 100.967 79.1328 100.652C79.4128 98.087 79.7662 95.5377 80.1435 92.9924C80.7302 89.1524 81.4048 85.3311 82.1448 81.5231C82.9022 77.7204 83.6995 73.9297 84.5835 70.155C85.4528 66.3777 86.3862 62.6164 87.3795 58.8671L87.4955 58.439C88.3061 55.3777 91.0715 53.3537 94.0968 53.3537C94.6768 53.3537 95.2675 53.4284 95.8555 53.5844C96.1395 53.6591 96.4501 53.767 96.7155 53.875C99.4928 55.023 102.239 56.2577 104.966 57.539C107.691 58.8284 110.395 60.1804 113.062 61.6244C115.733 63.0537 118.371 64.5737 120.97 66.2004C123.551 67.8698 126.143 69.5177 128.603 71.5044C129.407 72.1537 129.533 73.3298 128.885 74.1338C128.514 74.5911 127.965 74.827 127.418 74.827C127.397 74.827 127.375 74.827 127.354 74.827C124.191 74.699 121.158 74.227 118.117 73.7777C115.091 73.2857 112.106 72.6884 109.153 72.0017C106.195 71.3284 103.274 70.5631 100.374 69.7311C100.089 69.6497 99.8048 69.5671 99.5195 69.4844C99.2275 70.7964 98.9288 72.107 98.6208 73.4164C97.7528 77.195 96.7968 80.9497 95.7981 84.6977C94.7861 88.4391 93.7075 92.1671 92.5382 95.8764C91.8622 97.9924 91.1675 100.104 90.4235 102.206Z" fill="#EDB4A7"/>
<path d="M127.369 132.166C118.245 107.368 96.0874 100.246 68.3114 100.246L68.2914 100.256L68.27 100.246C40.4927 100.246 16.3407 107.102 9.21537 132.166C7.10337 139.596 2.63803 143.739 0.822032 154.263C-2.2553 172.086 13.0954 199.323 68.27 199.323L68.2914 199.315L68.3114 199.323C123.486 199.323 137.602 172.259 135.758 154.263C134.555 142.531 130.03 139.408 127.369 132.166Z" fill="#E6D2D4"/>
<path d="M72.2861 178.948H72.2541C69.8715 178.948 68.3168 177.658 67.1315 176.523L66.9301 176.254C66.9035 176.118 66.8835 175.984 66.8381 175.85C66.7901 175.707 66.6915 175.604 66.5782 175.528C66.2995 174.859 66.0501 174.083 65.9261 173.83V175.387L65.9181 175.39V173.83C65.7168 174.251 65.1635 176.092 64.7155 176.523C63.5275 177.658 61.9728 178.948 59.5888 178.948H59.5581C59.1061 178.948 58.6995 179.27 58.3088 179.206C58.3088 179.206 58.1595 185.298 65.8981 185.298C73.6355 185.298 73.5355 179.206 73.5355 179.206C73.1475 179.27 72.7395 178.948 72.2861 178.948Z" fill="white"/>
<path d="M65.8982 173.83C65.9729 175.74 65.9542 177.651 65.9835 179.564C65.9542 181.476 65.9729 183.387 65.8982 185.298C65.8235 183.387 65.8409 181.476 65.8115 179.564C65.8422 177.651 65.8235 175.74 65.8982 173.83Z" fill="#BDBCBC"/>
<path d="M76.2981 172.736C77.0901 172.736 77.0901 173.915 76.2981 173.915C75.5035 173.915 75.5035 172.736 76.2981 172.736Z" fill="#5A2F29"/>
<path d="M73.2845 173.324C74.0791 173.324 74.0791 174.504 73.2845 174.504C72.4911 174.504 72.4911 173.324 73.2845 173.324Z" fill="#5A2F29"/>
<path d="M71.9075 175.346C72.7035 175.346 72.7035 176.523 71.9075 176.523C71.1115 176.523 71.1115 175.346 71.9075 175.346Z" fill="#5A2F29"/>
<path d="M75.3181 175.635C76.1115 175.635 76.1115 176.812 75.3181 176.812C74.5248 176.812 74.5248 175.635 75.3181 175.635Z" fill="#5A2F29"/>
<path d="M78.0808 174.455C78.8755 174.455 78.8755 175.635 78.0808 175.635C77.2875 175.635 77.2875 174.455 78.0808 174.455Z" fill="#5A2F29"/>
<path d="M65.7737 168.466C65.9217 170.795 66.5631 173.244 65.5524 175.608C65.0164 176.762 64.0604 177.656 62.9777 178.25C61.8897 178.84 60.6844 179.18 59.4711 179.302C57.0457 179.515 54.5537 179.071 52.4217 177.894C51.3631 177.303 50.3937 176.534 49.6457 175.578C48.9124 174.615 48.4044 173.483 48.2471 172.302C48.8284 174.63 50.5964 176.432 52.6631 177.434C54.7431 178.438 57.1097 178.878 59.3977 178.618C61.6444 178.403 64.0137 177.411 65.0297 175.364C66.0711 173.312 65.6191 170.812 65.7737 168.466Z" fill="#5A2F29"/>
<path d="M66.0969 168.466C66.2529 170.812 65.8009 173.312 66.8436 175.364C67.8596 177.411 70.2289 178.403 72.4756 178.618C74.7622 178.878 77.1316 178.438 79.2089 177.434C81.2769 176.432 83.0462 174.63 83.6262 172.302C83.4689 173.483 82.9609 174.615 82.2276 175.578C81.4809 176.534 80.5102 177.303 79.4515 177.894C77.3222 179.071 74.8276 179.515 72.4036 179.302C71.1889 179.18 69.9836 178.84 68.8942 178.25C67.8129 177.656 66.8556 176.762 66.3209 175.608C65.3102 173.246 65.9489 170.795 66.0969 168.466Z" fill="#5A2F29"/>
<path d="M55.5461 172.736C54.7555 172.736 54.7555 173.915 55.5461 173.915C56.3408 173.915 56.3408 172.736 55.5461 172.736Z" fill="#5A2F29"/>
<path d="M58.5569 173.324C57.7662 173.324 57.7662 174.504 58.5569 174.504C59.3515 174.504 59.3515 173.324 58.5569 173.324Z" fill="#5A2F29"/>
<path d="M59.9368 175.346C59.1435 175.346 59.1435 176.523 59.9368 176.523C60.7301 176.523 60.7301 175.346 59.9368 175.346Z" fill="#5A2F29"/>
<path d="M56.5286 175.635C55.7326 175.635 55.7326 176.812 56.5286 176.812C57.3193 176.812 57.3193 175.635 56.5286 175.635Z" fill="#5A2F29"/>
<path d="M53.7635 174.455C52.9688 174.455 52.9688 175.635 53.7635 175.635C54.5555 175.635 54.5555 174.455 53.7635 174.455Z" fill="#5A2F29"/>
<path d="M76.2379 162.364C76.2379 165.984 71.5526 171.695 65.7739 171.695C59.9953 171.695 55.3086 165.984 55.3086 162.364C55.3086 158.739 59.9953 157.907 65.7739 157.907C71.5526 157.907 76.2379 158.739 76.2379 162.364Z" fill="#5A2F29"/>
<path d="M57.9539 161.364C55.9486 163.356 58.2073 168.832 61.0979 166.774C61.8633 166.232 62.3299 165.624 62.8193 164.843C63.6539 163.51 64.7486 162.916 66.3046 162.594C67.3819 162.37 69.7126 162.19 69.646 160.651C69.5513 158.475 60.6059 158.723 57.9539 161.364Z" fill="#774039"/>
<path d="M31.3154 146.964C31.3154 148.564 29.9621 149.859 28.2901 149.859C26.6221 149.859 25.2661 148.564 25.2661 146.964C25.2661 145.367 26.6221 144.071 28.2901 144.071C29.9621 144.071 31.3154 145.367 31.3154 146.964Z" fill="#5A2F29"/>
<path d="M30.545 145.81C30.545 146.33 30.109 146.751 29.565 146.751C29.0236 146.751 28.585 146.33 28.585 145.81C28.585 145.291 29.0236 144.87 29.565 144.87C30.109 144.87 30.545 145.291 30.545 145.81Z" fill="white"/>
<path d="M31.2981 144.58C30.5781 143.99 29.7154 143.774 28.8768 143.751C28.4554 143.754 28.0301 143.784 27.6101 143.872C27.1794 143.95 26.8194 144.062 26.4368 144.239C26.0594 144.408 25.6954 144.638 25.2968 144.87C24.8968 145.095 24.4634 145.352 23.9554 145.48C23.4541 145.624 22.9048 145.615 22.4261 145.491C21.9448 145.362 21.5154 145.148 21.1421 144.87C22.0634 145.066 22.9688 145.132 23.6914 144.784C24.4234 144.459 25.0794 143.804 26.0021 143.378C26.4461 143.163 26.9834 143.015 27.4621 142.967C27.9568 142.923 28.4634 142.904 28.9608 142.998C29.9461 143.156 30.9221 143.722 31.2981 144.58Z" fill="#5A2F29"/>
<path d="M22.5088 144.071C23.1275 144.198 23.6795 144.223 24.2315 144.148C24.7875 144.08 25.3141 143.887 25.9195 143.695C25.5555 144.194 24.9541 144.53 24.3021 144.62C23.9741 144.66 23.6381 144.647 23.3261 144.552C23.0155 144.462 22.7195 144.31 22.5088 144.071Z" fill="#5A2F29"/>
<path d="M23.4805 143.442C23.7911 143.51 24.0791 143.5 24.3698 143.495C24.6605 143.482 24.9471 143.459 25.2365 143.42C25.8191 143.36 26.3991 143.248 27.0418 143.231C26.5338 143.606 25.9298 143.816 25.2965 143.898C24.9805 143.93 24.6565 143.932 24.3351 143.867C24.0231 143.804 23.6911 143.686 23.4805 143.442Z" fill="#5A2F29"/>
<path d="M105.225 146.964C105.225 148.564 106.579 149.859 108.251 149.859C109.921 149.859 111.273 148.564 111.273 146.964C111.273 145.367 109.921 144.071 108.251 144.071C106.579 144.071 105.225 145.367 105.225 146.964Z" fill="#5A2F29"/>
<path d="M105.996 145.81C105.996 146.33 106.434 146.751 106.977 146.751C107.52 146.751 107.956 146.33 107.956 145.81C107.956 145.291 107.52 144.87 106.977 144.87C106.434 144.87 105.996 145.291 105.996 145.81Z" fill="white"/>
<path d="M105.245 144.58C105.617 143.722 106.597 143.156 107.581 142.998C108.075 142.904 108.583 142.923 109.077 142.967C109.557 143.015 110.093 143.163 110.538 143.378C111.462 143.804 112.118 144.459 112.847 144.784C113.571 145.132 114.477 145.066 115.401 144.87C115.023 145.148 114.595 145.362 114.114 145.491C113.635 145.615 113.087 145.624 112.585 145.48C112.077 145.352 111.646 145.095 111.246 144.87C110.845 144.638 110.479 144.408 110.106 144.239C109.719 144.062 109.361 143.95 108.929 143.872C108.509 143.784 108.086 143.754 107.663 143.751C106.827 143.774 105.962 143.99 105.245 144.58Z" fill="#5A2F29"/>
<path d="M114.03 144.071C113.823 144.31 113.527 144.462 113.215 144.552C112.902 144.647 112.564 144.66 112.235 144.62C111.586 144.53 110.987 144.194 110.619 143.695C111.224 143.887 111.752 144.08 112.308 144.148C112.86 144.223 113.414 144.198 114.03 144.071Z" fill="#5A2F29"/>
<path d="M113.062 143.442C112.849 143.686 112.516 143.804 112.204 143.867C111.885 143.932 111.56 143.93 111.241 143.898C110.61 143.816 110.008 143.606 109.501 143.231C110.141 143.248 110.722 143.36 111.302 143.42C111.593 143.459 111.881 143.482 112.169 143.495C112.46 143.5 112.75 143.51 113.062 143.442Z" fill="#5A2F29"/>
<path d="M32.2792 171.875C27.2792 171.875 23.2285 167.992 23.2285 163.208C23.2285 158.42 27.2792 154.542 32.2792 154.542C37.2765 154.542 41.3325 158.42 41.3325 163.208C41.3325 167.992 37.2765 171.875 32.2792 171.875Z" fill="#EBBEB6"/>
<path d="M104.264 171.875C99.2623 171.875 95.209 167.992 95.209 163.208C95.209 158.42 99.2623 154.542 104.264 154.542C109.262 154.542 113.314 158.42 113.314 163.208C113.314 167.992 109.262 171.875 104.264 171.875Z" fill="#EBBEB6"/>
</svg>
