<svg width="143" height="137" viewBox="0 0 143 137" fill="none" xmlns="http://www.w3.org/2000/svg">
<path d="M82.9199 12.3177C79.8923 9.51366 73.6276 7.85232 67.2954 8.46965C54.9063 9.67899 54.1486 3.87099 54.1486 3.87099C52.8871 6.77499 55.309 9.67899 55.309 9.67899C47.624 9.19366 48.2308 0.237656 48.2308 0.237656C43.3282 6.29099 48.2308 11.4936 48.2308 11.4936C43.2891 9.29364 42.0204 11.4936 42.0204 11.4936C42.0204 11.4936 43.0319 9.7963 47.836 15.2896C3.07563 19.2216 0.795898 69.5617 0.795898 84.111C0.795898 101.402 24.7986 131.734 71.4819 131.734C118.166 131.734 142.168 101.766 142.168 84.111C142.168 67.7257 140.582 14.9283 82.9199 12.3177Z" fill="#5662B7"/>
<path d="M48.231 95.2883C48.231 98.0643 45.8832 100.319 42.9836 100.319C40.0889 100.319 37.7373 98.0643 37.7373 95.2883C37.7373 92.5149 40.0889 90.2643 42.9836 90.2643C45.8832 90.2643 48.231 92.5149 48.231 95.2883Z" fill="#FFFBFD"/>
<path d="M41.9392 95.895C41.3637 95.895 40.8955 95.4443 40.8955 94.895C40.8955 94.3416 41.3637 93.8923 41.9392 93.8923C42.5179 93.8923 42.9835 94.3416 42.9835 94.895C42.9835 95.4443 42.5179 95.895 41.9392 95.895ZM41.4388 97.1403C41.1424 97.1403 40.9017 96.9096 40.9017 96.6283C40.9017 96.347 41.1424 96.1176 41.4388 96.1176C41.7309 96.1176 41.9705 96.347 41.9705 96.6283C41.9705 96.9096 41.7309 97.1403 41.4388 97.1403ZM42.8955 93.275C40.97 93.275 40.0361 94.627 40.0361 96.0123C40.0361 97.5243 41.3247 98.751 42.8955 98.751C44.4741 98.751 45.7544 97.5243 45.7544 96.0123C45.7544 94.503 44.4741 93.275 42.8955 93.275Z" fill="#212121"/>
<path d="M35.3278 90.5164C35.293 90.5164 35.258 90.5137 35.2226 90.507C34.8987 90.4497 34.6821 90.1404 34.7398 89.815C35.1633 87.379 37.2851 85.6657 39.9143 85.6657C39.9237 85.6657 39.9335 85.6657 39.9435 85.6657C40.6701 85.6643 41.4351 85.791 42.2165 86.0577C42.5278 86.1643 42.694 86.503 42.5878 86.815C42.5034 87.0617 42.2716 87.2177 42.0236 87.2177C41.9596 87.2177 41.895 87.207 41.831 87.1857C41.1669 86.959 40.5326 86.8577 39.9435 86.8577C37.8039 86.8697 36.2539 88.1603 35.9143 90.0243C35.8627 90.3137 35.6111 90.5164 35.3278 90.5164Z" fill="#232D49"/>
<path d="M94.7275 95.2883C94.7275 98.0643 97.0755 100.319 99.9822 100.319C102.878 100.319 105.23 98.0643 105.23 95.2883C105.23 92.5149 102.878 90.2643 99.9822 90.2643C97.0755 90.2643 94.7275 92.5149 94.7275 95.2883Z" fill="#FFFBFD"/>
<path d="M99.9827 94.895C99.9827 94.3416 100.444 93.8923 101.024 93.8923C101.603 93.8923 102.067 94.3416 102.067 94.895C102.067 95.4443 101.603 95.895 101.024 95.895C100.444 95.895 99.9827 95.4443 99.9827 94.895ZM100.992 96.6283C100.992 96.347 101.235 96.1176 101.527 96.1176C101.82 96.1176 102.057 96.347 102.057 96.6283C102.057 96.9096 101.82 97.1403 101.527 97.1403C101.235 97.1403 100.992 96.9096 100.992 96.6283ZM97.208 96.0123C97.208 97.5243 98.4853 98.751 100.067 98.751C101.643 98.751 102.923 97.5243 102.923 96.0123C102.923 94.627 101.989 93.275 100.067 93.275C98.4853 93.275 97.208 94.503 97.208 96.0123Z" fill="#212121"/>
<path d="M107.634 90.5164C107.35 90.5164 107.098 90.3137 107.047 90.0243C106.707 88.1603 105.159 86.871 103.017 86.8577C102.427 86.8577 101.791 86.959 101.127 87.187C101.063 87.2084 100.999 87.219 100.935 87.219C100.687 87.219 100.455 87.063 100.37 86.815C100.263 86.503 100.43 86.163 100.742 86.0577C101.523 85.791 102.29 85.6657 103.017 85.6657C103.027 85.6657 103.037 85.6657 103.047 85.6657C105.678 85.6657 107.798 87.379 108.222 89.815V89.8164C108.279 90.1404 108.063 90.4497 107.739 90.507C107.703 90.5137 107.669 90.5164 107.634 90.5164Z" fill="#232D49"/>
<path d="M64.9446 130.875C64.9446 130.875 70.9342 136.463 78.7915 130.875L81.866 131.482C81.866 131.482 79.6863 136.463 71.4388 136.463C63.1899 136.463 62.0098 131.682 62.0098 131.682L64.9446 130.875Z" fill="#D7CAC0"/>
<path d="M100.723 118.051C98.4981 102.414 77.8265 103.758 71.4697 103.758C65.1093 103.758 44.3848 102.408 42.1661 118.047C39.9479 133.65 64.0411 135.975 71.4348 126.455C77.8556 134.996 102.941 133.662 100.723 118.051Z" fill="#F1E3D6"/>
<path d="M82.4431 120.726C82.4431 121.031 82.1816 121.279 81.8576 121.279C81.541 121.279 81.2842 121.031 81.2842 120.726C81.2842 120.416 81.541 120.168 81.8576 120.168C82.1816 120.168 82.4431 120.416 82.4431 120.726Z" fill="#1C0B0F"/>
<path d="M86.5068 120.412C86.5068 120.719 86.2469 120.97 85.9245 120.97C85.601 120.97 85.3428 120.719 85.3428 120.412C85.3428 120.103 85.601 119.852 85.9245 119.852C86.2469 119.852 86.5068 120.103 86.5068 120.412Z" fill="#1C0B0F"/>
<path d="M84.5979 123.254C84.5979 123.563 84.3375 123.812 84.0182 123.812C83.6979 123.812 83.437 123.563 83.437 123.254C83.437 122.95 83.6979 122.702 84.0182 122.702C84.3375 122.702 84.5979 122.95 84.5979 123.254Z" fill="#1C0B0F"/>
<path d="M83.4371 126.28C83.4371 126.588 83.1745 126.836 82.8573 126.836C82.5329 126.836 82.2729 126.588 82.2729 126.28C82.2729 125.978 82.5329 125.723 82.8573 125.723C83.1745 125.723 83.4371 125.978 83.4371 126.28Z" fill="#1C0B0F"/>
<path d="M88.2738 125.847C88.2738 126.156 88.0098 126.403 87.691 126.403C87.3712 126.403 87.1123 126.156 87.1123 125.847C87.1123 125.54 87.3712 125.291 87.691 125.291C88.0098 125.291 88.2738 125.54 88.2738 125.847Z" fill="#1C0B0F"/>
<path d="M81.1094 124.37C81.1094 124.675 80.8442 124.927 80.524 124.927C80.2073 124.927 79.9453 124.675 79.9453 124.37C79.9453 124.062 80.2073 123.812 80.524 123.812C80.8442 123.812 81.1094 124.062 81.1094 124.37Z" fill="#1C0B0F"/>
<path d="M88.7348 122.796C88.7348 123.102 88.4728 123.348 88.1599 123.348C87.8307 123.348 87.5703 123.102 87.5703 122.796C87.5703 122.486 87.8307 122.239 88.1599 122.239C88.4728 122.239 88.7348 122.486 88.7348 122.796Z" fill="#1C0B0F"/>
<path d="M56.6437 120.726C56.6437 121.031 56.3833 121.279 56.0613 121.279C55.7405 121.279 55.4863 121.031 55.4863 120.726C55.4863 120.416 55.7405 120.168 56.0613 120.168C56.3833 120.168 56.6437 120.416 56.6437 120.726Z" fill="#1C0B0F"/>
<path d="M60.7058 120.412C60.7058 120.719 60.4475 120.97 60.1267 120.97C59.8084 120.97 59.5459 120.719 59.5459 120.412C59.5459 120.103 59.8084 119.852 60.1267 119.852C60.4475 119.852 60.7058 120.103 60.7058 120.412Z" fill="#1C0B0F"/>
<path d="M58.8065 123.254C58.8065 123.563 58.5384 123.812 58.2232 123.812C57.8988 123.812 57.6357 123.563 57.6357 123.254C57.6357 122.95 57.8988 122.702 58.2232 122.702C58.5384 122.702 58.8065 122.95 58.8065 123.254Z" fill="#1C0B0F"/>
<path d="M57.6354 126.28C57.6354 126.588 57.3818 126.836 57.0573 126.836C56.7381 126.836 56.4756 126.588 56.4756 126.28C56.4756 125.978 56.7381 125.723 57.0573 125.723C57.3818 125.723 57.6354 125.978 57.6354 126.28Z" fill="#1C0B0F"/>
<path d="M62.4753 125.847C62.4753 126.156 62.2133 126.403 61.8931 126.403C61.5737 126.403 61.3076 126.156 61.3076 125.847C61.3076 125.54 61.5737 125.291 61.8931 125.291C62.2133 125.291 62.4753 125.54 62.4753 125.847Z" fill="#1C0B0F"/>
<path d="M55.3088 124.37C55.3088 124.675 55.0495 124.927 54.728 124.927C54.4108 124.927 54.1484 124.675 54.1484 124.37C54.1484 124.062 54.4108 123.812 54.728 123.812C55.0495 123.812 55.3088 124.062 55.3088 124.37Z" fill="#1C0B0F"/>
<path d="M62.9386 122.796C62.9386 123.102 62.6766 123.348 62.3562 123.348C62.0354 123.348 61.7734 123.102 61.7734 122.796C61.7734 122.486 62.0354 122.239 62.3562 122.239C62.6766 122.239 62.9386 122.486 62.9386 122.796Z" fill="#1C0B0F"/>
<path d="M71.4351 126.455C69.8742 128.468 67.5591 129.944 64.9111 130.884L64.945 130.875C64.945 130.875 70.9346 136.463 78.7919 130.875L78.8335 130.884C75.6998 130.039 73.0029 128.547 71.4351 126.455Z" fill="#E47154"/>
<path d="M56.6465 107.356L71.4757 106.666H71.482L86.3153 107.356C86.3153 107.356 73.8558 73.9657 71.482 73.9657C69.1033 73.9657 56.6465 107.356 56.6465 107.356Z" fill="#6778C4"/>
<path d="M86.4109 108.563C86.4109 113.518 77.8766 121.279 70.7682 121.279C63.6589 121.279 56.5469 113.518 56.5469 108.563C56.5469 103.606 60.7463 103.332 65.9223 103.332H77.0359C82.2125 103.332 86.4109 103.606 86.4109 108.563Z" fill="#1C0B0F"/>
</svg>
