<svg width="167" height="121" viewBox="0 0 167 121" fill="none" xmlns="http://www.w3.org/2000/svg">
<path d="M166.932 77.5336L158.564 69.5616L164.189 68.8843C152.904 49.0723 138.412 33.4736 133.245 28.1936C128.348 22.5656 122.593 18.6296 114.175 15.2523C87.5013 4.55363 53.148 8.38696 29.5133 36.1563L29.4413 35.983C29.4413 35.983 9.67866 56.563 3.65599 69.695L9.28535 70.375L0.916016 78.347L13.176 76.8243L9.28535 83.091C9.28535 83.091 37.8307 120.92 82.3947 120.92C126.964 120.92 158.564 82.2803 158.564 82.2803L154.667 76.011L166.932 77.5336Z" fill="#DEDDDF"/>
<path d="M86.1894 98.6576L85.8574 101.158C87.3841 98.6669 95.6267 91.9603 112.772 85.8896C138.368 76.8376 149.088 67.9936 159.552 61.2269C149.688 45.8536 138.783 33.9163 133.909 28.8789C109.031 70.1603 91.5307 64.5269 86.1894 98.6576Z" fill="#3A3D46"/>
<path d="M83.5064 98.6576C82.2251 69.0789 60.8225 70.1189 36.0572 29.3243C33.8012 31.4216 31.6131 33.6896 29.5131 36.1563L29.4411 35.9829C29.4411 35.9829 17.2305 48.7016 9.07715 60.5229C19.5051 67.4816 30.5705 81.7509 56.4572 85.8896C77.8412 89.3109 82.3131 98.6669 83.8398 101.158L83.5064 98.6576Z" fill="#3A3D46"/>
<path d="M83.9813 96.515C83.9813 96.515 83.9813 111.543 83.9813 113.991C83.9839 114.494 83.744 115.052 83.3106 115.475C82.8773 115.899 82.2706 116.186 81.5306 116.186C80.3946 116.188 78.8373 115.49 77.1746 113.188C76.9786 112.918 76.6013 112.856 76.3306 113.052C76.0586 113.247 75.9973 113.626 76.1933 113.896C77.9826 116.383 79.8746 117.395 81.5306 117.396C83.6639 117.387 85.1813 115.727 85.1919 113.991C85.1919 112.767 85.1919 108.398 85.1919 104.335C85.1919 100.272 85.1919 96.523 85.1919 96.515C85.1919 96.1804 84.9199 95.9097 84.5866 95.9097C84.2519 95.9097 83.9813 96.1804 83.9813 96.515Z" fill="#242327"/>
<path d="M83.8838 96.515C83.8838 96.515 83.8838 111.543 83.8838 113.991C83.8931 115.727 85.4132 117.387 87.5465 117.396C89.2025 117.395 91.0945 116.383 92.8825 113.896C93.0785 113.624 93.0172 113.247 92.7465 113.052C92.4745 112.856 92.0971 112.918 91.9011 113.188C90.2398 115.49 88.6825 116.188 87.5465 116.186C86.8065 116.186 86.1984 115.898 85.7651 115.475C85.3304 115.051 85.0918 114.494 85.0932 113.991C85.0932 112.767 85.0932 108.398 85.0932 104.335C85.0932 100.272 85.0932 96.523 85.0932 96.515C85.0932 96.1804 84.8225 95.9097 84.4891 95.9097C84.1545 95.9097 83.8838 96.1804 83.8838 96.515Z" fill="#242327"/>
<path d="M69.224 104.948C69.224 108.715 66.0333 111.776 62.096 111.776C58.152 111.776 54.96 108.715 54.96 104.948C54.96 101.175 58.152 98.1149 62.096 98.1149C66.0333 98.1149 69.224 101.175 69.224 104.948Z" fill="#D8A5A7"/>
<path d="M114.118 104.948C114.118 108.715 110.928 111.776 106.989 111.776C103.049 111.776 99.853 108.715 99.853 104.948C99.853 101.175 103.049 98.1149 106.989 98.1149C110.928 98.1149 114.118 101.175 114.118 104.948Z" fill="#D8A5A7"/>
<path d="M96.1815 101.528C94.4948 103.943 91.6148 106.142 88.2628 107.356C86.5295 107.982 82.5575 107.986 80.8388 107.363C77.4788 106.155 74.5988 103.962 72.9028 101.551C71.8895 100.106 69.5975 93.1723 84.5362 93.1723C99.4775 93.1723 97.1841 100.09 96.1815 101.528Z" fill="#2C2A34"/>
<path d="M80.5038 107.242C81.2571 106.603 81.6278 105.787 81.6278 104.896C81.6278 102.87 79.8118 101.228 75.6412 101.228C74.5705 101.228 73.6598 101.335 72.8892 101.528C74.5225 103.868 77.2745 106.003 80.5038 107.242Z" fill="#1E1C22"/>
<path d="M96.1813 101.528C95.4146 101.335 94.4987 101.228 93.4307 101.228C89.2627 101.228 87.4453 102.87 87.4453 104.896C87.4453 105.784 87.8146 106.603 88.568 107.242C91.7933 106.004 94.5533 103.868 96.1813 101.528Z" fill="#1E1C22"/>
<path d="M91.1064 95.259C91.1064 95.259 87.9344 92.7603 80.1077 94.6576C73.2424 96.3203 73.2264 100.012 73.7971 100.047C74.3664 100.083 78.5531 99.0883 81.3158 101.468C84.0771 103.851 76.1184 96.9296 91.1064 95.259Z" fill="#383543"/>
<path d="M7.12263 67.8962C7.63463 67.7896 8.20532 67.8669 8.68799 67.6683C8.89466 67.5856 8.89599 67.3296 8.68799 67.2469C8.15332 67.0296 7.50663 67.1763 6.95863 67.3003C6.56796 67.3883 6.73463 67.9776 7.12263 67.8962Z" fill="#C0BEBC"/>
<path d="M11.3908 71.935C12.2668 71.9376 13.1334 72.131 13.9974 72.119C14.2227 72.1163 14.2894 71.8283 14.1081 71.711C13.3521 71.2176 12.2588 71.3123 11.3908 71.315C10.9934 71.3176 10.9934 71.9323 11.3908 71.935Z" fill="#C0BEBC"/>
<path d="M7.14808 76.171C7.79475 76.0363 8.45478 76.003 9.11612 75.9803C9.72812 75.9577 10.3561 75.9683 10.8721 75.5963C11.1028 75.4297 11.1841 75.019 10.8721 74.8723C9.67477 74.307 7.74943 74.6577 6.75876 75.5043C6.43343 75.783 6.78675 76.2483 7.14808 76.171Z" fill="#C0BEBC"/>
<path d="M11.6107 67.1256C12.132 67.5283 14.5893 69.1403 14.9373 67.875C15.3067 66.5323 12.5374 66.067 11.7107 66.3603C11.344 66.4896 11.3227 66.903 11.6107 67.1256Z" fill="#C0BEBC"/>
<path d="M18.3319 71.351C19.0225 71.7736 19.6399 72.275 20.2399 72.815C20.8345 73.347 21.3026 73.6817 22.0532 73.955C22.3266 74.055 22.4439 73.703 22.3052 73.5217C21.3759 72.3243 20.0212 71.4603 18.6652 70.783C18.2879 70.5936 17.9679 71.1283 18.3319 71.351Z" fill="#C0BEBC"/>
<path d="M16.9425 75.7283C17.4265 75.8123 17.8971 75.9256 18.3705 76.0563C18.8025 76.1763 19.2039 76.3563 19.6572 76.3256C19.8585 76.3136 20.0305 76.0403 19.8398 75.883C19.1465 75.3163 18.0025 75.1656 17.1385 75.015C16.6732 74.935 16.4745 75.647 16.9425 75.7283Z" fill="#C0BEBC"/>
<path d="M16.1733 82.199C16.8013 82.179 17.432 82.2323 18.056 82.207C18.2146 82.2003 18.3026 81.9683 18.1426 81.8897C17.5386 81.5977 16.8306 81.6203 16.1733 81.6003C15.7879 81.5883 15.7879 82.211 16.1733 82.199Z" fill="#C0BEBC"/>
<path d="M26.0318 79.5176C27.0611 79.9683 28.0745 80.4576 29.1731 80.7136C29.4051 80.767 29.5411 80.4563 29.3345 80.3296C28.3745 79.7403 27.3105 79.3776 26.2625 78.971C25.9465 78.8496 25.7211 79.3816 26.0318 79.5176Z" fill="#C0BEBC"/>
<path d="M25.8973 84.1577C27.3079 84.8657 29.0319 85.7003 30.6453 85.3563C31.0306 85.275 31.02 84.7817 30.7466 84.591C29.556 83.759 28.036 83.3843 26.7546 82.695C25.788 82.1723 24.9253 83.671 25.8973 84.1577Z" fill="#C0BEBC"/>
<path d="M35.0959 82.3896C36.9412 83.4323 38.6865 84.6083 40.8292 84.895C41.1399 84.9363 41.3038 84.475 41.0825 84.2816C39.5198 82.923 37.6878 82.0176 35.8305 81.1323C34.9945 80.7336 34.2679 81.923 35.0959 82.3896Z" fill="#C0BEBC"/>
<path d="M22.0013 76.755C22.7053 77.6056 24.3387 79.6563 25.5813 78.5656C26.136 78.0776 25.4146 77.303 25.004 77.0376C24.2853 76.571 23.468 76.2283 22.7027 75.8456C22.0973 75.5443 21.5826 76.2496 22.0013 76.755Z" fill="#C0BEBC"/>
<path d="M46.0614 87.515C47.2694 87.871 48.6574 88.451 49.9267 88.255C50.3041 88.195 50.2667 87.7003 50.0214 87.5243C49.0201 86.8097 47.5094 86.7697 46.328 86.5537C45.7027 86.439 45.4374 87.331 46.0614 87.515Z" fill="#C0BEBC"/>
<path d="M42.2798 90.3524C43.7678 90.419 45.2451 91.2497 46.7264 90.999C47.0638 90.943 47.0598 90.4817 46.8158 90.3244C45.5691 89.5324 43.7358 89.2857 42.2798 89.2737C41.5824 89.2697 41.5904 90.3217 42.2798 90.3524Z" fill="#C0BEBC"/>
<path d="M54.1678 92.1256C55.7918 92.1883 57.9212 92.7763 59.4438 92.0936C59.7012 91.9789 59.6972 91.5389 59.4438 91.4216C57.9532 90.7296 55.7771 91.0643 54.1678 91.1069C53.5104 91.1256 53.5131 92.1003 54.1678 92.1256Z" fill="#C0BEBC"/>
<path d="M62.137 90.2443C62.7957 90.4603 63.445 90.7029 64.0904 90.9603C64.7704 91.2309 65.4597 91.5949 66.2077 91.5509C66.5224 91.5336 66.6557 91.1896 66.4544 90.9549C65.9997 90.4243 65.3223 90.1776 64.6863 89.9216C63.9517 89.6229 63.2064 89.3509 62.449 89.1083C61.7237 88.8776 61.4197 90.0083 62.137 90.2443Z" fill="#C0BEBC"/>
<path d="M34.5932 86.5123C35.9345 86.4523 36.9278 87.471 38.2185 87.5057C38.4918 87.5123 38.6731 87.1323 38.4505 86.943C37.4545 86.1043 35.9052 85.507 34.5932 85.6136C34.0225 85.6603 34.0092 86.539 34.5932 86.5123Z" fill="#C0BEBC"/>
<path d="M17.4799 88.527C19.1413 87.831 20.904 87.515 22.6293 87.027C22.9506 86.9363 22.856 86.5096 22.5546 86.479C20.616 86.2696 18.8386 86.7883 17.0639 87.543C16.5039 87.779 16.9173 88.763 17.4799 88.527Z" fill="#C0BEBC"/>
<path d="M23.1361 91.679C24.2254 91.6684 25.3294 91.5537 26.3801 91.255C26.6001 91.1924 26.5508 90.871 26.3268 90.863C25.2628 90.8244 24.2001 90.991 23.1361 91.0017C22.6988 91.0057 22.6988 91.6844 23.1361 91.679Z" fill="#C0BEBC"/>
<path d="M160.581 65.5003C159.114 64.795 157.39 64.6896 155.908 65.431C155.578 65.5963 155.672 66.1083 156.009 66.1963C157.418 66.567 158.896 66.2696 160.33 66.431C160.821 66.487 161.014 65.711 160.581 65.5003Z" fill="#C0BEBC"/>
<path d="M155.445 69.8977C154.348 69.399 152.981 69.327 152.049 70.2124C151.822 70.427 151.924 70.8603 152.238 70.9297C153.256 71.151 154.228 70.5977 155.249 70.623C155.617 70.6324 155.806 70.0617 155.445 69.8977Z" fill="#C0BEBC"/>
<path d="M155.542 73.887C157.192 74.015 158.773 75.095 160.44 74.7937C160.733 74.7404 160.842 74.3017 160.618 74.1097C159.316 72.9964 157.21 72.6604 155.542 72.6897C154.762 72.703 154.78 73.827 155.542 73.887Z" fill="#C0BEBC"/>
<path d="M148.579 79.223C149.897 79.0736 151.465 79.019 152.676 78.459C152.957 78.3296 152.883 77.8643 152.591 77.803C151.312 77.535 149.86 78.0416 148.579 78.1843C147.921 78.2603 147.915 79.2976 148.579 79.223Z" fill="#C0BEBC"/>
<path d="M149.864 83.6057C150.823 83.075 152.071 83.1763 152.905 82.4363C153.108 82.2577 153.007 81.8777 152.743 81.8203C151.633 81.583 150.263 82.0963 149.331 82.6923C148.757 83.059 149.265 83.9377 149.864 83.6057Z" fill="#C0BEBC"/>
<path d="M145.1 89.3296C146.54 89.3336 148.161 89.223 149.445 88.527C149.678 88.4003 149.588 87.979 149.305 88.007C147.886 88.151 146.542 88.5896 145.1 88.6323C144.65 88.6456 144.648 89.3296 145.1 89.3296Z" fill="#C0BEBC"/>
<path d="M140.316 86.8616C141.62 86.7763 143.304 86.7176 144.423 85.9816C144.713 85.7896 144.651 85.3843 144.331 85.2696C143.017 84.8043 141.476 85.6056 140.177 85.843C139.601 85.947 139.735 86.9003 140.316 86.8616Z" fill="#C0BEBC"/>
<path d="M140.424 82.2937C141.44 81.8977 142.533 81.6777 143.485 81.135C143.69 81.0163 143.602 80.6857 143.364 80.6883C142.26 80.7003 141.216 81.0883 140.208 81.5043C139.729 81.703 139.929 82.487 140.424 82.2937Z" fill="#C0BEBC"/>
<path d="M143.44 75.0669C144.252 74.5003 145.169 74.0496 146.084 73.6736C146.947 73.3176 148.029 73.1416 148.676 72.4296C148.937 72.1429 148.86 71.6016 148.435 71.5123C147.413 71.2989 146.403 71.8576 145.512 72.3163C144.497 72.8389 143.633 73.4896 142.895 74.3616C142.587 74.7256 142.995 75.3776 143.44 75.0669Z" fill="#C0BEBC"/>
<path d="M145.625 76.5416C146.973 75.9869 148.357 75.5696 149.692 74.9816C149.9 74.8882 149.744 74.5949 149.547 74.6349C148.12 74.9189 146.783 75.3029 145.441 75.8696C145.033 76.0402 145.208 76.7136 145.625 76.5416Z" fill="#C0BEBC"/>
<path d="M135.173 79.4203C136.028 79.0976 136.819 78.6843 137.624 78.2616C137.757 78.1923 137.664 77.9869 137.525 78.0243C136.672 78.2536 135.855 78.5749 135.009 78.8243C134.623 78.9363 134.805 79.5589 135.173 79.4203Z" fill="#C0BEBC"/>
<path d="M134.651 83.0936C135.853 82.675 137.275 82.403 138.299 81.6176C138.541 81.4323 138.48 81.0336 138.137 81.023C136.844 80.9816 135.564 81.651 134.375 82.0936C133.756 82.323 134.012 83.315 134.651 83.0936Z" fill="#C0BEBC"/>
<path d="M124.941 85.2056C125.728 84.9016 126.46 84.3922 127.221 84.0202C128.022 83.6282 128.85 83.4322 129.5 82.8082C129.825 82.4962 129.569 81.9696 129.148 81.9562C128.201 81.9269 127.353 82.4002 126.506 82.7962C125.724 83.1629 124.809 83.6629 124.322 84.3976C124.068 84.7802 124.492 85.3776 124.941 85.2056Z" fill="#C0BEBC"/>
<path d="M131.034 88.3697C132.022 88.387 133.086 88.5417 133.998 88.1017C134.278 87.967 134.278 87.495 133.998 87.3617C133.086 86.9217 132.022 87.075 131.034 87.0937C130.211 87.107 130.211 88.355 131.034 88.3697Z" fill="#C0BEBC"/>
<path d="M137.149 92.6056C137.707 92.7616 138.245 92.7803 138.793 92.583C139.059 92.487 139.059 92.1403 138.793 92.0443C138.337 91.879 137.853 91.8696 137.388 91.739C136.831 91.583 136.593 92.4496 137.149 92.6056Z" fill="#C0BEBC"/>
<path d="M138.861 95.9363C140.141 95.835 141.544 95.7883 142.516 94.851C142.765 94.611 142.635 94.1963 142.319 94.1016C141.083 93.7283 139.885 94.3296 138.672 94.547C137.887 94.6856 138.067 95.999 138.861 95.9363Z" fill="#C0BEBC"/>
<path d="M126.537 92.155C127.553 92.2057 128.635 92.4817 129.639 92.227C129.829 92.179 129.829 91.8897 129.639 91.8417C128.635 91.5883 127.553 91.8643 126.537 91.915C126.383 91.923 126.383 92.147 126.537 92.155Z" fill="#C0BEBC"/>
<path d="M118.851 91.591C119.663 91.311 120.487 91.0497 121.315 90.8244C122.065 90.6164 122.871 90.5724 123.315 89.8564C123.507 89.5444 123.364 89.1763 123.086 88.9843C122.408 88.5137 121.599 88.8377 120.911 89.1377C120.012 89.527 119.22 90.0124 118.428 90.5884C117.96 90.9297 118.22 91.8097 118.851 91.591Z" fill="#C0BEBC"/>
<path d="M111.534 91.8403C112.342 91.3283 113.212 90.9177 114.085 90.5323C114.979 90.139 115.912 89.8523 116.468 89.0017C116.729 88.603 116.38 88.1217 115.951 88.1017C114.976 88.0523 114.057 88.611 113.205 89.027C112.273 89.4817 111.43 90.007 110.64 90.6803C109.997 91.2283 110.832 92.283 111.534 91.8403Z" fill="#C0BEBC"/>
<path d="M34.1597 91.179C35.217 91.2364 36.1264 91.7497 37.1517 91.939C37.3637 91.9803 37.481 91.7164 37.2983 91.5937C36.3863 90.9777 35.2544 90.6697 34.1597 90.6604C33.8224 90.6577 33.8277 91.1604 34.1597 91.179Z" fill="#C0BEBC"/>
<path d="M32.5638 95.3203C33.8531 95.3643 35.0425 95.799 36.2905 96.0656C36.4505 96.1003 36.5638 95.8736 36.4064 95.7923C35.2158 95.1803 33.9011 94.875 32.5638 94.8616C32.2678 94.8576 32.2704 95.3096 32.5638 95.3203Z" fill="#C0BEBC"/>
<path d="M41.9893 94.663C43.3506 94.6697 44.6946 94.9523 46.0493 94.943C46.2973 94.9417 46.4413 94.5523 46.1839 94.4403C44.8999 93.8857 43.3719 93.8617 41.9893 93.8457C41.4613 93.8403 41.4613 94.6603 41.9893 94.663Z" fill="#C0BEBC"/>
<path d="M102.664 94.3496C103.19 94.1029 103.932 93.7429 104.273 93.2696C104.386 93.1109 104.232 92.8963 104.057 92.895C103.404 92.8883 102.616 93.579 102.502 94.2256L102.664 94.3496Z" fill="#C0BEBC"/>
<path d="M57.0092 19.031C57.3065 19.7763 57.8746 20.9083 58.6799 21.1857C58.8826 21.255 59.1386 21.0697 59.1186 20.851C59.0439 19.9963 58.0985 19.1737 57.4319 18.707C57.2332 18.567 56.9185 18.799 57.0092 19.031Z" fill="#C0BEBC"/>
<path d="M59.3263 25.2789C59.4223 26.2443 59.8196 28.1842 61.0089 28.3482C61.2743 28.3842 61.4863 28.2469 61.5076 27.9682C61.545 27.5122 61.2743 27.1096 61.0223 26.7482C60.6796 26.2576 60.413 25.7296 60.241 25.1562C60.097 24.6682 59.2717 24.7389 59.3263 25.2789Z" fill="#C0BEBC"/>
<path d="M65.0477 22.435C65.0437 23.3737 64.8797 25.0484 65.8983 25.527C66.0357 25.5924 66.213 25.571 66.2904 25.4244C66.777 24.515 66.017 23.227 65.705 22.3457C65.5824 21.9977 65.049 22.0417 65.0477 22.435Z" fill="#C0BEBC"/>
<path d="M69.8197 16.947C70.0557 17.947 70.2477 18.895 70.6891 19.8283C70.7744 20.0083 71.0331 19.8776 70.9958 19.7003C70.7798 18.699 70.5811 17.7456 70.1691 16.8003C70.0798 16.5936 69.7731 16.7456 69.8197 16.947Z" fill="#C0BEBC"/>
<path d="M70.616 22.4349C70.6987 23.4429 70.5747 25.0856 71.4747 25.7496C71.668 25.8922 71.9386 25.7362 72.0013 25.5349C72.1493 25.0656 71.9867 24.6069 71.856 24.1482C71.6853 23.5469 71.528 22.9376 71.3693 22.3322C71.26 21.9242 70.5814 21.9962 70.616 22.4349Z" fill="#C0BEBC"/>
<path d="M64.2199 16.8963C64.2759 17.5523 64.3866 18.1949 64.5572 18.8296C64.7052 19.3803 64.9879 20.0683 65.5906 20.195C65.7772 20.2323 66.0306 20.1763 66.1159 19.9803C66.3692 19.4003 66.0958 19.0176 65.8678 18.4683C65.6318 17.899 65.3772 17.3589 65.2065 16.7629C65.0532 16.2336 64.1692 16.3176 64.2199 16.8963Z" fill="#C0BEBC"/>
<path d="M75.7454 14.8417C75.8507 15.9123 75.82 17.0403 76.3347 18.0083C76.46 18.2457 76.8734 18.2083 76.9254 17.9323C77.1321 16.8403 76.7414 15.7937 76.4734 14.743C76.3734 14.3457 75.7054 14.419 75.7454 14.8417Z" fill="#C0BEBC"/>
<path d="M83.06 14.9989C83.116 15.8789 82.8707 16.8803 83.2613 17.7003C83.3653 17.9189 83.7347 17.9189 83.8387 17.7003C84.2453 16.8443 83.968 15.7709 83.6947 14.9136C83.588 14.5789 83.036 14.6216 83.06 14.9989Z" fill="#C0BEBC"/>
<path d="M90.4921 15.9497C90.4601 16.515 90.3175 17.147 90.5775 17.6683C90.6655 17.8483 90.9628 17.8483 91.0522 17.6683C91.3122 17.147 91.1681 16.515 91.1375 15.9497C91.1135 15.5337 90.5148 15.5337 90.4921 15.9497Z" fill="#C0BEBC"/>
<path d="M100.45 17.611C100.214 18.651 99.7735 19.627 99.6735 20.6923C99.6508 20.9323 99.9842 20.983 100.097 20.807C100.676 19.899 100.855 18.8176 101.004 17.7656C101.053 17.4096 100.535 17.2416 100.45 17.611Z" fill="#C0BEBC"/>
<path d="M63.4306 31.507C63.9159 32.7363 64.3519 34.5323 65.4733 35.3363C65.7146 35.5096 66.12 35.3376 66.1746 35.051C66.4306 33.7336 65.492 32.2576 65.0213 31.067C64.6346 30.091 63.0386 30.515 63.4306 31.507Z" fill="#C0BEBC"/>
<path d="M72.4491 29.8537C72.6064 30.4603 72.7664 31.0644 72.9131 31.6737C73.0638 32.2977 73.1105 32.991 73.4931 33.5244C73.6758 33.7817 74.0411 33.7443 74.1491 33.4377C74.3584 32.8443 74.1878 32.2257 74.0518 31.6297C73.8904 30.9363 73.6944 30.2497 73.5117 29.5617C73.3304 28.8764 72.2744 29.1657 72.4491 29.8537Z" fill="#C0BEBC"/>
<path d="M78.3387 21.8017C78.4213 22.5497 78.5613 23.2857 78.7066 24.0257C78.8453 24.7417 78.8866 25.463 79.2333 26.1163C79.3693 26.3723 79.808 26.3923 79.9373 26.1163C80.572 24.755 79.7053 23.039 79.4907 21.6457C79.3893 20.9937 78.268 21.147 78.3387 21.8017Z" fill="#C0BEBC"/>
<path d="M86.4346 24.4883C86.4346 25.5403 86.4839 26.5123 86.6586 27.5483C86.6893 27.7443 87.0173 27.7443 87.0493 27.5483C87.2226 26.5123 87.2732 25.5403 87.2732 24.4883C87.2732 23.947 86.4346 23.947 86.4346 24.4883Z" fill="#C0BEBC"/>
<path d="M96.7759 26.0709C96.6359 27.2722 96.6906 28.3562 96.8306 29.5482C96.8639 29.8456 97.2386 29.9056 97.3466 29.6189C97.5613 29.0482 97.7466 28.5136 97.8466 27.9123C97.9399 27.3616 97.9572 26.7963 98.0452 26.2429C98.1932 25.3149 96.8866 25.1402 96.7759 26.0709Z" fill="#C0BEBC"/>
<path d="M85.7707 20.9843C85.42 21.8829 85.0467 22.9816 85.428 23.9283C85.5333 24.1896 85.8533 24.1883 85.9587 23.9283C86.3253 23.0229 86.004 21.9496 85.9574 21.0096L85.7707 20.9843Z" fill="#C0BEBC"/>
<path d="M91.9863 20.9843C92.2703 22.619 91.4623 24.6923 92.321 26.1896C92.525 26.547 93.0663 26.547 93.2716 26.1896C94.1823 24.5976 93.241 22.3656 92.9543 20.7176C92.8436 20.0803 91.8769 20.351 91.9863 20.9843Z" fill="#C0BEBC"/>
<path d="M79.9865 31.6083C80.7238 33.5257 80.2398 35.991 81.4971 37.691C81.7038 37.9723 82.2785 38.0257 82.3478 37.579C82.6745 35.491 81.9585 33.1923 81.1638 31.283C80.8678 30.575 79.7011 30.8657 79.9865 31.6083Z" fill="#C0BEBC"/>
<path d="M100.651 32.575C100.061 33.343 99.792 34.1243 99.7334 35.0843C99.72 35.2803 100.004 35.3003 100.061 35.1283C100.324 34.343 100.64 33.5256 101.127 32.851C101.336 32.5603 100.861 32.299 100.651 32.575Z" fill="#C0BEBC"/>
<path d="M93.1973 32.3229C92.9427 33.6016 92.4 35.0376 92.5213 36.3483C92.5467 36.6189 92.8773 36.7256 93.0333 36.4869C93.7773 35.3563 93.6533 33.6963 93.7373 32.3949C93.7573 32.0869 93.2587 32.0176 93.1973 32.3229Z" fill="#C0BEBC"/>
<path d="M69.7385 38.1603C70.1838 39.6909 70.4931 41.6536 71.4398 42.9576C71.6105 43.1963 71.9411 43.0483 71.8971 42.7656C71.7745 41.9389 71.3692 41.1563 71.0825 40.3749C70.7958 39.5936 70.5331 38.8043 70.2705 38.0149C70.1585 37.6816 69.6398 37.8176 69.7385 38.1603Z" fill="#C0BEBC"/>
<path d="M74.396 38.2003C74.5467 39.0563 74.696 39.915 74.828 40.775C74.944 41.5456 74.9813 42.2963 75.3227 43.007C75.452 43.2776 75.8907 43.2056 75.956 42.9243C76.312 41.3736 75.5573 39.4843 75.204 37.9763C75.0787 37.4443 74.3054 37.6763 74.396 38.2003Z" fill="#C0BEBC"/>
<path d="M84.1943 38.7203C84.1476 39.8976 83.9289 41.1003 84.1783 42.2576C84.2169 42.427 84.4703 42.4576 84.5517 42.3056C85.1303 41.2083 84.9356 39.9256 84.8863 38.7203C84.8703 38.2736 84.213 38.2736 84.1943 38.7203Z" fill="#C0BEBC"/>
<path d="M85.528 31.6043C85.5053 32.5309 85.3173 33.6283 85.632 34.5149C85.7133 34.7416 86.012 34.7416 86.0934 34.5149C86.408 33.6283 86.22 32.5309 86.1973 31.6043C86.1867 31.1736 85.5387 31.1736 85.528 31.6043Z" fill="#C0BEBC"/>
<path d="M90.0574 40.5003C89.9108 41.3296 89.7707 42.1589 89.6534 42.9923C89.5467 43.7416 89.4415 44.5483 89.8628 45.2136C90.0001 45.4336 90.3014 45.4269 90.4414 45.2136C90.8348 44.6123 90.8267 43.8523 90.8321 43.1536C90.8401 42.3069 90.8854 41.4616 90.9281 40.6176C90.9521 40.1243 90.1454 40.0069 90.0574 40.5003Z" fill="#C0BEBC"/>
<path d="M96.1197 41.6376C95.9397 42.5043 95.6317 43.3776 95.5317 44.2536C95.501 44.5176 95.8543 44.5403 95.9783 44.375C96.5023 43.667 96.5757 42.6536 96.7423 41.8096C96.8237 41.403 96.205 41.2283 96.1197 41.6376Z" fill="#C0BEBC"/>
<path d="M73.7517 50.547C74.169 51.291 74.4796 52.0737 74.7676 52.875C75.0169 53.567 75.2516 54.335 75.7676 54.879C75.9156 55.035 76.2396 54.9257 76.217 54.6924C76.069 53.2004 75.033 51.4964 74.1863 50.295C74.001 50.0337 73.5917 50.2617 73.7517 50.547Z" fill="#C0BEBC"/>
<path d="M78.3748 47.259C78.5762 49.147 79.0615 50.9656 79.7802 52.7149C79.8828 52.9656 80.3215 53.0563 80.3802 52.7149C80.7308 50.7083 79.6575 49.0363 79.1269 47.1576C79.0122 46.7536 78.3282 46.819 78.3748 47.259Z" fill="#C0BEBC"/>
<path d="M85.5545 51.0389C85.1945 52.6016 84.8811 54.1656 85.3704 55.7269C85.4718 56.0496 85.9118 56.0442 86.0158 55.7269C86.4825 54.3162 86.5145 52.8376 86.8238 51.3869C86.9985 50.5616 85.7465 50.2096 85.5545 51.0389Z" fill="#C0BEBC"/>
<path d="M78.4469 61.5136C78.6509 61.831 78.8229 62.1776 79.1082 62.427C79.2282 62.5283 79.4762 62.475 79.4562 62.2816C79.4162 61.879 79.2229 61.523 79.0669 61.1523C78.8895 60.735 78.1909 61.1136 78.4469 61.5136Z" fill="#C0BEBC"/>
<path d="M81.0388 57.9523C81.2135 58.847 81.3028 59.8336 81.6921 60.6616C81.8041 60.8976 82.1188 60.755 82.1388 60.5416C82.2201 59.6243 81.9095 58.6563 81.7548 57.755C81.6735 57.287 80.9468 57.483 81.0388 57.9523Z" fill="#C0BEBC"/>
<path d="M81.6106 64.9683C81.5759 65.7496 81.5466 66.531 81.5626 67.3136C81.5773 67.931 81.5985 68.7216 81.9785 69.223C82.1145 69.4056 82.4412 69.423 82.5012 69.1563C82.6425 68.5483 82.4346 67.9256 82.3559 67.3136C82.2572 66.5363 82.2226 65.751 82.1866 64.9683C82.1679 64.599 81.6292 64.599 81.6106 64.9683Z" fill="#C0BEBC"/>
<path d="M86.2919 59.847C85.6293 61.5564 85.3319 63.2964 85.4786 65.1257C85.4973 65.3617 85.8319 65.427 85.8999 65.183C86.3799 63.4737 86.3866 61.703 86.7533 59.975C86.8186 59.6684 86.4026 59.563 86.2919 59.847Z" fill="#C0BEBC"/>
<path d="M91.2574 54.2017C90.6107 55.8243 89.812 57.6857 89.6453 59.4363C89.628 59.6123 89.9027 59.6817 89.98 59.5257C90.7627 57.9537 91.0573 55.9497 91.372 54.2323L91.2574 54.2017Z" fill="#C0BEBC"/>
<path d="M94.4119 48.863C93.5945 50.295 92.6625 51.835 92.4865 53.5043C92.4639 53.7123 92.7705 53.7736 92.8652 53.607C93.6759 52.1723 94.0559 50.491 94.6079 48.9456L94.4119 48.863Z" fill="#C0BEBC"/>
<path d="M90.6131 48.2642C90.3144 49.7709 90.0357 51.4189 90.1424 52.9496C90.1544 53.1122 90.3917 53.2136 90.4771 53.0416C91.1571 51.6376 91.0517 49.9816 91.3504 48.4669C91.4464 47.9856 90.7091 47.7789 90.6131 48.2642Z" fill="#C0BEBC"/>
<path d="M83.2905 45.179C83.0065 46.6164 82.4985 48.639 83.0718 50.035C83.1971 50.3404 83.5691 50.3404 83.6944 50.035C84.2678 48.639 83.7598 46.6164 83.4758 45.179H83.2905Z" fill="#C0BEBC"/>
<path d="M70.7013 45.3616C70.7346 46.6989 71.2747 48.3749 72.26 49.2989C72.4187 49.4496 72.6266 49.2949 72.5986 49.1016C72.4973 48.3869 72.232 47.8322 71.94 47.1776C71.6533 46.5416 71.4346 45.8642 71.1026 45.2522C70.9986 45.0642 70.6946 45.1496 70.7013 45.3616Z" fill="#C0BEBC"/>
<path d="M74.8676 57.1429C74.9783 58.1496 75.3223 59.5029 76.1303 60.1829C76.293 60.3216 76.6237 60.2523 76.5997 59.9896C76.4997 58.9416 75.673 57.9309 75.1116 57.0763C75.0476 56.9776 74.8516 57.0016 74.8676 57.1429Z" fill="#C0BEBC"/>
<path d="M87.9797 68.6709C87.7744 69.4629 87.6784 70.2363 87.5744 71.0456C87.5477 71.2603 87.861 71.2669 87.9277 71.0936C88.2103 70.3509 88.4263 69.6163 88.625 68.8483C88.733 68.4309 88.0877 68.2536 87.9797 68.6709Z" fill="#C0BEBC"/>
<path d="M77.0199 69.8136C77.1839 71.8096 77.0919 74.2696 77.9479 76.1136C78.0866 76.4123 78.4786 76.2256 78.5039 75.963C78.6079 74.943 78.3639 73.8976 78.2413 72.8883C78.1159 71.8656 78.0226 70.839 77.9293 69.8136C77.876 69.2363 76.9719 69.227 77.0199 69.8136Z" fill="#C0BEBC"/>
<path d="M80.7904 77.3657C80.6651 78.4324 80.5144 79.495 80.4744 80.5697C80.4438 81.3777 80.3664 82.2017 80.9904 82.8004C81.1811 82.9844 81.4758 82.9844 81.6664 82.8004C82.2904 82.2017 82.2131 81.3777 82.1824 80.5697C82.1424 79.495 81.9918 78.4324 81.8664 77.3657C81.7851 76.6737 80.8718 76.6737 80.7904 77.3657Z" fill="#C0BEBC"/>
<path d="M86.8984 77.4083C86.6051 78.3376 86.3105 79.2683 86.1731 80.235C86.0491 81.119 85.8718 81.9163 86.4598 82.6576C86.6518 82.8976 87.0025 82.823 87.2052 82.6576C87.8732 82.1123 87.8305 81.2603 87.8425 80.4616C87.8598 79.4816 87.7691 78.5176 87.8865 77.5416C87.9545 76.9563 87.0611 76.8923 86.8984 77.4083Z" fill="#C0BEBC"/>
<path d="M82.2076 71.4083C81.8583 72.3496 81.9516 73.7443 82.1583 74.7136C82.3263 75.499 83.6836 75.5576 83.7996 74.7136C83.9396 73.7016 83.765 72.3616 83.385 71.4083C83.1583 70.8403 82.4263 70.8176 82.2076 71.4083Z" fill="#C0BEBC"/>
<path d="M72.3013 58.051C72.4599 58.819 72.5586 59.595 72.664 60.371C72.7373 60.927 72.8066 61.5137 73.1013 61.999C73.1919 62.1497 73.4386 62.091 73.436 61.9084C73.4266 61.2804 73.1866 60.655 73.0119 60.055C72.8146 59.375 72.616 58.6977 72.3693 58.0337L72.3013 58.051Z" fill="#C0BEBC"/>
<path d="M72.416 64.4469C72.5587 65.2469 72.6306 66.0589 72.7866 66.8536C72.9093 67.4763 72.9706 68.2803 73.5946 68.5963C73.7973 68.6976 74.0466 68.6509 74.1653 68.4443C74.528 67.8269 74.1533 67.1536 73.9413 66.5363C73.6773 65.7709 73.3026 65.0363 72.9946 64.2883C72.8466 63.9363 72.348 64.0616 72.416 64.4469Z" fill="#C0BEBC"/>
<path d="M67.6224 45.131C67.8011 45.6857 67.9464 46.2484 68.0931 46.8124C68.2184 47.2857 68.2837 47.8844 68.6784 48.2084C68.8571 48.3537 69.0798 48.2537 69.1078 48.0297C69.1638 47.5643 68.8864 47.0737 68.7571 46.6284C68.5931 46.0697 68.4384 45.5097 68.2451 44.959C68.1091 44.5697 67.4944 44.731 67.6224 45.131Z" fill="#C0BEBC"/>
<path d="M102.908 22.1283C102.423 22.651 102.223 23.4323 101.996 24.0977C101.737 24.8497 101.44 25.619 101.457 26.4257C101.467 26.7803 101.913 26.991 102.172 26.7203C102.697 26.175 102.989 25.4363 103.195 24.7137C103.408 23.9617 103.696 23.0643 103.508 22.287C103.445 22.0297 103.091 21.9337 102.908 22.1283Z" fill="#C0BEBC"/>
<path d="M86.3841 87.4857C85.8428 88.9657 85.2775 90.807 85.5841 92.391C85.6388 92.671 86.0988 92.747 86.2188 92.4737C86.8642 91.0017 86.6975 89.203 86.9148 87.631C86.9628 87.2843 86.5081 87.1457 86.3841 87.4857Z" fill="#C0BEBC"/>
<path d="M82.9317 85.3336C82.6104 86.5763 82.0277 88.1416 82.381 89.4256C82.4677 89.7416 82.869 89.8376 83.101 89.6149C84.1677 88.5856 83.7384 86.7629 83.7771 85.4483C83.7904 84.9603 83.053 84.8656 82.9317 85.3336Z" fill="#C0BEBC"/>
<path d="M90.5093 67.7803C90.3719 68.7723 90.1786 69.7257 89.9253 70.695C89.7253 71.4497 89.3679 72.3417 89.6813 73.0977C89.8173 73.4243 90.1773 73.5563 90.46 73.303C91.06 72.767 91.044 71.979 91.1186 71.2203C91.228 70.1177 91.1626 68.9897 91.2386 67.8803C91.268 67.4657 90.5679 67.367 90.5093 67.7803Z" fill="#C0BEBC"/>
<path d="M92.1052 59.5096C91.9079 60.031 91.7386 60.555 91.6159 61.099C91.4772 61.715 91.4919 62.095 91.7279 62.6776C91.7986 62.851 92.0892 62.963 92.1865 62.7376C92.3892 62.275 92.5012 61.955 92.5492 61.4523C92.6039 60.871 92.7679 60.2963 92.9359 59.739C93.0986 59.1976 92.2972 59.0003 92.1052 59.5096Z" fill="#C0BEBC"/>
<path d="M113.548 19.9109C112.467 21.0269 112.051 22.5789 111.965 24.0936C111.951 24.3576 112.34 24.5442 112.516 24.3216C113.463 23.1202 113.701 21.6656 114.087 20.2242C114.168 19.9162 113.775 19.6749 113.548 19.9109Z" fill="#C0BEBC"/>
<path d="M109.189 24.2497C109.064 25.891 108.132 27.3377 108.085 28.9963C108.072 29.4417 108.616 29.4963 108.842 29.203C109.976 27.723 110.449 25.9657 110.083 24.1284C109.976 23.5977 109.225 23.767 109.189 24.2497Z" fill="#C0BEBC"/>
<path d="M114.981 27.015C113.925 28.899 112.793 30.603 112.046 32.6417C111.941 32.927 112.35 33.0484 112.504 32.8337C113.786 31.051 114.85 29.355 115.57 27.2644C115.692 26.9137 115.158 26.7004 114.981 27.015Z" fill="#C0BEBC"/>
<path d="M117.215 22.163C116.948 22.8856 116.625 23.635 116.567 24.4096C116.541 24.7416 116.948 24.8283 117.159 24.655C117.764 24.155 118.184 23.411 118.525 22.715C118.984 21.779 117.572 21.187 117.215 22.163Z" fill="#C0BEBC"/>
<path d="M108.689 32.2603C107.893 34.0523 106.611 35.8243 106.369 37.8016C106.325 38.1563 106.831 38.2243 106.993 37.9709C108.033 36.3469 108.624 34.2963 109.148 32.4523C109.223 32.1856 108.807 31.9936 108.689 32.2603Z" fill="#C0BEBC"/>
<path d="M112.064 35.9709C111.479 36.7936 110.823 37.6523 110.395 38.5643C110.293 38.7843 110.528 39.1256 110.773 38.9416C111.636 38.2883 112.076 37.2136 112.664 36.3229C112.912 35.9429 112.32 35.6136 112.064 35.9709Z" fill="#C0BEBC"/>
<path d="M47.4997 24.4737C47.989 24.9017 48.3317 25.403 48.6357 25.9737C48.9463 26.559 49.2517 27.0617 49.8823 27.3123C50.153 27.419 50.497 27.1963 50.5583 26.927C50.8743 25.5417 49.249 24.1937 48.153 23.6283C47.6303 23.3603 47.0197 24.0523 47.4997 24.4737Z" fill="#C0BEBC"/>
<path d="M48.6613 30.575C48.9786 30.9897 49.2933 31.4057 49.5933 31.831C49.864 32.2137 50.096 32.5963 50.588 32.671C50.7906 32.7043 50.9813 32.623 51.044 32.4137C51.3213 31.4883 50.1679 30.4817 49.6386 29.8217C49.1973 29.2723 48.2333 30.015 48.6613 30.575Z" fill="#C0BEBC"/>
<path d="M53.4904 25.563C53.6398 26.3257 54.0571 27.0843 54.3904 27.7817C54.7851 28.6083 55.1304 29.4497 55.8584 30.0417C56.2317 30.3457 56.7344 30.151 56.7757 29.6603C56.9157 28.0363 55.4611 25.903 54.0878 25.103C53.7611 24.915 53.4238 25.223 53.4904 25.563Z" fill="#C0BEBC"/>
<path d="M53.184 32.715C54.0534 34.055 54.8481 35.7523 56.2521 36.583C56.5147 36.7377 56.8694 36.5403 56.864 36.231C56.84 34.4603 55.2 33.2217 54.0667 32.035C53.6294 31.575 52.8347 32.175 53.184 32.715Z" fill="#C0BEBC"/>
<path d="M58.6187 33.615C59.2693 34.9443 59.644 37.407 61.3413 37.7963C61.656 37.8683 61.932 37.703 62.0333 37.4044C62.6106 35.7177 60.6933 33.9244 59.7467 32.7457C59.2053 32.0737 58.2827 32.9297 58.6187 33.615Z" fill="#C0BEBC"/>
<path d="M60.7704 42.1803C60.753 41.9976 60.7304 41.8363 60.6944 41.6576C60.6637 41.5123 60.5331 41.4029 60.3971 41.3616L60.2744 41.3243L59.9917 41.4389C59.8317 41.6896 59.877 41.8896 59.861 42.1803C59.8304 42.7709 60.8224 42.7603 60.7704 42.1803Z" fill="#C0BEBC"/>
<path d="M57.8478 39.211C58.5252 39.9297 59.1265 40.739 59.6305 41.5883C60.0518 42.2923 60.3985 43.4297 61.1439 43.843C61.3039 43.9337 61.5585 43.8243 61.5398 43.6163C61.4518 42.711 60.6239 41.731 60.1439 40.9777C59.5825 40.0963 58.9971 39.327 57.9985 38.951C57.8451 38.8923 57.7478 39.1057 57.8478 39.211Z" fill="#C0BEBC"/>
<path d="M63.1932 38.9617C63.4492 39.9817 63.8132 41.639 64.7692 42.2337C64.9732 42.3617 65.2039 42.1924 65.2185 41.9764C65.2572 41.415 64.9438 40.895 64.7172 40.3977C64.4425 39.8004 64.0146 39.2284 63.5932 38.7284C63.4319 38.5377 63.1386 38.7431 63.1932 38.9617Z" fill="#C0BEBC"/>
<path d="M62.8202 47.8723C63.1948 48.8336 63.5309 49.811 63.8935 50.7776C64.2042 51.603 64.3268 52.7376 65.0535 53.275C65.2082 53.3883 65.4815 53.311 65.5615 53.143C65.9548 52.3203 65.4162 51.439 65.0695 50.6603C64.5908 49.587 63.8028 48.695 63.1482 47.7336C63.0402 47.575 62.7415 47.671 62.8202 47.8723Z" fill="#C0BEBC"/>
<path d="M67.5851 49.943C67.3278 50.7484 67.6918 51.7577 67.9104 52.5404C68.1291 53.323 68.5491 54.6564 69.3558 54.999C69.5224 55.0697 69.7384 55.059 69.8304 54.875C70.2251 54.0964 69.7157 53.3244 69.3424 52.631C69.0891 52.159 68.7918 51.7177 68.5184 51.2577C68.2584 50.819 68.1224 50.3244 67.8251 49.9124L67.5851 49.943Z" fill="#C0BEBC"/>
<path d="M96.1039 58.603C96.5932 58.0337 96.7572 57.2243 96.9732 56.515C97.2252 55.679 97.7826 54.8643 97.7906 53.979C97.7933 53.6657 97.4572 53.503 97.1972 53.6377C96.4479 54.0243 96.1319 54.8683 95.8279 55.6083C95.4892 56.431 95.0999 57.5243 95.3639 58.4083C95.4532 58.7083 95.8799 58.867 96.1039 58.603Z" fill="#C0BEBC"/>
<path d="M98.7174 48.9936C99.0614 48.2083 99.4561 47.3616 99.4855 46.491C99.4935 46.2616 99.1934 46.1443 99.0361 46.3056C98.3868 46.9723 98.2748 47.963 98.1814 48.8496C98.1534 49.127 98.6041 49.2523 98.7174 48.9936Z" fill="#C0BEBC"/>
<path d="M102.705 46.755C103.529 45.8536 104.949 44.9083 105.14 43.6083C105.185 43.295 104.915 43.0563 104.612 43.2043C103.424 43.7816 102.957 45.4123 102.347 46.479C102.22 46.7003 102.527 46.947 102.705 46.755Z" fill="#C0BEBC"/>
<path d="M101.616 41.871C101.827 40.8964 102.744 39.9484 102.596 38.9284C102.563 38.7044 102.275 38.6884 102.136 38.807C101.388 39.443 100.987 40.827 100.888 41.771C100.845 42.1897 101.531 42.275 101.616 41.871Z" fill="#C0BEBC"/>
<path d="M104.884 32.1029C104.958 31.5469 105.326 31.1296 105.388 30.5843C105.414 30.3576 105.141 30.2683 104.976 30.3456C104.374 30.6323 104.26 31.4136 104.273 32.0203C104.28 32.3576 104.834 32.4603 104.884 32.1029Z" fill="#C0BEBC"/>
<path d="M89.4626 80.059C89.3559 80.4097 89.1039 80.7003 88.9839 81.0497C88.8266 81.5123 88.7052 81.9617 88.6012 82.4377C88.4239 83.2497 88.1839 84.1403 88.5666 84.9177C88.6346 85.0563 88.8465 85.111 88.9759 85.0244C89.6025 84.603 89.8039 83.903 89.9599 83.187C90.0493 82.7857 90.1452 82.335 90.1639 81.9244C90.1879 81.351 90.0612 80.7083 90.1199 80.1483C90.1626 79.7603 89.5679 79.7124 89.4626 80.059Z" fill="#C0BEBC"/>
<path d="M93.173 71.767C92.5037 72.047 92.245 72.711 91.9983 73.343C91.7036 74.1004 91.449 75.0777 91.785 75.8457C91.897 76.103 92.265 76.099 92.441 75.931C92.9464 75.4563 92.973 74.735 93.0983 74.0897C93.233 73.391 93.353 72.6497 93.3997 71.939L93.173 71.767Z" fill="#C0BEBC"/>
<path d="M68.2879 58.7256C68.0879 59.5803 68.5038 60.471 68.7838 61.267C69.0718 62.0843 69.2439 63.0496 70.0385 63.527C70.2505 63.655 70.5799 63.5883 70.6932 63.3563C71.1052 62.5176 70.7199 61.7216 70.3292 60.947C69.9132 60.1216 69.4865 59.0976 68.7092 58.5536C68.5585 58.4483 68.3279 58.5536 68.2879 58.7256Z" fill="#C0BEBC"/>
<path d="M42.5864 36.1003C42.8971 36.435 43.1371 36.819 43.4385 37.1603C43.5865 37.3323 43.8611 37.3897 44.0718 37.3283C44.2638 37.275 44.3505 37.1883 44.4625 37.0296C44.5972 36.8416 44.5692 36.5603 44.4625 36.371C44.2158 35.9297 43.8745 35.527 43.5158 35.1697C42.9131 34.5697 42.0078 35.4817 42.5864 36.1003Z" fill="#C0BEBC"/>
<path d="M40.997 30.3376C41.4543 30.8469 41.941 31.6576 42.641 31.8123C42.861 31.8616 43.0703 31.6736 43.009 31.4443C42.8196 30.7469 42.001 30.3069 41.4703 29.8642C41.141 29.5896 40.705 30.0123 40.997 30.3376Z" fill="#C0BEBC"/>
<path d="M121.393 27.9349C122.131 26.8069 123.221 25.7749 123.675 24.4976C123.771 24.2336 123.419 23.9483 123.183 24.1203C122.075 24.9323 121.352 26.3429 120.691 27.5256C120.435 27.9856 121.108 28.3723 121.393 27.9349Z" fill="#C0BEBC"/>
<path d="M128.771 31.4003C129.296 31.0776 129.835 30.7843 130.389 30.515C130.94 30.2483 131.463 30.035 131.892 29.5896C132.133 29.3416 131.96 28.9203 131.613 28.9163C130.401 28.9003 129.164 29.755 128.179 30.387C127.547 30.7936 128.123 31.7976 128.771 31.4003Z" fill="#C0BEBC"/>
<path d="M127.908 26.1857C127.047 27.3297 125.828 28.2603 125.176 29.5497C125.101 29.7003 125.299 29.879 125.421 29.739C126.367 28.6537 127.404 27.6137 128.284 26.4763C128.497 26.203 128.116 25.9097 127.908 26.1857Z" fill="#C0BEBC"/>
<path d="M126.956 35.3029C126.274 35.8563 125.574 36.3843 124.866 36.9043C124.2 37.3923 123.465 37.9389 123.077 38.6843C122.929 38.9683 123.172 39.3509 123.509 39.2469C125.104 38.7523 126.388 37.0056 127.464 35.811C127.778 35.4603 127.312 35.0149 126.956 35.3029Z" fill="#C0BEBC"/>
<path d="M120.777 31.5603C119.896 32.6497 118.981 33.7137 118.585 35.0763C118.497 35.3777 118.825 35.5763 119.077 35.4537C120.388 34.8177 120.973 33.471 121.755 32.315C122.148 31.7323 121.223 31.011 120.777 31.5603Z" fill="#C0BEBC"/>
<path d="M116.201 42.1177C116.371 41.639 116.628 41.1937 116.819 40.7217C116.907 40.5003 116.601 40.3803 116.452 40.5083C116.029 40.8803 115.705 41.2976 115.479 41.8136C115.247 42.3403 116.009 42.6563 116.201 42.1177Z" fill="#C0BEBC"/>
<path d="M47.5027 41.4816C48.8414 42.4563 49.2773 44.2123 50.6067 45.1656C50.8667 45.3536 51.1534 45.0469 51.1 44.7856C50.7694 43.1603 49.348 41.5536 47.92 40.7696C47.444 40.5083 47.0814 41.1736 47.5027 41.4816Z" fill="#C0BEBC"/>
<path d="M110.004 55.1509C110.129 53.4736 111.501 52.3949 111.836 50.8189C111.889 50.5709 111.593 50.3722 111.4 50.5642C110.265 51.7096 109.424 53.5309 109.416 55.1509C109.413 55.5349 109.977 55.5256 110.004 55.1509Z" fill="#C0BEBC"/>
<path d="M104.607 64.2149C104.932 63.2896 105.312 62.3709 105.501 61.4056C105.553 61.1523 105.232 61.0123 105.087 61.2309C104.524 62.0749 104.241 63.0736 103.908 64.023C103.753 64.4643 104.452 64.6536 104.607 64.2149Z" fill="#C0BEBC"/>
<path d="M57.5303 51.9897C58.3903 53.6137 59.2983 55.6297 60.8609 56.6964C61.1689 56.9057 61.533 56.5617 61.4543 56.239C61.0223 54.4484 59.6636 52.855 58.8089 51.2417C58.3623 50.3977 57.0836 51.1457 57.5303 51.9897Z" fill="#C0BEBC"/>
<path d="M101.372 58.6163C101.5 58.0376 101.745 57.4683 101.992 56.9283C102.236 56.3869 102.255 55.9416 102.184 55.3616C102.148 55.0603 101.847 54.9216 101.607 55.1216C101.083 55.5549 100.801 55.9643 100.664 56.6416C100.529 57.3176 100.549 57.9403 100.659 58.6163C100.719 58.9816 101.293 58.9589 101.372 58.6163Z" fill="#C0BEBC"/>
<path d="M63.281 59.2243C63.961 60.4416 64.7184 61.8136 66.0211 62.4323C66.3117 62.5696 66.6131 62.347 66.5491 62.027C66.2597 60.6123 65.121 59.5443 64.097 58.5963C63.6637 58.1976 62.9904 58.703 63.281 59.2243Z" fill="#C0BEBC"/>
<path d="M54.8666 45.5777C55.144 46.0937 55.44 46.603 55.892 46.9843C56.072 47.135 56.3906 46.9977 56.3106 46.7417C56.1346 46.1843 55.8867 45.6563 55.624 45.135C55.372 44.631 54.5973 45.0777 54.8666 45.5777Z" fill="#C0BEBC"/>
<path d="M96.816 68.079C97.5213 66.999 98.4773 65.5577 98.4946 64.227C98.4973 63.9803 98.14 63.7883 97.9666 64.0083C97.6133 64.4603 97.4546 64.9563 97.24 65.4857C96.9293 66.247 96.6133 67.0097 96.248 67.7457C96.0586 68.1257 96.5827 68.4363 96.816 68.079Z" fill="#C0BEBC"/>
<path d="M107.486 49.0723C108.193 48.5109 108.781 47.4416 108.8 46.5456C108.808 46.1549 108.374 45.9389 108.05 46.1136C107.252 46.5429 106.669 47.6149 106.486 48.4909C106.356 49.1083 107.022 49.4403 107.486 49.0723Z" fill="#C0BEBC"/>
<path d="M108.113 85.255C108.805 85.071 109.449 84.7683 110.131 84.5536L110.081 84.3776C109.385 84.523 108.716 84.7656 108.012 84.8816C107.771 84.923 107.869 85.3203 108.113 85.255Z" fill="#2C2D33"/>
<path d="M75.8037 78.531C75.5517 80.307 75.1637 82.6097 76.3437 84.1203C76.5171 84.3403 76.8784 84.1977 76.9437 83.9617C77.4157 82.2697 76.5584 80.2257 76.2877 78.531C76.2504 78.291 75.837 78.2883 75.8037 78.531Z" fill="#2C2D33"/>
<path d="M77.0318 87.5576C77.0345 89.3803 76.8852 91.5856 77.8865 93.191C78.0412 93.4376 78.5079 93.4376 78.5639 93.103C78.8665 91.2616 78.2745 89.243 77.9012 87.4403C77.7972 86.9416 77.0305 87.067 77.0318 87.5576Z" fill="#2C2D33"/>
<path d="M71.7294 73.443C72.1681 74.395 72.4294 75.471 72.6828 76.487C72.7214 76.647 72.9628 76.6083 72.9641 76.4483C72.9788 75.2643 72.6321 74.2816 71.9774 73.2976C71.8748 73.1429 71.6534 73.275 71.7294 73.443Z" fill="#2C2D33"/>
<path d="M74.22 84.219C74.372 85.151 74.7014 86.0283 74.9027 86.9443L75.0907 86.9203C75.0467 85.9817 74.816 85.083 74.7134 84.1537C74.672 83.791 74.1614 83.859 74.22 84.219Z" fill="#2C2D33"/>
<path d="M21.2494 46.299C22.7174 46.3603 24.1747 47.1696 25.6427 46.747C26.0067 46.643 25.984 46.1483 25.6427 46.0336C24.2653 45.5696 22.6934 45.5363 21.2494 45.5336C20.7547 45.5323 20.7587 46.2776 21.2494 46.299Z" fill="#2C2D33"/>
<path d="M24.6091 42.3536C25.9171 42.7456 27.2878 43.6683 28.6811 43.571C29.0238 43.547 29.1571 43.1163 28.8558 42.9257C27.7104 42.195 26.1451 41.8496 24.8265 41.5696C24.3158 41.4616 24.1051 42.203 24.6091 42.3536Z" fill="#2C2D33"/>
<path d="M29.964 38.0643C30.9987 38.271 32.0013 38.8376 33.056 38.8856C33.352 38.899 33.4653 38.5323 33.284 38.335C32.5386 37.519 31.2573 37.3163 30.212 37.163C29.632 37.0803 29.364 37.943 29.964 38.0643Z" fill="#2C2D33"/>
<path d="M31.4629 41.179C32.0029 41.3017 32.5255 41.4657 33.0348 41.6857C33.4988 41.8857 33.8615 42.099 34.3802 42.095C34.7255 42.091 34.8402 41.703 34.6415 41.4617C33.9749 40.6484 32.5602 40.4804 31.5735 40.3564C31.1015 40.299 31.0082 41.0764 31.4629 41.179Z" fill="#2C2D33"/>
<path d="M33.8757 33.699C34.4117 33.9537 34.9331 34.235 35.4437 34.535C35.8864 34.7937 36.3717 35.067 36.8864 34.9457C37.1077 34.8923 37.2557 34.6337 37.1864 34.4163C36.8677 33.419 35.1518 33.0563 34.2624 32.7803C33.7251 32.6137 33.357 33.4523 33.8757 33.699Z" fill="#2C2D33"/>
<path d="M30.4985 46.7457C32.1931 46.8324 33.7745 48.051 35.4545 47.855C35.9159 47.8004 36.2612 47.2537 35.8612 46.875C34.4705 45.5617 32.1585 45.3324 30.3465 45.6177C29.6772 45.723 29.8865 46.7137 30.4985 46.7457Z" fill="#2C2D33"/>
<path d="M36.709 38.3097C37.7263 38.9817 38.881 40.1417 40.161 40.1257C40.5663 40.1204 40.749 39.6403 40.4824 39.3497C40.0664 38.9017 39.5623 38.6697 39.0463 38.3537C38.465 37.999 37.9103 37.6017 37.3357 37.2364C36.6557 36.803 36.0436 37.8724 36.709 38.3097Z" fill="#2C2D33"/>
<path d="M136.323 38.5657C137.551 38.5017 138.729 38.383 139.8 37.7443C140.044 37.599 140.005 37.2043 139.72 37.1323C138.473 36.8203 137.395 37.331 136.195 37.627C135.675 37.755 135.779 38.595 136.323 38.5657Z" fill="#2C2D33"/>
<path d="M133.69 40.5043C132.904 41.4789 131.447 42.2923 131.176 43.5936C131.117 43.8723 131.364 44.2056 131.676 44.0936C133.015 43.6136 133.592 42.0229 134.122 40.8376C134.238 40.5763 133.9 40.2416 133.69 40.5043Z" fill="#2C2D33"/>
<path d="M134.849 33.3936C134.126 34.3163 133.034 35.0869 132.52 36.1482C132.424 36.3496 132.632 36.6162 132.848 36.4762C133.838 35.8322 134.629 34.6949 135.262 33.7136C135.424 33.4656 135.036 33.1576 134.849 33.3936Z" fill="#2C2D33"/>
<path d="M125.107 53.1723C126.363 52.135 127.673 51.1136 128.749 49.8896C128.973 49.635 128.697 49.3123 128.403 49.439C126.861 50.1136 125.705 51.4323 124.452 52.519C123.997 52.9136 124.653 53.5483 125.107 53.1723Z" fill="#2C2D33"/>
<path d="M137.899 50.3804C138.565 49.859 139.237 49.3537 139.896 48.8244C140.075 48.6817 139.932 48.3404 139.707 48.3644C138.744 48.4657 138.007 48.9777 137.225 49.5084C136.561 49.9577 137.264 50.8777 137.899 50.3804Z" fill="#2C2D33"/>
<path d="M138.345 42.3803C138.66 42.059 138.893 41.7203 139.238 41.4217C139.392 41.2897 139.268 41.0323 139.078 41.0337C138.554 41.0403 138 41.3057 137.608 41.6443C137.102 42.0803 137.873 42.8697 138.345 42.3803Z" fill="#2C2D33"/>
<path d="M144.441 51.0883C145.215 50.9123 146.168 50.8843 146.673 50.2043C146.809 50.023 146.712 49.7163 146.52 49.6163C145.784 49.235 144.837 49.6083 144.085 49.791C143.239 49.9937 143.599 51.2803 144.441 51.0883Z" fill="#2C2D33"/>
<path d="M142.001 44.8244C142.408 44.543 142.795 44.2617 142.958 43.783C143.04 43.5457 142.866 43.323 142.652 43.2457C142.231 43.0937 141.792 43.2137 141.372 43.3323C140.181 43.6723 141.052 45.4857 142.001 44.8244Z" fill="#2C2D33"/>
<path d="M145.048 59.6682C145.629 59.5962 146.213 59.5256 146.796 59.4576C147.445 59.3816 148.124 59.3776 148.733 59.1242C148.945 59.0362 149.03 58.6509 148.733 58.6029C147.538 58.4162 146.149 58.8056 144.953 58.9749C144.56 59.0309 144.653 59.7176 145.048 59.6682Z" fill="#2C2D33"/>
<path d="M146.304 66.2644C147.249 66.3404 148.115 66.4337 149.027 66.1297C149.22 66.067 149.22 65.8044 149.027 65.7417C148.115 65.4377 147.249 65.531 146.304 65.607C145.882 65.6417 145.882 66.2297 146.304 66.2644Z" fill="#2C2D33"/>
<path d="M136.275 71.387C137.515 72.055 138.736 72.7057 140.177 72.6737C140.441 72.6683 140.551 72.3083 140.315 72.171C139.188 71.523 137.991 71.031 136.843 70.4137C136.204 70.0683 135.635 71.043 136.275 71.387Z" fill="#2C2D33"/>
<path d="M138.601 65.7603C139.601 65.8989 140.513 65.9536 141.508 65.7509C141.744 65.7029 141.777 65.3536 141.574 65.2429C140.717 64.7789 139.861 64.7523 138.918 64.6083C138.161 64.4923 137.844 65.6563 138.601 65.7603Z" fill="#2C2D33"/>
<path d="M137.187 59.735C138.256 59.587 139.585 59.611 140.525 59.0403C140.804 58.8696 140.755 58.4376 140.435 58.3483C139.335 58.0376 137.983 58.4443 136.875 58.6003C136.124 58.7043 136.444 59.839 137.187 59.735Z" fill="#2C2D33"/>
<path d="M129.23 56.3416C129.918 56.159 130.561 55.8563 131.241 55.6456L131.192 55.4656C130.497 55.6123 129.831 55.8523 129.127 55.9696C128.887 56.0096 128.985 56.4083 129.23 56.3416Z" fill="#2C2D33"/>
<path d="M95.9677 91.0657C96.6597 90.8843 97.301 90.5803 97.981 90.367L97.9317 90.1897C97.2357 90.335 96.5691 90.5777 95.8664 90.6937C95.6237 90.7323 95.7224 91.131 95.9677 91.0657Z" fill="#2C2D33"/>
<path d="M120.692 51.1096C120.983 50.4576 121.405 49.9416 121.908 49.4416C122.393 48.9563 122.729 48.4856 122.984 47.8416C123.101 47.5443 122.751 47.2296 122.465 47.3243C120.981 47.8163 119.924 49.1189 119.353 50.5469C119.047 51.3149 120.355 51.8643 120.692 51.1096Z" fill="#2C2D33"/>
<path d="M17.3574 49.9816C17.9628 50.2896 18.5067 50.6243 19.0414 51.0483C19.5294 51.4389 19.9894 51.8243 20.5854 52.0363C20.7254 52.0856 20.848 51.8803 20.732 51.7829C19.8267 51.0256 18.5921 50.0256 17.3867 49.8723L17.3574 49.9816Z" fill="#2C2D33"/>
<path d="M15.0038 57.1536C15.6771 57.2429 16.3305 57.379 16.9811 57.575C17.5585 57.7496 18.1425 57.9683 18.7518 57.9709C18.9638 57.9709 19.0358 57.6856 18.8585 57.5776C17.7852 56.9283 16.2451 56.6269 15.0038 56.7336C14.7278 56.7576 14.7385 57.1189 15.0038 57.1536Z" fill="#2C2D33"/>
<path d="M13.9894 62.7657C15.1001 62.8377 16.4894 63.375 17.5228 62.7524C17.6974 62.6484 17.6974 62.3924 17.5228 62.2884C16.4894 61.6657 15.1001 62.203 13.9894 62.275C13.6734 62.2964 13.6734 62.7444 13.9894 62.7657Z" fill="#2C2D33"/>
<path d="M21.6507 69.187C22.3587 69.219 23.0494 69.323 23.7427 69.4683C24.4027 69.607 25.0587 69.8657 25.7373 69.779C26.008 69.7457 26.12 69.427 25.8787 69.263C24.7947 68.5283 22.9227 68.5017 21.6507 68.515C21.2147 68.5177 21.2187 69.1683 21.6507 69.187Z" fill="#2C2D33"/>
<path d="M20.7918 62.455C21.3998 62.5057 21.9958 62.599 22.5878 62.743C23.0772 62.8617 23.6038 63.0337 24.1025 62.911C24.3078 62.8617 24.3518 62.6057 24.2198 62.4617C23.4785 61.6417 21.7825 61.803 20.7918 61.867C20.4105 61.8897 20.4158 62.4244 20.7918 62.455Z" fill="#2C2D33"/>
<path d="M25.476 51.8949C26.9626 52.3923 28.3013 53.1869 29.7653 53.7283C29.9693 53.8043 30.14 53.5029 29.9786 53.3629C28.764 52.3109 27.1706 51.7176 25.6586 51.2283C25.2333 51.0923 25.056 51.7549 25.476 51.8949Z" fill="#2C2D33"/>
<path d="M28.9598 63.615C30.0771 64.435 31.4211 65.7456 32.8304 65.9683C32.9984 65.995 33.2198 65.815 33.0864 65.635C32.6584 65.0656 32.0011 64.675 31.4051 64.3003C30.7118 63.8643 30.0144 63.4323 29.3251 62.991C28.9251 62.7336 28.5918 63.3456 28.9598 63.615Z" fill="#2C2D33"/>
<path d="M26.488 56.3296C27.8866 56.5829 28.9266 57.4976 30.2493 57.8976C30.5746 57.9949 30.7333 57.6029 30.5533 57.3776C29.6413 56.2443 27.984 55.7309 26.588 55.5869C26.164 55.5429 26.0693 56.2549 26.488 56.3296Z" fill="#2C2D33"/>
<path d="M38.8746 58.3323C39.4039 58.6749 39.9425 59.0016 40.4839 59.3283C41.0305 59.6576 41.5759 60.0843 42.2079 60.2283C42.4079 60.2749 42.5132 60.0536 42.3945 59.9056C42.0345 59.4536 41.4945 59.2043 41.0012 58.9203C40.3852 58.5643 39.7692 58.2123 39.1639 57.8376C38.8466 57.6443 38.5666 58.1336 38.8746 58.3323Z" fill="#2C2D33"/>
<path d="M34.4478 52.6269C35.4131 53.0416 36.4132 53.4909 37.4358 53.7136C37.6305 53.7549 37.7745 53.5256 37.6318 53.3749C36.8785 52.5843 35.7092 52.0403 34.5932 52.0936C34.3359 52.1056 34.1665 52.5056 34.4478 52.6269Z" fill="#2C2D33"/>
<path d="M41.7414 47.9443C42.3747 48.4043 42.9734 49.0777 43.7334 49.3203C43.9027 49.3737 44.0773 49.1617 43.9707 49.0097C43.504 48.3403 42.7414 47.8323 42.0907 47.3483C41.7334 47.0843 41.3854 47.6843 41.7414 47.9443Z" fill="#2C2D33"/>
<path d="M47.5027 51.2963C47.9241 52.0629 48.4574 52.7496 49.0654 53.3749C49.5494 53.8723 50.3481 54.9523 51.1147 54.8843C51.2761 54.8709 51.4561 54.7789 51.4894 54.6016C51.6254 53.8349 50.8267 53.2309 50.3067 52.7763C49.5747 52.1376 48.8094 51.5189 48.1908 50.7656C47.8641 50.3696 47.2734 50.8763 47.5027 51.2963Z" fill="#2C2D33"/>
<path d="M41.7226 42.2242C42.4626 43.0309 43.1719 43.8896 43.9666 44.6416C44.1679 44.8322 44.4706 44.6416 44.416 44.3802C44.168 43.1789 43.0506 42.5082 42.1639 41.7842C41.8559 41.5336 41.4466 41.9242 41.7226 42.2242Z" fill="#2C2D33"/>
<path d="M43.1252 54.5883C43.4052 55.2097 43.9612 55.683 44.4426 56.1497C44.9519 56.643 45.5186 57.1884 46.2479 57.2924C46.5412 57.3337 46.8386 57.0604 46.6573 56.7617C46.3253 56.215 45.7879 55.8404 45.2732 55.4777C44.6652 55.047 44.0719 54.4857 43.3252 54.327C43.1639 54.2937 43.0612 54.4443 43.1252 54.5883Z" fill="#2C2D33"/>
<path d="M33.8931 61.5363C34.8731 62.3136 35.9291 63.1816 37.0958 63.6523C37.2785 63.7256 37.4171 63.455 37.2824 63.3283C36.3891 62.4896 35.2411 61.9136 34.2744 61.1563C34.0038 60.9443 33.6211 61.3203 33.8931 61.5363Z" fill="#2C2D33"/>
<path d="M32.677 73.9404C33.8996 74.6084 35.1996 75.4564 36.5716 75.763C36.7943 75.8124 36.9769 75.5404 36.8009 75.3684C35.7916 74.3817 34.3303 73.875 33.1023 73.2137C32.6236 72.9577 32.201 73.6804 32.677 73.9404Z" fill="#2C2D33"/>
<path d="M31.1935 69.4603C32.0335 69.935 32.9241 70.4243 33.8615 70.6643C34.0468 70.7137 34.1935 70.479 34.0508 70.3417C33.3428 69.663 32.3695 69.3617 31.5242 68.8923C31.1548 68.6883 30.8255 69.2523 31.1935 69.4603Z" fill="#2C2D33"/>
<path d="M41.944 68.8803C43.3427 69.0789 44.2453 70.4949 45.664 70.5563C45.9293 70.5683 46.1213 70.2909 46.0533 70.0469C45.616 68.4469 43.5693 67.7256 42.088 67.8216C41.5173 67.8589 41.312 68.7883 41.944 68.8803Z" fill="#2C2D33"/>
<path d="M115.899 58.0523C116.456 57.1483 117.207 56.3763 117.587 55.371C117.665 55.1577 117.367 55.0097 117.22 55.1577C116.465 55.923 115.903 56.8177 115.448 57.7897C115.308 58.091 115.72 58.343 115.899 58.0523Z" fill="#2C2D33"/>
<path d="M125.901 43.8776C126.845 43.1763 127.979 42.6469 128.765 41.7642C128.899 41.6136 128.774 41.3483 128.56 41.4123C127.439 41.7549 126.463 42.5576 125.545 43.2682C125.192 43.5402 125.533 44.1523 125.901 43.8776Z" fill="#2C2D33"/>
<path d="M118.295 64.8804C119.549 64.327 120.717 63.503 121.763 62.619C121.903 62.5004 121.753 62.2524 121.581 62.311C120.263 62.7644 119.281 63.867 118.167 64.6604C118.033 64.7577 118.147 64.9444 118.295 64.8804Z" fill="#2C2D33"/>
<path d="M123.377 66.1564C124.304 65.6577 125.253 65.4737 126.248 65.1844L126.223 65.003C125.2 65.067 124.168 65.4924 123.283 65.9937L123.377 66.1564Z" fill="#2C2D33"/>
<path d="M99.9678 86.507C100.897 86.0083 101.848 85.8243 102.845 85.539L102.821 85.3563C101.796 85.419 100.761 85.843 99.8745 86.3456L99.9678 86.507Z" fill="#2C2D33"/>
<path d="M130.604 53.5989C131.72 53.1763 132.988 53.3243 134.055 52.8096C134.256 52.7123 134.263 52.3669 134.055 52.2696C132.852 51.7176 131.379 52.2416 130.279 52.8296C129.864 53.0509 130.153 53.7696 130.604 53.5989Z" fill="#2C2D33"/>
<path d="M125.722 69.6817C127.116 69.6977 129.33 69.8804 130.501 68.9964C130.734 68.8217 130.749 68.4177 130.416 68.335C129.741 68.1684 129.077 68.3404 128.402 68.4484C127.517 68.591 126.618 68.647 125.722 68.671C125.073 68.6897 125.07 69.6737 125.722 69.6817Z" fill="#2C2D33"/>
<path d="M130.665 63.2843C131.733 63.1043 132.819 62.8363 133.625 62.0736C133.861 61.8496 133.656 61.5336 133.387 61.499C132.331 61.3603 131.34 61.835 130.317 62.019C129.481 62.1683 129.84 63.4243 130.665 63.2843Z" fill="#2C2D33"/>
<path d="M110.843 63.583C111.675 62.7616 112.567 61.8536 113.023 60.7643C113.131 60.5056 112.761 60.3497 112.587 60.5097C111.756 61.2803 111.109 62.235 110.283 63.023C109.913 63.3763 110.48 63.9403 110.843 63.583Z" fill="#2C2D33"/>
<path d="M48.2439 59.6389C48.7212 60.3829 49.1279 61.1376 49.6866 61.8296C50.2346 62.5082 50.8279 63.3856 51.7052 63.6349C51.9492 63.7056 52.2106 63.4629 52.1293 63.2109C51.8746 62.4283 51.1492 61.8989 50.5732 61.3456C49.8999 60.6989 49.1572 60.1029 48.5092 59.4349C48.3772 59.2989 48.1399 59.4762 48.2439 59.6389Z" fill="#2C2D33"/>
<path d="M57.1599 64.9243C57.6026 65.5789 57.9892 66.2656 58.3865 66.9469C58.7119 67.5043 59.0439 68.1643 59.6585 68.4416C59.8799 68.5416 60.1479 68.3803 60.0785 68.1189C59.9012 67.4429 59.3519 66.9003 58.9505 66.3469C58.5172 65.7469 58.0919 65.1403 57.6345 64.5563C57.4239 64.2843 56.9679 64.6403 57.1599 64.9243Z" fill="#2C2D33"/>
<path d="M47.028 63.1136C47.8066 63.7002 48.3773 64.4136 48.972 65.1749C49.548 65.9122 50.0333 66.8282 50.9027 67.2536C51.2307 67.4136 51.6133 67.1536 51.52 66.7776C51.2773 65.7989 50.4573 65.0682 49.7773 64.3696C49.0867 63.6562 48.2307 63.0189 47.3773 62.5176C46.9827 62.2856 46.6826 62.8536 47.028 63.1136Z" fill="#2C2D33"/>
<path d="M39.2386 75.055C40.0213 75.5856 40.7706 76.0016 41.6813 76.2683C41.9239 76.3376 42.1079 76.0216 41.9279 75.8456C41.2586 75.1976 40.5639 74.619 39.8253 74.0523C39.2413 73.6043 38.612 74.631 39.2386 75.055Z" fill="#2C2D33"/>
<path d="M128.445 75.1563C129.845 74.9683 131.38 74.619 132.623 73.9296C132.799 73.8296 132.673 73.5883 132.495 73.6203C131.097 73.879 129.808 74.5056 128.385 74.7096C128.132 74.7443 128.192 75.1896 128.445 75.1563Z" fill="#2C2D33"/>
<path d="M118.61 73.1402C119.217 72.5282 119.874 71.9402 120.561 71.4216C121.298 70.8656 122.088 70.4162 122.734 69.7496C122.977 69.4989 122.736 69.0576 122.391 69.1576C121.452 69.4322 120.665 69.9656 119.902 70.5682C119.118 71.1869 118.364 71.8469 118.106 72.8456C118.03 73.1376 118.394 73.3602 118.61 73.1402Z" fill="#2C2D33"/>
<path d="M110.285 69.4203C111.231 67.7536 112.756 66.5656 113.763 64.9536C113.895 64.7416 113.621 64.439 113.405 64.5976C111.845 65.7283 110.516 67.3256 109.632 69.0376C109.408 69.4696 110.044 69.8456 110.285 69.4203Z" fill="#2C2D33"/>
<path d="M97.9131 72.7736C97.5664 74.1403 97.153 75.4456 97.0984 76.8642C97.0877 77.1216 97.4624 77.2229 97.5837 76.9949C98.2504 75.7496 98.7984 74.4896 99.1944 73.1283C99.4357 72.3029 98.1224 71.9443 97.9131 72.7736Z" fill="#2C2D33"/>
<path d="M65.0637 66.543C65.8731 68.1456 66.4984 69.883 67.0517 71.591C67.1144 71.7896 67.3917 71.707 67.3584 71.507C67.0357 69.6016 66.6637 67.7976 65.4544 66.239C65.2731 66.0043 64.9424 66.3043 65.0637 66.543Z" fill="#2C2D33"/>
<path d="M50.8588 71.7003C51.5855 72.7216 52.4895 73.935 53.7921 74.195C54.0281 74.2417 54.2642 73.999 54.1188 73.7696C53.4628 72.7243 52.2508 72.1217 51.3308 71.3377C51.0868 71.131 50.6508 71.4056 50.8588 71.7003Z" fill="#2C2D33"/>
<path d="M42.7463 80.8136C43.4303 81.2629 44.1569 81.7549 44.9836 81.8669C45.2769 81.9056 45.4823 81.6629 45.3543 81.3816C44.9596 80.5096 44.0516 80.0322 43.1463 79.8656C42.5703 79.7589 42.2396 80.4816 42.7463 80.8136Z" fill="#2C2D33"/>
<path d="M65.1788 76.503C65.4921 77.083 65.7415 77.687 66.2189 78.1564C66.3922 78.3284 66.6375 78.151 66.6015 77.9337C66.4895 77.2697 66.2149 76.671 65.9215 76.071C65.6789 75.5777 64.9161 76.0137 65.1788 76.503Z" fill="#2C2D33"/>
<path d="M69.4878 82.0337C69.6198 82.6003 69.7265 83.1697 69.8305 83.7417C69.9238 84.2523 69.9545 84.8123 70.2665 85.239C70.3851 85.4017 70.7225 85.435 70.7598 85.175C70.8265 84.6937 70.6838 84.2643 70.5811 83.791C70.4411 83.143 70.3105 82.4937 70.1411 81.8537C70.0305 81.4297 69.3865 81.6083 69.4878 82.0337Z" fill="#2C2D33"/>
<path d="M95.3291 88.7924C95.6398 87.695 96.3397 86.5337 96.1997 85.3644C96.1571 85.0044 95.7904 84.8284 95.501 85.075C94.509 85.9217 94.2917 87.423 94.309 88.655C94.3184 89.2417 95.1678 89.3604 95.3291 88.7924Z" fill="#2C2D33"/>
<path d="M94.2117 84.1803C94.3277 82.827 95.0996 81.4563 94.7703 80.1003C94.6863 79.7603 94.157 79.567 93.9197 79.8763C93.025 81.0323 92.913 82.7616 92.9743 84.1803C93.0077 84.987 94.1437 84.9683 94.2117 84.1803Z" fill="#2C2D33"/>
<path d="M99.7987 79.0376C99.9867 77.9376 100.627 76.9963 100.757 75.8896C100.795 75.5683 100.368 75.547 100.219 75.7443C99.5547 76.6176 99.096 77.711 98.9347 78.7976C98.8494 79.3616 99.7027 79.611 99.7987 79.0376Z" fill="#2C2D33"/>
<path d="M118.295 78.0977C119.292 76.919 120.635 76.0603 121.549 74.819C121.681 74.639 121.427 74.403 121.249 74.5177C119.977 75.3483 118.796 76.4603 117.829 77.631C117.561 77.955 118.019 78.423 118.295 78.0977Z" fill="#2C2D33"/>
<path d="M120.35 80.6963C121.82 79.5576 123.348 78.5163 124.828 77.4016C124.949 77.3096 124.882 77.0563 124.713 77.1283C122.99 77.8523 121.532 79.2777 120.082 80.4283C119.889 80.5803 120.161 80.843 120.35 80.6963Z" fill="#2C2D33"/>
<path d="M47.1346 75.1817C47.8306 76.2097 49.0427 77.2937 50.244 77.663C50.4147 77.715 50.5533 77.5177 50.4693 77.371C49.8347 76.263 48.364 75.755 47.3866 74.9883C47.2546 74.8843 47.024 75.0177 47.1346 75.1817Z" fill="#2C2D33"/>
<path d="M59.3372 70.619C59.6679 71.4123 60.0826 72.1483 60.5293 72.8803C61.0306 73.7016 61.4532 74.5323 62.1812 75.179C62.3692 75.3457 62.6973 75.2416 62.6919 74.967C62.6613 73.1936 60.9412 71.7843 60.1759 70.2656C59.9439 69.8056 59.1372 70.1376 59.3372 70.619Z" fill="#2C2D33"/>
<path d="M115.896 70.383C116.244 69.9363 116.564 69.4737 116.866 68.9937C117.209 68.451 117.621 67.8804 117.746 67.243C117.793 67.0004 117.504 66.7923 117.313 66.991C116.909 67.4097 116.706 67.9617 116.441 68.4737C116.156 69.023 115.837 69.5563 115.489 70.0697C115.325 70.311 115.716 70.6163 115.896 70.383Z" fill="#2C2D33"/>
<path d="M122.452 59.5017C123.071 59.151 123.501 58.6563 123.989 58.147C124.169 57.9577 123.943 57.7003 123.723 57.8017C123.128 58.0777 122.517 58.3177 121.919 58.5883C121.308 58.8643 121.849 59.8443 122.452 59.5017Z" fill="#2C2D33"/>
<path d="M64.9332 75.7003C64.9332 79.659 61.5785 82.8723 57.4345 82.8723C53.3011 82.8723 49.9438 79.659 49.9438 75.7003C49.9438 71.7363 53.3011 68.5257 57.4345 68.5257C61.5785 68.5257 64.9332 71.7363 64.9332 75.7003Z" fill="#1E1C22"/>
<path d="M62.0211 77.0643C62.0211 79.0843 60.3118 80.7217 58.1998 80.7217C56.0931 80.7217 54.3784 79.0843 54.3784 77.0643C54.3784 75.047 56.0931 73.4097 58.1998 73.4097C60.3118 73.4097 62.0211 75.047 62.0211 77.0643Z" fill="#18151A"/>
<path d="M52.3253 76.8964C52.3253 73.671 55.0586 71.0577 58.4253 71.0577C61.16 71.0577 63.468 72.7804 64.2466 75.1537C63.7266 72.211 61.0546 69.967 57.8346 69.967C54.2453 69.967 51.3267 72.755 51.3267 76.1977C51.3267 78.8244 53.032 81.067 55.436 81.983C53.5826 80.9817 52.3253 79.0804 52.3253 76.8964Z" fill="#FEF5E9"/>
<path d="M58.1346 74.055C58.1346 74.903 57.4159 75.587 56.5319 75.587C55.6506 75.587 54.9346 74.903 54.9346 74.055C54.9346 73.211 55.6506 72.5244 56.5319 72.5244C57.4159 72.5244 58.1346 73.211 58.1346 74.055Z" fill="#FEF5E9"/>
<path d="M55.9984 76.6096C55.9984 77.1723 55.5251 77.627 54.9344 77.627C54.3464 77.627 53.8691 77.1723 53.8691 76.6096C53.8691 76.0443 54.3464 75.5869 54.9344 75.5869C55.5251 75.5869 55.9984 76.0443 55.9984 76.6096Z" fill="#FEF5E9"/>
<path d="M100.688 75.7003C100.688 79.659 104.041 82.8723 108.181 82.8723C112.319 82.8723 115.673 79.659 115.673 75.7003C115.673 71.7363 112.319 68.5257 108.181 68.5257C104.041 68.5257 100.688 71.7363 100.688 75.7003Z" fill="#1E1C22"/>
<path d="M103.597 77.0643C103.597 79.0843 105.312 80.7217 107.416 80.7217C109.528 80.7217 111.236 79.0843 111.236 77.0643C111.236 75.047 109.528 73.4097 107.416 73.4097C105.312 73.4097 103.597 75.047 103.597 77.0643Z" fill="#18151A"/>
<path d="M113.29 76.8964C113.29 73.671 110.562 71.0577 107.192 71.0577C104.458 71.0577 102.148 72.7804 101.373 75.1537C101.889 72.211 104.554 69.967 107.78 69.967C111.372 69.967 114.289 72.755 114.289 76.1977C114.289 78.8244 112.584 81.067 110.18 81.983C112.038 80.9817 113.29 79.0804 113.29 76.8964Z" fill="#FEF5E9"/>
<path d="M107.481 74.055C107.481 74.903 108.198 75.587 109.085 75.587C109.969 75.587 110.684 74.903 110.684 74.055C110.684 73.211 109.969 72.5244 109.085 72.5244C108.198 72.5244 107.481 73.211 107.481 74.055Z" fill="#FEF5E9"/>
<path d="M109.616 76.6096C109.616 77.1723 110.09 77.627 110.684 77.627C111.273 77.627 111.75 77.1723 111.75 76.6096C111.75 76.0443 111.273 75.5869 110.684 75.5869C110.09 75.5869 109.616 76.0443 109.616 76.6096Z" fill="#FEF5E9"/>
<path d="M137.501 5.08292C125.298 -5.63708 111.832 3.39091 112.009 14.6936C112.014 14.9322 119.968 21.1762 122.08 23.0109C124.418 25.0389 130.476 27.6576 130.794 27.6962C139.329 28.7069 149.701 15.8016 137.501 5.08292Z" fill="#CBCACB"/>
<path d="M132.872 10.1522C127.097 4.26024 117.749 4.69757 115.167 16.8296C115.132 16.9909 120.689 21.3322 122.16 22.6056C123.783 24.0149 127.992 25.8696 128.216 25.8629C133.544 25.7136 138.859 16.2682 132.872 10.1522Z" fill="#3A3D46"/>
<path d="M41.4867 28.715C41.7974 28.6696 47.8027 25.9283 50.0934 23.855C52.1667 21.9803 59.9813 15.5723 59.9733 15.3336C59.9053 4.02963 46.24 -4.72236 34.28 6.24164C22.3187 17.2083 32.976 29.899 41.4867 28.715Z" fill="#CBCACB"/>
<path d="M44.4108 26.7777C44.6334 26.779 48.8014 24.8404 50.3908 23.399C51.8321 22.095 57.2921 17.643 57.2548 17.4817C54.4014 5.40303 45.0441 5.15636 39.4041 11.163C33.5534 17.3977 39.0801 26.735 44.4108 26.7777Z" fill="#3A3D46"/>
</svg>
