<svg width="140" height="87" viewBox="0 0 140 87" fill="none" xmlns="http://www.w3.org/2000/svg">
<path d="M139.547 1.14034C122.455 -1.58526 102.371 7.61887 98.2667 16.1871C98.1653 16.3882 105.469 22.5325 107.379 24.3179C109.492 26.3002 113.372 28.9231 113.663 29.0017C128.568 33.1975 142.183 1.56314 139.547 1.14034Z" fill="#FCD3BA"/>
<path d="M107.379 24.3179C107.685 24.6085 108.037 24.9137 108.403 25.2189C115.497 7.07781 128.523 2.42407 139.547 1.14034C122.455 -1.58526 102.371 7.61887 98.2666 16.1871L98.2839 16.2283C98.6546 16.8002 105.535 22.5939 107.379 24.3179Z" fill="#EB433F"/>
<path d="M135.441 13.106C138.915 6.93089 140.645 1.31369 139.547 1.14036C133.589 0.189824 127.273 0.690757 121.391 2.10702C122.892 2.97262 125.483 3.65129 129.873 3.27369C129.873 3.27369 139.225 -0.0169821 138.447 2.58715C137.669 5.18982 135.452 13.0737 135.441 13.106Z" fill="#3A2624"/>
<path d="M26.5055 29.9564C26.7948 29.8777 30.6788 27.2537 32.7868 25.2761C34.6988 23.4845 41.9975 17.3455 41.9028 17.1428C37.7935 8.57362 17.7095 -0.630655 0.625491 2.09641C-2.01451 2.51521 11.6002 34.1537 26.5055 29.9564Z" fill="#FCD3BA"/>
<path d="M32.7868 25.2761C32.4788 25.5657 32.1295 25.8683 31.7642 26.1761C24.6708 8.03348 11.6468 3.38028 0.625488 2.09641C17.7095 -0.630653 37.7935 8.57362 41.9028 17.1428L41.8868 17.1845C41.5122 17.7573 34.6335 23.5469 32.7868 25.2761Z" fill="#EB433F"/>
<path d="M4.72663 14.0616C1.2533 7.88551 -0.477371 2.27098 0.625295 2.09644C6.57863 1.14551 12.8933 1.64551 18.7746 3.06165C17.276 3.92725 14.6866 4.60271 10.292 4.22725C10.292 4.22725 0.938619 0.93925 1.71595 3.54552C2.49329 6.14285 4.7173 14.0298 4.72663 14.0616Z" fill="#3A2624"/>
<path d="M136.167 59.8298L129.433 54.0497L133.965 53.559C124.872 39.2002 113.204 27.8939 109.041 24.0669C105.099 19.9871 100.464 17.1325 93.6893 14.6846C72.2066 6.93088 44.544 9.70848 25.508 29.8377L25.452 29.7137C25.452 29.7137 9.53728 44.6273 4.68395 54.1481L9.21862 54.6377L2.47998 60.4205L12.3533 59.3147L9.21862 63.8565C9.21862 63.8565 50.8546 82.8778 68.0986 82.8778C85.3373 82.8778 129.433 63.2694 129.433 63.2694L126.295 58.7257L136.167 59.8298Z" fill="#FCD3BA"/>
<path d="M109.041 23.2803C105.099 19.2001 100.464 16.3469 93.6893 13.8991C72.2067 6.14281 44.544 8.92148 25.508 29.0521L25.452 28.9272C25.452 28.9272 9.65734 43.7335 4.74268 53.2605C5.91868 52.3777 23.8707 54.6907 43.0747 65.6084C57.756 73.9548 68.0733 80.3349 70.172 81.9855C70.3573 81.9683 70.54 81.9537 70.7267 81.9324C71.8347 80.124 82.848 73.3147 93.0147 66.1512C114.075 51.3121 133.965 52.7725 133.965 52.7725C124.872 38.4163 113.204 27.1069 109.041 23.2803Z" fill="#EB433F"/>
<path d="M49.8171 13.9658C50.0424 14.5335 50.4144 15.2122 50.9691 15.5043C51.1651 15.607 51.3931 15.4393 51.3384 15.2205C51.1877 14.6111 50.6237 14.083 50.1224 13.7309C49.9797 13.6309 49.7504 13.7991 49.8171 13.9658Z" fill="#BC2F23"/>
<path d="M51.496 18.4939C51.5826 19.283 51.8399 20.4736 52.7146 20.7204C52.8866 20.7694 53.0853 20.6308 53.076 20.4444C53.04 19.7084 52.3786 19.1095 52.16 18.4043C52.052 18.0548 51.452 18.1016 51.496 18.4939Z" fill="#BC2F23"/>
<path d="M55.6442 16.4324C55.6415 17.1027 55.5082 18.4335 56.3082 18.6949L56.5442 18.6001C56.9495 18.0152 56.3308 16.9589 56.1215 16.3668C56.0321 16.1152 55.6455 16.148 55.6442 16.4324Z" fill="#BC2F23"/>
<path d="M59.1028 12.4574C59.2748 13.1803 59.4188 13.8694 59.7321 14.547C59.7921 14.6778 59.9801 14.5803 59.9534 14.4522C59.8041 13.724 59.6561 13.036 59.3561 12.3512C59.2907 12.2027 59.0681 12.3122 59.1028 12.4574Z" fill="#BC2F23"/>
<path d="M59.6801 16.4325C59.7388 17.1642 59.6601 18.2631 60.2508 18.7939C60.3868 18.9163 60.6428 18.8814 60.6854 18.6789C60.8388 17.9445 60.4121 17.0669 60.2241 16.3574C60.1468 16.0617 59.6548 16.1137 59.6801 16.4325Z" fill="#BC2F23"/>
<path d="M55.0415 12.4215C55.1148 13.195 55.1961 14.3658 55.9494 14.7762C56.1214 14.871 56.4148 14.8002 56.4468 14.5751C56.5548 13.807 55.9734 13.0538 55.7561 12.324C55.6428 11.9444 55.0001 11.9991 55.0415 12.4215Z" fill="#BC2F23"/>
<path d="M63.3986 10.9308C63.472 11.7058 63.4493 12.5231 63.8253 13.224C63.916 13.3949 64.2146 13.3693 64.2519 13.1682C64.3999 12.3788 64.1186 11.6204 63.9266 10.8589C63.8546 10.5698 63.3706 10.624 63.3986 10.9308Z" fill="#BC2F23"/>
<path d="M68.701 11.0455C68.737 11.6846 68.5611 12.407 68.8451 12.9991C68.9211 13.1574 69.189 13.1574 69.265 12.9991C69.5597 12.3788 69.3557 11.6111 69.161 10.983C69.085 10.7376 68.6864 10.7726 68.701 11.0455Z" fill="#BC2F23"/>
<path d="M74.0907 11.7335C74.0667 12.1513 73.9613 12.5965 74.152 12.9778C74.2173 13.107 74.432 13.107 74.4973 12.9778C74.6867 12.5965 74.5813 12.1513 74.5573 11.7335C74.5413 11.4325 74.1067 11.4325 74.0907 11.7335Z" fill="#BC2F23"/>
<path d="M81.305 12.9361C81.1304 13.6907 80.8304 14.4002 80.741 15.1726C80.7197 15.3445 80.969 15.3846 81.0477 15.2565C81.4597 14.5814 81.593 13.8215 81.7064 13.047C81.7437 12.7882 81.3664 12.6683 81.305 12.9361Z" fill="#BC2F23"/>
<path d="M54.4734 23.0095C54.8228 23.9032 55.1374 25.2016 55.9454 25.7871C56.1201 25.9136 56.4134 25.7871 56.4547 25.5803C56.6454 24.6256 55.9654 23.5564 55.6267 22.6923C55.3494 21.9813 54.1921 22.2907 54.4734 23.0095Z" fill="#BC2F23"/>
<path d="M61.0066 21.8121C61.132 22.2897 61.2586 22.7683 61.3733 23.248C61.476 23.6761 61.5106 24.1084 61.7666 24.4751C61.8973 24.6605 62.1666 24.6349 62.2426 24.4121C62.5253 23.5683 61.9973 22.4215 61.7746 21.5991C61.6413 21.1027 60.876 21.3136 61.0066 21.8121Z" fill="#BC2F23"/>
<path d="M65.2774 15.9737C65.3334 16.4789 65.4241 16.9737 65.5227 17.4726C65.6321 18.0283 65.6587 18.5965 65.9267 19.1027C66.0254 19.2871 66.3427 19.3027 66.4361 19.1027C66.8961 18.1111 66.2707 16.8751 66.1121 15.8601C66.0387 15.3882 65.2241 15.4991 65.2774 15.9737Z" fill="#BC2F23"/>
<path d="M71.1426 17.9215C71.1426 18.6845 71.1772 19.3871 71.3039 20.1392C71.3279 20.2803 71.5639 20.2803 71.5879 20.1392C71.7146 19.3871 71.7492 18.6845 71.7492 17.9215C71.7492 17.5308 71.1426 17.5308 71.1426 17.9215Z" fill="#BC2F23"/>
<path d="M78.6412 19.0668C78.5399 19.9376 78.5759 20.724 78.6799 21.5898C78.7066 21.8027 78.9772 21.8486 79.0545 21.6403C79.3612 20.8204 79.4252 20.0496 79.5612 19.1923C79.6679 18.5188 78.7199 18.3923 78.6412 19.0668Z" fill="#BC2F23"/>
<path d="M70.6651 15.3813C70.4038 16.0641 70.1704 16.7964 70.4157 17.5152C70.4811 17.7059 70.7358 17.7043 70.8011 17.5152C71.0358 16.8297 70.8398 16.1027 70.8011 15.4001L70.6651 15.3813Z" fill="#BC2F23"/>
<path d="M75.1668 15.383C75.3748 16.5683 74.7895 18.071 75.4121 19.1565C75.5601 19.4137 75.9521 19.4137 76.1001 19.1565C76.7615 18.0002 76.0788 16.383 75.8681 15.1907C75.7868 14.7283 75.0855 14.9257 75.1668 15.383Z" fill="#BC2F23"/>
<path d="M66.4717 23.0829C67.0091 24.4725 66.657 26.2573 67.5637 27.4907C67.7144 27.6964 68.129 27.7324 68.181 27.4095C68.4224 25.8964 67.9024 24.2297 67.325 22.8485C67.1104 22.3349 66.2651 22.5455 66.4717 23.0829Z" fill="#BC2F23"/>
<path d="M81.4493 23.783C81.024 24.3496 80.8307 24.9002 80.784 25.6016C80.7747 25.7444 80.98 25.7574 81.0227 25.6335C81.2173 25.0616 81.4453 24.4788 81.7933 23.9846C81.944 23.771 81.6013 23.5814 81.4493 23.783Z" fill="#BC2F23"/>
<path d="M76.0451 23.5991C75.8624 24.5267 75.4691 25.5683 75.5558 26.5188C75.5744 26.7147 75.8144 26.7923 75.9278 26.6188C76.4704 25.7964 76.3771 24.5991 76.4358 23.6521C76.4504 23.4283 76.0878 23.3788 76.0451 23.5991Z" fill="#BC2F23"/>
<path d="M59.0441 27.8324C59.3694 28.9403 59.5908 30.3642 60.2774 31.3095C60.4028 31.483 60.6414 31.3762 60.6094 31.1694C60.5201 30.5726 60.2254 30.0027 60.0187 29.436C59.8107 28.871 59.6214 28.2975 59.4281 27.7256C59.3467 27.4855 58.9708 27.5846 59.0441 27.8324Z" fill="#BC2F23"/>
<path d="M62.4159 27.86C62.5265 28.4813 62.6359 29.1027 62.7305 29.7256C62.8172 30.2855 62.8439 30.8297 63.0919 31.3455C63.1865 31.5417 63.5039 31.4897 63.5505 31.2845C63.8079 30.1605 63.2612 28.7897 62.9999 27.6991C62.9092 27.3136 62.3479 27.4813 62.4159 27.86Z" fill="#BC2F23"/>
<path d="M69.5224 28.2392C69.4877 29.0939 69.3277 29.9616 69.5117 30.7991C69.5384 30.9231 69.7224 30.9444 69.7797 30.8335C70.1997 30.036 70.0597 29.1163 70.025 28.2392C70.0117 27.9147 69.5357 27.9147 69.5224 28.2392Z" fill="#BC2F23"/>
<path d="M70.4893 23.0803C70.4733 23.7693 70.3639 24.5188 70.5653 25.1897C70.6146 25.3537 70.8493 25.3537 70.8999 25.1897C71.1013 24.5188 70.992 23.7693 70.9746 23.0803C70.968 22.7683 70.4973 22.7683 70.4893 23.0803Z" fill="#BC2F23"/>
<path d="M73.7734 29.5282C73.5974 30.511 73.0801 32.024 73.6321 32.9444C73.7281 33.1026 73.9548 33.1001 74.0521 32.9444C74.3134 32.524 74.3068 32.0788 74.3321 31.5949C74.3681 30.936 74.3681 30.2725 74.4028 29.6136C74.4214 29.2564 73.8361 29.1709 73.7734 29.5282Z" fill="#BC2F23"/>
<path d="M78.1639 30.3522C78.0345 30.9814 77.8079 31.6137 77.7399 32.2513C77.7199 32.4403 77.9732 32.4606 78.0625 32.3377C78.4412 31.8231 78.4959 31.0908 78.6159 30.4778C78.6732 30.183 78.2252 30.0565 78.1639 30.3522Z" fill="#BC2F23"/>
<path d="M61.952 36.8122C62.2747 37.3882 62.5107 37.9975 62.732 38.6188C62.8973 39.0846 63.0694 39.5882 63.4107 39.9522C63.5187 40.0668 63.752 39.9855 63.736 39.8179C63.636 38.7365 62.8773 37.4991 62.268 36.6272C62.1347 36.436 61.836 36.6027 61.952 36.8122Z" fill="#BC2F23"/>
<path d="M65.3078 34.4272C65.4504 35.7964 65.7984 37.1136 66.3237 38.3813C66.3971 38.5616 66.7157 38.6297 66.7584 38.3813C67.0077 36.9283 66.2344 35.7147 65.8531 34.3521C65.7704 34.0605 65.2744 34.1069 65.3078 34.4272Z" fill="#BC2F23"/>
<path d="M70.5037 37.1658C70.2477 38.2991 70.0197 39.4335 70.3744 40.5641C70.4477 40.7991 70.7677 40.7939 70.8424 40.5641C71.181 39.5428 71.2037 38.471 71.4237 37.4188C71.549 36.8215 70.6397 36.5642 70.5037 37.1658Z" fill="#BC2F23"/>
<path d="M65.3598 44.7616C65.5118 45.0001 65.6438 45.2136 65.8371 45.4188C65.9425 45.5324 66.1131 45.4136 66.0824 45.2751C66.0278 45.0204 65.9358 44.8016 65.8358 44.5605C65.6878 44.2016 65.1651 44.4512 65.3598 44.7616Z" fill="#BC2F23"/>
<path d="M67.2385 42.1777C67.3612 42.8272 67.4252 43.5417 67.7052 44.1428C67.7852 44.3147 68.0145 44.2095 68.0278 44.0548C68.0892 43.3923 67.8652 42.6871 67.7558 42.0349C67.6998 41.6964 67.1732 41.8376 67.2385 42.1777Z" fill="#BC2F23"/>
<path d="M67.648 47.2631C67.6053 48.1803 67.384 49.5428 67.9186 50.3496C68.008 50.4829 68.2707 50.4923 68.3 50.2991C68.368 49.8521 68.2493 49.4469 68.192 48.9975C68.12 48.4215 68.0907 47.8417 68.0627 47.2631C68.0507 46.9939 67.66 46.9939 67.648 47.2631Z" fill="#BC2F23"/>
<path d="M71.0426 43.5481C70.5639 44.7898 70.3479 46.0513 70.4519 47.3789C70.4665 47.5481 70.7092 47.5975 70.7585 47.4205C71.1079 46.1803 71.1119 44.895 71.3772 43.6429C71.4239 43.4205 71.1226 43.3429 71.0426 43.5481Z" fill="#BC2F23"/>
<path d="M74.6397 39.4564C74.1757 40.636 73.5917 41.9829 73.4717 43.2521C73.4597 43.3802 73.6584 43.4308 73.7144 43.3178C74.281 42.1777 74.4997 40.724 74.7237 39.4802L74.6397 39.4564Z" fill="#BC2F23"/>
<path d="M76.9304 35.5908C76.3344 36.6309 75.665 37.7429 75.533 38.9549C75.517 39.1044 75.741 39.1513 75.8077 39.0298C76.3904 37.9855 76.6704 36.7726 77.073 35.6513L76.9304 35.5908Z" fill="#BC2F23"/>
<path d="M74.1747 35.1565C73.9587 36.2522 73.7561 37.4403 73.8307 38.5538C73.8387 38.6726 74.0134 38.7445 74.0734 38.6189C74.5681 37.6043 74.4934 36.4002 74.7094 35.3043C74.7787 34.9538 74.2441 34.8059 74.1747 35.1565Z" fill="#BC2F23"/>
<path d="M68.868 32.9188C68.6626 33.9606 68.2946 35.4283 68.7093 36.4392C68.8013 36.6606 69.0706 36.6606 69.1613 36.4392C69.576 35.4283 69.2093 33.9606 69.0026 32.9188H68.868Z" fill="#BC2F23"/>
<path d="M59.7386 33.0512C59.7972 34.0392 60.1372 35.2147 60.8706 35.907C60.9866 36.0163 61.1359 35.9032 61.1159 35.7642C60.9825 34.8188 60.4612 33.8204 60.0292 32.9736C59.9599 32.835 59.7292 32.8975 59.7386 33.0512Z" fill="#BC2F23"/>
<path d="M62.7651 41.594C62.8518 42.3497 63.0971 43.2642 63.6745 43.7965C63.8331 43.9418 64.0345 43.794 64.0078 43.6028C63.9065 42.8632 63.3478 42.1565 62.9411 41.5456L62.7651 41.594Z" fill="#BC2F23"/>
<path d="M72.2642 49.9469C72.1188 50.5204 72.0468 51.0803 71.9695 51.6657C71.9495 51.8231 72.1762 51.8256 72.2242 51.7001C72.4308 51.1631 72.5908 50.6324 72.7322 50.0751C72.8095 49.7725 72.3415 49.6428 72.2642 49.9469Z" fill="#BC2F23"/>
<path d="M64.3183 50.7752C64.441 52.2232 64.3757 54.007 64.997 55.3429C65.0983 55.559 65.3823 55.4241 65.401 55.2336C65.4757 54.494 65.297 53.7366 65.2077 53.0044C65.1157 52.2632 65.0477 51.5189 64.977 50.7752C64.9383 50.3574 64.2823 50.3513 64.3183 50.7752Z" fill="#BC2F23"/>
<path d="M64.076 57.0949C63.892 58.3813 63.6133 60.048 64.464 61.1455C64.5893 61.3069 64.8506 61.2016 64.8986 61.0308C65.2466 59.8043 64.6226 58.3231 64.4266 57.0949C64.3986 56.9215 64.1013 56.9188 64.076 57.0949Z" fill="#BC2F23"/>
<path d="M67.0533 56.2512C66.9626 57.0231 66.8546 57.7939 66.8253 58.571C66.8026 59.1564 66.7453 59.7548 67.1986 60.1871C67.3373 60.3204 67.5493 60.3204 67.6879 60.1871C68.1413 59.7548 68.084 59.1564 68.0613 58.571C68.032 57.7939 67.924 57.0231 67.8333 56.2512C67.7746 55.7496 67.1119 55.7496 67.0533 56.2512Z" fill="#BC2F23"/>
<path d="M71.4837 56.283C71.2704 56.9549 71.057 57.6298 70.957 58.3298C70.8664 58.9726 70.7384 59.547 71.1637 60.0872C71.3011 60.2632 71.5557 60.206 71.7024 60.0872C72.1877 59.6924 72.1571 59.0726 72.1677 58.494C72.1797 57.7846 72.1131 57.0872 72.1984 56.3804C72.2491 55.9549 71.601 55.9096 71.4837 56.283Z" fill="#BC2F23"/>
<path d="M68.0813 51.9349C67.88 52.6376 67.9706 53.3657 67.988 54.0855C67.9946 54.3788 68.1813 54.6297 68.4653 54.7136C68.588 54.7469 68.688 54.7537 68.8107 54.7136C69.0707 54.6256 69.3106 54.3813 69.288 54.0855C69.2333 53.3631 69.16 52.6256 68.9333 51.9349C68.8 51.5231 68.2053 51.5016 68.0813 51.9349Z" fill="#BC2F23"/>
<path d="M60.9028 42.2512C61.0842 43.1403 61.0081 44.3215 61.4828 45.1111C61.5481 45.2204 61.7268 45.1778 61.7242 45.047C61.7095 44.1376 61.2641 43.0871 60.9521 42.2376L60.9028 42.2512Z" fill="#BC2F23"/>
<path d="M60.9853 46.8855C61.1426 47.7574 61.0506 49.3256 61.8386 49.8907C62.012 50.0163 62.22 49.8778 62.284 49.7111C62.4666 49.2418 62.228 48.8059 62.0746 48.3538C61.8893 47.8147 61.6226 47.2964 61.4026 46.771C61.2973 46.5163 60.9346 46.6059 60.9853 46.8855Z" fill="#BC2F23"/>
<path d="M57.5079 32.8845C57.7279 33.5668 57.7732 34.5803 58.2732 35.1152C58.3839 35.2324 58.5838 35.1417 58.5838 34.9871C58.5865 34.2845 58.1905 33.4231 57.9598 32.7605C57.8612 32.4788 57.4145 32.5964 57.5079 32.8845Z" fill="#BC2F23"/>
<path d="M83.0864 16.2122C82.7504 16.6111 82.597 17.135 82.429 17.6231C82.241 18.1726 82.0197 18.7366 82.0344 19.324C82.0411 19.583 82.3637 19.7366 82.553 19.5403C83.2384 18.8215 83.7064 17.307 83.521 16.3256C83.485 16.1418 83.2077 16.0658 83.0864 16.2122Z" fill="#BC2F23"/>
<path d="M71.1077 63.5846C70.7144 64.6574 70.3064 65.9907 70.5251 67.1403C70.5637 67.3444 70.8984 67.3975 70.9851 67.2002C71.4557 66.135 71.3317 64.8298 71.4917 63.6907C71.5264 63.4392 71.1971 63.3376 71.1077 63.5846Z" fill="#BC2F23"/>
<path d="M68.6065 62.0257C68.3758 62.9298 67.9465 64.059 68.2065 64.9907C68.2705 65.2189 68.5598 65.2923 68.7278 65.1298C69.4984 64.3803 69.1931 63.0669 69.2198 62.1085C69.2291 61.7549 68.6931 61.6855 68.6065 62.0257Z" fill="#BC2F23"/>
<path d="M64.3281 63.6376C64.3321 64.9573 64.2254 66.5564 64.9521 67.7179C65.0654 67.8975 65.4041 67.8975 65.4441 67.6548C65.6614 66.3204 65.2308 64.8573 64.9574 63.5512C64.8828 63.1923 64.3268 63.2819 64.3281 63.6376Z" fill="#BC2F23"/>
<path d="M66.7948 67.9309C66.2201 69.3814 66.2841 71.4122 66.8014 72.8683C66.8854 73.1043 67.2041 73.1085 67.2854 72.8683C67.7894 71.3965 67.6174 69.3683 67.0294 67.9309H66.7948Z" fill="#BC2F23"/>
<path d="M69.4878 70.0017C68.9771 71.059 68.2958 72.4683 68.7158 73.6574C68.8145 73.935 69.1705 73.9939 69.3331 73.7377C69.9678 72.7455 69.7358 71.3137 69.9465 70.1965C69.9972 69.9335 69.6185 69.7298 69.4878 70.0017Z" fill="#BC2F23"/>
<path d="M65.2974 73.6934C65.3067 74.3803 65.2601 75.5122 65.8561 75.9486L66.2001 75.859C66.5787 75.2907 66.1507 74.3429 66.1294 73.6934C66.1121 73.1574 65.2907 73.1565 65.2974 73.6934Z" fill="#BC2F23"/>
<path d="M68.7734 67.0737C68.7547 67.7231 68.6067 68.4726 68.8774 69.0789C68.9334 69.2043 69.1507 69.2043 69.2067 69.0789C69.4787 68.4726 69.3307 67.7231 69.3107 67.0737C69.3014 66.7273 68.7841 66.7273 68.7734 67.0737Z" fill="#BC2F23"/>
<path d="M74.1026 49.3017C74 50.0205 73.86 50.7122 73.676 51.4137C73.532 51.9632 73.2746 52.6096 73.5013 53.1574C73.6 53.394 73.8626 53.4908 74.0666 53.307C74.5 52.9164 74.488 52.3456 74.5413 51.7965C74.62 50.995 74.5733 50.1778 74.6306 49.3737C74.652 49.0726 74.1453 49.0017 74.1026 49.3017Z" fill="#BC2F23"/>
<path d="M75.2546 43.3069C74.9706 44.0589 74.6706 44.8297 74.9826 45.6027C75.0333 45.7297 75.2439 45.8095 75.3159 45.648C75.6213 44.9564 75.6386 44.2016 75.856 43.4736C75.9733 43.0803 75.3933 42.936 75.2546 43.3069Z" fill="#BC2F23"/>
<path d="M90.7975 14.606C90.0055 15.4298 89.7348 16.5284 89.6508 17.635C89.6308 17.8924 89.9614 17.9189 90.0868 17.7538C90.7361 16.8856 90.9174 15.8601 91.1881 14.8336C91.2481 14.6112 90.9628 14.435 90.7975 14.606Z" fill="#BC2F23"/>
<path d="M87.6385 17.7481C87.5505 18.9393 86.8692 19.9871 86.8385 21.1898C86.8305 21.5111 87.2238 21.5522 87.3878 21.3377C88.2051 20.2658 88.5531 18.9923 88.2851 17.6606C88.2078 17.2751 87.6638 17.3975 87.6385 17.7481Z" fill="#BC2F23"/>
<path d="M91.8371 19.7522C91.0731 21.1205 90.2504 22.3565 89.7091 23.835C89.6331 24.0429 89.9291 24.1309 90.0411 23.9762C90.9704 22.6819 91.7438 21.4513 92.2651 19.9335C92.3518 19.6789 91.9651 19.5241 91.8371 19.7522Z" fill="#BC2F23"/>
<path d="M93.4546 16.2366C93.2599 16.7606 93.0279 17.3043 92.9852 17.8668C92.9666 18.1059 93.2626 18.1694 93.4132 18.0444C93.8519 17.6819 94.1559 17.1403 94.4052 16.6376C94.7399 15.9606 93.7186 15.5298 93.4546 16.2366Z" fill="#BC2F23"/>
<path d="M87.2773 23.5537C86.7039 24.8548 85.7719 26.1376 85.5946 27.571C85.5639 27.8272 85.9292 27.8788 86.0479 27.6934C86.8026 26.5179 87.2333 25.0308 87.6093 23.6934C87.6653 23.4991 87.3626 23.3616 87.2773 23.5537Z" fill="#BC2F23"/>
<path d="M89.721 26.247C89.2996 26.8418 88.8183 27.4606 88.5156 28.1256C88.4436 28.283 88.6116 28.535 88.789 28.3975C89.4116 27.9179 89.7316 27.1496 90.157 26.5016C90.3356 26.2272 89.9063 25.9882 89.721 26.247Z" fill="#BC2F23"/>
<path d="M42.9214 17.9111C43.5774 18.4939 43.812 19.6403 44.6507 19.9683C44.8453 20.0455 45.0974 19.8855 45.1414 19.6898C45.3667 18.6751 44.1867 17.7137 43.3934 17.2975C43.016 17.1002 42.5774 17.6043 42.9214 17.9111Z" fill="#BC2F23"/>
<path d="M43.7692 22.335C44.1652 22.8512 44.5119 23.6428 45.1599 23.8538C45.3412 23.9136 45.4799 23.7574 45.4999 23.595C45.5812 22.9084 44.8799 22.2882 44.4772 21.7882C44.1572 21.3907 43.4572 21.9298 43.7692 22.335Z" fill="#BC2F23"/>
<path d="M47.2667 18.7002C47.3881 19.2548 47.6774 19.7819 47.9147 20.2964C48.1947 20.9002 48.4547 21.5188 48.9854 21.9486C49.2561 22.1668 49.6214 22.0283 49.6507 21.6726C49.7507 20.471 48.6961 18.9726 47.6987 18.3668C47.4681 18.2272 47.2121 18.4564 47.2667 18.7002Z" fill="#BC2F23"/>
<path d="M47.0427 23.8846C47.6801 24.8694 48.248 26.0512 49.268 26.6871C49.452 26.8027 49.7214 26.6548 49.7107 26.4335C49.6481 25.135 48.5187 24.2694 47.6814 23.3907C47.364 23.0574 46.7881 23.4939 47.0427 23.8846Z" fill="#BC2F23"/>
<path d="M50.9839 24.536C51.4719 25.5403 51.7212 27.2136 52.9599 27.5699C53.1732 27.6308 53.4012 27.4964 53.4599 27.2845C53.8119 26.0163 52.5159 24.7975 51.8012 23.9059C51.4105 23.4188 50.7425 24.0392 50.9839 24.536Z" fill="#BC2F23"/>
<path d="M52.5397 30.7445C52.505 30.4377 52.5024 30.3669 52.2624 30.1694C52.157 30.083 52.0024 30.1112 51.9584 30.2513C51.8944 30.4538 51.8863 30.5284 51.881 30.7445C51.869 31.1778 52.5877 31.1574 52.5397 30.7445Z" fill="#BC2F23"/>
<path d="M50.4238 28.595C50.9145 29.1152 51.3505 29.7027 51.7158 30.3163C52.0198 30.8272 52.2732 31.6512 52.8132 31.9522C52.9292 32.0179 53.1145 31.9376 53.1012 31.7882C53.0358 31.1308 52.4358 30.4215 52.0865 29.8736C51.6798 29.235 51.2558 28.6788 50.5332 28.4059L50.4238 28.595Z" fill="#BC2F23"/>
<path d="M54.2959 28.4136C54.4933 29.1819 54.7466 30.2392 55.3999 30.7522C55.5359 30.859 55.7773 30.807 55.7693 30.5991C55.7373 29.7455 55.1226 28.8751 54.5853 28.2444C54.4693 28.1059 54.2559 28.2548 54.2959 28.4136Z" fill="#BC2F23"/>
<path d="M54.0291 34.8726C54.3011 35.5699 54.5451 36.2762 54.8091 36.9789C55.0331 37.5751 55.1224 38.3975 55.6504 38.7871C55.7611 38.8694 55.9597 38.8137 56.0171 38.6907C56.3024 38.0939 55.9118 37.4574 55.6598 36.8923C55.3131 36.1137 54.7411 35.4683 54.2664 34.7726C54.1878 34.6574 53.9718 34.7273 54.0291 34.8726Z" fill="#BC2F23"/>
<path d="M57.4824 36.3751C57.2971 36.9574 57.5611 37.6898 57.7198 38.2565C57.8771 38.8231 58.1784 39.7882 58.7638 40.0377C58.8851 40.0882 59.0398 40.0803 59.1078 39.947C59.3944 39.383 59.0264 38.8231 58.7571 38.3215C58.5744 37.9803 58.3584 37.659 58.1611 37.3273C57.9718 37.0085 57.8731 36.6522 57.6571 36.3522L57.4824 36.3751Z" fill="#BC2F23"/>
<path d="M78.1571 42.6513C78.5345 42.2137 78.6465 41.5882 78.8158 41.0445C78.9958 40.4683 79.3718 39.9136 79.3785 39.3016C79.3812 39.0751 79.1358 38.9574 78.9478 39.0538C78.3811 39.3455 78.1451 40.0059 77.9211 40.5683C77.6918 41.1428 77.4385 41.8965 77.6211 42.5095C77.6851 42.7257 77.9931 42.8403 78.1571 42.6513Z" fill="#BC2F23"/>
<path d="M80.0493 35.6871C80.2973 35.1153 80.584 34.5002 80.604 33.871C80.6093 33.7043 80.392 33.6179 80.2786 33.7366C79.808 34.2205 79.7266 34.9361 79.6626 35.5814C79.6413 35.7819 79.9679 35.8751 80.0493 35.6871Z" fill="#BC2F23"/>
<path d="M82.9399 34.059C83.5599 33.3846 84.5199 32.7393 84.7025 31.782C84.7452 31.559 84.5319 31.3752 84.3212 31.4898C83.4599 31.9565 83.1412 33.059 82.6799 33.859C82.5879 34.0189 82.8105 34.1992 82.9399 34.059Z" fill="#BC2F23"/>
<path d="M82.1466 30.5205C82.3093 29.8189 82.9066 29.1778 82.8679 28.4393C82.8586 28.2694 82.6559 28.171 82.5279 28.2992C81.9946 28.8325 81.7079 29.7148 81.6186 30.4486C81.5826 30.7522 82.0799 30.8112 82.1466 30.5205Z" fill="#BC2F23"/>
<path d="M84.5144 23.4418C84.5758 23.0617 84.7878 22.7606 84.8785 22.394C84.9171 22.2336 84.7371 22.0658 84.5851 22.1684C84.1651 22.4538 84.0731 22.8882 84.0718 23.3814C84.0718 23.6298 84.4731 23.6992 84.5144 23.4418Z" fill="#BC2F23"/>
<path d="M61.0562 52.6658C61.3708 53.3617 61.5535 54.1361 61.7468 54.8737L61.9508 54.8455C61.9521 53.9846 61.7082 53.2819 61.2362 52.5617L61.0562 52.6658Z" fill="#BC2F23"/>
<path d="M62.292 61.2163C62.404 61.8923 62.6347 62.5298 62.7893 63.1934L62.9253 63.1751C62.8853 62.495 62.7253 61.8428 62.6506 61.1683C62.62 60.9059 62.2493 60.9548 62.292 61.2163Z" fill="#BC2F23"/>
<path d="M62.4732 67.3393C62.4719 68.0122 62.4958 68.6513 62.5918 69.3189C62.6785 69.9325 62.7159 70.8215 63.2372 71.2257C63.3785 71.335 63.5772 71.3726 63.7145 71.2257C64.6358 70.2377 63.3692 68.3043 63.0692 67.259C62.9745 66.9298 62.4732 66.9939 62.4732 67.3393Z" fill="#BC2F23"/>
<path d="M72.8148 66.0096C72.3468 66.5164 72.1495 67.1882 71.9095 67.8232C71.6575 68.4882 71.3375 69.2481 71.6375 69.9325C71.7095 70.0965 71.9455 70.0965 72.0588 69.9872C72.5015 69.559 72.5628 68.9017 72.7268 68.3298C72.9255 67.635 73.2295 66.8814 73.1548 66.1513C73.1375 65.9908 72.9428 65.8694 72.8148 66.0096Z" fill="#BC2F23"/>
<path d="M73.3412 58.2027C73.2652 58.4564 73.0812 58.6658 72.9959 58.9215C72.8812 59.2564 72.7918 59.5814 72.7172 59.9283C72.5878 60.5152 72.4132 61.1606 72.6892 61.7231L72.9865 61.8016C73.4412 61.4964 73.5879 60.9898 73.7025 60.471C73.7665 60.1803 73.8358 59.8522 73.8492 59.5538C73.8678 59.1392 73.7758 58.6726 73.8185 58.2668C73.8478 57.9855 73.4185 57.9496 73.3412 58.2027Z" fill="#BC2F23"/>
<path d="M75.9961 52.2059C75.1401 52.5751 74.6721 54.3455 75.0255 55.1455C75.1081 55.3324 75.3721 55.3283 75.5015 55.2084C75.8561 54.8736 75.8828 54.3668 75.9681 53.9136C76.0668 53.3964 76.1641 52.8428 76.1921 52.3179L75.9961 52.2059Z" fill="#BC2F23"/>
<path d="M57.9971 42.7392C57.8651 43.3297 58.1224 43.924 58.3171 44.4761C58.5411 45.1084 58.6638 45.8324 59.2611 46.2179C59.4078 46.3121 59.6611 46.2616 59.7358 46.0939C60.0305 45.4376 59.7358 44.8641 59.4291 44.2657C59.1344 43.6845 58.8411 43.0043 58.3025 42.6152C58.1945 42.5392 58.0238 42.6163 57.9971 42.7392Z" fill="#BC2F23"/>
<path d="M23.8945 33.7298C24.9585 33.7751 26.0198 34.359 27.0824 34.0538C27.3464 33.9789 27.3304 33.6189 27.0824 33.5361C26.0824 33.2002 24.9411 33.1789 23.8945 33.1752C23.5358 33.1737 23.5398 33.7137 23.8945 33.7298Z" fill="#BC2F23"/>
<path d="M26.3293 30.8694C27.2746 31.1574 28.2733 31.8231 29.2813 31.7538C29.5293 31.7366 29.6253 31.424 29.408 31.2846C28.576 30.7548 27.4413 30.507 26.4853 30.3016C26.1146 30.2204 25.964 30.759 26.3293 30.8694Z" fill="#BC2F23"/>
<path d="M28.2346 27.1298C28.9879 27.2846 29.7119 27.6846 30.4786 27.7256C30.6906 27.7366 30.7773 27.4668 30.6439 27.3256C30.0839 26.7403 29.1852 26.5939 28.4146 26.4788C27.9946 26.4147 27.8012 27.0418 28.2346 27.1298Z" fill="#BC2F23"/>
<path d="M31.2984 30.0189C32.0024 30.1846 32.6958 30.6908 33.4131 30.683C33.6638 30.6804 33.7478 30.4002 33.6038 30.2241C33.1158 29.6325 32.1011 29.5189 31.3784 29.4231C31.0358 29.3778 30.9704 29.9403 31.2984 30.0189Z" fill="#BC2F23"/>
<path d="M33.048 24.5964C33.668 24.8975 34.436 25.5709 35.1454 25.5121C35.3867 25.4907 35.5253 25.2641 35.4147 25.0428C35.0787 24.3709 33.992 24.1428 33.3294 23.9324C32.9387 23.8069 32.6747 24.4147 33.048 24.5964Z" fill="#BC2F23"/>
<path d="M39.3624 26.3403C39.7318 26.7417 39.8464 27.1631 40.4171 27.2215C40.5491 27.2349 40.6785 27.1188 40.7105 26.9991C40.8571 26.4376 40.4105 26.0444 40.0371 25.6657C39.6038 25.2256 38.9491 25.8881 39.3624 26.3403Z" fill="#BC2F23"/>
<path d="M38.2081 22.1616C38.5734 22.5631 38.8827 23.0392 39.4001 23.2335C39.5454 23.2871 39.7294 23.1152 39.6667 22.9668C39.4507 22.4538 38.9734 22.1658 38.5521 21.8188C38.3121 21.6215 37.9947 21.9272 38.2081 22.1616Z" fill="#BC2F23"/>
<path d="M30.6015 34.0565C31.8308 34.1137 32.9735 35.0017 34.1908 34.859C34.5255 34.8189 34.7748 34.4232 34.4854 34.1481C33.4788 33.1992 31.8041 33.0268 30.4908 33.2393C30.0068 33.318 30.1561 34.035 30.6015 34.0565Z" fill="#BC2F23"/>
<path d="M35.1028 27.9403C35.8401 28.4283 36.6708 29.2631 37.6028 29.2564C37.8988 29.2548 38.0268 28.9032 37.8361 28.6934C37.5548 28.3846 37.1974 28.2136 36.8441 28.0016C36.4054 27.7376 35.9894 27.436 35.5561 27.1616C35.0627 26.8486 34.6201 27.6215 35.1028 27.9403Z" fill="#BC2F23"/>
<path d="M96.481 20.4189C97.0196 19.607 97.8116 18.8565 98.141 17.9325C98.209 17.7393 97.9543 17.5325 97.7836 17.6574C96.977 18.247 96.4583 19.2683 95.9703 20.1215C95.7796 20.4549 96.2716 20.7325 96.481 20.4189Z" fill="#BC2F23"/>
<path d="M101.83 22.9308C102.549 22.4923 103.505 22.2272 104.092 21.6204C104.266 21.4403 104.141 21.136 103.889 21.1324C103.009 21.1204 102.118 21.7403 101.401 22.1964C100.941 22.4897 101.361 23.2147 101.83 22.9308Z" fill="#BC2F23"/>
<path d="M107.721 26.9232C108.617 26.8726 109.453 26.7778 110.241 26.3273C110.418 26.2257 110.39 25.9309 110.184 25.883C109.269 25.6804 108.51 26.0205 107.629 26.2418C107.254 26.3361 107.328 26.9445 107.721 26.9232Z" fill="#BC2F23"/>
<path d="M101.211 19.1521C100.579 19.9777 99.704 20.6564 99.228 21.5906L99.4054 21.7272C100.095 20.9417 100.839 20.1829 101.483 19.3616C101.637 19.163 101.363 18.9521 101.211 19.1521Z" fill="#BC2F23"/>
<path d="M100.512 25.7642C99.6268 26.4814 98.2468 27.1737 97.7068 28.2137C97.6001 28.4205 97.7747 28.6975 98.0201 28.6215C99.1734 28.2631 100.101 26.9975 100.88 26.1309C101.108 25.8778 100.769 25.5549 100.512 25.7642Z" fill="#BC2F23"/>
<path d="M105.395 29.5297C104.825 30.2308 103.772 30.8283 103.577 31.7693C103.536 31.9709 103.713 32.2136 103.94 32.1308C104.909 31.7829 105.321 30.6297 105.708 29.7693C105.793 29.5803 105.549 29.3392 105.395 29.5297Z" fill="#BC2F23"/>
<path d="M106.239 24.3803C105.711 25.0428 104.921 25.6059 104.549 26.3736C104.479 26.5188 104.629 26.7121 104.785 26.6095C105.507 26.1444 106.072 25.3231 106.539 24.6095C106.657 24.4308 106.376 24.2095 106.239 24.3803Z" fill="#BC2F23"/>
<path d="M96.0371 23.0469C95.3945 23.8485 94.7665 24.6084 94.4452 25.5939C94.3772 25.8084 94.6238 25.9605 94.8025 25.8683C95.7531 25.3777 96.1718 24.4521 96.7452 23.5939C97.0265 23.1693 96.3585 22.6455 96.0371 23.0469Z" fill="#BC2F23"/>
<path d="M92.7201 30.7002C92.8494 30.3522 93.0334 30.0309 93.1681 29.6846C93.2294 29.5257 93.0094 29.435 92.9028 29.5309C92.5961 29.806 92.3668 30.1044 92.1974 30.4804C92.0254 30.859 92.5774 31.0898 92.7201 30.7002Z" fill="#BC2F23"/>
<path d="M99.1733 38.7137C100.087 37.9642 101.04 37.2241 101.817 36.3335C101.977 36.1497 101.779 35.9137 101.565 36.007C100.449 36.5017 99.6106 37.4538 98.7 38.2393C98.3693 38.5231 98.844 38.9846 99.1733 38.7137Z" fill="#BC2F23"/>
<path d="M108.448 36.6882C108.932 36.3122 109.423 35.9486 109.897 35.5617C110.025 35.4574 109.924 35.2111 109.76 35.2283C109.06 35.3059 108.531 35.671 107.96 36.0549C107.479 36.3803 107.987 37.047 108.448 36.6882Z" fill="#BC2F23"/>
<path d="M108.772 30.8923C108.985 30.6445 109.169 30.4137 109.416 30.1975C109.521 30.1027 109.44 29.9085 109.299 29.9163C108.941 29.9335 108.597 30.0814 108.313 30.2975C107.856 30.6481 108.433 31.2855 108.772 30.8923Z" fill="#BC2F23"/>
<path d="M113.192 37.2027C113.712 37.0846 114.409 37.0683 114.762 36.6231C114.876 36.4803 114.897 36.2283 114.7 36.135C114.148 35.8726 113.497 36.1257 112.932 36.2606C112.32 36.4085 112.58 37.3403 113.192 37.2027Z" fill="#BC2F23"/>
<path d="M111.424 32.6606C111.707 32.4658 111.921 32.2907 112.083 31.9855C112.172 31.8179 112.104 31.5574 111.893 31.5189C111.561 31.4574 111.293 31.4898 110.968 31.5803C110.105 31.8231 110.733 33.1403 111.424 32.6606Z" fill="#BC2F23"/>
<path d="M113.629 43.4231C114.481 43.3121 115.509 43.3564 116.304 43.0256C116.457 42.9631 116.519 42.6845 116.304 42.6512C115.437 42.5136 114.429 42.7939 113.561 42.9188C113.276 42.9606 113.344 43.4589 113.629 43.4231Z" fill="#BC2F23"/>
<path d="M114.542 48.2017C115.228 48.2565 115.853 48.3241 116.514 48.1027C116.654 48.0574 116.654 47.8683 116.514 47.8231C115.853 47.6027 115.228 47.6694 114.542 47.7241C114.236 47.7497 114.236 48.1762 114.542 48.2017Z" fill="#BC2F23"/>
<path d="M112.411 53.1992C112.979 53.4737 113.56 53.7112 114.159 53.9122C114.709 54.0976 115.372 54.3486 115.921 54.0737C116.063 54.0017 116.095 53.7752 115.973 53.671C115.593 53.3404 115.075 53.3112 114.6 53.1898C113.981 53.0309 113.376 52.806 112.793 52.5456C112.355 52.3497 111.968 52.9846 112.411 53.1992Z" fill="#BC2F23"/>
<path d="M107.273 51.9148C108.181 52.406 109.048 52.8513 110.1 52.8486C110.291 52.8486 110.369 52.5804 110.199 52.4846C109.376 52.0257 108.513 51.6574 107.684 51.2096C107.22 50.959 106.808 51.6642 107.273 51.9148Z" fill="#BC2F23"/>
<path d="M108.957 47.8361C109.688 47.9361 110.335 47.9632 111.063 47.8309C111.233 47.8017 111.261 47.5393 111.111 47.4632C110.48 47.1456 109.877 47.1044 109.187 47.0002C108.639 46.9189 108.408 47.7617 108.957 47.8361Z" fill="#BC2F23"/>
<path d="M107.934 43.4669C108.71 43.3617 109.672 43.3803 110.353 42.9658C110.556 42.8418 110.52 42.5298 110.288 42.4642C109.493 42.2393 108.509 42.535 107.708 42.6445C107.164 42.7179 107.396 43.5418 107.934 43.4669Z" fill="#BC2F23"/>
<path d="M102.164 41.0112C102.664 40.8778 103.132 40.6632 103.624 40.506L103.588 40.3762C103.084 40.4871 102.599 40.6538 102.088 40.7404C101.913 40.7694 101.985 41.059 102.164 41.0112Z" fill="#BC2F23"/>
<path d="M95.9744 36.1273C96.3944 35.2179 97.2691 34.6975 97.6384 33.759C97.7224 33.5445 97.4704 33.3148 97.2637 33.383C96.1784 33.7429 95.4331 34.6882 95.0037 35.7179C94.7744 36.2726 95.7224 36.6694 95.9744 36.1273Z" fill="#BC2F23"/>
<path d="M21.0786 36.4002C21.8879 36.8272 22.5546 37.5778 23.4146 37.8871L23.5213 37.7043C22.8693 37.1548 21.9759 36.4444 21.1106 36.3231L21.0786 36.4002Z" fill="#BC2F23"/>
<path d="M19.3291 41.595C20.2438 41.7205 21.1718 42.1872 22.0864 42.1898C22.2411 42.1898 22.2931 41.9846 22.1638 41.906C21.3851 41.4336 20.2731 41.2216 19.3691 41.295C19.2104 41.3085 19.1478 41.57 19.3291 41.595Z" fill="#BC2F23"/>
<path d="M18.1358 46.3537C18.9972 46.4111 19.8825 46.7417 20.7038 46.3455C20.8305 46.2829 20.8305 46.0699 20.7038 46.0069C19.8825 45.6111 18.9972 45.9417 18.1358 45.9991C17.9078 46.0152 17.9078 46.3376 18.1358 46.3537Z" fill="#BC2F23"/>
<path d="M18.4706 50.2122C19.1333 50.3564 19.9733 50.6949 20.608 50.2975C20.7733 50.1933 20.7733 49.959 20.608 49.8548C19.9733 49.4574 19.1333 49.7964 18.4706 49.9403C18.336 49.971 18.336 50.1819 18.4706 50.2122Z" fill="#BC2F23"/>
<path d="M21.6584 54.8907C22.9491 55.1188 24.4477 55.2845 25.7224 54.8975C25.9331 54.8335 25.9331 54.5376 25.7224 54.4736C24.4477 54.0871 22.9491 54.2521 21.6584 54.4803C21.4531 54.5152 21.4531 54.8564 21.6584 54.8907Z" fill="#BC2F23"/>
<path d="M24.1837 51.2658C24.7437 51.2907 25.2878 51.3788 25.8344 51.4991C26.2744 51.5964 26.6944 51.7455 27.1477 51.6975C27.3437 51.6751 27.4264 51.436 27.2491 51.3231C26.4437 50.7939 25.1224 50.7694 24.1837 50.7778C23.8677 50.7803 23.8717 51.2512 24.1837 51.2658Z" fill="#BC2F23"/>
<path d="M23.5668 45.4444C24.3388 45.5111 25.1975 45.8907 25.9655 45.7725C26.1108 45.7521 26.1522 45.5392 26.0522 45.4469C25.4335 44.8803 24.3442 44.9709 23.5668 45.0179C23.2895 45.0349 23.2948 45.4215 23.5668 45.4444Z" fill="#BC2F23"/>
<path d="M26.9597 37.7871C28.037 38.148 29.0064 38.7256 30.0677 39.1163C30.2157 39.1694 30.341 38.9521 30.2224 38.8512C29.3397 38.0907 28.189 37.659 27.0917 37.3059C26.7837 37.2059 26.6557 37.6855 26.9597 37.7871Z" fill="#BC2F23"/>
<path d="M29.484 46.2846C30.3227 46.8939 31.252 47.7751 32.292 47.9882C32.46 48.0215 32.556 47.8403 32.452 47.7136C31.78 46.8964 30.6307 46.3923 29.748 45.8308C29.4587 45.647 29.216 46.0907 29.484 46.2846Z" fill="#BC2F23"/>
<path d="M27.692 41.0027C28.7053 41.1934 29.464 41.8512 30.424 42.136C30.6586 42.207 30.776 41.9231 30.6426 41.7606C29.976 40.9361 28.7786 40.5762 27.7653 40.4642C27.4573 40.4308 27.3893 40.947 27.692 41.0027Z" fill="#BC2F23"/>
<path d="M36.6747 42.4521C37.4133 42.9324 38.236 43.5871 39.088 43.8272C39.2293 43.8683 39.3147 43.6949 39.224 43.5939C38.6333 42.924 37.6373 42.5605 36.8853 42.0939C36.656 41.9521 36.452 42.3069 36.6747 42.4521Z" fill="#BC2F23"/>
<path d="M33.5132 38.335C34.2066 38.6153 34.8972 38.947 35.6266 39.1027C35.7692 39.135 35.8746 38.9683 35.7692 38.859C35.2052 38.2694 34.3892 37.9283 33.5679 37.9298C33.3186 37.9298 33.3066 38.2538 33.5132 38.335Z" fill="#BC2F23"/>
<path d="M38.7479 34.924C39.2239 35.271 39.6413 35.7001 40.1933 35.9204C40.3533 35.9845 40.4226 35.7693 40.3413 35.6641C39.976 35.2001 39.472 34.8428 39 34.4907C38.7426 34.2991 38.4893 34.735 38.7479 34.924Z" fill="#BC2F23"/>
<path d="M42.9237 30.2392C43.8903 30.9522 44.213 32.2179 45.177 32.9111C45.3664 33.047 45.573 32.824 45.5357 32.635C45.293 31.4496 44.2597 30.2991 43.225 29.7231C42.881 29.5308 42.6197 30.0152 42.9237 30.2392Z" fill="#BC2F23"/>
<path d="M42.9227 37.3522C43.2561 37.9497 43.6747 38.4684 44.1521 38.9549C44.5467 39.3574 44.9561 39.8898 45.5441 39.9549C45.6934 39.971 45.8281 39.8148 45.8241 39.6737C45.8107 39.1325 45.3548 38.7752 44.9721 38.4393C44.4361 37.971 43.8801 37.5164 43.4214 36.9684C43.1841 36.683 42.7534 37.047 42.9227 37.3522Z" fill="#BC2F23"/>
<path d="M39.4583 30.0231C39.993 30.6059 40.505 31.2366 41.0836 31.7751C41.2303 31.9122 41.4517 31.7762 41.4103 31.5855C41.2237 30.7136 40.4237 30.2324 39.777 29.7059C39.5543 29.5231 39.2583 29.8059 39.4583 30.0231Z" fill="#BC2F23"/>
<path d="M39.7505 39.7392C39.9878 40.1871 40.3492 40.5215 40.7105 40.8726C41.0812 41.2298 41.4905 41.6215 42.0185 41.7002C42.2318 41.7324 42.4438 41.5324 42.3145 41.3147C42.0838 40.9324 41.7172 40.6803 41.3612 40.4188C40.8985 40.0788 40.4558 39.7059 39.8945 39.5496L39.7505 39.7392Z" fill="#BC2F23"/>
<path d="M33.0624 44.7778C33.7744 45.3418 34.5371 45.971 35.3851 46.3122C35.5184 46.3658 35.6184 46.1683 35.5211 46.0778C34.8731 45.471 34.0398 45.0497 33.3385 44.5017C33.1425 44.3497 32.8638 44.6215 33.0624 44.7778Z" fill="#BC2F23"/>
<path d="M32.1813 53.7694C33.0693 54.2522 34.0093 54.8669 35.004 55.0882C35.1653 55.1241 35.2973 54.9283 35.1693 54.8027C34.44 54.0882 33.38 53.7189 32.4893 53.2429C32.1426 53.0565 31.8346 53.5814 32.1813 53.7694Z" fill="#BC2F23"/>
<path d="M31.1053 50.5179C31.7199 50.8631 32.3559 51.2002 33.0373 51.3923C33.1693 51.4298 33.2799 51.2548 33.1733 51.1574C32.6453 50.6788 31.964 50.447 31.344 50.1059C31.076 49.9574 30.8359 50.3668 31.1053 50.5179Z" fill="#BC2F23"/>
<path d="M38.8974 50.0991C39.9027 50.2658 40.5734 51.2694 41.5947 51.3147C41.7867 51.3231 41.9267 51.1215 41.8774 50.9428C41.56 49.7882 40.0747 49.2631 39.0014 49.3308C38.5867 49.359 38.44 50.0231 38.8974 50.0991Z" fill="#BC2F23"/>
<path d="M92.5011 42.2522C92.9091 41.5992 93.4465 41.0361 93.7225 40.307C93.7811 40.1538 93.5638 40.047 93.4585 40.1538C92.9091 40.7085 92.5091 41.359 92.1758 42.0617C92.0718 42.2789 92.3718 42.4617 92.5011 42.2522Z" fill="#BC2F23"/>
<path d="M88.2304 40.148C88.3237 38.9308 89.3117 38.1512 89.5557 37.0069C89.5944 36.8272 89.3797 36.6829 89.2397 36.8231C88.4144 37.6537 87.8117 38.9725 87.8037 40.148C87.8024 40.4272 88.2104 40.4188 88.2304 40.148Z" fill="#BC2F23"/>
<path d="M99.7507 31.9761C100.441 31.4668 101.236 31.0725 101.828 30.4428C101.927 30.3376 101.831 30.1376 101.679 30.1881C100.863 30.4616 100.171 31.0152 99.4934 31.5335C99.2348 31.7297 99.4827 32.1736 99.7507 31.9761Z" fill="#BC2F23"/>
<path d="M94.2357 47.1991C95.1463 46.795 95.9983 46.2043 96.757 45.5606C96.8583 45.4736 96.7503 45.2939 96.6263 45.335C95.669 45.6683 94.9517 46.4616 94.145 47.0403L94.2357 47.1991Z" fill="#BC2F23"/>
<path d="M98.296 47.7694C98.972 47.4147 99.6574 47.2751 100.38 47.0699L100.361 46.9361C99.6134 46.9846 98.8774 47.2939 98.228 47.6565L98.296 47.7694Z" fill="#BC2F23"/>
<path d="M103.16 39.024C103.97 38.724 104.886 38.8204 105.661 38.4496C105.806 38.3803 105.812 38.1272 105.661 38.0589C104.776 37.6657 103.734 38.0418 102.925 38.4668C102.621 38.6256 102.832 39.1455 103.16 39.024Z" fill="#BC2F23"/>
<path d="M99.6211 50.6778C100.632 50.6898 102.236 50.8215 103.086 50.1846C103.256 50.0565 103.265 49.7658 103.022 49.7059C102.534 49.583 102.053 49.707 101.564 49.7846C100.922 49.8871 100.27 49.9283 99.6211 49.9455C99.1504 49.959 99.1491 50.6726 99.6211 50.6778Z" fill="#BC2F23"/>
<path d="M103.205 46.0444C103.988 45.9069 104.754 45.7163 105.35 45.1657C105.522 45.0059 105.372 44.7709 105.177 44.7496C104.41 44.6605 103.694 44.9881 102.952 45.1272C102.348 45.2392 102.608 46.1496 103.205 46.0444Z" fill="#BC2F23"/>
<path d="M84.3187 46.718C84.5534 46.047 84.8307 45.3814 84.9654 44.6846C85.0001 44.5002 84.7707 44.3976 84.6641 44.5565C84.2601 45.1694 84.0534 45.8898 83.8134 46.5778C83.7014 46.8976 84.2081 47.035 84.3187 46.718Z" fill="#BC2F23"/>
<path d="M88.8373 46.2616C89.4227 45.6788 90.076 45.0308 90.4027 44.2616C90.484 44.0699 90.2747 43.8788 90.1067 44.0324C89.4987 44.5881 89.0293 45.2819 88.432 45.8548C88.164 46.1111 88.5747 46.5215 88.8373 46.2616Z" fill="#BC2F23"/>
<path d="M43.4624 43.4002C43.8331 43.9778 44.1544 44.5513 44.5891 45.0871C44.9757 45.5617 45.3677 46.1059 45.9704 46.2991C46.1451 46.3549 46.3424 46.1694 46.2784 45.9907C46.0918 45.471 45.6651 45.1273 45.2717 44.7538C44.7411 44.2513 44.1624 43.7751 43.6544 43.2538L43.4624 43.4002Z" fill="#BC2F23"/>
<path d="M49.0306 38.6456C49.6533 39.8241 50.3133 41.282 51.4453 42.0549C51.6679 42.2085 51.9319 41.9574 51.8759 41.7241C51.5639 40.4273 50.5759 39.2726 49.9572 38.1028C49.6346 37.4908 48.7079 38.0336 49.0306 38.6456Z" fill="#BC2F23"/>
<path d="M49.92 47.2298C50.232 47.6923 50.508 48.171 50.788 48.6522C51.0347 49.0762 51.276 49.5642 51.736 49.7803C51.8947 49.8565 52.0907 49.7335 52.04 49.547C51.9174 49.0898 51.568 48.7335 51.292 48.3574C50.9507 47.8907 50.62 47.4189 50.2654 46.9642C50.1107 46.7683 49.7814 47.0257 49.92 47.2298Z" fill="#BC2F23"/>
<path d="M42.5788 45.9189C43.1468 46.347 43.5601 46.8669 43.9961 47.4231C44.4121 47.9522 44.7641 48.6153 45.3894 48.9215C45.6281 49.0393 45.9054 48.8486 45.8374 48.5778C45.6641 47.8726 45.0694 47.3418 44.5827 46.835C44.0814 46.3163 43.4521 45.8513 42.8308 45.4871C42.5454 45.3189 42.3294 45.7298 42.5788 45.9189Z" fill="#BC2F23"/>
<path d="M36.9375 54.5788C37.5068 54.9606 38.0495 55.2538 38.7055 55.4548C38.8815 55.5084 39.0161 55.2736 38.8841 55.148C38.3948 54.6819 37.8988 54.2606 37.3615 53.8522C36.9362 53.5298 36.4815 54.2736 36.9375 54.5788Z" fill="#BC2F23"/>
<path d="M103.078 56.0335C104.093 55.8975 105.201 55.6481 106.101 55.1481C106.228 55.0778 106.137 54.9002 106.006 54.9257C104.997 55.1095 104.064 55.5631 103.034 55.7111C102.852 55.7366 102.894 56.0574 103.078 56.0335Z" fill="#BC2F23"/>
<path d="M94.4677 53.1871C94.937 52.7163 95.4411 52.2658 95.9757 51.871C96.4837 51.495 97.0144 51.183 97.4557 50.7298C97.633 50.548 97.4571 50.2298 97.2077 50.3016C96.0277 50.6428 94.429 51.7231 94.101 52.9736C94.0464 53.1846 94.3117 53.3444 94.4677 53.1871Z" fill="#BC2F23"/>
<path d="M87.5105 52.1059C88.1999 50.9001 89.3012 50.0392 90.0318 48.8709C90.1292 48.7163 89.9305 48.4991 89.7745 48.6111C88.6412 49.4308 87.6812 50.5923 87.0372 51.8297C86.8745 52.1428 87.3345 52.4163 87.5105 52.1059Z" fill="#BC2F23"/>
<path d="M81.1318 49.5939C80.8798 50.5829 80.5892 51.5297 80.5452 52.5548C80.5358 52.7417 80.8105 52.8163 80.8971 52.6512C81.3731 51.7444 81.7731 50.8349 82.0611 49.8512C82.2371 49.2521 81.2851 48.9923 81.1318 49.5939Z" fill="#BC2F23"/>
<path d="M55.6518 48.4043C56.2412 49.5641 56.6945 50.824 57.0918 52.0641C57.1385 52.2084 57.3398 52.148 57.3158 52.0016C57.0838 50.6204 56.8158 49.3136 55.9358 48.1855C55.8025 48.0152 55.5638 48.2308 55.6518 48.4043Z" fill="#BC2F23"/>
<path d="M45.356 52.1429C45.8906 52.8814 46.54 53.759 47.4866 53.9513C47.6586 53.9871 47.8266 53.8095 47.7226 53.6445C47.252 52.8855 46.3666 52.4403 45.6973 51.8803C45.5213 51.7325 45.2026 51.9298 45.356 52.1429Z" fill="#BC2F23"/>
<path d="M39.4787 58.747C39.9787 59.0778 40.4987 59.4095 41.1 59.5122C41.3094 59.547 41.4667 59.359 41.3694 59.1606C41.0587 58.5324 40.44 58.1855 39.768 58.059C39.3507 57.9814 39.1121 58.5059 39.4787 58.747Z" fill="#BC2F23"/>
<path d="M55.7426 55.624C55.9666 56.0512 56.1625 56.4631 56.4865 56.824C56.6065 56.9574 56.7959 56.8147 56.7652 56.6616C56.6679 56.1762 56.4919 55.7564 56.2786 55.3122C56.1079 54.9522 55.5546 55.2683 55.7426 55.624Z" fill="#BC2F23"/>
<path d="M58.8598 59.636C59.0358 60.3751 59.0305 61.3043 59.4278 61.9548C59.5332 62.1272 59.7798 62.0469 59.7918 61.8564C59.8385 61.1027 59.5278 60.2308 59.3345 59.5059C59.2532 59.1991 58.7865 59.3283 58.8598 59.636Z" fill="#BC2F23"/>
<path d="M56.1411 66.5084C56.4424 67.2907 56.7851 68.2496 57.3624 68.8694C57.4811 68.9964 57.7157 68.9002 57.7077 68.7256C57.6731 67.8574 56.9891 67.071 56.6437 66.2964C56.5171 66.0136 56.0291 66.2179 56.1411 66.5084Z" fill="#BC2F23"/>
<path d="M53.22 68.9964C53.7373 69.7694 54.2066 70.5923 54.8853 71.2366C55.008 71.3538 55.252 71.2392 55.188 71.0606C54.8666 70.1855 54.316 69.4298 53.82 68.648C53.58 68.2694 52.972 68.6256 53.22 68.9964Z" fill="#BC2F23"/>
<path d="M59.9545 72.1846C60.1612 72.7939 60.2879 73.5512 60.7612 74.0122C60.9812 74.2283 61.2839 74.0512 61.3159 73.7819C61.3905 73.1606 61.0359 72.5204 60.8332 71.9418C60.6412 71.3923 59.7665 71.624 59.9545 72.1846Z" fill="#BC2F23"/>
<path d="M74.3452 71.4521C74.1226 71.9444 73.9025 72.4736 73.9585 73.0204C73.9839 73.2668 74.2452 73.3923 74.4399 73.2188C74.8346 72.8693 74.9132 72.3761 75.1319 71.9111C75.3839 71.3803 74.5852 70.9204 74.3452 71.4521Z" fill="#BC2F23"/>
<path d="M78.86 71.9496C78.5413 72.3788 78.232 72.8454 78.268 73.4001C78.2827 73.636 78.536 73.7334 78.712 73.5854C79.0933 73.263 79.2893 72.7693 79.584 72.3725C79.908 71.9376 79.1787 71.5204 78.86 71.9496Z" fill="#BC2F23"/>
<path d="M74.9093 75.9965C75.48 75.5898 75.9693 74.6726 75.976 73.9726C75.9786 73.7565 75.7186 73.6669 75.5693 73.8043C75.0813 74.2455 74.7013 75.2215 74.7026 75.8789L74.9093 75.9965Z" fill="#BC2F23"/>
<path d="M71.5637 75.8789C71.6611 75.0669 71.9584 74.3189 72.0237 73.495C72.0384 73.3241 71.7771 73.2574 71.7011 73.4085C71.2744 74.2429 70.9037 74.9059 70.9411 75.8789C70.9571 76.2882 71.5171 76.2683 71.5637 75.8789Z" fill="#BC2F23"/>
<path d="M76.3879 69.4617C76.6506 68.7377 77.2412 67.8898 77.1826 67.1043C77.1652 66.8814 76.9199 66.7726 76.7492 66.9273C76.1279 67.4882 75.8599 68.5846 75.8773 69.3923C75.8839 69.6975 76.2906 69.7325 76.3879 69.4617Z" fill="#BC2F23"/>
<path d="M80.5291 69.9403C81.0971 69.6283 81.4825 68.9778 81.8691 68.4694C82.2678 67.947 82.7225 67.3975 82.7732 66.7231C82.7892 66.5027 82.5265 66.2923 82.3145 66.3751C81.7225 66.6059 81.3158 67.1325 80.9412 67.6325C80.5078 68.2122 79.9625 68.8377 79.9092 69.5855C79.8865 69.9095 80.2731 70.083 80.5291 69.9403Z" fill="#BC2F23"/>
<path d="M83.7157 70.5267C84.101 69.9923 84.5664 69.5549 85.0757 69.1403C85.5117 68.7855 86.021 68.4445 86.2877 67.9377C86.3917 67.7393 86.2677 67.406 85.9997 67.4361C84.6957 67.5965 83.7104 69.1241 83.1037 70.1694C82.8704 70.5726 83.4544 70.8907 83.7157 70.5267Z" fill="#BC2F23"/>
<path d="M77.593 64.5325C77.8223 63.7418 78.3276 62.8923 78.2263 62.0481C78.1956 61.7882 77.929 61.6606 77.7196 61.8392C76.9983 62.4538 76.8463 63.5393 76.8543 64.4325C76.8583 64.859 77.4743 64.9393 77.593 64.5325Z" fill="#BC2F23"/>
<path d="M76.7826 61.1897C76.8693 60.211 77.4253 59.2136 77.1853 58.2308C77.1026 57.887 76.692 57.9094 76.512 58.1428C75.8973 58.9376 75.848 60.223 75.8853 61.1897C75.908 61.775 76.7306 61.7589 76.7826 61.1897Z" fill="#BC2F23"/>
<path d="M80.8319 57.4606C80.9759 56.6683 81.4265 55.9814 81.5252 55.1819C81.5532 54.947 81.2439 54.935 81.1345 55.0762C80.6479 55.7111 80.3319 56.5002 80.2052 57.2882C80.1385 57.6964 80.7572 57.8762 80.8319 57.4606Z" fill="#BC2F23"/>
<path d="M94.2361 57.4469C94.9641 56.5975 95.9321 55.9683 96.5988 55.0709C96.6948 54.9403 96.5081 54.7693 96.3801 54.8537C95.4521 55.4537 94.6054 56.2657 93.8974 57.1111C93.7028 57.3444 94.0348 57.6829 94.2361 57.4469Z" fill="#BC2F23"/>
<path d="M95.1638 61.1897C96.2252 60.3657 97.3345 59.6122 98.4065 58.8043C98.4958 58.7366 98.4452 58.5537 98.3238 58.6059C97.0758 59.1308 96.0172 60.1606 94.9678 60.9964C94.8292 61.1059 95.0252 61.2975 95.1638 61.1897Z" fill="#BC2F23"/>
<path d="M118.777 50.7512C120.772 50.5136 123.025 50.7871 124.924 50.0829C125.196 49.9813 125.145 49.6111 124.856 49.5855C122.861 49.4043 120.664 49.7897 118.688 50.0829C118.311 50.1392 118.397 50.7964 118.777 50.7512Z" fill="#BC2F23"/>
<path d="M120.372 45.7335C121.771 45.8898 123.383 45.9991 124.739 45.5606C125.033 45.4658 125.036 45.0538 124.739 44.9616C123.396 44.5418 121.908 44.7991 120.524 44.6111C119.701 44.4991 119.547 45.6418 120.372 45.7335Z" fill="#BC2F23"/>
<path d="M81.9705 42.659C82.1718 41.8241 82.6411 41.1846 82.5571 40.2991C82.5371 40.0855 82.3052 39.9737 82.1372 40.1241C81.3878 40.8017 81.3025 41.7017 81.4558 42.659C81.4971 42.9273 81.9132 42.9043 81.9705 42.659Z" fill="#BC2F23"/>
<path d="M52.6932 44.3042C53.1998 45.2136 53.7398 46.1334 54.6812 46.6308C54.8852 46.7376 55.1198 46.563 55.0638 46.336C54.8079 45.3016 54.0492 44.5564 53.2838 43.8485C52.9718 43.5573 52.4838 43.9256 52.6932 44.3042Z" fill="#BC2F23"/>
<path d="M48.2612 33.2122C48.4719 33.5939 48.6839 33.9298 49.0079 34.2256C49.1332 34.3403 49.3732 34.2308 49.3105 34.0496C49.1692 33.647 49.0065 33.2694 48.8105 32.8907C48.6225 32.5283 48.0612 32.8512 48.2612 33.2122Z" fill="#BC2F23"/>
<path d="M12.0052 51.124C13.1892 51.4146 14.4278 52.0042 15.6572 52.0016C15.9238 52.0001 15.9825 51.6682 15.7838 51.5297C14.7572 50.8042 13.2879 50.7469 12.0705 50.6417C11.7905 50.6178 11.7399 51.0589 12.0052 51.124Z" fill="#BC2F23"/>
<path d="M11.1642 47.3803C12.3322 47.5803 13.4695 48.0564 14.6602 48.0803C14.9015 48.0845 14.9975 47.7392 14.7828 47.6215C13.7468 47.0538 12.5455 46.7751 11.3868 46.5709C10.8575 46.4788 10.6335 47.2897 11.1642 47.3803Z" fill="#BC2F23"/>
<path d="M32.4318 58.3231C32.9611 58.6273 33.4704 58.9486 34.0918 58.9991C34.2558 59.0122 34.3571 58.7726 34.2291 58.6658C33.7864 58.295 33.2584 58.047 32.7598 57.7606C32.3944 57.5497 32.0678 58.1122 32.4318 58.3231Z" fill="#BC2F23"/>
<path d="M40.9173 62.7761C41.5026 63.2496 42.3106 64.0428 43.1039 63.6349C43.2559 63.5564 43.2679 63.3777 43.2079 63.2392C42.9373 62.6188 42.0439 62.3751 41.5133 62.0043C41.0559 61.6871 40.4826 62.4272 40.9173 62.7761Z" fill="#BC2F23"/>
<path d="M42.6597 54.6642C43.1797 55.4257 44.0304 56.171 44.913 56.4642C45.033 56.5043 45.1397 56.3565 45.0757 56.2522C44.585 55.4522 43.565 55.0871 42.841 54.5241L42.6597 54.6642Z" fill="#BC2F23"/>
<path d="M51.5039 51.3565C51.7439 51.9325 52.0439 52.4658 52.3679 52.9965C52.7319 53.5939 53.0386 54.1965 53.5653 54.6658C53.7013 54.7871 53.9399 54.7111 53.9359 54.5122C53.9133 53.2257 52.6679 52.2027 52.1119 51.1002C51.9439 50.7669 51.3586 51.007 51.5039 51.3565Z" fill="#BC2F23"/>
<path d="M85.1334 54.6455C85.6348 54.0016 86.3201 53.1788 86.4814 52.3693C86.5161 52.1923 86.3054 52.0428 86.1668 52.1855C85.5894 52.7803 85.3108 53.7231 84.8374 54.4179C84.7188 54.5939 85.0028 54.8147 85.1334 54.6455Z" fill="#BC2F23"/>
<path d="M77.2359 49.5777C77.7466 48.7964 78.4399 47.7521 78.4506 46.7855C78.4532 46.6059 78.1933 46.4668 78.0679 46.6272C77.4759 47.3871 77.2519 48.4751 76.8252 49.3376C76.6879 49.6121 77.0679 49.836 77.2359 49.5777Z" fill="#BC2F23"/>
<path d="M86.4053 35.7417C86.912 35.3324 87.3427 34.5641 87.3573 33.9084C87.3627 33.624 87.048 33.4709 86.8133 33.5964C86.228 33.9084 85.8133 34.6871 85.68 35.3204C85.5853 35.7657 86.0693 36.0121 86.4053 35.7417Z" fill="#BC2F23"/>
<path d="M97.2545 43.3016C97.7011 43.0417 98.0118 42.6906 98.3665 42.3204C98.4971 42.1818 98.3332 41.9939 98.1732 42.0699C97.7425 42.2693 97.2985 42.4392 96.8665 42.6403C96.4251 42.8444 96.8198 43.5537 97.2545 43.3016Z" fill="#BC2F23"/>
<path d="M78.2122 81.7881C76.9895 83.5417 74.9002 85.1335 72.4682 86.0121C71.2148 86.4657 68.3362 86.4683 67.0882 86.0179C64.6548 85.1428 62.5655 83.5521 61.3402 81.8043C60.6028 80.7573 58.9415 75.7308 69.7708 75.7308C80.5988 75.7308 78.9415 80.7469 78.2122 81.7881Z" fill="#2C2A34"/>
<path d="M66.8451 85.9283C67.3931 85.4658 67.6611 84.8762 67.6611 84.2309C67.6611 82.7631 66.3438 81.5683 63.3238 81.5683C62.5478 81.5683 61.8864 81.6481 61.3291 81.7882C62.5091 83.4855 64.5105 85.0309 66.8451 85.9283Z" fill="#1E1C22"/>
<path d="M78.2119 81.7882C77.6505 81.6481 76.9919 81.5683 76.2172 81.5683C73.1932 81.5683 71.8799 82.7631 71.8799 84.2309C71.8799 84.8762 72.1425 85.4683 72.6905 85.9283C75.0279 85.0361 77.0252 83.4855 78.2119 81.7882Z" fill="#1E1C22"/>
<path d="M74.5357 77.2444C74.5357 77.2444 72.2317 75.4349 66.5557 76.8084C61.5823 78.0136 61.5717 80.6897 61.9823 80.7136C62.397 80.7417 65.433 80.0188 67.4317 81.7454C69.4343 83.4709 63.6677 78.4537 74.5357 77.2444Z" fill="#383543"/>
<path d="M55.5614 61.483C55.5614 64.3538 53.128 66.6819 50.1294 66.6819C47.1254 66.6819 44.6934 64.3538 44.6934 61.483C44.6934 58.6095 47.1254 56.2819 50.1294 56.2819C53.128 56.2819 55.5614 58.6095 55.5614 61.483Z" fill="#1E1C22"/>
<path d="M53.4494 62.4751C53.4494 63.936 52.2108 65.124 50.6788 65.124C49.1508 65.124 47.9121 63.936 47.9121 62.4751C47.9121 61.0095 49.1508 59.824 50.6788 59.824C52.2108 59.824 53.4494 61.0095 53.4494 62.4751Z" fill="#18151A"/>
<path d="M46.421 62.3538C46.421 60.0152 48.3984 58.1188 50.841 58.1188C52.821 58.1188 54.4997 59.3668 55.0597 61.0882C54.689 58.9548 52.7504 57.3272 50.4157 57.3272C47.8117 57.3272 45.6997 59.3512 45.6997 61.8444C45.6997 63.7496 46.9331 65.3761 48.6771 66.0403C47.3291 65.3147 46.421 63.935 46.421 62.3538Z" fill="#FEF5E9"/>
<path d="M50.6279 60.2907C50.6279 60.9032 50.1092 61.4016 49.4732 61.4016C48.8305 61.4016 48.3105 60.9032 48.3105 60.2907C48.3105 59.6788 48.8305 59.1788 49.4732 59.1788C50.1092 59.1788 50.6279 59.6788 50.6279 60.2907Z" fill="#FEF5E9"/>
<path d="M49.0851 62.1428C49.0851 62.5496 48.7398 62.8802 48.3105 62.8802C47.8851 62.8802 47.5425 62.5496 47.5425 62.1428C47.5425 61.7334 47.8851 61.4016 48.3105 61.4016C48.7398 61.4016 49.0851 61.7334 49.0851 62.1428Z" fill="#FEF5E9"/>
<path d="M81.4731 61.483C81.4731 64.3538 83.9065 66.6819 86.9078 66.6819C89.9065 66.6819 92.3385 64.3538 92.3385 61.483C92.3385 58.6095 89.9065 56.2819 86.9078 56.2819C83.9065 56.2819 81.4731 58.6095 81.4731 61.483Z" fill="#1E1C22"/>
<path d="M83.5854 62.4751C83.5854 63.936 84.8268 65.124 86.3548 65.124C87.8841 65.124 89.1241 63.936 89.1241 62.4751C89.1241 61.0095 87.8841 59.824 86.3548 59.824C84.8268 59.824 83.5854 61.0095 83.5854 62.4751Z" fill="#18151A"/>
<path d="M90.6122 62.3538C90.6122 60.0152 88.6348 58.1188 86.1922 58.1188C84.2122 58.1188 82.5335 59.3668 81.9722 61.0882C82.3522 58.9548 84.2815 57.3272 86.6188 57.3272C89.2215 57.3272 91.3375 59.3512 91.3375 61.8444C91.3375 63.7496 90.1002 65.3761 88.3562 66.0403C89.7002 65.3147 90.6122 63.935 90.6122 62.3538Z" fill="#FEF5E9"/>
<path d="M86.4038 60.2907C86.4038 60.9032 86.9198 61.4016 87.5598 61.4016C88.2011 61.4016 88.7211 60.9032 88.7211 60.2907C88.7211 59.6788 88.2011 59.1788 87.5598 59.1788C86.9198 59.1788 86.4038 59.6788 86.4038 60.2907Z" fill="#FEF5E9"/>
<path d="M87.9468 62.1428C87.9468 62.5496 88.2921 62.8802 88.7214 62.8802C89.1481 62.8802 89.4948 62.5496 89.4948 62.1428C89.4948 61.7334 89.1481 61.4016 88.7214 61.4016C88.2921 61.4016 87.9468 61.7334 87.9468 62.1428Z" fill="#FEF5E9"/>
</svg>
