<svg width="165" height="180" viewBox="0 0 165 180" fill="none" xmlns="http://www.w3.org/2000/svg">
<path d="M164.604 79.5216C156.686 71.515 121.342 84.6203 116.541 94.6457C116.429 94.8803 124.965 102.064 127.198 104.155C129.664 106.468 134.204 109.535 134.544 109.628C151.978 114.536 166.758 81.7003 164.604 79.5216Z" fill="#FBCBAB"/>
<path d="M152.549 77.255C139.073 78.711 119.977 87.467 116.541 94.6457C116.472 94.7843 119.536 97.443 122.476 99.9937C120.164 89.4377 149.283 78.4736 152.549 77.255Z" fill="#F58050"/>
<path d="M30.4026 112.516C30.7413 112.419 35.2773 109.352 37.7493 107.039C39.9826 104.944 48.5213 97.7644 48.4079 97.5257C43.6026 87.5044 8.2626 74.399 0.341263 82.4056C-1.8134 84.5856 12.9679 117.423 30.4026 112.516Z" fill="#FBCBAB"/>
<path d="M12.3999 80.1403C25.8719 81.5976 44.9666 90.351 48.4079 97.5256C48.4759 97.6683 45.4092 100.328 42.4692 102.88C44.7852 92.3229 15.6626 81.3589 12.3999 80.1403Z" fill="#F58050"/>
<path d="M136.891 113.212C130.103 102.31 123.835 96.5363 111.184 91.9683C84.0147 82.159 48.3827 86.7563 26.2134 115.856C16.9747 128.699 18.56 138.807 31.8867 152.268C45.6054 166.13 61.304 179.891 81.2574 179.766C97.8547 179.658 118.931 168.178 130.089 155.39C146.991 136.012 145.413 126.895 136.891 113.212Z" fill="#F58050"/>
<path d="M111.184 91.9684C91.7106 84.9377 67.8892 85.3097 47.7959 96.7964C54.3319 105.786 63.5866 119.218 67.5332 128.307C75.9146 147.61 71.6159 170.26 80.9399 170.26C90.2706 170.26 89.8079 140.342 94.7999 128.912C100.741 115.299 110.555 101.407 116.167 93.9817C114.619 93.2777 112.969 92.611 111.184 91.9684Z" fill="#FBCBAB"/>
<path d="M59.8825 92.0443C60.1318 92.6857 60.5758 93.5417 61.2251 93.8417C61.4638 93.9523 61.7091 93.7737 61.6571 93.5097C61.5184 92.8084 60.8011 92.1683 60.2385 91.7683C60.0705 91.6497 59.8051 91.8483 59.8825 92.0443Z" fill="#C9A288"/>
<path d="M61.8386 97.3403C61.9306 98.1856 62.2532 99.7669 63.2692 99.9443C63.4879 99.9829 63.6812 99.8536 63.6919 99.6216C63.7092 99.2443 63.5239 98.9469 63.3172 98.6389C63.0172 98.1949 62.7732 97.751 62.6145 97.235C62.4892 96.8256 61.7879 96.8803 61.8386 97.3403Z" fill="#C9A288"/>
<path d="M66.6918 94.9323C66.6891 95.743 66.5451 97.2136 67.4691 97.575L67.7438 97.463C68.1904 96.7496 67.4998 95.5603 67.2491 94.8563C67.1451 94.5617 66.6931 94.599 66.6918 94.9323Z" fill="#C9A288"/>
<path d="M70.7358 90.2804C70.9358 91.1257 71.1012 91.9324 71.4719 92.7217C71.5439 92.8751 71.7625 92.7631 71.7305 92.6124C71.5518 91.7644 71.3812 90.9551 71.0318 90.1564C70.9558 89.9818 70.6945 90.1097 70.7358 90.2804Z" fill="#C9A288"/>
<path d="M71.4093 94.9323C71.476 95.7603 71.38 97.1123 72.08 97.691C72.248 97.8297 72.5266 97.7964 72.588 97.5564C72.796 96.731 72.26 95.6483 72.0466 94.8457C71.9546 94.499 71.38 94.5603 71.4093 94.9323Z" fill="#C9A288"/>
<path d="M65.9906 90.2377C66.072 91.1403 66.1746 92.6616 67.1466 93.0323C67.3493 93.1096 67.5786 92.947 67.6333 92.7563C67.7586 92.3137 67.576 92.0296 67.408 91.619C67.204 91.1203 66.9786 90.6456 66.828 90.1243C66.696 89.6776 65.9466 89.7457 65.9906 90.2377Z" fill="#C9A288"/>
<path d="M75.7598 88.4977C75.8492 89.4004 75.8252 90.3617 76.2585 91.1817C76.3652 91.383 76.7145 91.3496 76.7598 91.1163C76.9372 90.1936 76.6052 89.3016 76.3785 88.4136C76.2918 88.0763 75.7252 88.139 75.7598 88.4977Z" fill="#C9A288"/>
<path d="M81.9588 88.6283C82.0082 89.3723 81.8015 90.223 82.1308 90.9163C82.2202 91.1016 82.5335 91.1016 82.6215 90.9163C82.9655 90.1923 82.7295 89.2816 82.4975 88.555C82.4068 88.2736 81.9388 88.3083 81.9588 88.6283Z" fill="#C9A288"/>
<path d="M88.2664 89.435C88.2397 89.915 88.1184 90.447 88.3384 90.8896C88.4144 91.043 88.665 91.043 88.741 90.8896C88.961 90.447 88.8397 89.915 88.813 89.435C88.7944 89.0816 88.285 89.0816 88.2664 89.435Z" fill="#C9A288"/>
<path d="M96.6985 90.8431C96.4999 91.7257 96.1399 92.5538 96.0465 93.4564C96.0252 93.6591 96.3119 93.7044 96.4052 93.5537C96.8905 92.7764 97.0439 91.8724 97.1679 90.9737C97.2105 90.6711 96.7692 90.5297 96.6985 90.8431Z" fill="#C9A288"/>
<path d="M65.3226 102.623C65.7346 103.664 66.1012 105.186 67.0479 105.87C67.2519 106.018 67.5946 105.87 67.6426 105.627C67.8626 104.512 67.0706 103.26 66.6706 102.251C66.3426 101.423 64.9906 101.783 65.3226 102.623Z" fill="#C9A288"/>
<path d="M72.9626 101.219C73.108 101.772 73.256 102.324 73.388 102.879C73.508 103.378 73.5493 103.906 73.8533 104.331C74.008 104.548 74.3173 104.518 74.408 104.259C74.752 103.286 74.1173 101.918 73.8626 100.972C73.7053 100.391 72.8106 100.638 72.9626 101.219Z" fill="#C9A288"/>
<path d="M77.9589 94.3924C78.0282 95.0284 78.1482 95.6523 78.2709 96.2776C78.3896 96.8843 78.4256 97.4964 78.7189 98.051C78.8322 98.2684 79.2056 98.2857 79.3136 98.051C79.8523 96.8964 79.1176 95.4403 78.9349 94.2603C78.8482 93.7097 77.8976 93.8377 77.9589 94.3924Z" fill="#C9A288"/>
<path d="M84.8184 96.6711C84.8184 97.5617 84.8584 98.3858 85.0064 99.2644C85.0344 99.4298 85.3117 99.4298 85.3384 99.2644C85.4864 98.3858 85.5277 97.5617 85.5277 96.6711C85.5277 96.2137 84.8184 96.2137 84.8184 96.6711Z" fill="#C9A288"/>
<path d="M93.5894 98.0137C93.4734 99.0324 93.5175 99.9497 93.6348 100.962C93.6641 101.214 93.9801 101.264 94.0721 101.02C94.4375 100.062 94.5081 99.1631 94.6655 98.1591C94.7881 97.3724 93.6801 97.223 93.5894 98.0137Z" fill="#C9A288"/>
<path d="M84.2601 93.7003C83.9641 94.463 83.6468 95.395 83.9694 96.1977C84.0588 96.4177 84.3308 96.4177 84.4188 96.1977C84.7294 95.4323 84.4601 94.5176 84.4188 93.7216L84.2601 93.7003Z" fill="#C9A288"/>
<path d="M89.5279 93.7017C89.7719 95.0871 89.0866 96.8444 89.8146 98.1137C89.9879 98.4164 90.4466 98.4164 90.6199 98.1137C91.3932 96.763 90.5946 94.8724 90.3479 93.475C90.2532 92.935 89.4332 93.1644 89.5279 93.7017Z" fill="#C9A288"/>
<path d="M79.3583 102.706C79.985 104.331 79.573 106.419 80.633 107.862C80.809 108.102 81.2956 108.146 81.3556 107.768C81.637 105.998 81.0303 104.047 80.3556 102.432C80.105 101.83 79.1156 102.076 79.3583 102.706Z" fill="#C9A288"/>
<path d="M96.8756 103.526C96.3716 104.18 96.1463 104.836 96.0969 105.655C96.0876 105.822 96.3276 105.838 96.3756 105.692C96.597 105.024 96.8636 104.332 97.277 103.76C97.4556 103.514 97.053 103.292 96.8756 103.526Z" fill="#C9A288"/>
<path d="M90.5546 103.312C90.336 104.395 89.884 105.615 89.984 106.726C90.0053 106.956 90.2853 107.046 90.4186 106.843C91.052 105.884 90.9373 104.478 91.012 103.375C91.0307 103.112 90.6066 103.055 90.5546 103.312Z" fill="#C9A288"/>
<path d="M70.6667 108.266C71.0453 109.56 71.3053 111.224 72.1106 112.33C72.256 112.531 72.536 112.406 72.4986 112.166C72.392 111.466 72.048 110.802 71.8053 110.139C71.5627 109.478 71.34 108.808 71.116 108.14C71.0227 107.858 70.5813 107.974 70.6667 108.266Z" fill="#C9A288"/>
<path d="M74.613 108.296C74.7436 109.023 74.8703 109.75 74.981 110.479C75.081 111.132 75.1103 111.77 75.4036 112.371C75.5143 112.599 75.8876 112.54 75.941 112.3C76.2356 110.986 75.605 109.383 75.2983 108.108C75.1903 107.658 74.5343 107.854 74.613 108.296Z" fill="#C9A288"/>
<path d="M82.9214 108.738C82.8814 109.734 82.6961 110.754 82.9094 111.732C82.9414 111.878 83.1561 111.903 83.2241 111.774C83.7147 110.842 83.5494 109.76 83.5081 108.738C83.4947 108.359 82.9361 108.359 82.9214 108.738Z" fill="#C9A288"/>
<path d="M84.0532 102.706C84.0358 103.491 83.8745 104.419 84.1425 105.168C84.2105 105.362 84.4652 105.362 84.5332 105.168C84.8012 104.419 84.6398 103.491 84.6212 102.706C84.6132 102.339 84.0625 102.339 84.0532 102.706Z" fill="#C9A288"/>
<path d="M87.8921 110.244C87.7695 110.948 87.6521 111.652 87.5521 112.359C87.4628 112.992 87.3748 113.679 87.7308 114.242C87.8481 114.427 88.1028 114.423 88.2201 114.242C88.5548 113.732 88.5481 113.088 88.5521 112.494C88.5574 111.778 88.5948 111.06 88.6295 110.344C88.6508 109.927 87.9668 109.826 87.8921 110.244Z" fill="#C9A288"/>
<path d="M93.032 111.212C92.88 111.946 92.6174 112.686 92.536 113.428C92.512 113.651 92.8094 113.672 92.9147 113.531C93.3574 112.928 93.4187 112.072 93.56 111.358C93.628 111.014 93.1054 110.866 93.032 111.212Z" fill="#C9A288"/>
<path d="M74.0704 118.763C74.4238 119.392 74.6878 120.055 74.9318 120.734C75.1438 121.323 75.3424 121.972 75.7784 122.434C75.9038 122.567 76.1771 122.472 76.1598 122.275C76.0384 121.01 75.1544 119.567 74.4384 118.547C74.2824 118.324 73.9344 118.519 74.0704 118.763Z" fill="#C9A288"/>
<path d="M77.9893 115.975C78.1613 117.575 78.5679 119.118 79.1813 120.602C79.2693 120.811 79.6413 120.89 79.6906 120.602C79.9813 118.898 79.0773 117.482 78.6266 115.888C78.5293 115.547 77.9493 115.602 77.9893 115.975Z" fill="#C9A288"/>
<path d="M84.0799 119.179C83.7706 120.504 83.5052 121.83 83.9212 123.156C84.0066 123.43 84.3799 123.423 84.4679 123.156C84.8639 121.959 84.8906 120.706 85.1546 119.476C85.3052 118.775 84.2426 118.478 84.0799 119.179Z" fill="#C9A288"/>
<path d="M78.052 128.058C78.2253 128.332 78.3747 128.606 78.612 128.83C78.7467 128.958 78.924 128.827 78.9 128.663C78.8547 128.363 78.724 128.103 78.608 127.824C78.4307 127.404 77.8227 127.698 78.052 128.058Z" fill="#C9A288"/>
<path d="M80.2519 125.039C80.3932 125.798 80.4719 126.634 80.7999 127.338C80.8932 127.539 81.1612 127.415 81.1772 127.235C81.2492 126.458 80.9852 125.636 80.8572 124.872C80.7919 124.475 80.1772 124.64 80.2519 125.039Z" fill="#C9A288"/>
<path d="M80.7308 130.988C80.7002 131.651 80.6748 132.312 80.6922 132.976C80.7042 133.499 80.7229 134.171 81.0469 134.598C81.1642 134.751 81.4415 134.768 81.4922 134.54C81.6082 134.023 81.4308 133.496 81.3628 132.976C81.2788 132.316 81.2495 131.652 81.2188 130.988C81.2028 130.674 80.7455 130.674 80.7308 130.988Z" fill="#C9A288"/>
<path d="M84.7015 126.643C84.1441 128.095 83.8881 129.568 84.0121 131.12C84.0281 131.32 84.3121 131.376 84.3708 131.168C84.7761 129.719 84.7855 128.218 85.0921 126.752C85.1468 126.491 84.7935 126.402 84.7015 126.643Z" fill="#C9A288"/>
<path d="M88.9081 121.86C88.3654 123.239 87.6854 124.814 87.5428 126.298C87.5268 126.447 87.7601 126.506 87.8254 126.375C88.4921 125.044 88.7441 123.343 89.0054 121.886L88.9081 121.86Z" fill="#C9A288"/>
<path d="M91.5825 117.336C90.8879 118.548 90.1012 119.856 89.9505 121.27C89.9332 121.446 90.1919 121.498 90.2732 121.358C90.9599 120.142 91.2799 118.715 91.7492 117.407L91.5825 117.336Z" fill="#C9A288"/>
<path d="M88.364 116.828C88.112 118.108 87.8773 119.5 87.9666 120.802C87.976 120.939 88.1786 121.026 88.2493 120.879C88.8266 119.691 88.7373 118.283 88.9893 117C89.0693 116.594 88.444 116.419 88.364 116.828Z" fill="#C9A288"/>
<path d="M82.1543 114.214C81.9129 115.43 81.4823 117.144 81.969 118.324C82.0756 118.584 82.389 118.584 82.497 118.324C82.9823 117.144 82.553 115.43 82.3103 114.214H82.1543Z" fill="#C9A288"/>
<path d="M71.4811 114.366C71.5237 115.506 71.9691 116.914 72.8038 117.708C72.9398 117.836 73.1144 117.703 73.0917 117.54C73.0131 116.97 72.8291 116.548 72.5878 116.026C72.3211 115.447 72.1198 114.835 71.8211 114.272C71.7371 114.114 71.4744 114.186 71.4811 114.366Z" fill="#C9A288"/>
<path d="M75.02 124.354C75.1147 125.206 75.3987 126.355 76.0854 126.932C76.224 127.048 76.504 126.991 76.4827 126.768C76.4 125.88 75.704 125.022 75.228 124.298L75.02 124.354Z" fill="#C9A288"/>
<path d="M86.1292 134.126C85.9599 134.798 85.8759 135.452 85.7852 136.138C85.7612 136.32 86.0279 136.324 86.0839 136.178C86.3252 135.548 86.5119 134.93 86.6759 134.276C86.7666 133.922 86.2186 133.77 86.1292 134.126Z" fill="#C9A288"/>
<path d="M76.8424 135.096C76.9824 136.788 76.9064 138.872 77.6331 140.435C77.7504 140.687 78.0824 140.53 78.1051 140.307C78.1931 139.442 77.9838 138.556 77.8798 137.7C77.7731 136.834 77.6931 135.964 77.6131 135.096C77.5678 134.606 76.8011 134.599 76.8424 135.096Z" fill="#C9A288"/>
<path d="M76.5573 142.484C76.3427 143.99 76.0093 145.942 77.0133 147.222C77.16 147.408 77.4653 147.288 77.5213 147.088C77.9187 145.654 77.196 143.922 76.968 142.484C76.936 142.28 76.5867 142.278 76.5573 142.484Z" fill="#C9A288"/>
<path d="M80.036 141.496C79.9306 142.4 79.8026 143.302 79.7693 144.212C79.7426 144.895 79.676 145.595 80.2066 146.102C80.368 146.258 80.6173 146.258 80.7786 146.102C81.3093 145.595 81.2426 144.895 81.2173 144.212C81.1826 143.302 81.0546 142.4 80.9493 141.496C80.8799 140.911 80.1053 140.911 80.036 141.496Z" fill="#C9A288"/>
<path d="M85.2169 141.534C84.9663 142.322 84.7169 143.108 84.6009 143.93C84.4943 144.678 84.3436 145.354 84.8409 145.982C85.0036 146.186 85.3023 146.12 85.4729 145.982C86.0396 145.52 86.0036 144.798 86.0156 144.12C86.0303 143.29 85.9529 142.475 86.0529 141.647C86.1116 141.151 85.3543 141.096 85.2169 141.534Z" fill="#C9A288"/>
<path d="M81.2398 136.444C80.9785 137.24 81.0611 138.202 81.1531 139.022C81.2571 139.947 82.5998 139.992 82.6291 139.022C82.6545 138.194 82.5185 137.224 82.2371 136.444C82.0638 135.964 81.4051 135.942 81.2398 136.444Z" fill="#C9A288"/>
<path d="M72.8452 125.124C72.9705 125.744 73.0519 126.368 73.1346 126.994C73.2012 127.495 73.2519 128.032 73.5186 128.471C73.5959 128.599 73.8039 128.547 73.8026 128.394C73.7959 127.902 73.6172 127.416 73.4799 126.947C73.2985 126.33 73.1239 125.714 72.9039 125.108L72.8452 125.124Z" fill="#C9A288"/>
<path d="M72.9374 130.546C73.0548 131.19 73.1321 131.84 73.2334 132.488C73.3228 133.055 73.4041 133.755 73.9401 134.062C74.1001 134.155 74.3361 134.108 74.4254 133.935C74.6881 133.42 74.4574 132.97 74.2801 132.456C74.0401 131.759 73.7107 131.091 73.4254 130.41C73.3014 130.111 72.8774 130.216 72.9374 130.546Z" fill="#C9A288"/>
<path d="M68.8789 114.171C69.0296 114.648 69.1549 115.13 69.2789 115.612C69.3882 116.034 69.4509 116.468 69.7656 116.778C69.9029 116.914 70.1202 116.811 70.1296 116.628C70.1482 116.223 69.9562 115.844 69.8429 115.458C69.7016 114.979 69.5696 114.498 69.4056 114.026C69.2922 113.695 68.7709 113.832 68.8789 114.171Z" fill="#C9A288"/>
<path d="M98.7878 94.6736C98.3758 95.1163 98.2052 95.7776 98.0118 96.3403C97.7932 96.979 97.5411 97.6323 97.5585 98.315C97.5665 98.615 97.9438 98.795 98.1638 98.5656C98.6078 98.103 98.8545 97.4763 99.0278 96.8643C99.2105 96.2257 99.4545 95.4683 99.2958 94.8083C99.2438 94.5896 98.9411 94.5083 98.7878 94.6736Z" fill="#C9A288"/>
<path d="M84.7815 150.07C84.3215 151.327 83.8415 152.888 84.0962 154.235C84.1415 154.474 84.5322 154.535 84.6335 154.306C85.1855 153.056 85.0455 151.528 85.2308 150.195C85.2722 149.9 84.8868 149.782 84.7815 150.07Z" fill="#C9A288"/>
<path d="M81.8558 148.25C81.5811 149.299 81.0851 150.632 81.3864 151.718C81.4611 151.987 81.8011 152.071 81.9971 151.88C82.8971 151.003 82.5358 149.46 82.5718 148.346C82.5851 147.932 81.9584 147.852 81.8558 148.25Z" fill="#C9A288"/>
<path d="M76.8532 150.132C76.8559 151.678 76.7305 153.547 77.5812 154.908C77.7119 155.118 78.1079 155.118 78.1559 154.832C78.4105 153.271 77.9079 151.56 77.5892 150.034C77.5012 149.611 76.8519 149.716 76.8532 150.132Z" fill="#C9A288"/>
<path d="M79.7319 155.16C79.0586 156.858 79.1399 159.231 79.7439 160.934C79.8426 161.211 80.2146 161.215 80.3119 160.934C80.8999 159.214 80.6946 156.84 80.0053 155.16C79.9506 155.028 79.7853 155.026 79.7319 155.16Z" fill="#C9A288"/>
<path d="M82.8839 157.58C82.2826 158.816 81.4893 160.463 81.9786 161.855C82.0933 162.179 82.5093 162.248 82.7013 161.948C83.4439 160.788 83.1706 159.112 83.4212 157.807C83.4799 157.498 83.0372 157.263 82.8839 157.58Z" fill="#C9A288"/>
<path d="M77.9864 161.898C77.993 162.638 77.9317 164.114 78.633 164.538L78.989 164.491C79.2637 164.146 79.221 163.874 79.1424 163.447C79.0477 162.934 78.9744 162.422 78.9597 161.898C78.9424 161.271 77.981 161.27 77.9864 161.898Z" fill="#C9A288"/>
<path d="M82.0454 154.158C82.024 154.898 81.8294 155.819 82.1667 156.499C82.24 156.646 82.48 156.646 82.5534 156.499C82.8907 155.819 82.696 154.898 82.6747 154.158C82.6627 153.752 82.0574 153.752 82.0454 154.158Z" fill="#C9A288"/>
<path d="M88.2773 133.374C88.1599 134.214 87.9972 135.023 87.7812 135.843C87.6132 136.484 87.3106 137.242 87.5799 137.88C87.6946 138.156 87.9999 138.271 88.2399 138.055C88.7466 137.599 88.7306 136.932 88.7932 136.29C88.8852 135.354 88.8306 134.396 88.8959 133.456C88.9199 133.106 88.3279 133.022 88.2773 133.374Z" fill="#C9A288"/>
<path d="M89.6278 126.362C89.3011 127.236 88.9465 128.144 89.3118 129.047C89.3705 129.195 89.6158 129.287 89.6998 129.099C90.0571 128.288 90.0798 127.406 90.3318 126.554C90.4678 126.096 89.7905 125.928 89.6278 126.362Z" fill="#C9A288"/>
<path d="M107.803 92.7924C106.889 93.7404 106.537 95.0537 106.465 96.3351C106.452 96.5591 106.784 96.7164 106.932 96.5297C107.735 95.5124 107.937 94.2804 108.26 93.0591C108.328 92.7991 107.996 92.5924 107.803 92.7924Z" fill="#C9A288"/>
<path d="M104.109 96.471C104.009 97.863 103.218 99.0884 103.173 100.492C103.162 100.872 103.625 100.915 103.816 100.666C104.78 99.4164 105.184 97.9244 104.866 96.3684C104.774 95.919 104.14 96.059 104.109 96.471Z" fill="#C9A288"/>
<path d="M109.021 98.815C108.129 100.414 107.168 101.859 106.533 103.586C106.444 103.828 106.792 103.932 106.922 103.75C108.009 102.239 108.914 100.802 109.521 99.0257C109.622 98.7283 109.169 98.547 109.021 98.815Z" fill="#C9A288"/>
<path d="M110.912 94.699C110.687 95.3123 110.417 95.947 110.363 96.603C110.339 96.8857 110.687 96.955 110.864 96.8123C111.38 96.3896 111.735 95.7577 112.024 95.167C112.412 94.3737 111.215 93.871 110.912 94.699Z" fill="#C9A288"/>
<path d="M103.687 103.263C103.016 104.783 101.928 106.282 101.723 107.958C101.687 108.258 102.114 108.318 102.252 108.102C103.134 106.726 103.635 104.99 104.075 103.427C104.139 103.199 103.786 103.038 103.687 103.263Z" fill="#C9A288"/>
<path d="M106.548 106.406C106.052 107.103 105.493 107.827 105.135 108.603C105.048 108.788 105.247 109.079 105.453 108.922C106.185 108.366 106.557 107.46 107.056 106.703C107.267 106.382 106.764 106.102 106.548 106.406Z" fill="#C9A288"/>
<path d="M51.8158 96.6577C52.5918 97.3417 52.8518 98.6724 53.8318 99.067C54.0611 99.159 54.3531 98.9683 54.4064 98.7417C54.6798 97.559 53.2945 96.4217 52.3691 95.943C51.9265 95.7137 51.4105 96.3017 51.8158 96.6577Z" fill="#C9A288"/>
<path d="M52.805 101.831C53.2517 102.416 53.6864 103.411 54.4397 103.608C54.5904 103.648 54.797 103.559 54.8264 103.388C54.965 102.539 54.1277 101.81 53.633 101.194C53.2597 100.728 52.441 101.358 52.805 101.831Z" fill="#C9A288"/>
<path d="M56.8961 97.5817C57.0241 98.2284 57.3787 98.871 57.6614 99.463C57.9961 100.164 58.2881 100.88 58.9054 101.382C59.2227 101.64 59.6494 101.474 59.6854 101.059C59.8027 99.6817 58.5694 97.8711 57.4027 97.1924C57.1254 97.0324 56.8387 97.2937 56.8961 97.5817Z" fill="#C9A288"/>
<path d="M56.6386 103.648C57.3693 104.783 58.0453 106.22 59.2333 106.922C59.4573 107.054 59.7546 106.886 59.752 106.624C59.7333 105.126 58.3426 104.079 57.3866 103.07C57.016 102.679 56.344 103.19 56.6386 103.648Z" fill="#C9A288"/>
<path d="M61.2436 104.41C61.7943 105.536 62.113 107.626 63.553 107.955C63.8183 108.015 64.053 107.876 64.1396 107.622C64.6263 106.192 63.0023 104.671 62.1983 103.672C61.741 103.103 60.9583 103.827 61.2436 104.41Z" fill="#C9A288"/>
<path d="M63.0681 111.668C63.0534 111.515 63.0348 111.38 63.0028 111.227C62.9761 111.103 62.8668 111.011 62.7508 110.976L62.6454 110.942L62.4054 111.042C62.2748 111.255 62.3108 111.423 62.2974 111.668C62.2721 112.17 63.1134 112.16 63.0681 111.668Z" fill="#C9A288"/>
<path d="M60.5852 109.154C61.1612 109.762 61.6732 110.447 62.1026 111.167C62.4586 111.766 62.7559 112.728 63.3879 113.08C63.5239 113.156 63.7412 113.063 63.7226 112.887C63.6479 112.119 62.9439 111.288 62.5359 110.65C62.0586 109.903 61.5599 109.251 60.7146 108.932C60.5839 108.883 60.5012 109.063 60.5852 109.154Z" fill="#C9A288"/>
<path d="M65.1186 108.942C65.3452 109.848 65.6479 111.152 66.4585 111.714C66.6225 111.827 66.8385 111.675 66.8399 111.495C66.8505 110.524 66.0585 109.458 65.4572 108.744C65.3199 108.582 65.0719 108.758 65.1186 108.942Z" fill="#C9A288"/>
<path d="M64.8025 116.494C65.1199 117.311 65.4065 118.139 65.7145 118.959C65.9772 119.658 66.0825 120.619 66.6999 121.075C66.8305 121.171 67.0612 121.106 67.1305 120.963C67.4625 120.264 67.0052 119.52 66.7105 118.859C66.3039 117.947 65.6359 117.192 65.0812 116.378C64.9892 116.243 64.7359 116.324 64.8025 116.494Z" fill="#C9A288"/>
<path d="M68.8413 118.251C68.6253 118.935 68.9346 119.788 69.12 120.452C69.3053 121.115 69.6586 122.246 70.3426 122.539C70.4826 122.599 70.6653 122.588 70.7453 122.434C71.0813 121.772 70.6493 121.116 70.3333 120.528C70.12 120.13 69.8666 119.755 69.636 119.364C69.4146 118.991 69.2986 118.575 69.0453 118.224L68.8413 118.251Z" fill="#C9A288"/>
<path d="M93.0196 125.594C93.437 125.108 93.5743 124.424 93.7556 123.823C93.969 123.111 94.441 122.424 94.453 121.672C94.457 121.407 94.169 121.272 93.9503 121.383C93.3116 121.708 93.0423 122.424 92.7836 123.051C92.497 123.75 92.1703 124.678 92.393 125.427C92.469 125.68 92.829 125.815 93.0196 125.594Z" fill="#C9A288"/>
<path d="M95.2347 117.446C95.5254 116.778 95.8614 116.06 95.8867 115.324C95.892 115.128 95.6387 115.03 95.5054 115.166C94.9534 115.731 94.8574 116.571 94.7814 117.324C94.7574 117.558 95.14 117.666 95.2347 117.446Z" fill="#C9A288"/>
<path d="M98.6145 115.548C99.3158 114.783 100.517 113.983 100.678 112.88C100.718 112.614 100.489 112.414 100.232 112.538C99.2251 113.026 98.8305 114.411 98.3132 115.315C98.2052 115.502 98.4651 115.714 98.6145 115.548Z" fill="#C9A288"/>
<path d="M97.6891 111.408C97.8691 110.599 98.6051 109.823 98.5331 108.971C98.5158 108.771 98.2905 108.658 98.1358 108.807C97.5078 109.403 97.1651 110.486 97.0718 111.324C97.0318 111.679 97.6118 111.751 97.6891 111.408Z" fill="#C9A288"/>
<path d="M100.458 103.127C100.524 102.679 100.802 102.336 100.882 101.9C100.918 101.707 100.729 101.53 100.54 101.638C100.038 101.927 99.9358 102.511 99.9411 103.056C99.9424 103.344 100.414 103.43 100.458 103.127Z" fill="#C9A288"/>
<path d="M73.0213 137.307C73.3907 138.116 73.6107 139.024 73.8307 139.886C73.864 140.02 74.068 139.991 74.0693 139.854C74.0773 138.847 73.784 138.022 73.2307 137.184C73.144 137.051 72.956 137.166 73.0213 137.307Z" fill="#C9A288"/>
<path d="M74.4653 147.304C74.5959 148.096 74.8719 148.84 75.0506 149.619L75.2093 149.598C75.1653 148.802 74.9733 148.038 74.8826 147.248C74.8466 146.94 74.4133 146.999 74.4653 147.304Z" fill="#C9A288"/>
<path d="M74.6797 154.468C74.6797 155.255 74.7077 155.999 74.821 156.78C74.9237 157.496 74.9663 158.538 75.5743 159.011C75.741 159.14 75.973 159.182 76.1344 159.011C77.2144 157.856 75.7277 155.595 75.377 154.375C75.265 153.99 74.6797 154.064 74.6797 154.468Z" fill="#C9A288"/>
<path d="M86.7731 152.911C86.2264 153.504 85.9957 154.288 85.7157 155.031C85.4211 155.808 85.0464 156.696 85.3958 157.495C85.4798 157.687 85.7571 157.686 85.8891 157.559C86.4078 157.062 86.4798 156.292 86.6718 155.624C86.9051 154.812 87.2598 153.931 87.1704 153.075C87.1518 152.888 86.9238 152.747 86.7731 152.911Z" fill="#C9A288"/>
<path d="M87.3905 143.779C87.3012 144.078 87.0865 144.323 86.9852 144.619C86.8518 145.011 86.7478 145.391 86.6598 145.796C86.5092 146.484 86.3052 147.239 86.6292 147.896L86.9759 147.988C87.5065 147.632 87.6785 147.038 87.8119 146.432C87.8865 146.091 87.9692 145.708 87.9852 145.36C88.0052 144.875 87.8985 144.33 87.9478 143.855C87.9825 143.526 87.4798 143.486 87.3905 143.779Z" fill="#C9A288"/>
<path d="M90.496 136.766C89.9293 137.006 89.7107 137.634 89.508 138.167C89.2747 138.786 89.084 139.583 89.3587 140.208C89.4533 140.426 89.7653 140.422 89.9146 140.279C90.3533 139.867 90.3933 139.198 90.48 138.632C90.568 138.058 90.6893 137.478 90.724 136.896C90.732 136.77 90.592 136.723 90.496 136.766Z" fill="#C9A288"/>
<path d="M69.4413 125.699C69.272 126.423 69.6254 127.175 69.8614 127.848C70.104 128.542 70.2507 129.36 70.9253 129.764C71.104 129.871 71.384 129.815 71.48 129.618C71.828 128.907 71.5014 128.234 71.1694 127.578C70.8174 126.88 70.4574 126.011 69.7974 125.554C69.6707 125.466 69.4747 125.554 69.4413 125.699Z" fill="#C9A288"/>
<path d="M29.5655 115.158C30.8081 115.211 32.0428 115.9 33.2855 115.543C33.5948 115.452 33.5761 115.034 33.2855 114.936C32.1188 114.544 30.7881 114.512 29.5655 114.51C29.1455 114.508 29.1495 115.142 29.5655 115.158Z" fill="#CD6A42"/>
<path d="M32.412 111.815C33.52 112.148 34.6813 112.93 35.8627 112.851C36.1547 112.831 36.2653 112.466 36.012 112.303C35.0413 111.679 33.7133 111.388 32.5947 111.151C32.1627 111.058 31.984 111.687 32.412 111.815Z" fill="#CD6A42"/>
<path d="M34.6373 107.443C35.5173 107.619 36.3693 108.1 37.2653 108.14C37.5146 108.152 37.6106 107.839 37.4586 107.672C36.8213 106.979 35.7386 106.81 34.8466 106.68C34.356 106.608 34.128 107.34 34.6373 107.443Z" fill="#CD6A42"/>
<path d="M38.2215 110.822C38.6988 110.93 39.1548 111.075 39.6028 111.271C39.9815 111.436 40.2748 111.602 40.6948 111.599C40.9895 111.598 41.0842 111.268 40.9162 111.062C40.3508 110.37 39.1548 110.228 38.3162 110.124C37.9162 110.074 37.8362 110.734 38.2215 110.822Z" fill="#CD6A42"/>
<path d="M40.2651 104.48C40.9811 104.822 42.0051 105.731 42.8198 105.536C43.0065 105.491 43.1345 105.271 43.0745 105.088C42.7985 104.236 41.3558 103.939 40.5931 103.703C40.1371 103.56 39.8251 104.271 40.2651 104.48Z" fill="#CD6A42"/>
<path d="M47.6492 106.518C47.9399 106.826 48.7719 108.204 49.2385 107.282C49.3265 107.108 49.3572 106.879 49.2385 106.707C48.9972 106.359 48.7385 106.027 48.4385 105.728C47.9252 105.222 47.1572 105.994 47.6492 106.518Z" fill="#CD6A42"/>
<path d="M46.3026 101.634C46.7132 102.084 47.0932 102.703 47.6986 102.882C47.8759 102.935 48.0732 102.754 48.0092 102.57C47.8026 101.971 47.1786 101.623 46.7039 101.232C46.4239 101.002 46.0519 101.359 46.3026 101.634Z" fill="#CD6A42"/>
<path d="M37.4039 115.542C38.8399 115.614 40.1786 116.647 41.6039 116.48C41.9946 116.435 42.2866 115.97 41.9466 115.65C40.7706 114.536 38.8092 114.343 37.2746 114.586C36.7079 114.674 36.8839 115.514 37.4039 115.542Z" fill="#CD6A42"/>
<path d="M42.6682 108.384C43.5308 108.955 44.5082 109.935 45.5948 109.927C45.9415 109.924 46.0908 109.514 45.8668 109.27C45.5255 108.895 45.1042 108.699 44.6762 108.439C44.1735 108.135 43.6962 107.791 43.2002 107.476C42.6228 107.107 42.1055 108.012 42.6682 108.384Z" fill="#CD6A42"/>
<path d="M114.455 99.5937C115.08 98.6377 116.008 97.7617 116.393 96.6791C116.475 96.4537 116.176 96.2137 115.977 96.3591C115.035 97.0471 114.42 98.2444 113.86 99.247C113.641 99.6364 114.213 99.9644 114.455 99.5937Z" fill="#CD6A42"/>
<path d="M120.709 102.531C121.548 102.016 122.667 101.707 123.353 100.996C123.556 100.786 123.411 100.43 123.116 100.426C122.088 100.412 121.044 101.138 120.208 101.671C119.671 102.015 120.161 102.867 120.709 102.531Z" fill="#CD6A42"/>
<path d="M127.601 107.198C128.646 107.143 129.63 107.036 130.545 106.5C130.75 106.38 130.72 106.04 130.477 105.983C129.416 105.731 128.514 106.148 127.493 106.402C127.053 106.51 127.14 107.222 127.601 107.198Z" fill="#CD6A42"/>
<path d="M119.981 98.1109C119.247 99.0789 118.22 99.871 117.663 100.963C117.597 101.091 117.765 101.24 117.869 101.122C118.675 100.207 119.551 99.319 120.3 98.3563C120.48 98.1243 120.16 97.8776 119.981 98.1109Z" fill="#CD6A42"/>
<path d="M119.169 105.839C118.556 106.338 117.926 106.814 117.288 107.279C116.76 107.666 116.192 108.119 115.886 108.708C115.762 108.948 115.968 109.274 116.253 109.184C117.602 108.763 118.691 107.284 119.599 106.27C119.865 105.972 119.469 105.595 119.169 105.839Z" fill="#CD6A42"/>
<path d="M124.88 110.247C124.214 111.07 122.978 111.77 122.75 112.87C122.701 113.104 122.909 113.387 123.174 113.292C124.308 112.886 124.796 111.534 125.246 110.531C125.345 110.308 125.06 110.026 124.88 110.247Z" fill="#CD6A42"/>
<path d="M125.866 104.222C125.25 105 124.324 105.658 123.889 106.556C123.806 106.727 123.982 106.954 124.166 106.835C125.008 106.287 125.674 105.324 126.217 104.491C126.353 104.282 126.024 104.023 125.866 104.222Z" fill="#CD6A42"/>
<path d="M113.936 102.666C113.186 103.598 112.432 104.492 112.073 105.644C111.996 105.898 112.28 106.07 112.49 105.964C113.604 105.411 114.097 104.298 114.762 103.304C115.094 102.811 114.31 102.198 113.936 102.666Z" fill="#CD6A42"/>
<path d="M110.053 111.616C110.204 111.211 110.42 110.832 110.579 110.431C110.651 110.244 110.393 110.138 110.268 110.25C109.912 110.567 109.639 110.924 109.441 111.359C109.24 111.803 109.887 112.072 110.053 111.616Z" fill="#CD6A42"/>
<path d="M117.605 120.988C118.67 120.108 119.782 119.243 120.696 118.206C120.885 117.99 120.65 117.714 120.401 117.824C119.093 118.396 118.114 119.512 117.05 120.434C116.664 120.767 117.22 121.306 117.605 120.988Z" fill="#CD6A42"/>
<path d="M128.353 118.692C128.951 118.231 129.553 117.779 130.139 117.303C130.288 117.182 130.169 116.892 129.977 116.914C129.164 117.002 128.543 117.436 127.877 117.88C127.365 118.22 127.881 119.055 128.353 118.692Z" fill="#CD6A42"/>
<path d="M128.829 111.84C129.081 111.563 129.298 111.276 129.582 111.026C129.71 110.914 129.608 110.695 129.446 110.698C128.993 110.707 128.549 110.932 128.202 111.215C127.765 111.574 128.44 112.27 128.829 111.84Z" fill="#CD6A42"/>
<path d="M133.995 119.219C134.652 119.072 135.459 119.047 135.887 118.47C136 118.316 135.919 118.055 135.756 117.972C135.131 117.648 134.333 117.967 133.692 118.118C132.973 118.287 133.279 119.379 133.995 119.219Z" fill="#CD6A42"/>
<path d="M131.928 113.915C132.269 113.671 132.597 113.435 132.735 113.031C132.804 112.827 132.657 112.64 132.476 112.574C132.121 112.443 131.748 112.546 131.395 112.651C130.379 112.952 131.14 114.478 131.928 113.915Z" fill="#CD6A42"/>
<path d="M134.508 126.492C135.5 126.368 136.701 126.419 137.629 126.034C137.809 125.959 137.881 125.632 137.629 125.594C136.615 125.434 135.441 125.762 134.428 125.904C134.095 125.952 134.173 126.536 134.508 126.492Z" fill="#CD6A42"/>
<path d="M135.573 132.086C136.373 132.15 137.111 132.227 137.883 131.972C138.045 131.918 138.045 131.696 137.883 131.642C137.111 131.386 136.373 131.464 135.573 131.528C135.215 131.556 135.215 132.056 135.573 132.086Z" fill="#CD6A42"/>
<path d="M133.085 137.926C133.784 138.268 134.503 138.558 135.241 138.799C135.843 138.995 136.599 139.274 137.192 138.951C137.357 138.862 137.392 138.608 137.252 138.48C136.844 138.104 136.263 138.072 135.741 137.943C134.984 137.756 134.244 137.482 133.532 137.162C133.021 136.932 132.568 137.672 133.085 137.926Z" fill="#CD6A42"/>
<path d="M130.897 143.892C131.775 144.514 132.657 145.771 133.843 145.73C134.04 145.722 134.208 145.494 134.083 145.311C133.763 144.838 133.276 144.468 132.849 144.094C132.395 143.692 131.952 143.286 131.46 142.932C130.877 142.512 130.316 143.482 130.897 143.892Z" fill="#CD6A42"/>
<path d="M127.073 136.426C128.127 136.998 129.155 137.539 130.38 137.519C130.604 137.516 130.696 137.208 130.496 137.094C129.537 136.548 128.525 136.127 127.555 135.6C127.013 135.306 126.532 136.131 127.073 136.426Z" fill="#CD6A42"/>
<path d="M129.047 131.656C129.897 131.776 130.66 131.818 131.504 131.651C131.704 131.611 131.735 131.312 131.56 131.22C130.829 130.832 130.12 130.804 129.316 130.679C128.675 130.579 128.405 131.564 129.047 131.656Z" fill="#CD6A42"/>
<path d="M127.848 126.548C128.752 126.426 129.879 126.448 130.675 125.964C130.912 125.82 130.868 125.454 130.597 125.378C129.667 125.112 128.52 125.458 127.581 125.586C126.947 125.672 127.219 126.635 127.848 126.548Z" fill="#CD6A42"/>
<path d="M121.099 123.676C121.684 123.519 122.231 123.263 122.808 123.082L122.767 122.931C122.176 123.055 121.608 123.259 121.011 123.359C120.805 123.394 120.891 123.731 121.099 123.676Z" fill="#CD6A42"/>
<path d="M113.865 117.963C114.351 116.892 115.372 116.292 115.804 115.194C115.904 114.94 115.608 114.674 115.365 114.755C114.101 115.172 113.223 116.275 112.731 117.486C112.467 118.136 113.576 118.602 113.865 117.963Z" fill="#CD6A42"/>
<path d="M26.2651 118.284C26.8225 118.572 27.3118 118.883 27.8025 119.276C28.1798 119.579 28.5438 119.859 29.0011 120.023L29.1265 119.808C28.3598 119.163 27.3131 118.327 26.2905 118.192L26.2651 118.284Z" fill="#CD6A42"/>
<path d="M24.2236 124.356C24.7729 124.431 25.3089 124.534 25.8409 124.687C26.3676 124.84 26.893 125.052 27.4476 125.055C27.6276 125.056 27.689 124.815 27.5383 124.723C26.6303 124.171 25.3236 123.918 24.2716 124.006C24.085 124.022 24.0116 124.327 24.2236 124.356Z" fill="#CD6A42"/>
<path d="M22.824 129.922C23.804 129.987 24.9067 130.41 25.8307 129.911C25.9787 129.831 25.9787 129.598 25.8307 129.518C24.9067 129.019 23.804 129.442 22.824 129.507C22.556 129.526 22.556 129.903 22.824 129.922Z" fill="#CD6A42"/>
<path d="M23.2157 134.436C23.9703 134.602 25.0023 135.015 25.7197 134.538C25.913 134.408 25.913 134.148 25.7197 134.019C25.0023 133.542 23.9703 133.955 23.2157 134.119C23.0583 134.155 23.0583 134.402 23.2157 134.436Z" fill="#CD6A42"/>
<path d="M26.9495 139.91C28.4628 140.175 30.2148 140.368 31.7068 139.916C31.9522 139.842 31.9522 139.495 31.7068 139.422C30.2148 138.97 28.4628 139.162 26.9495 139.428C26.7108 139.47 26.7108 139.868 26.9495 139.91Z" fill="#CD6A42"/>
<path d="M29.9015 135.666C30.5041 135.694 31.0895 135.78 31.6788 135.906C32.2361 136.023 32.7921 136.243 33.3655 136.171C33.5961 136.143 33.6895 135.872 33.4841 135.732C32.5668 135.107 30.9801 135.086 29.9015 135.096C29.5321 135.099 29.5361 135.651 29.9015 135.666Z" fill="#CD6A42"/>
<path d="M29.176 128.86C29.7027 128.904 30.2174 128.987 30.7321 129.108C31.1494 129.208 31.5561 129.322 31.9814 129.243C32.1547 129.212 32.1974 128.974 32.0827 128.862C31.3921 128.183 30.06 128.306 29.176 128.36C28.8534 128.38 28.8574 128.832 29.176 128.86Z" fill="#CD6A42"/>
<path d="M33.1464 119.906C34.4077 120.326 35.5424 121.003 36.7837 121.46C36.9571 121.524 37.1024 121.27 36.9651 121.151C35.9344 120.26 34.5837 119.755 33.3011 119.343C32.9411 119.226 32.7904 119.788 33.1464 119.906Z" fill="#CD6A42"/>
<path d="M36.1028 129.84C37.0495 130.535 38.1908 131.646 39.3815 131.836C39.5255 131.859 39.7135 131.706 39.5988 131.552C39.2375 131.071 38.6802 130.739 38.1748 130.422C37.5868 130.051 36.9975 129.686 36.4122 129.312C36.0722 129.094 35.7908 129.612 36.1028 129.84Z" fill="#CD6A42"/>
<path d="M34.0038 123.666C35.1918 123.88 36.0731 124.654 37.1945 124.991C37.4705 125.075 37.6051 124.742 37.4518 124.551C36.6785 123.59 35.2731 123.158 34.0891 123.036C33.7291 122.998 33.6491 123.602 34.0038 123.666Z" fill="#CD6A42"/>
<path d="M44.508 125.363C45.3667 125.916 46.336 126.702 47.328 126.971C47.496 127.015 47.5907 126.818 47.488 126.696C46.8147 125.91 45.6253 125.482 44.752 124.943C44.4853 124.778 44.2467 125.195 44.508 125.363Z" fill="#CD6A42"/>
<path d="M40.8107 120.547C41.6187 120.878 42.4334 121.262 43.2854 121.447C43.4521 121.484 43.5747 121.288 43.4521 121.16C42.8001 120.476 41.8321 120.052 40.8747 120.071C40.5841 120.076 40.5681 120.447 40.8107 120.547Z" fill="#CD6A42"/>
<path d="M46.9358 116.556C47.4772 116.948 47.9785 117.507 48.6238 117.72C48.7665 117.768 48.9158 117.587 48.8252 117.459C48.4212 116.892 47.7865 116.463 47.2318 116.051C46.9292 115.827 46.6332 116.336 46.9358 116.556Z" fill="#CD6A42"/>
<path d="M51.8133 111.078C52.9506 111.903 53.3239 113.392 54.4506 114.202C54.6706 114.36 54.9146 114.1 54.8693 113.88C54.5866 112.498 53.3813 111.139 52.1666 110.474C51.7639 110.252 51.4559 110.818 51.8133 111.078Z" fill="#CD6A42"/>
<path d="M51.8187 119.395C52.2 120.086 52.684 120.687 53.2347 121.25C53.6734 121.698 54.212 122.418 54.8854 122.439C55.0694 122.446 55.204 122.286 55.2133 122.111C55.244 121.482 54.6027 121.007 54.172 120.63C53.5587 120.094 52.9227 119.575 52.4014 118.944C52.124 118.611 51.6214 119.039 51.8187 119.395Z" fill="#CD6A42"/>
<path d="M47.7627 110.824C48.3907 111.507 48.9933 112.239 49.668 112.875C49.8387 113.036 50.096 112.875 50.0493 112.654C49.8333 111.632 48.8907 111.067 48.136 110.451C47.876 110.239 47.528 110.57 47.7627 110.824Z" fill="#CD6A42"/>
<path d="M48.1119 122.187C48.3679 122.715 48.8119 123.108 49.2279 123.51C49.6599 123.93 50.1426 124.39 50.7586 124.48C51.0079 124.516 51.2586 124.283 51.1053 124.03C50.8306 123.574 50.3826 123.266 49.9559 122.958C49.4293 122.58 48.9239 122.124 48.2813 121.967C48.1479 121.935 48.0546 122.07 48.1119 122.187Z" fill="#CD6A42"/>
<path d="M40.2827 128.079C41.112 128.738 42.0066 129.476 42.996 129.872C43.152 129.935 43.2706 129.706 43.156 129.599C42.3973 128.888 41.424 128.399 40.6053 127.756C40.3773 127.576 40.052 127.895 40.2827 128.079Z" fill="#CD6A42"/>
<path d="M39.2521 138.594C40.2894 139.158 41.3868 139.876 42.5508 140.138C42.7401 140.18 42.8921 139.948 42.7454 139.804C41.8921 138.967 40.6521 138.536 39.6121 137.979C39.2081 137.76 38.8481 138.374 39.2521 138.594Z" fill="#CD6A42"/>
<path d="M37.992 134.794C38.7093 135.198 39.456 135.596 40.252 135.818C40.408 135.859 40.5346 135.656 40.412 135.543C39.8013 134.975 38.9946 134.711 38.2733 134.312C37.9586 134.139 37.6786 134.616 37.992 134.794Z" fill="#CD6A42"/>
<path d="M47.1079 134.304C48.2919 134.483 49.0585 135.671 50.2599 135.723C50.4839 135.734 50.6465 135.496 50.5892 135.29C50.2199 133.935 48.4866 133.33 47.2306 133.407C46.7466 133.436 46.5732 134.223 47.1079 134.304Z" fill="#CD6A42"/>
<path d="M109.8 125.126C110.273 124.359 110.905 123.703 111.232 122.852C111.3 122.672 111.045 122.547 110.921 122.671C110.277 123.319 109.804 124.079 109.419 124.902C109.299 125.158 109.648 125.372 109.8 125.126Z" fill="#CD6A42"/>
<path d="M104.804 122.663C104.911 121.242 106.073 120.326 106.359 118.991C106.404 118.78 106.152 118.611 105.989 118.775C105.025 119.744 104.312 121.291 104.305 122.663C104.303 122.99 104.78 122.982 104.804 122.663Z" fill="#CD6A42"/>
<path d="M118.277 113.11C119.081 112.514 120.026 112.058 120.705 111.316C120.82 111.19 120.71 110.96 120.532 111.018C119.58 111.324 118.76 111.988 117.976 112.592C117.676 112.824 117.965 113.342 118.277 113.11Z" fill="#CD6A42"/>
<path d="M111.825 130.911C112.891 130.442 113.885 129.747 114.771 128.992C114.889 128.892 114.764 128.68 114.617 128.731C113.499 129.122 112.665 130.051 111.717 130.726C111.604 130.807 111.7 130.966 111.825 130.911Z" fill="#CD6A42"/>
<path d="M116.581 131.58C117.368 131.158 118.169 131 119.013 130.758L118.992 130.603C118.123 130.658 117.253 131.019 116.501 131.444L116.581 131.58Z" fill="#CD6A42"/>
<path d="M122.264 121.35C123.213 120.995 124.287 121.118 125.192 120.679C125.36 120.598 125.367 120.304 125.192 120.223C124.167 119.756 122.927 120.203 121.989 120.698C121.636 120.884 121.883 121.491 122.264 121.35Z" fill="#CD6A42"/>
<path d="M118.126 134.982C118.829 134.99 119.526 134.963 120.225 134.902C120.889 134.844 121.632 134.815 122.178 134.406C122.378 134.256 122.386 133.915 122.105 133.844C121.534 133.7 120.972 133.846 120.398 133.936C119.648 134.055 118.886 134.103 118.126 134.124C117.576 134.14 117.574 134.975 118.126 134.982Z" fill="#CD6A42"/>
<path d="M122.317 129.559C123.224 129.403 124.142 129.183 124.825 128.534C125.025 128.343 124.852 128.075 124.624 128.047C123.729 127.932 122.889 128.326 122.021 128.487C121.313 128.616 121.617 129.68 122.317 129.559Z" fill="#CD6A42"/>
<path d="M100.228 130.35C100.501 129.563 100.825 128.786 100.985 127.967C101.028 127.752 100.757 127.634 100.633 127.819C100.157 128.535 99.9173 129.38 99.6373 130.186C99.5067 130.56 100.1 130.72 100.228 130.35Z" fill="#CD6A42"/>
<path d="M105.512 129.814C106.199 129.132 106.96 128.375 107.343 127.476C107.439 127.252 107.192 127.028 106.996 127.208C106.287 127.856 105.737 128.668 105.039 129.339C104.725 129.639 105.205 130.118 105.512 129.814Z" fill="#CD6A42"/>
<path d="M52.4436 126.467C52.8756 127.138 53.2476 127.807 53.7543 128.427C54.1996 128.975 54.6743 129.656 55.3823 129.859C55.5903 129.918 55.8116 129.712 55.7423 129.498C55.5396 128.876 54.9876 128.455 54.5263 128.016C53.9183 127.436 53.2516 126.895 52.6676 126.294C52.5556 126.179 52.3556 126.33 52.4436 126.467Z" fill="#CD6A42"/>
<path d="M58.96 120.908C59.6893 122.286 60.46 123.994 61.784 124.895C62.0467 125.074 62.3547 124.782 62.288 124.508C61.9213 122.991 60.7693 121.642 60.044 120.275C59.664 119.559 58.5813 120.195 58.96 120.908Z" fill="#CD6A42"/>
<path d="M60.0025 130.947C60.3651 131.482 60.6838 132.039 61.0078 132.596C61.2944 133.09 61.5811 133.684 62.1238 133.932C62.3118 134.018 62.5371 133.879 62.4798 133.658C62.3411 133.118 61.9185 132.694 61.5958 132.252C61.2011 131.712 60.8198 131.163 60.4064 130.638C60.2264 130.407 59.8411 130.708 60.0025 130.947Z" fill="#CD6A42"/>
<path d="M51.4129 129.414C52.0743 129.91 52.5583 130.515 53.0636 131.162C53.5529 131.787 53.9663 132.564 54.7049 132.924C54.9823 133.059 55.3076 132.84 55.2276 132.522C55.0209 131.691 54.3263 131.072 53.7476 130.479C53.1623 129.874 52.4356 129.332 51.7089 128.908C51.3743 128.714 51.1196 129.194 51.4129 129.414Z" fill="#CD6A42"/>
<path d="M31.8414 143.966C33.0588 144.323 34.5348 145.091 35.8241 144.931C36.0948 144.898 36.2281 144.56 35.9681 144.399C34.8774 143.718 33.2534 143.574 32.0001 143.387C31.6281 143.332 31.4614 143.854 31.8414 143.966Z" fill="#CD6A42"/>
<path d="M44.8162 139.536C45.4815 139.991 46.1095 140.331 46.8842 140.564C47.0882 140.626 47.2468 140.354 47.0922 140.207C46.5535 139.69 46.0028 139.22 45.4122 138.764C44.8482 138.326 44.2295 139.135 44.8162 139.536Z" fill="#CD6A42"/>
<path d="M122.169 141.243C123.355 141.087 124.655 140.791 125.705 140.206C125.855 140.122 125.748 139.916 125.596 139.943C124.413 140.163 123.324 140.695 122.117 140.864C121.904 140.895 121.955 141.27 122.169 141.243Z" fill="#CD6A42"/>
<path d="M112.096 137.916C112.611 137.398 113.169 136.899 113.752 136.459C114.377 135.988 115.047 135.606 115.595 135.042C115.8 134.828 115.596 134.454 115.303 134.54C114.507 134.772 113.841 135.223 113.193 135.735C112.529 136.26 111.889 136.82 111.667 137.666C111.603 137.914 111.913 138.1 112.096 137.916Z" fill="#CD6A42"/>
<path d="M103.965 136.651C104.766 135.24 106.058 134.232 106.908 132.866C107.02 132.684 106.789 132.43 106.606 132.562C105.285 133.523 104.16 134.878 103.41 136.327C103.22 136.694 103.758 137.012 103.965 136.651Z" fill="#CD6A42"/>
<path d="M96.501 133.714C96.209 134.872 95.8557 135.979 95.8117 137.18C95.8037 137.398 96.121 137.486 96.2237 137.292C96.7863 136.234 97.253 135.167 97.5876 134.014C97.7903 133.315 96.6783 133.01 96.501 133.714Z" fill="#CD6A42"/>
<path d="M103.281 174.439C103.427 174.272 103.567 174.111 103.699 173.952C110.131 166.347 88.084 150.251 81.9387 150.474C75.7894 150.695 72.5413 155.923 63.668 163.12C57.0333 168.503 60.3413 173.498 62.4253 175.674C68.28 178.266 74.5253 179.81 81.2573 179.766C88.1667 179.722 95.8573 177.703 103.281 174.439Z" fill="#FDE9D6"/>
<path d="M80.3796 160.855C80.3796 160.86 80.3796 163.486 80.3796 166.443C80.3796 169.4 80.3796 172.686 80.3796 173.994C80.381 174.535 80.1249 175.134 79.6596 175.587C79.1943 176.04 78.5436 176.348 77.7516 176.35C76.5343 176.351 74.8663 175.602 73.0876 173.139C72.8783 172.848 72.473 172.783 72.1823 172.991C71.8916 173.2 71.8263 173.606 72.0356 173.896C73.949 176.56 75.9769 177.644 77.7516 177.646C80.0383 177.636 81.6663 175.856 81.6756 173.994C81.6756 172.686 81.6756 169.4 81.6756 166.443C81.6756 163.486 81.6756 160.86 81.6756 160.855C81.6756 160.496 81.3849 160.207 81.0276 160.207C80.6689 160.207 80.3796 160.496 80.3796 160.855Z" fill="#242327"/>
<path d="M80.2773 160.855C80.2773 160.86 80.2773 163.486 80.2773 166.443C80.2773 169.4 80.2773 172.686 80.2773 173.994C80.2867 175.856 81.9133 177.636 84.2 177.646C85.9733 177.644 88 176.56 89.9173 173.896C90.1253 173.606 90.06 173.2 89.7707 172.992C89.48 172.783 89.0747 172.848 88.8653 173.139C87.084 175.602 85.416 176.351 84.2 176.35C83.408 176.348 82.7573 176.04 82.292 175.587C81.828 175.134 81.572 174.535 81.5733 173.994C81.5733 172.686 81.5733 169.4 81.5733 166.443C81.5733 163.486 81.5733 160.86 81.5733 160.855C81.5733 160.496 81.284 160.207 80.9253 160.207C80.568 160.207 80.2773 160.496 80.2773 160.855Z" fill="#242327"/>
<path d="M91.1295 156.56C89.6988 158.607 87.2575 160.468 84.4095 161.499C82.9455 162.028 79.5762 162.032 78.1122 161.504C75.2722 160.482 72.8295 158.622 71.3908 156.579C70.5335 155.351 68.5868 149.475 81.2521 149.475C93.9161 149.475 91.9775 155.338 91.1295 156.56Z" fill="#602F1D"/>
<path d="M77.8307 161.402C78.4733 160.859 78.7867 160.168 78.7867 159.415C78.7867 157.695 77.2467 156.302 73.7107 156.302C72.804 156.302 72.0333 156.395 71.3813 156.56C72.7627 158.543 75.1013 160.354 77.8307 161.402Z" fill="#3A1A0F"/>
<path d="M91.1291 156.56C90.4744 156.395 89.6984 156.302 88.7904 156.302C85.2544 156.302 83.7197 157.695 83.7197 159.415C83.7197 160.168 84.0317 160.862 84.6717 161.402C87.4037 160.354 89.7411 158.546 91.1291 156.56Z" fill="#3A1A0F"/>
<path d="M86.8253 151.242C86.8253 151.242 84.132 149.127 77.496 150.736C71.6827 152.143 71.664 155.274 72.1493 155.302C72.632 155.335 76.1813 154.49 78.5253 156.507C80.86 158.528 74.1187 152.658 86.8253 151.242Z" fill="#7E3F27"/>
<path d="M62.7934 150.132C62.7934 154.332 59.2415 157.739 54.8548 157.739C50.4695 157.739 46.9121 154.332 46.9121 150.132C46.9121 145.932 50.4695 142.531 54.8548 142.531C59.2415 142.531 62.7934 145.932 62.7934 150.132Z" fill="#1E1C22"/>
<path d="M59.7105 151.584C59.7105 153.726 57.8985 155.46 55.6611 155.46C53.4265 155.46 51.6118 153.726 51.6118 151.584C51.6118 149.443 53.4265 147.706 55.6611 147.706C57.8985 147.706 59.7105 149.443 59.7105 151.584Z" fill="#18151A"/>
<path d="M49.4322 151.403C49.4322 147.986 52.3282 145.214 55.8962 145.214C58.7962 145.214 61.2509 147.043 62.0749 149.556C61.5216 146.439 58.6922 144.059 55.2749 144.059C51.4656 144.059 48.3789 147.015 48.3789 150.66C48.3789 153.448 50.1842 155.827 52.7309 156.796C50.7656 155.738 49.4322 153.722 49.4322 151.403Z" fill="#FEF5E9"/>
<path d="M55.5902 148.391C55.5902 149.288 54.8316 150.018 53.8942 150.018C52.9596 150.018 52.1982 149.288 52.1982 148.391C52.1982 147.496 52.9596 146.771 53.8942 146.771C54.8316 146.771 55.5902 147.496 55.5902 148.391Z" fill="#FEF5E9"/>
<path d="M53.3292 151.102C53.3292 151.698 52.8225 152.18 52.1985 152.18C51.5759 152.18 51.0679 151.698 51.0679 151.102C51.0679 150.5 51.5759 150.018 52.1985 150.018C52.8225 150.018 53.3292 150.5 53.3292 151.102Z" fill="#FEF5E9"/>
<path d="M100.7 150.132C100.7 154.332 104.259 157.739 108.644 157.739C113.031 157.739 116.587 154.332 116.587 150.132C116.587 145.932 113.031 142.531 108.644 142.531C104.259 142.531 100.7 145.932 100.7 150.132Z" fill="#1E1C22"/>
<path d="M103.788 151.584C103.788 153.726 105.599 155.46 107.835 155.46C110.073 155.46 111.885 153.726 111.885 151.584C111.885 149.443 110.073 147.706 107.835 147.706C105.599 147.706 103.788 149.443 103.788 151.584Z" fill="#18151A"/>
<path d="M114.064 151.403C114.064 147.986 111.172 145.214 107.597 145.214C104.697 145.214 102.248 147.043 101.427 149.556C101.976 146.439 104.805 144.059 108.22 144.059C112.028 144.059 115.119 147.015 115.119 150.66C115.119 153.448 113.317 155.827 110.764 156.796C112.735 155.738 114.064 153.722 114.064 151.403Z" fill="#FEF5E9"/>
<path d="M107.905 148.391C107.905 149.288 108.665 150.018 109.599 150.018C110.539 150.018 111.299 149.288 111.299 148.391C111.299 147.496 110.539 146.771 109.599 146.771C108.665 146.771 107.905 147.496 107.905 148.391Z" fill="#FEF5E9"/>
<path d="M110.168 151.102C110.168 151.698 110.671 152.18 111.299 152.18C111.919 152.18 112.428 151.698 112.428 151.102C112.428 150.5 111.919 150.018 111.299 150.018C110.671 150.018 110.168 150.5 110.168 151.102Z" fill="#FEF5E9"/>
<path d="M73.3477 167.544C73.3477 169.348 71.8184 170.808 69.937 170.808C68.053 170.808 66.5264 169.348 66.5264 167.544C66.5264 165.742 68.053 164.283 69.937 164.283C71.8184 164.283 73.3477 165.742 73.3477 167.544Z" fill="#D8A5A7"/>
<path d="M94.7998 167.544C94.7998 169.348 93.2744 170.808 91.3918 170.808C89.5078 170.808 87.9824 169.348 87.9824 167.544C87.9824 165.742 89.5078 164.283 91.3918 164.283C93.2744 164.283 94.7998 165.742 94.7998 167.544Z" fill="#D8A5A7"/>
<path d="M146.398 50.7683C145.141 49.9056 143.393 50.1816 142.492 51.3856C142.445 51.4403 138.136 57.0856 131.802 56.5963C129.512 56.4189 127.253 56.6243 125.15 57.0269C135.3 46.2683 145.054 37.659 145.238 37.499C146.377 36.4976 146.452 34.8003 145.41 33.7109C144.361 32.6176 142.588 32.5469 141.453 33.5496C141.069 33.8856 138.342 36.2923 134.414 40.0003C135.212 36.3163 135.514 32.5469 135.494 28.8803C137.581 18.5763 142.409 15.2363 144.24 13.9697C144.957 13.4737 145.578 13.0443 145.936 12.2083C146.518 10.8363 145.836 9.27094 144.406 8.71094C143.258 8.2656 141.989 8.5963 141.224 9.44296L140.964 9.62298C139.697 10.4976 136.904 12.4323 134.324 16.5243C132.906 8.49228 130.681 2.61362 130.466 2.05762C129.933 0.668282 128.326 -0.0397034 126.874 0.470963C125.424 0.985626 124.681 2.52427 125.217 3.91093C125.273 4.0536 127.885 10.9857 129.166 19.9977C125.76 14.2817 121.876 10.5043 121.534 10.1856C120.445 9.14027 118.676 9.14161 117.584 10.1883C116.493 11.2363 116.493 12.9323 117.578 13.979C117.728 14.1203 132.317 28.347 127.956 42.4563C127.025 45.279 125.706 47.9616 123.893 50.3763C122.28 52.039 120.636 53.7736 118.992 55.5563C119.878 50.223 119.814 43.9136 117.244 37.4896C116.693 36.111 115.073 35.4176 113.632 35.9483C112.188 36.479 111.465 38.027 112.017 39.4096C117.281 52.5643 109.834 65.8123 109.033 67.1763C104.413 73.0616 100.552 78.935 98.5277 84.071C96.6477 88.1216 96.3063 91.7163 96.2863 91.987C96.1637 93.4616 97.3103 94.755 98.849 94.8736L99.0797 94.8829C100.521 94.8829 101.746 93.8203 101.866 92.4189C101.872 92.3683 102.137 89.515 103.592 86.3376L103.732 86.0523L103.752 86.003C104.902 83.6043 106.74 81.0683 109.666 79.4496C112.622 77.8136 117.117 76.7803 121.884 75.6829C129.568 73.9176 138.28 71.9136 143.769 66.5416C144.852 65.4816 144.83 63.7856 143.73 62.7483C142.621 61.7163 140.848 61.7336 139.766 62.7909C135.405 67.0603 127.864 68.795 120.576 70.4697C117.428 71.195 114.389 71.8936 111.665 72.7883C112.264 71.9923 112.882 71.1843 113.52 70.3803L113.601 70.2736C114.881 68.6563 116.22 67.0296 117.597 65.4136C119.138 64.5763 125.312 61.471 131.352 61.9376C140.81 62.6696 146.79 54.8416 147.04 54.507C147.942 53.3056 147.652 51.631 146.398 50.7683Z" fill="#D3D3BE"/>
<path d="M58.5829 67.1723C57.7776 65.8203 50.3069 52.6296 55.5989 39.4096C56.1549 38.027 55.4269 36.479 53.9842 35.9483C52.5389 35.4176 50.9216 36.111 50.3682 37.4896C47.8016 43.9136 47.7362 50.223 48.6229 55.5563C46.9816 53.7736 45.3309 52.039 43.7216 50.3763C41.9096 47.9616 40.5909 45.279 39.6589 42.459C35.3069 28.3856 49.8016 14.2056 50.0362 13.9803C51.1269 12.9349 51.1322 11.2389 50.0362 10.1883C48.9416 9.14161 47.1682 9.14027 46.0789 10.1856C45.7442 10.5043 41.8602 14.2803 38.4456 19.9977C39.7309 11.0123 42.3322 4.0976 42.4002 3.91628C42.9416 2.5256 42.1962 0.985626 40.7456 0.470963C39.2962 -0.0423737 37.6856 0.668282 37.1482 2.05762C36.9336 2.61362 34.7109 8.49228 33.2936 16.5243C30.7149 12.4323 27.9149 10.4976 26.6562 9.62298L26.3949 9.44296C25.6269 8.59496 24.3562 8.2656 23.2149 8.71094C21.7829 9.27094 21.0976 10.8363 21.6802 12.2083C22.0362 13.0443 22.6562 13.4737 23.3776 13.9697C25.2056 15.2363 30.0349 18.5763 32.1162 28.8803C32.1042 32.5469 32.4069 36.3163 33.2029 40.0003C29.2776 36.2923 26.5509 33.8856 26.1616 33.5496C25.0256 32.5469 23.2549 32.6176 22.2069 33.7109C21.1629 34.8003 21.2402 36.4976 22.3749 37.499C22.5642 37.659 32.3189 46.2683 42.4696 57.0269C40.3656 56.6256 38.1082 56.4189 35.8176 56.5963C29.5416 57.075 25.1629 51.4323 25.1242 51.3856C24.2242 50.1816 22.4749 49.9056 21.2202 50.7683C19.9629 51.631 19.6776 53.3056 20.5776 54.507C20.8296 54.8416 26.8029 62.671 36.2642 61.9376C42.3069 61.475 48.4869 64.5816 50.0216 65.4189C51.3922 67.0229 52.7269 68.6389 53.9976 70.2469L54.1069 70.3909C54.7389 71.1936 55.3549 71.9923 55.9536 72.7909C53.2309 71.8976 50.1922 71.195 47.0416 70.4697C39.7509 68.795 32.2136 67.0603 27.8496 62.7909C26.7669 61.7336 24.9949 61.7163 23.8882 62.7483C22.7856 63.7856 22.7656 65.4816 23.8469 66.5416C29.3376 71.9136 38.0496 73.9176 45.7349 75.6829C50.4976 76.7803 54.9949 77.8136 57.9509 79.4496C64.8229 83.2616 65.7349 92.2763 65.7509 92.4243C65.8736 93.8229 67.0962 94.8829 68.5362 94.8829L68.7669 94.8736C70.3042 94.755 71.4576 93.4616 71.3296 91.987C71.3096 91.7163 70.9669 88.1216 69.0882 84.071C67.0669 78.9323 63.2029 73.0589 58.5829 67.1723Z" fill="#D3D3BE"/>
</svg>
