<svg width="144" height="107" viewBox="0 0 144 107" fill="none" xmlns="http://www.w3.org/2000/svg">
<path d="M128.458 4.15494C115.37 -5.35039 108.345 6.80696 105.696 15.9736C105.632 16.1883 113.938 21.179 116.137 22.667C118.572 24.3137 124.628 26.2737 124.877 26.103C129.026 23.2257 141.546 13.6576 128.458 4.15494Z" fill="#A86D4B"/>
<path d="M125.327 8.60309C115.933 1.40575 111.36 10.4444 109.516 16.8097C109.471 16.9617 115.24 20.4297 116.772 21.463C118.46 22.6057 122.672 23.9684 122.837 23.8511C125.727 21.8497 134.72 15.7991 125.327 8.60309Z" fill="#F3BF87"/>
<path d="M21.6152 28.7656C21.8615 28.935 27.9157 26.9736 30.3548 25.3296C32.5568 23.8403 40.8611 18.8483 40.7953 18.635C38.1448 9.46563 31.1225 -2.68769 18.0365 6.81765C4.94639 16.3176 17.4636 25.887 21.6152 28.7656Z" fill="#A86D4B"/>
<path d="M23.6514 26.511C23.8208 26.631 28.0312 25.2684 29.7238 24.1244C31.2494 23.0897 37.0197 19.6231 36.9754 19.4737C35.1306 13.1057 30.5588 4.06708 21.1666 11.2644C11.7686 18.4577 20.7681 24.5124 23.6514 26.511Z" fill="#F3BF87"/>
<path d="M136.04 37.9977C128.143 25.6497 120.857 19.1084 106.147 13.9377C74.5451 2.82438 33.1065 8.03503 7.32588 40.9937C-3.41679 55.543 -1.57412 66.991 13.9207 82.239C43.1503 110.999 99.5559 117.671 128.129 85.7764C147.791 63.8257 145.951 53.4991 136.04 37.9977Z" fill="#F3BF87"/>
<path d="M106.146 13.9377C74.545 2.82435 33.1065 8.035 7.32582 40.9937C6.40396 42.2363 5.58729 43.4524 4.85596 44.6537C73.4529 37.0097 41.8701 82.135 71.9111 82.135C101.949 82.135 77.9445 31.439 134.504 35.663C127.161 24.8083 119.902 18.7737 106.146 13.9377Z" fill="#A86D4B"/>
<path d="M75.44 92.2429C74.4 92.4336 72.7895 92.4816 72.2427 91.4909C72.0473 91.1403 71.9719 91.0416 71.8301 91.1003C71.3129 91.6696 70.6749 92.0269 69.8088 92.2136C69.6457 92.2522 69.5 92.2469 69.3713 92.2189C68.7208 92.4216 68.0228 92.4336 67.2244 92.1003L67.1088 92.0389C66.94 91.9762 66.79 91.9123 66.6504 91.8403V95.6456C66.6504 95.8203 67.4135 97.8656 71.9667 97.8656C76.5203 97.8656 77.0828 95.8203 77.0828 95.6456V91.9269C76.5296 92.1309 75.9771 92.2296 75.44 92.2429Z" fill="#F1FAFB"/>
<path d="M71.4504 84.1403C71.4504 84.1403 71.4504 88.1389 71.4504 90.1736C71.4525 90.5909 71.2531 91.0549 70.8921 91.4069C70.5307 91.7576 70.0249 91.9976 69.4093 91.9976C68.4635 91.999 67.1687 91.4189 65.788 89.5069C65.6255 89.2816 65.3113 89.2309 65.0859 89.3936C64.8604 89.5563 64.8093 89.8696 64.9724 90.0963C66.4583 92.1629 68.0323 93.0029 69.4093 93.0043C71.1837 92.9963 72.4484 91.6176 72.4567 90.1736C72.4567 88.1389 72.4567 84.1456 72.4567 84.1403C72.4567 83.8616 72.2312 83.6376 71.9536 83.6376C71.676 83.6376 71.4509 83.8616 71.4509 84.1403" fill="#242327"/>
<path d="M71.3672 84.1403C71.3672 84.1403 71.3672 88.1389 71.3672 90.1736C71.3756 91.6163 72.6392 92.9963 74.4141 93.0043C75.7907 93.0029 77.3646 92.163 78.8521 90.095C79.0141 89.8696 78.9631 89.5563 78.7381 89.3936C78.5125 89.2309 78.1985 89.2816 78.0365 89.5069C76.6543 91.4189 75.3589 91.999 74.4141 91.9976C73.7985 91.9976 73.2928 91.7576 72.9319 91.4069C72.5709 91.0549 72.3715 90.5909 72.3735 90.1736C72.3735 88.1389 72.3735 84.1456 72.3735 84.1403C72.3735 83.8616 72.148 83.6376 71.8704 83.6376C71.5928 83.6376 71.3677 83.8616 71.3677 84.1403" fill="#242327"/>
<path d="M49.8691 66.6497C49.8691 71.5363 45.7363 75.4963 40.6327 75.4963C35.5295 75.4963 31.3926 71.5363 31.3926 66.6497C31.3926 61.7657 35.5295 57.807 40.6327 57.807C45.7363 57.807 49.8691 61.7657 49.8691 66.6497Z" fill="#1E1C22"/>
<path d="M46.2816 68.335C46.2816 70.8244 44.1712 72.8457 41.5727 72.8457C38.9707 72.8457 36.8628 70.8244 36.8628 68.335C36.8628 65.8457 38.9707 63.8257 41.5727 63.8257C44.1712 63.8257 46.2816 65.8457 46.2816 68.335Z" fill="#18151A"/>
<path d="M34.3267 68.127C34.3267 64.1524 37.6923 60.9297 41.8433 60.9297C45.2136 60.9297 48.0704 63.0524 49.0251 65.979C48.3844 62.351 45.0943 59.583 41.1215 59.583C36.6917 59.583 33.0996 63.023 33.0996 67.2657C33.0996 70.5044 35.1991 73.2697 38.1636 74.4004C35.8761 73.1631 34.3267 70.823 34.3267 68.127Z" fill="#FEF5E9"/>
<path d="M41.4882 64.623C41.4882 65.6683 40.6063 66.5123 39.5173 66.5123C38.4267 66.5123 37.5439 65.6683 37.5439 64.623C37.5439 63.5817 38.4267 62.7364 39.5173 62.7364C40.6063 62.7364 41.4882 63.5817 41.4882 64.623Z" fill="#FEF5E9"/>
<path d="M38.8596 67.7723C38.8596 68.4683 38.271 69.031 37.544 69.031C36.8173 69.031 36.2314 68.4683 36.2314 67.7723C36.2314 67.0749 36.8173 66.5123 37.544 66.5123C38.271 66.5123 38.8596 67.0749 38.8596 67.7723Z" fill="#FEF5E9"/>
<path d="M93.9502 66.6497C93.9502 71.5363 98.0869 75.4963 103.187 75.4963C108.29 75.4963 112.427 71.5363 112.427 66.6497C112.427 61.7657 108.29 57.807 103.187 57.807C98.0869 57.807 93.9502 61.7657 93.9502 66.6497Z" fill="#1E1C22"/>
<path d="M97.5386 68.335C97.5386 70.8244 99.6492 72.8457 102.251 72.8457C104.848 72.8457 106.961 70.8244 106.961 68.335C106.961 65.8457 104.848 63.8257 102.251 63.8257C99.6492 63.8257 97.5386 65.8457 97.5386 68.335Z" fill="#18151A"/>
<path d="M109.493 68.127C109.493 64.1524 106.131 60.9297 101.973 60.9297C98.6081 60.9297 95.7521 63.0524 94.7969 65.979C95.4343 62.351 98.7267 59.583 102.699 59.583C107.128 59.583 110.723 63.023 110.723 67.2657C110.723 70.5044 108.62 73.2697 105.656 74.4004C107.944 73.1631 109.493 70.823 109.493 68.127Z" fill="#FEF5E9"/>
<path d="M102.334 64.623C102.334 65.6683 103.216 66.5123 104.304 66.5123C105.392 66.5123 106.273 65.6683 106.273 64.623C106.273 63.5817 105.392 62.7364 104.304 62.7364C103.216 62.7364 102.334 63.5817 102.334 64.623Z" fill="#FEF5E9"/>
<path d="M104.958 67.7723C104.958 68.4683 105.552 69.031 106.273 69.031C107.001 69.031 107.588 68.4683 107.588 67.7723C107.588 67.0749 107.001 66.5123 106.273 66.5123C105.552 66.5123 104.958 67.0749 104.958 67.7723Z" fill="#FEF5E9"/>
<path d="M59.1751 85.471C59.1751 88.6097 56.521 91.1537 53.2429 91.1537C49.9673 91.1537 47.3115 88.6097 47.3115 85.471C47.3115 82.335 49.9673 79.7924 53.2429 79.7924C56.521 79.7924 59.1751 82.335 59.1751 85.471Z" fill="#F09562"/>
<path d="M96.5067 85.471C96.5067 88.6097 93.852 91.1537 90.5786 91.1537C87.3015 91.1537 84.6484 88.6097 84.6484 85.471C84.6484 82.335 87.3015 79.7924 90.5786 79.7924C93.852 79.7924 96.5067 82.335 96.5067 85.471Z" fill="#F09562"/>
<path d="M14.6695 40.8203C16.0961 40.871 17.4706 41.5336 18.905 41.343C19.1018 41.3163 19.193 41.0043 18.9559 40.9603C17.5471 40.7003 16.1065 40.4376 14.6695 40.4189C14.4102 40.4149 14.4117 40.811 14.6695 40.8203Z" fill="#7A4E34"/>
<path d="M18.0348 36.4602C19.3609 36.8696 20.6072 37.6749 21.9978 37.8322C22.177 37.8536 22.2494 37.5683 22.0894 37.4923C20.8432 36.9016 19.4833 36.3976 18.1484 36.0483C17.8817 35.9789 17.7728 36.3802 18.0348 36.4602Z" fill="#7A4E34"/>
<path d="M20.6299 30.7216C21.6607 30.9363 22.5783 31.4097 23.5826 31.6977C23.7367 31.7417 23.8831 31.5256 23.7471 31.415C22.9081 30.7323 21.8086 30.4363 20.7602 30.251C20.4534 30.1963 20.3179 30.6576 20.6299 30.7216Z" fill="#7A4E34"/>
<path d="M26.1736 35.0657C27.158 35.2857 27.9913 35.8377 28.9497 36.0924C29.1299 36.1404 29.2913 35.8991 29.1397 35.7671C28.3799 35.1031 27.2659 34.807 26.2908 34.6417C26.0159 34.5964 25.8935 35.0031 26.1736 35.0657Z" fill="#7A4E34"/>
<path d="M27.5677 27.9163C28.036 28.1429 28.4917 28.3923 28.9401 28.6563C29.3537 28.8976 29.7682 29.2083 30.2422 29.307C30.4136 29.3416 30.6281 29.1483 30.4974 28.9736C29.8985 28.1803 28.6704 27.791 27.7709 27.435C27.4922 27.3243 27.3 27.7856 27.5677 27.9163Z" fill="#7A4E34"/>
<path d="M35.9196 29.5069C36.3002 29.9483 36.5201 30.551 37.0315 30.851C37.1669 30.931 37.3742 30.8296 37.3622 30.6603C37.3165 30.0229 36.8226 29.4816 36.4081 29.0176C36.1091 28.6843 35.6316 29.1723 35.9196 29.5069Z" fill="#7A4E34"/>
<path d="M34.2489 23.2697C34.7061 23.7977 35.15 24.5017 35.7593 24.8537C35.902 24.9363 36.0416 24.775 35.9739 24.639C35.664 24.0083 34.99 23.5137 34.4973 23.023C34.3353 22.8604 34.1015 23.1017 34.2489 23.2697Z" fill="#7A4E34"/>
<path d="M39.8701 18.2776C40.843 19.1109 41.1269 20.3643 41.9862 21.2536C42.1488 21.4216 42.5081 21.307 42.4794 21.0483C42.3336 19.763 41.2576 18.531 40.2128 17.8323C39.9472 17.6563 39.6269 18.0683 39.8701 18.2776Z" fill="#7A4E34"/>
<path d="M41.0946 25.0591C41.603 25.7951 42.0342 26.7858 42.7457 27.3338C42.8572 27.4205 43.0557 27.3044 43.039 27.1658C42.9296 26.2631 42.1708 25.4524 41.6588 24.7311C41.4176 24.3898 40.8541 24.7124 41.0946 25.0591Z" fill="#7A4E34"/>
<path d="M46.6202 14.6602C46.9874 15.3869 47.4484 16.2856 48.0853 16.8082C48.2129 16.9122 48.4561 16.8203 48.39 16.631C48.1093 15.835 47.4301 15.0896 46.8572 14.4789C46.7348 14.3483 46.5462 14.5136 46.6202 14.6602Z" fill="#7A4E34"/>
<path d="M48.1352 21.7496C48.2727 22.8269 48.6264 24.2416 49.5748 24.8976C49.7279 25.0016 49.9275 24.8282 49.8795 24.6629C49.742 24.1896 49.4634 23.7776 49.2259 23.3496C48.9369 22.8296 48.7451 22.2629 48.6166 21.6843C48.5571 21.4189 48.0999 21.4736 48.1352 21.7496Z" fill="#7A4E34"/>
<path d="M54.5533 18.427C54.6314 19.475 54.5939 20.775 55.2486 21.6484C55.3377 21.7684 55.5194 21.7297 55.5287 21.5723C55.5954 20.519 55.1454 19.3977 54.8986 18.3803C54.8517 18.1897 54.5382 18.227 54.5533 18.427Z" fill="#7A4E34"/>
<path d="M59.1912 12.3377C59.46 13.3923 59.6469 14.4523 60.0188 15.479L60.1881 15.4323C59.9329 14.375 59.7438 13.3163 59.3854 12.2856C59.3433 12.163 59.1594 12.2123 59.1912 12.3377Z" fill="#7A4E34"/>
<path d="M60.0651 18.427C60.1823 19.5043 60.1541 20.9056 60.752 21.8443C60.8509 21.999 61.1036 21.9416 61.1031 21.7496C61.0984 20.643 60.6724 19.4603 60.4604 18.3736C60.4167 18.1523 60.0411 18.2016 60.0651 18.427Z" fill="#7A4E34"/>
<path d="M53.8144 12.3123C53.9378 13.343 54.0821 14.8803 54.8794 15.6283C55.0289 15.7697 55.3056 15.6763 55.2972 15.455C55.2789 14.9496 55.0316 14.4843 54.854 14.0163C54.6346 13.4363 54.4628 12.847 54.3326 12.2416C54.2701 11.9536 53.7784 12.015 53.8144 12.3123Z" fill="#7A4E34"/>
<path d="M65.1175 10.0391C65.2503 11.1631 65.3087 12.3164 65.6369 13.4057C65.6921 13.5897 65.965 13.5524 65.9691 13.3604C65.9989 12.2191 65.7139 11.1018 65.4999 9.9871C65.4587 9.77244 65.0915 9.82039 65.1175 10.0391Z" fill="#7A4E34"/>
<path d="M72.3077 10.2137C72.4109 11.155 72.276 12.1297 72.4708 13.0577C72.5057 13.2257 72.7738 13.2257 72.8093 13.0577C73.0057 12.1164 72.853 11.0964 72.6405 10.1684C72.5983 9.98439 72.2864 10.0217 72.3077 10.2137Z" fill="#7A4E34"/>
<path d="M79.6345 11.2645C79.6194 11.8525 79.5397 12.4711 79.6653 13.0484C79.6949 13.1884 79.9137 13.1884 79.944 13.0484C80.0684 12.4711 79.9892 11.8525 79.9741 11.2645C79.9684 11.0458 79.6402 11.0458 79.6345 11.2645Z" fill="#7A4E34"/>
<path d="M89.4331 13.1443C89.2216 14.2683 88.8507 15.3496 88.6435 16.4736C88.6211 16.5963 88.8039 16.6976 88.8616 16.5643C89.3252 15.5056 89.5564 14.3656 89.7236 13.2243C89.7518 13.0363 89.47 12.9509 89.4331 13.1443Z" fill="#7A4E34"/>
<path d="M98.3838 13.799C97.5065 15.111 97.1812 16.6789 96.9052 18.2083C96.8732 18.3856 97.1225 18.5216 97.2158 18.3389C97.9265 16.9389 98.1638 15.395 98.6932 13.9296C98.7625 13.7403 98.4852 13.6483 98.3838 13.799Z" fill="#7A4E34"/>
<path d="M105.88 22.3803C106.585 21.1297 107.516 19.987 108.129 18.6897C108.209 18.519 107.995 18.3204 107.853 18.4764C106.888 19.5484 106.173 20.8897 105.512 22.1644C105.385 22.4084 105.745 22.6217 105.88 22.3803Z" fill="#7A4E34"/>
<path d="M113.176 26.0336C114.151 25.3536 115.277 24.9056 116.223 24.2003C116.407 24.0616 116.304 23.7656 116.063 23.8203C114.903 24.0909 113.825 24.8189 112.867 25.5016C112.547 25.7296 112.849 26.2616 113.176 26.0336Z" fill="#7A4E34"/>
<path d="M121.325 32.135C122.467 32.0044 123.561 31.7683 124.633 31.355C124.815 31.2857 124.793 31.0177 124.585 31.0097C123.423 30.963 122.38 31.3977 121.259 31.6417C120.985 31.7003 121.043 32.167 121.325 32.135Z" fill="#7A4E34"/>
<path d="M29.3277 40.223C31.0886 40.2137 32.5135 41.2243 34.2089 41.4496C34.5307 41.491 34.5854 41.0363 34.3614 40.887C32.9162 39.935 31.0547 39.4203 29.3277 39.6216C28.9515 39.6643 28.9291 40.2257 29.3277 40.223Z" fill="#7A4E34"/>
<path d="M35.674 35.6576C36.6636 36.383 37.6501 37.411 38.8677 37.707C39.0802 37.7577 39.3021 37.463 39.1001 37.307C38.1037 36.5377 37.0297 35.8323 36.0032 35.0963C35.6594 34.8483 35.3386 35.4136 35.674 35.6576Z" fill="#7A4E34"/>
<path d="M45.4165 31.9831C45.7707 32.8417 46.2311 33.6764 46.9248 34.3071C47.068 34.4364 47.3675 34.3124 47.2816 34.0991C46.9576 33.2964 46.4352 32.6018 46.1316 31.7844C45.9639 31.3364 45.2368 31.5457 45.4165 31.9831Z" fill="#7A4E34"/>
<path d="M53.1691 28.3296C53.639 29.6563 54.0342 31.1937 54.8358 32.3617C54.9655 32.551 55.3238 32.5043 55.3041 32.235C55.1983 30.819 54.4754 29.427 54.0051 28.1016C53.8197 27.5776 52.9822 27.803 53.1691 28.3296Z" fill="#7A4E34"/>
<path d="M61.939 26.543C62.2426 27.8457 62.3951 29.2817 62.8508 30.5364C62.9248 30.7417 63.2003 30.7004 63.2207 30.487C63.3494 29.143 62.8035 27.683 62.4956 26.3883C62.4092 26.0257 61.854 26.1804 61.939 26.543Z" fill="#7A4E34"/>
<path d="M67.7728 17.7283C67.938 19.2497 68.1713 20.843 68.528 22.3296C68.5754 22.5283 68.8989 22.539 68.9394 22.3296C69.2348 20.8123 68.5833 19.2283 68.3874 17.7283C68.338 17.343 67.729 17.331 67.7728 17.7283Z" fill="#7A4E34"/>
<path d="M75.6787 20.7004C75.6787 21.8151 75.7043 22.9097 75.7918 24.0204C75.8032 24.1577 75.9943 24.1577 76.0054 24.0204C76.0934 22.9097 76.1188 21.8151 76.1188 20.7004C76.1188 20.4164 75.6787 20.4164 75.6787 20.7004Z" fill="#7A4E34"/>
<path d="M85.9792 22.4457C85.833 23.7337 85.8491 24.9977 85.8532 26.2897C85.8538 26.4431 86.0892 26.4817 86.1246 26.3257C86.4172 25.0391 86.4824 23.7524 86.6574 22.4457C86.7152 22.0177 86.0287 22.0137 85.9792 22.4457Z" fill="#7A4E34"/>
<path d="M74.8721 16.8416C74.6126 17.8803 74.4221 18.9723 74.6148 20.039C74.6402 20.1763 74.8678 20.1763 74.8934 20.039C75.0836 18.9923 74.9226 17.911 74.9705 16.855L74.8721 16.8416Z" fill="#7A4E34"/>
<path d="M81.1795 16.7498C81.4691 18.5884 81.0415 20.5444 81.4811 22.3498C81.5488 22.6258 81.9712 22.6258 82.0384 22.3498C82.489 20.4951 81.979 18.4524 81.689 16.6084C81.6358 16.2738 81.1275 16.4164 81.1795 16.7498Z" fill="#7A4E34"/>
<path d="M69.399 28.4764C70.1536 30.6164 69.8958 33.0017 70.7734 35.095C70.8728 35.331 71.2624 35.3283 71.2547 35.0297C71.1958 32.7697 70.7963 30.427 70.0162 28.3044C69.8755 27.9217 69.261 28.083 69.399 28.4764Z" fill="#7A4E34"/>
<path d="M89.612 29.7151C89.05 30.5444 88.7781 31.419 88.6709 32.4083L88.8433 32.4324C89.0573 31.5337 89.3516 30.6377 89.862 29.8617C89.9652 29.7057 89.7162 29.5631 89.612 29.7151Z" fill="#7A4E34"/>
<path d="M82.2697 29.3977C82.0577 30.859 81.7052 32.3297 81.6151 33.8043C81.6047 33.979 81.8432 33.9843 81.8989 33.843C82.4405 32.4737 82.4343 30.8857 82.5536 29.4364C82.5667 29.2737 82.2932 29.2364 82.2697 29.3977Z" fill="#7A4E34"/>
<path d="M94.2206 18.427C94.1972 20.231 93.404 21.8564 93.1144 23.6137C93.0774 23.835 93.3889 24.011 93.5045 23.7777C94.3441 22.079 94.9237 20.343 94.6971 18.427C94.6617 18.1284 94.2242 18.111 94.2206 18.427Z" fill="#7A4E34"/>
<path d="M100.826 24.6323C99.8903 26.7136 98.7557 28.6736 97.917 30.8016C97.861 30.9416 98.0877 31.031 98.1583 30.903C99.2743 28.895 100.376 26.9416 101.136 24.763C101.2 24.583 100.905 24.4576 100.826 24.6323Z" fill="#7A4E34"/>
<path d="M106.24 30.7723C105.378 32.0363 104.218 33.099 103.512 34.463L103.652 34.547C104.524 33.2777 105.584 32.163 106.456 30.9004C106.549 30.767 106.33 30.6403 106.24 30.7723Z" fill="#7A4E34"/>
<path d="M112.725 33.3231C111.49 34.5418 109.957 35.6084 108.941 37.0258C108.822 37.1924 109.053 37.4031 109.217 37.3004C110.685 36.3831 111.87 34.8857 112.993 33.5884C113.149 33.4057 112.901 33.1498 112.725 33.3231Z" fill="#7A4E34"/>
<path d="M96.7771 35.8311C96.07 36.9551 94.9799 37.8924 94.4388 39.1137C94.3377 39.3417 94.5799 39.5257 94.7736 39.3737C95.844 38.5311 96.4677 37.1831 97.0277 35.9777C97.1051 35.8111 96.8784 35.6711 96.7771 35.8311Z" fill="#7A4E34"/>
<path d="M40.6647 42.4697C42.1298 43.1617 43.4715 44.275 45.0814 44.6044C45.2339 44.6364 45.347 44.4177 45.1928 44.3404C43.7454 43.6244 42.3105 42.711 40.7573 42.2524C40.6297 42.2137 40.5412 42.4111 40.6647 42.4697Z" fill="#7A4E34"/>
<path d="M45.9899 39.755C47.3519 40.8017 48.3499 42.2284 49.7737 43.187C49.9065 43.2777 50.0488 43.0804 49.9409 42.971C48.7556 41.763 47.7556 40.1657 46.206 39.387C45.9535 39.2604 45.7764 39.591 45.9899 39.755Z" fill="#7A4E34"/>
<path d="M52.8335 38.027C53.3299 39.5124 54.0408 40.8844 54.8075 42.2457L54.9913 42.1684C54.4273 40.7244 53.6085 39.4098 53.0392 37.9698C52.9897 37.8444 52.7892 37.8937 52.8335 38.027Z" fill="#7A4E34"/>
<path d="M59.1492 35.7683C59.6194 37.5123 59.9888 39.4136 60.8006 41.0376C60.87 41.175 61.0757 41.0763 61.0418 40.9363C60.6194 39.1683 59.9345 37.4376 59.4278 35.6896C59.3757 35.511 59.1012 35.5869 59.1492 35.7683Z" fill="#7A4E34"/>
<path d="M63.7986 35.787C64.0939 37.5136 64.2011 39.3269 64.6475 41.0189C64.7022 41.2243 64.9939 41.171 65.0054 40.971C65.1085 39.2176 64.5626 37.3777 64.223 35.6697C64.1667 35.3897 63.7517 35.511 63.7986 35.787Z" fill="#7A4E34"/>
<path d="M73.4333 36.4284C73.4093 37.7097 73.2932 38.9911 73.3463 40.2711L73.5557 40.3004C73.9244 39.0471 73.8224 37.7217 73.7984 36.4284C73.7937 36.1937 73.438 36.1937 73.4333 36.4284Z" fill="#7A4E34"/>
<path d="M74.744 28.563C74.732 29.611 74.6315 30.7044 74.7987 31.743H75.0408C75.208 30.7044 75.1069 29.611 75.0955 28.563C75.0929 28.3364 74.7465 28.3364 74.744 28.563Z" fill="#7A4E34"/>
<path d="M79.2486 38.5243C79.0413 40.0816 78.5834 41.9163 78.9845 43.4643C79.0282 43.6337 79.2777 43.631 79.323 43.4643C79.7492 41.9123 79.5954 40.1243 79.7132 38.5243C79.735 38.219 79.2866 38.2363 79.2486 38.5243Z" fill="#7A4E34"/>
<path d="M85.1766 39.7056C84.9996 40.6482 84.772 41.5736 84.5693 42.5096C84.5406 42.6443 84.7318 42.7403 84.7985 42.6069C85.2308 41.7429 85.3324 40.7363 85.5037 39.7936C85.5428 39.5816 85.2166 39.4896 85.1766 39.7056Z" fill="#7A4E34"/>
<path d="M88.6777 43.7203C88.3443 44.299 88.0521 44.899 87.7422 45.4897L87.8291 45.5416C88.2026 44.9883 88.4895 44.383 88.8406 43.8177L88.6777 43.7203Z" fill="#7A4E34"/>
<path d="M63.0789 49.4256C63.8778 50.9296 64.1529 52.6976 65.0331 54.1483C65.1159 54.283 65.3206 54.1922 65.2857 54.0416C64.9102 52.4269 64.1539 50.715 63.307 49.2923C63.22 49.1456 62.9998 49.275 63.0789 49.4256Z" fill="#7A4E34"/>
<path d="M67.7204 45.867C67.9849 47.9003 68.5917 49.859 69.0636 51.8483C69.1073 52.0337 69.3781 51.9856 69.385 51.8056C69.4559 49.711 68.5448 47.8283 68.1152 45.8136C68.0683 45.5936 67.6907 45.6417 67.7204 45.867Z" fill="#7A4E34"/>
<path d="M74.9143 50.143C74.5706 51.8164 74.3466 53.471 74.5835 55.1723C74.6075 55.3417 74.8976 55.3403 74.9236 55.1723C75.1711 53.559 75.2649 51.931 75.581 50.327C75.6665 49.8923 75.0045 49.707 74.9143 50.143Z" fill="#7A4E34"/>
<path d="M67.7581 61.5136C67.9327 61.8562 68.0925 62.2069 68.3128 62.5203C68.3816 62.6176 68.5393 62.5603 68.5081 62.4376C68.4144 62.0683 68.2472 61.7216 68.1029 61.3696C67.9993 61.115 67.6347 61.2696 67.7581 61.5136Z" fill="#7A4E34"/>
<path d="M70.3351 57.6257C70.4944 58.607 70.6127 59.6217 70.8883 60.579C70.9274 60.7137 71.1398 60.6897 71.1351 60.5457C71.1055 59.5324 70.8627 58.523 70.7102 57.5217C70.6722 57.275 70.2944 57.3804 70.3351 57.6257Z" fill="#7A4E34"/>
<path d="M70.8586 65.4376C70.8274 66.8803 70.6242 68.659 71.1919 70.0203C71.2539 70.1683 71.4862 70.1616 71.4873 69.9802C71.4955 69.2229 71.3165 68.4656 71.2518 67.7109C71.1867 66.9549 71.1774 66.1949 71.1607 65.4376C71.1559 65.2443 70.8627 65.2443 70.8586 65.4376Z" fill="#7A4E34"/>
<path d="M75.4469 59.811C74.8709 61.7057 74.6442 63.6377 74.6406 65.6124C74.6401 65.7364 74.8406 65.771 74.862 65.643C75.189 63.7284 75.2672 61.7737 75.689 59.879C75.724 59.7204 75.4938 59.6563 75.4469 59.811Z" fill="#7A4E34"/>
<path d="M80.262 53.547C79.6896 55.4244 79.0662 57.3564 78.7344 59.2951L78.9166 59.3444C79.5562 57.4857 79.9297 55.4871 80.3229 53.5617L80.262 53.547Z" fill="#7A4E34"/>
<path d="M84.9663 48.2817C84.2152 49.9084 83.4486 51.5804 83.1226 53.3511C83.097 53.4884 83.2782 53.5363 83.3282 53.4083C83.9814 51.7417 84.459 50.0084 85.0699 48.3244L84.9663 48.2817Z" fill="#7A4E34"/>
<path d="M79.7716 47.0323C79.4799 48.7176 79.308 50.4496 79.2227 52.1576L79.4085 52.1816C79.9044 50.5523 79.8695 48.8123 80.1596 47.1389C80.2033 46.8843 79.8159 46.7763 79.7716 47.0323Z" fill="#7A4E34"/>
<path d="M72.4272 43.591C72.2688 45.295 72.0011 47.183 72.3136 48.8803C72.3439 49.0417 72.6111 49.0417 72.6407 48.8803C72.9532 47.183 72.6855 45.295 72.5277 43.591H72.4272Z" fill="#7A4E34"/>
<path d="M58.8483 44.9909C59.0409 46.4549 59.5123 48.0069 60.3336 49.2389C60.4003 49.3362 60.5623 49.2763 60.5289 49.1563C60.142 47.7416 59.568 46.343 59.0707 44.9616C59.0305 44.8496 58.8305 44.8576 58.8483 44.9909Z" fill="#7A4E34"/>
<path d="M53.1909 47.3323C53.7499 47.9643 54.3133 48.555 54.9316 49.1283C55.5415 49.695 56.0758 50.4363 56.7556 50.9123C56.8884 51.0043 57.068 50.8523 57.0232 50.707C56.7915 49.955 56.0628 49.3843 55.4764 48.9043C54.7737 48.327 53.9841 47.8243 53.3332 47.1923L53.1909 47.3323Z" fill="#7A4E34"/>
<path d="M58.7168 54.859C59.4549 55.6363 59.8403 56.6563 60.4997 57.491L60.72 57.3643C60.344 56.315 59.7648 55.3883 58.8773 54.6977L58.7168 54.859Z" fill="#7A4E34"/>
<path d="M63.293 57.0657C63.508 58.1537 63.8846 59.3551 64.5367 60.2671C64.6294 60.3951 64.843 60.3217 64.8002 60.1564C64.52 59.0617 63.8799 58.039 63.4184 57.0124L63.293 57.0657Z" fill="#7A4E34"/>
<path d="M95.8042 41.427C95.1105 42.4616 94.1662 43.3283 93.5354 44.4016C93.4625 44.527 93.6302 44.6537 93.7333 44.5537C94.6219 43.691 95.4015 42.6243 96.0427 41.567C96.1354 41.4137 95.9026 41.2803 95.8042 41.427Z" fill="#7A4E34"/>
<path d="M89.9551 35.5696C89.2999 36.9563 88.4347 38.371 88.0592 39.8643C87.9946 40.1176 88.318 40.2283 88.4603 40.0336C89.3494 38.8096 89.8732 37.2603 90.4967 35.887C90.6618 35.523 90.1279 35.203 89.9551 35.5696Z" fill="#7A4E34"/>
<path d="M101.667 36.091C100.877 37.239 100.121 38.4017 99.5199 39.6604C99.4332 39.8417 99.6412 40.0083 99.7959 39.875C100.876 38.923 101.477 37.6217 102.231 36.419C102.457 36.059 101.903 35.747 101.667 36.091Z" fill="#7A4E34"/>
<path d="M102.239 16.231C101.968 16.999 101.645 17.763 101.448 18.5523C101.396 18.763 101.664 18.8564 101.78 18.6924C102.281 18.0017 102.643 17.2177 102.965 16.4324C103.147 15.9897 102.4 15.7697 102.239 16.231Z" fill="#7A4E34"/>
<path d="M52.6141 52.1737C52.9053 52.7537 53.201 53.331 53.474 53.919C53.7542 54.5243 54.0146 55.2043 54.4776 55.6937C54.6146 55.8377 54.9193 55.7377 54.8953 55.5204C54.7542 54.227 53.912 52.7857 53.1172 51.7857C52.8792 51.487 52.4605 51.867 52.6141 52.1737Z" fill="#7A4E34"/>
<path d="M55.6565 61.0936C55.9274 61.727 56.231 62.3483 56.5165 62.9776C56.8023 63.6056 56.9945 64.3296 57.3982 64.891C57.5149 65.0536 57.7993 65.011 57.7961 64.783C57.7753 63.427 56.5982 62.0563 55.9925 60.895C55.8742 60.6683 55.5611 60.8683 55.6565 61.0936Z" fill="#7A4E34"/>
<path d="M58.9395 60.743C59.1405 61.2803 59.4161 61.7709 59.7151 62.2603C60.0369 62.7869 60.3041 63.3856 60.6744 63.8776C60.7807 64.0163 60.9744 63.9323 60.95 63.7603C60.8692 63.1923 60.4771 62.7016 60.1484 62.2483C59.7776 61.7363 59.4145 61.231 59.1457 60.6563L58.9395 60.743Z" fill="#7A4E34"/>
<path d="M59.5636 66.8082C59.7084 67.3602 59.9938 67.8829 60.2172 68.4069C60.4688 68.9936 60.6162 69.6843 61.0553 70.1643C61.187 70.3096 61.4662 70.2416 61.5062 70.0456C61.6256 69.4589 61.3824 68.9456 61.1412 68.4216C60.8464 67.7776 60.4589 67.0789 59.9422 66.5882C59.7781 66.4336 59.5058 66.5869 59.5636 66.8082Z" fill="#7A4E34"/>
<path d="M64.2365 64.219C64.1854 65.7003 64.7791 67.779 65.6952 68.951C65.8968 69.211 66.252 68.9683 66.2739 68.7123C66.3427 67.9203 66.0072 67.1976 65.7291 66.4723C65.4312 65.6923 65.213 64.919 64.9886 64.1177C64.8698 63.6937 64.2505 63.791 64.2365 64.219Z" fill="#7A4E34"/>
<path d="M76.6825 66.607C76.6716 67.383 76.5908 68.1364 76.7367 68.903C76.7705 69.083 77.0179 69.0884 77.1039 68.951C77.5549 68.231 77.4845 67.4297 77.4741 66.607C77.4669 66.0977 76.6903 66.0977 76.6825 66.607Z" fill="#7A4E34"/>
<path d="M83.5728 66.3243C83.0541 67.4683 82.7895 68.7203 82.7192 69.9736C82.7052 70.2136 83.0104 70.243 83.128 70.0843C83.8891 69.0643 83.7656 67.7176 84.0891 66.5443C84.1724 66.2416 83.7083 66.0283 83.5728 66.3243Z" fill="#7A4E34"/>
<path d="M80.8032 62.8176C80.7152 63.7283 80.236 64.9576 80.5939 65.843C80.6694 66.0283 80.9387 66.171 81.098 65.9763C81.7606 65.163 81.6276 63.799 81.5568 62.8176C81.521 62.327 80.8496 62.335 80.8032 62.8176Z" fill="#7A4E34"/>
<path d="M87.1513 60.5723C87.0326 61.8616 86.5665 63.283 86.7878 64.5697C86.8305 64.8177 87.1529 64.799 87.2701 64.6323C88.0384 63.5377 87.9133 61.8403 87.8169 60.5723C87.7841 60.1416 87.1904 60.147 87.1513 60.5723Z" fill="#7A4E34"/>
<path d="M85.0157 56.711C84.6688 57.7536 84.2896 58.9697 84.4688 60.0763C84.5016 60.2723 84.8245 60.3163 84.9053 60.1323C85.3543 59.119 85.298 57.9297 85.5485 56.8563C85.6303 56.5083 85.1276 56.3736 85.0157 56.711Z" fill="#7A4E34"/>
<path d="M91.0338 50.8803C90.3198 51.835 89.7089 53.4017 89.8766 54.6044C89.9089 54.8404 90.2292 54.8244 90.3354 54.6644C90.6573 54.1844 90.7209 53.559 90.8376 53.0017C90.974 52.3523 91.1906 51.7417 91.5548 51.1844C91.7714 50.851 91.261 50.5763 91.0338 50.8803Z" fill="#7A4E34"/>
<path d="M88.236 47.8657C87.9215 48.7203 87.5584 49.6884 87.5625 50.607C87.5641 50.8244 87.848 50.891 87.9605 50.715C88.4652 49.9297 88.5147 48.899 88.7803 48.0163C88.8871 47.6617 88.3595 47.5297 88.236 47.8657Z" fill="#7A4E34"/>
<path d="M98.2681 44.507C97.5628 45.3683 96.9761 46.3923 96.7068 47.479C96.6615 47.663 96.9015 47.755 97.0041 47.603C97.6055 46.7243 97.9841 45.743 98.6841 44.9243C98.9321 44.635 98.5068 44.2136 98.2681 44.507Z" fill="#7A4E34"/>
<path d="M46.6984 47.8457C47.5671 48.747 48.5348 49.8523 49.7599 50.247C49.9765 50.3163 50.0785 50.047 49.9609 49.9004C49.1895 48.931 47.9979 48.283 47.0629 47.4817C46.8129 47.2683 46.4656 47.603 46.6984 47.8457Z" fill="#7A4E34"/>
<path d="M24.4085 41.943C25.0699 42.103 25.8235 42.427 26.5079 42.363C26.6678 42.3483 26.7653 42.1217 26.5965 42.0363C25.9855 41.719 25.1803 41.6937 24.5049 41.5923C24.2793 41.5577 24.1746 41.887 24.4085 41.943Z" fill="#7A4E34"/>
<path d="M11.7053 37.5683C13.1641 37.6296 14.4964 38.2123 15.9532 38.2643C16.1261 38.2696 16.1371 38.0336 15.9917 37.9803C14.6136 37.4683 13.1776 37.2643 11.7053 37.267C11.51 37.2683 11.512 37.559 11.7053 37.5683Z" fill="#7A4E34"/>
<path d="M8.92092 42.2536C10.1772 42.3536 11.3907 42.8523 12.6589 42.6016C12.8881 42.5549 12.9469 42.1842 12.7261 42.0856C11.5448 41.5509 10.198 41.5029 8.92092 41.5629C8.47199 41.5842 8.47919 42.2176 8.92092 42.2536Z" fill="#7A4E34"/>
<path d="M115.797 30.435C116.62 29.6683 117.748 29.383 118.654 28.7457C118.838 28.615 118.722 28.3524 118.504 28.3897C117.364 28.5844 116.125 29.2097 115.412 30.1377C115.236 30.367 115.602 30.615 115.797 30.435Z" fill="#7A4E34"/>
<path d="M116.852 34.2417C117.328 34.1083 117.851 34.0897 118.307 33.9137C118.441 33.863 118.459 33.6683 118.307 33.6243C117.8 33.4763 117.229 33.7004 116.745 33.8537C116.499 33.9324 116.601 34.3123 116.852 34.2417Z" fill="#7A4E34"/>
<path d="M127.555 33.4136C128.055 33.2496 128.551 33.1242 129.02 32.8802L128.965 32.6816C128.443 32.7363 127.947 32.8576 127.441 33.0016C127.177 33.0776 127.293 33.4989 127.555 33.4136Z" fill="#7A4E34"/>
<path d="M121.947 27.1736C122.557 26.8976 123.385 26.7229 123.832 26.1976C123.943 26.0643 123.879 25.8402 123.685 25.8429C122.971 25.8536 122.248 26.3069 121.617 26.6109C121.236 26.7949 121.569 27.3456 121.947 27.1736Z" fill="#7A4E34"/>
<path d="M110.852 23.043C111.228 22.5883 111.593 22.1257 111.993 21.6897C112.357 21.291 112.696 20.9069 112.85 20.3803C112.918 20.1456 112.692 19.9363 112.464 19.9936C111.361 20.271 110.358 21.5056 110.002 22.5469C109.842 23.0163 110.528 23.4363 110.852 23.043Z" fill="#7A4E34"/>
<path d="M95.7342 26.5442C95.4836 27.2162 95.3238 27.9269 95.1426 28.6216C94.9904 29.2043 94.8494 29.7323 95.0071 30.3269C95.0551 30.5083 95.2962 30.5749 95.427 30.4389C96.2652 29.5696 96.3652 27.7509 96.2399 26.6109C96.2079 26.3216 95.8384 26.2629 95.7342 26.5442Z" fill="#7A4E34"/>
<path d="M93.7353 12.1644C93.4515 13.2604 93.0463 14.5284 93.1661 15.667C93.2004 15.991 93.5828 16.111 93.7744 15.8323C94.4333 14.875 94.4484 13.5417 94.7161 12.4364C94.8713 11.799 93.9004 11.5297 93.7353 12.1644Z" fill="#7A4E34"/>
<path d="M106.941 25.3136C106.14 26.0563 105.323 26.935 104.92 27.9736C104.859 28.131 105.076 28.2203 105.183 28.1256C105.996 27.3976 106.429 26.2696 107.02 25.3749L106.941 25.3136Z" fill="#7A4E34"/>
<path d="M110.814 28.6483C110.198 29.4963 109.74 30.3817 109.364 31.3563L109.558 31.439C110.126 30.5896 110.513 29.6523 111.053 28.7856C111.149 28.6323 110.916 28.5057 110.814 28.6483Z" fill="#7A4E34"/>
<path d="M84.7442 77.843C82.8869 80.5057 79.7109 82.9324 76.0098 84.2697C74.1046 84.9577 69.726 84.963 67.8249 84.2777C64.1265 82.9443 60.9473 80.5283 59.0853 77.871C57.9666 76.2763 55.4348 68.6297 71.9072 68.6297C88.3749 68.6297 85.853 76.259 84.7442 77.843Z" fill="#3A3941"/>
<path d="M67.4586 84.1403C68.293 83.4389 68.6982 82.5389 68.6982 81.5576C68.6982 79.3229 66.6977 77.5123 62.0988 77.5123C60.9212 77.5123 59.9165 77.6296 59.0654 77.8429C60.8665 80.4243 63.9056 82.7776 67.4586 84.1403Z" fill="#242327"/>
<path d="M84.7438 77.843C83.8958 77.6296 82.8895 77.5123 81.7109 77.5123C77.1135 77.5123 75.1162 79.323 75.1162 81.5576C75.1162 82.539 75.5182 83.4389 76.3515 84.1416C79.9053 82.7776 82.9469 80.4243 84.7438 77.843Z" fill="#242327"/>
<path d="M79.154 70.9323C79.154 70.9323 75.6529 68.179 67.0232 70.2683C59.4508 72.1016 59.4379 76.1723 60.0655 76.2136C60.6941 76.2496 65.3122 75.1563 68.3545 77.7749C71.3956 80.4029 62.6269 72.7736 79.154 70.9323Z" fill="#4A4954"/>
</svg>
