<svg width="144" height="108" viewBox="0 0 144 108" fill="none" xmlns="http://www.w3.org/2000/svg">
<path d="M3.69725 31.5855C8.64792 39.1617 20.3572 40.6975 29.8532 35.0122C39.3559 29.3283 43.044 18.5751 38.0933 10.995C33.1453 3.42035 19.0693 -4.48365 6.21594 5.77515C-0.681395 11.2789 -1.24941 24.0059 3.69725 31.5855Z" fill="#824C37"/>
<path d="M9.99067 29.8335C13.244 34.8163 20.9427 35.824 27.1853 32.0881C33.4293 28.3512 35.8506 21.2845 32.6 16.3043C29.348 11.3231 21.168 4.94279 11.6467 12.8709C7.19199 16.5777 6.74 24.8537 9.99067 29.8335Z" fill="#D4A77C"/>
<path d="M138.757 33.5324C132.833 40.4392 121.017 40.5256 112.356 33.7215C103.7 26.9188 101.48 15.8016 107.401 8.89386C113.325 1.98692 128.34 -4.12507 139.714 7.62399C145.818 13.9324 144.68 26.6215 138.757 33.5324Z" fill="#824C37"/>
<path d="M132.746 31.0231C128.857 35.5642 121.089 35.6204 115.394 31.148C109.708 26.6762 108.246 19.3709 112.14 14.8308C116.032 10.2881 124.997 4.96575 133.38 13.9949C137.301 18.2204 136.641 26.4813 132.746 31.0231Z" fill="#D4A77C"/>
<path d="M136.561 60.6273C136.561 80.4762 124.113 107.891 72.1078 107.891C20.1051 107.891 7.65576 80.7846 7.65576 60.6273C7.65576 30.4147 36.5144 9.68195 72.1078 9.68195C107.708 9.68195 136.561 30.4147 136.561 60.6273Z" fill="#824C37"/>
<path d="M36.2227 58.9778C36.2227 60.5778 34.868 61.871 33.1987 61.871C31.528 61.871 30.1733 60.5778 30.1733 58.9778C30.1733 57.3803 31.528 56.0814 33.1987 56.0814C34.868 56.0814 36.2227 57.3803 36.2227 58.9778Z" fill="#311813"/>
<path d="M35.453 57.8216C35.453 58.3404 35.0144 58.7606 34.4744 58.7606C33.9317 58.7606 33.4917 58.3404 33.4917 57.8216C33.4917 57.3044 33.9317 56.8814 34.4744 56.8814C35.0144 56.8814 35.453 57.3044 35.453 57.8216Z" fill="white"/>
<path d="M36.2052 56.5907C35.4865 56.0002 34.6212 55.7855 33.7865 55.7642C33.3625 55.7642 32.9372 55.795 32.5199 55.8814C32.0879 55.9606 31.7292 56.071 31.3465 56.2496C30.9692 56.4204 30.6012 56.648 30.2052 56.8803C29.8039 57.1059 29.3719 57.3631 28.8639 57.4907C28.3625 57.636 27.8158 57.6256 27.3318 57.5027C26.8492 57.3726 26.4252 57.1574 26.0479 56.8814C26.9745 57.0762 27.8799 57.1455 28.5999 56.795C29.3305 56.4726 29.9852 55.8147 30.9092 55.3871C31.3558 55.1736 31.8879 55.0308 32.3719 54.9788C32.8652 54.9335 33.3705 54.9179 33.8705 55.0095C34.8545 55.1658 35.8319 55.7335 36.2052 56.5907Z" fill="#311813"/>
<path d="M27.4175 56.0814C28.0375 56.2095 28.5881 56.2335 29.1401 56.1574C29.6948 56.0923 30.2229 55.8991 30.8269 55.7059C30.4629 56.207 29.8642 56.5417 29.2108 56.6335C28.8842 56.6736 28.5468 56.6564 28.2335 56.5631C27.9228 56.4736 27.6268 56.3204 27.4175 56.0814Z" fill="#311813"/>
<path d="M28.3867 55.4522C28.7001 55.5215 28.9867 55.5136 29.2774 55.507C29.5667 55.4923 29.8534 55.4694 30.1454 55.4324C30.7254 55.371 31.3067 55.259 31.9454 55.2444C31.4414 55.6179 30.8374 55.8272 30.2054 55.907C29.8881 55.9403 29.5627 55.9428 29.2454 55.8788C28.9334 55.8147 28.6001 55.6975 28.3867 55.4522Z" fill="#311813"/>
<path d="M107.997 58.9778C107.997 60.5778 109.352 61.871 111.02 61.871C112.686 61.871 114.044 60.5778 114.044 58.9778C114.044 57.3803 112.686 56.0814 111.02 56.0814C109.352 56.0814 107.997 57.3803 107.997 58.9778Z" fill="#311813"/>
<path d="M108.768 57.8216C108.768 58.3404 109.207 58.7606 109.748 58.7606C110.288 58.7606 110.728 58.3404 110.728 57.8216C110.728 57.3044 110.288 56.8814 109.748 56.8814C109.207 56.8814 108.768 57.3044 108.768 57.8216Z" fill="white"/>
<path d="M108.012 56.5907C108.388 55.7335 109.365 55.1658 110.35 55.0095C110.846 54.9179 111.356 54.9335 111.848 54.9788C112.33 55.0308 112.862 55.1736 113.312 55.3871C114.233 55.8147 114.888 56.4726 115.617 56.795C116.34 57.1455 117.246 57.0762 118.169 56.8814C117.793 57.1574 117.364 57.3726 116.882 57.5027C116.405 57.6256 115.858 57.636 115.354 57.4907C114.845 57.3631 114.413 57.1059 114.013 56.8803C113.616 56.648 113.249 56.4204 112.876 56.2496C112.492 56.071 112.132 55.9606 111.7 55.8814C111.28 55.795 110.854 55.7642 110.433 55.7642C109.598 55.7855 108.73 56.0002 108.012 56.5907Z" fill="#311813"/>
<path d="M116.801 56.0814C116.595 56.3204 116.296 56.4736 115.988 56.5631C115.671 56.6564 115.333 56.6736 115.007 56.6335C114.355 56.5417 113.755 56.207 113.392 55.7059C113.996 55.8991 114.523 56.0923 115.077 56.1574C115.629 56.2335 116.183 56.2095 116.801 56.0814Z" fill="#311813"/>
<path d="M115.831 55.4522C115.617 55.6975 115.285 55.8147 114.973 55.8788C114.657 55.9428 114.331 55.9403 114.013 55.907C113.38 55.8272 112.78 55.6179 112.272 55.2444C112.911 55.259 113.493 55.371 114.072 55.4324C114.365 55.4694 114.655 55.4923 114.941 55.507C115.231 55.5136 115.52 55.5215 115.831 55.4522Z" fill="#311813"/>
<path d="M99.1878 73.7992C92.6732 56.3549 52.9918 53.9908 44.9745 73.7992C40.3852 85.1377 51.1865 94.9273 59.5852 95.8497C70.1638 97.0164 71.7625 92.594 72.0798 89.0456C72.3985 92.594 74.7598 97.9778 85.0612 95.4137C95.1972 92.8882 103.464 85.2497 99.1878 73.7992Z" fill="#D4A77C"/>
<path d="M82.4651 86.4216C83.2611 86.4216 83.2611 87.6002 82.4651 87.6002C81.6705 87.6002 81.6705 86.4216 82.4651 86.4216Z" fill="#311813"/>
<path d="M79.4544 87.0122C80.2464 87.0122 80.2464 88.1898 79.4544 88.1898C78.6597 88.1898 78.6597 87.0122 79.4544 87.0122Z" fill="#311813"/>
<path d="M78.077 89.0297C78.869 89.0297 78.869 90.2095 78.077 90.2095C77.2823 90.2095 77.2823 89.0297 78.077 89.0297Z" fill="#311813"/>
<path d="M81.4851 89.3205C82.2784 89.3205 82.2784 90.4965 81.4851 90.4965C80.6944 90.4965 80.6944 89.3205 81.4851 89.3205Z" fill="#311813"/>
<path d="M84.2493 88.1418C85.0439 88.1418 85.0439 89.3204 84.2493 89.3204C83.4573 89.3204 83.4573 88.1418 84.2493 88.1418Z" fill="#311813"/>
<path d="M71.9411 84.8762C72.0145 86.3043 72.3091 87.7147 72.2745 89.1726C72.2771 90.6043 71.9172 92.2002 70.8492 93.307C69.8265 94.4256 68.4651 95.1298 67.0704 95.5788C65.6718 96.0283 64.2052 96.2335 62.7518 96.2444C59.8398 96.2574 56.9225 95.6694 54.2932 94.436C51.6638 93.2283 49.3011 91.3871 47.6611 89.0298C49.5078 91.2256 51.8945 92.8871 54.4958 93.9778C57.1078 95.0403 59.9265 95.6444 62.7385 95.5683C64.1385 95.5256 65.5438 95.3574 66.8745 94.9496C68.1971 94.5444 69.4731 93.8964 70.4038 92.9016C71.3438 91.9122 71.7772 90.5642 71.8625 89.1564C71.9558 87.7522 71.8825 86.307 71.9411 84.8762Z" fill="#311813"/>
<path d="M72.1799 84.8762C72.2386 86.307 72.1679 87.7522 72.2572 89.1564C72.3426 90.5642 72.7746 91.9122 73.7186 92.9032C74.6506 93.8964 75.9239 94.5444 77.2479 94.9496C78.5799 95.3574 79.9839 95.5256 81.3865 95.5683C84.1985 95.6444 87.0119 95.0403 89.6252 93.9778C92.2279 92.8871 94.6159 91.2256 96.4626 89.0298C94.8226 91.3898 92.4572 93.2283 89.8292 94.436C87.1986 95.6694 84.2826 96.2574 81.3719 96.2444C79.9159 96.2335 78.4505 96.0283 77.0505 95.5788C75.6599 95.1298 74.2959 94.4256 73.2746 93.3084C72.2039 92.2016 71.8412 90.6043 71.8466 89.1726C71.8119 87.7147 72.1079 86.307 72.1799 84.8762Z" fill="#311813"/>
<path d="M61.7161 86.4216C60.9241 86.4216 60.9241 87.6002 61.7161 87.6002C62.5107 87.6002 62.5107 86.4216 61.7161 86.4216Z" fill="#311813"/>
<path d="M64.7293 87.0122C63.9359 87.0122 63.9359 88.1898 64.7293 88.1898C65.5226 88.1898 65.5226 87.0122 64.7293 87.0122Z" fill="#311813"/>
<path d="M66.1077 89.0297C65.3131 89.0297 65.3131 90.2095 66.1077 90.2095C66.8997 90.2095 66.8997 89.0297 66.1077 89.0297Z" fill="#311813"/>
<path d="M62.6971 89.3205C61.9011 89.3205 61.9011 90.4965 62.6971 90.4965C63.4891 90.4965 63.4891 89.3205 62.6971 89.3205Z" fill="#311813"/>
<path d="M59.9319 88.1418C59.1386 88.1418 59.1386 89.3204 59.9319 89.3204C60.7266 89.3204 60.7266 88.1418 59.9319 88.1418Z" fill="#311813"/>
<path d="M85.5626 74.7751C85.5626 79.4907 79.4653 86.9204 71.9413 86.9204C64.4213 86.9204 58.3213 79.4907 58.3213 74.7751C58.3213 70.0605 64.4213 68.9761 71.9413 68.9761C79.4653 68.9761 85.5626 70.0605 85.5626 74.7751Z" fill="#311813"/>
<path d="M61.7651 73.4736C59.1558 76.0668 62.0931 83.1991 65.8611 80.5163C66.8518 79.8111 67.4598 79.0179 68.0985 78.0016C69.1838 76.2668 70.6078 75.495 72.6318 75.0751C74.0358 74.7855 77.0665 74.548 76.9798 72.5455C76.8612 69.7147 65.2171 70.0392 61.7651 73.4736Z" fill="#572E28"/>
</svg>
