<svg width="148" height="108" viewBox="0 0 148 108" fill="none" xmlns="http://www.w3.org/2000/svg">
<path d="M3.94532 30.819C8.89332 38.3964 20.6053 39.9297 30.104 34.2457C39.6013 28.5617 43.2893 17.8097 38.3413 10.2297C33.3933 2.65369 19.3186 -5.24896 6.46397 5.00704C-0.434695 10.511 -1.00268 23.2404 3.94532 30.819Z" fill="#C96133"/>
<path d="M13.4693 32.0657C16.6146 36.883 24.0666 37.8617 30.1039 34.2457C36.1439 30.6297 38.4906 23.7923 35.3413 18.975C32.1959 14.155 24.2826 7.98166 15.0693 15.6523C10.7599 19.239 10.3213 27.2443 13.4693 32.0657Z" fill="#F3BF87"/>
<path d="M144.465 30.819C139.516 38.3964 127.808 39.9297 118.309 34.2457C108.812 28.5617 105.121 17.8097 110.069 10.2297C115.019 2.65369 129.092 -5.24896 141.947 5.00704C148.845 10.511 149.413 23.2404 144.465 30.819Z" fill="#C96133"/>
<path d="M134.944 32.0657C131.796 36.883 124.348 37.8617 118.309 34.2457C112.268 30.6297 109.921 23.7923 113.071 18.975C116.216 14.155 124.131 7.98166 133.344 15.6523C137.651 19.239 138.089 27.2443 134.944 32.0657Z" fill="#F3BF87"/>
<path d="M138.66 59.8616C138.66 79.7083 126.211 107.124 74.2053 107.124C22.2026 107.124 9.75195 80.0176 9.75195 59.8616C9.75195 29.6496 38.6106 8.91625 74.2053 8.91625C109.801 8.91625 138.66 29.6496 138.66 59.8616Z" fill="#F3BF87"/>
<path d="M37.9626 65.5643C37.9626 67.163 36.6079 68.4603 34.9372 68.4603C33.2679 68.4603 31.9146 67.163 31.9146 65.5643C31.9146 63.967 33.2679 62.6683 34.9372 62.6683C36.6079 62.6683 37.9626 63.967 37.9626 65.5643Z" fill="#311813"/>
<path d="M37.1921 64.4109C37.1921 64.9296 36.7534 65.3483 36.2121 65.3483C35.6681 65.3483 35.2334 64.9296 35.2334 64.4109C35.2334 63.8896 35.6681 63.4709 36.2121 63.4709C36.7534 63.4709 37.1921 63.8896 37.1921 64.4109Z" fill="white"/>
<path d="M37.9441 63.179C37.2254 62.5883 36.3614 62.3737 35.5228 62.3523C35.1014 62.3523 34.6788 62.3817 34.2588 62.4723C33.8281 62.5483 33.4654 62.6603 33.0854 62.839C32.7067 63.0097 32.3414 63.2363 31.9428 63.4683C31.5441 63.6937 31.1108 63.9497 30.6041 64.079C30.1028 64.223 29.5534 64.215 29.0734 64.0923C28.5921 63.9603 28.1641 63.747 27.7881 63.471C28.7108 63.6643 29.6174 63.7323 30.3414 63.383C31.0694 63.059 31.7254 62.4043 32.6494 61.9763C33.0961 61.763 33.6281 61.6163 34.1108 61.567C34.6041 61.5203 35.1108 61.5043 35.6081 61.5976C36.5948 61.755 37.5708 62.3217 37.9441 63.179Z" fill="#311813"/>
<path d="M29.1597 62.6683C29.7743 62.7989 30.3277 62.8229 30.8797 62.7496C31.4357 62.6789 31.9623 62.4883 32.5677 62.2936C32.2037 62.7936 31.6037 63.1296 30.9477 63.2229C30.6223 63.2616 30.2863 63.2443 29.9717 63.1536C29.661 63.0616 29.3663 62.9083 29.1597 62.6683Z" fill="#311813"/>
<path d="M30.1265 62.0416C30.4385 62.107 30.7265 62.1016 31.0158 62.095C31.3051 62.0803 31.5958 62.059 31.8851 62.0203C32.4665 61.9576 33.0478 61.8483 33.6865 61.831C33.1785 62.2083 32.5771 62.4163 31.9425 62.495C31.6278 62.5296 31.3025 62.531 30.9838 62.4656C30.6705 62.4043 30.3398 62.2856 30.1265 62.0416Z" fill="#311813"/>
<path d="M110.451 65.5643C110.451 67.163 111.805 68.4603 113.473 68.4603C115.145 68.4603 116.497 67.163 116.497 65.5643C116.497 63.967 115.145 62.6683 113.473 62.6683C111.805 62.6683 110.451 63.967 110.451 65.5643Z" fill="#311813"/>
<path d="M111.221 64.4109C111.221 64.9296 111.66 65.3483 112.2 65.3483C112.743 65.3483 113.18 64.9296 113.18 64.4109C113.18 63.8896 112.743 63.4709 112.2 63.4709C111.66 63.4709 111.221 63.8896 111.221 64.4109Z" fill="white"/>
<path d="M110.469 63.179C110.843 62.3217 111.821 61.755 112.805 61.5976C113.301 61.5043 113.809 61.5203 114.301 61.567C114.783 61.6163 115.319 61.763 115.764 61.9763C116.688 62.4043 117.34 63.059 118.073 63.383C118.795 63.7323 119.701 63.6643 120.624 63.471C120.248 63.747 119.82 63.9603 119.337 64.0923C118.861 64.215 118.312 64.223 117.809 64.079C117.301 63.9497 116.869 63.6937 116.469 63.4683C116.069 63.2363 115.705 63.0097 115.329 62.839C114.944 62.6603 114.587 62.5483 114.152 62.4723C113.733 62.3817 113.308 62.3523 112.888 62.3523C112.052 62.3737 111.184 62.5883 110.469 63.179Z" fill="#311813"/>
<path d="M119.254 62.6683C119.049 62.9083 118.75 63.0616 118.441 63.1536C118.126 63.2443 117.788 63.2616 117.462 63.2229C116.808 63.1296 116.21 62.7936 115.844 62.2936C116.449 62.4883 116.976 62.6789 117.53 62.7496C118.084 62.8229 118.638 62.7989 119.254 62.6683Z" fill="#311813"/>
<path d="M118.284 62.0416C118.073 62.2856 117.741 62.4043 117.429 62.4656C117.109 62.531 116.784 62.5296 116.467 62.495C115.837 62.4163 115.233 62.2083 114.724 61.831C115.365 61.8483 115.945 61.9576 116.527 62.0203C116.817 62.059 117.107 62.0803 117.392 62.095C117.685 62.1016 117.975 62.107 118.284 62.0416Z" fill="#311813"/>
<path d="M41.7706 91.0336C36.7733 91.0336 32.7173 87.1522 32.7173 82.3642C32.7173 77.5776 36.7733 73.6976 41.7706 73.6976C46.772 73.6976 50.824 77.5776 50.824 82.3642C50.824 87.1522 46.772 91.0336 41.7706 91.0336Z" fill="#CD8863"/>
<path d="M106.643 91.0336C101.641 91.0336 97.5894 87.1522 97.5894 82.3642C97.5894 77.5776 101.641 73.6976 106.643 73.6976C111.641 73.6976 115.693 77.5776 115.693 82.3642C115.693 87.1522 111.641 91.0336 106.643 91.0336Z" fill="#CD8863"/>
<path d="M64.3254 75.7377H83.8347C91.7094 51.5297 107.112 22.6737 127.941 30.8097C116.397 17.1563 96.6414 8.91634 74.2054 8.91634C51.7707 8.91634 32.0134 17.1563 20.4707 30.8097C40.124 21.3097 56.0614 51.0123 64.3254 75.7377Z" fill="#C96133"/>
<path d="M79.5264 93.5816H79.4997C77.5064 93.5816 76.2077 92.2883 75.2157 91.1563L75.049 90.8829C75.0264 90.7509 75.0104 90.6149 74.9717 90.4829C74.9304 90.3403 74.8517 90.2376 74.753 90.1576C74.5224 89.491 74.309 88.7163 74.209 88.4603V90.0203L74.2037 90.023V88.4603C74.0344 88.8843 73.573 90.7256 73.1957 91.1563C72.2037 92.2883 70.9037 93.5816 68.9104 93.5816H68.8864C68.505 93.5816 68.165 93.9029 67.8384 93.8389V94.7349C67.8384 95.8789 68.9717 99.9363 74.2037 99.9363C79.4304 99.9363 80.5717 95.8789 80.5717 94.7349V93.8389C80.245 93.9029 79.905 93.5816 79.5264 93.5816Z" fill="#E9E9E9"/>
<path d="M74.1854 88.4603C74.2614 90.375 74.2414 92.2856 74.2721 94.1989C74.2414 96.1109 74.2614 98.0229 74.1854 99.9363C74.1107 98.0229 74.1308 96.1109 74.1001 94.1989C74.1308 92.2856 74.1107 90.375 74.1854 88.4603Z" fill="#BDBCBC"/>
<path d="M84.5824 87.8736C85.3744 87.8736 85.3744 89.0509 84.5824 89.0509C83.7864 89.0509 83.7864 87.8736 84.5824 87.8736Z" fill="#311813"/>
<path d="M81.5691 88.4603C82.3611 88.4603 82.3611 89.6403 81.5691 89.6403C80.7745 89.6403 80.7745 88.4603 81.5691 88.4603Z" fill="#311813"/>
<path d="M80.1922 90.4816C80.9842 90.4816 80.9842 91.6589 80.1922 91.6589C79.3988 91.6589 79.3988 90.4816 80.1922 90.4816Z" fill="#311813"/>
<path d="M83.6023 90.7696C84.397 90.7696 84.397 91.9469 83.6023 91.9469C82.809 91.9469 82.809 90.7696 83.6023 90.7696Z" fill="#311813"/>
<path d="M86.365 89.591C87.1584 89.591 87.1584 90.7697 86.365 90.7697C85.5704 90.7697 85.5704 89.591 86.365 89.591Z" fill="#311813"/>
<path d="M74.0571 83.6029C74.2051 85.9309 74.8464 88.3803 73.8357 90.7416C73.3024 91.8949 72.3451 92.7909 71.2624 93.3829C70.1731 93.9763 68.9691 94.3136 67.7544 94.4363C65.3304 94.6496 62.8357 94.2083 60.7064 93.0283C59.6464 92.4389 58.6771 91.6669 57.9304 90.7123C57.1944 89.7496 56.6904 88.6163 56.5317 87.4363C57.1117 89.7656 58.8797 91.5669 60.9477 92.5696C63.0264 93.5749 65.3944 94.0123 67.6824 93.7523C69.9277 93.5376 72.2984 92.5456 73.3144 90.5003C73.8424 89.4989 73.9838 88.3229 74.0131 87.1563C74.0598 85.9803 73.9771 84.7883 74.0571 83.6029Z" fill="#311813"/>
<path d="M74.3826 83.6029C74.5373 85.9443 74.084 88.4469 75.128 90.5003C76.144 92.5456 78.5133 93.5376 80.7573 93.7523C83.0466 94.0123 85.4146 93.5749 87.4933 92.5696C89.5613 91.5669 91.3293 89.7656 91.9106 87.4363C91.752 88.6163 91.2453 89.7496 90.512 90.7123C89.764 91.6669 88.7946 92.4389 87.736 93.0283C85.604 94.2083 83.1106 94.6496 80.6853 94.4363C79.4733 94.3136 78.268 93.9763 77.1787 93.3829C76.0947 92.7909 75.1413 91.8949 74.604 90.7416C73.5933 88.3803 74.2333 85.9296 74.3826 83.6029Z" fill="#311813"/>
<path d="M63.8318 87.8736C63.0385 87.8736 63.0385 89.0509 63.8318 89.0509C64.6265 89.0509 64.6265 87.8736 63.8318 87.8736Z" fill="#311813"/>
<path d="M66.844 88.4603C66.052 88.4603 66.052 89.6403 66.844 89.6403C67.6373 89.6403 67.6373 88.4603 66.844 88.4603Z" fill="#311813"/>
<path d="M68.22 90.4816C67.4293 90.4816 67.4293 91.6589 68.22 91.6589C69.0133 91.6589 69.0133 90.4816 68.22 90.4816Z" fill="#311813"/>
<path d="M64.8104 90.7696C64.0157 90.7696 64.0157 91.9469 64.8104 91.9469C65.601 91.9469 65.601 90.7696 64.8104 90.7696Z" fill="#311813"/>
<path d="M62.0467 89.591C61.2507 89.591 61.2507 90.7697 62.0467 90.7697C62.8414 90.7697 62.8414 89.591 62.0467 89.591Z" fill="#311813"/>
<path d="M84.5225 77.4962C84.5225 81.1216 79.8371 86.8282 74.0571 86.8282C68.2771 86.8282 63.5918 81.1216 63.5918 77.4962C63.5918 73.8749 68.2771 73.0429 74.0571 73.0429C79.8371 73.0429 84.5225 73.8749 84.5225 77.4962Z" fill="#311813"/>
<path d="M66.2388 76.4976C64.2335 78.4909 66.4908 83.9683 69.3828 81.9109C70.1481 81.3669 70.6135 80.7589 71.1028 79.9789C71.9388 78.6429 73.0308 78.0496 74.5895 77.7269C75.6655 77.5043 77.9935 77.3243 77.9295 75.7843C77.8375 73.6096 68.8895 73.8589 66.2388 76.4976Z" fill="#572E28"/>
</svg>
