<svg width="177" height="153" viewBox="0 0 177 153" fill="none" xmlns="http://www.w3.org/2000/svg">
<path d="M174.376 83.439C175.021 82.1683 175.398 80.755 175.398 79.2457C175.398 78.0537 175.161 76.9163 174.746 75.8643C175.882 73.759 175.936 70.8284 174.882 68.747C175.674 67.3097 176.134 65.6763 176.134 63.9377C176.134 60.4177 174.298 57.319 171.498 55.4484C171.577 52.807 170.676 49.9083 169.05 47.7377C169.188 47.0857 169.272 46.415 169.272 45.7257C169.272 40.639 165.434 36.419 160.381 35.5484C159.418 32.7657 157.21 30.179 154.717 29.2003C154.344 27.563 153.554 26.0844 152.486 24.8417C152.5 23.0204 151.844 21.1083 150.314 19.2337C148.678 17.223 146.478 15.8457 144.214 15.3777C142.841 12.8257 140.093 11.067 136.889 11.067C135.666 11.067 134.512 11.3297 133.47 11.7897C132.733 10.2083 131.64 8.82167 130.2 7.86166C128.764 6.903 126.861 6.60034 124.986 6.80034C122.709 4.73901 119.058 3.32036 115.645 3.24568C115.024 2.60703 114.296 2.05501 113.434 1.63768C111.377 0.64035 108.738 0.932358 106.498 2.01236C102.224 0.141693 96.8264 0.0456848 93.5117 2.80969C92.889 2.83368 92.2717 2.9017 91.6784 3.02036C90.3104 2.1097 88.7131 1.50967 87.0024 1.367C84.785 1.18834 82.0343 1.88034 79.865 3.22433C79.1263 2.92433 78.3437 2.69635 77.5544 2.50435C75.7411 1.05101 73.337 0.208344 70.4584 0.296341C67.2344 0.396332 64.7504 1.75237 63.1597 3.78569C62.8891 3.74969 62.6184 3.71501 62.325 3.69768C62.225 3.69234 62.1264 3.69366 62.0264 3.69366C61.9624 3.69501 61.8984 3.69633 61.833 3.69501C61.0904 3.21367 60.2464 2.81636 59.2864 2.54836C55.353 1.44435 49.6984 4.10168 48.2544 7.64302C45.5877 8.33235 43.3277 9.97368 41.9037 12.1657C40.8437 12.0203 39.7691 11.9803 38.6291 12.2217C36.7864 12.611 34.7357 13.9937 33.9931 15.6963C33.6211 16.5417 33.4651 17.4097 33.4597 18.2803C31.8917 19.1377 30.6544 20.471 29.9424 22.067C27.3504 21.9737 24.9011 22.8123 23.4571 25.323C23.0384 26.0603 22.7624 26.8764 22.6024 27.7177C21.2824 28.7937 20.4211 30.375 20.4211 32.1657C17.4397 31.743 14.5397 31.947 13.4517 35.3817C13.1664 36.291 13.1664 37.2377 13.369 38.1897C11.397 39.9603 10.133 42.4243 9.9837 45.175C6.39836 46.2323 3.27171 48.2657 2.79437 52.303C2.49437 54.8123 3.19836 57.015 4.55036 58.7617C3.62103 60.2857 3.08239 62.0483 3.08239 63.9377C3.08239 65.127 3.30236 66.263 3.68103 67.3243C1.90236 68.707 1.01035 72.7683 0.934346 74.1804C0.758346 77.2417 1.93306 79.4217 3.91306 80.5484C4.07706 81.695 4.45174 82.7683 4.99574 83.747C4.47574 84.8217 4.37972 86.2043 4.70772 87.6883C4.93572 88.7523 5.36368 89.799 5.93702 90.771C5.28235 92.1043 4.90902 93.5897 4.90902 95.1577C4.90902 98.1457 6.23573 100.831 8.35707 102.718C6.9024 104.272 6.28502 106.266 7.67569 108.448C8.35702 109.52 9.33968 110.27 10.465 110.771C9.85834 112.66 10.5877 115.096 12.0464 116.963C13.1531 118.382 14.5197 119.367 15.981 119.907C16.949 123.988 20.6197 127.086 25.101 127.38C26.0903 129.076 27.6863 130.663 28.837 131.486C31.1863 133.158 33.7117 133.934 35.9437 133.656C36.9331 136.223 38.9771 138.28 41.5717 139.394C42.0024 141.408 43.8637 143.174 46.6584 144.176C49.293 145.123 52.2704 145.118 54.569 144.079C56.3704 145.458 58.6584 146.287 61.1357 146.287C64.2184 146.287 66.9824 145.012 68.917 142.998C70.0064 145.411 72.5157 147.103 75.4411 147.103C77.7664 147.103 79.8117 146.018 81.1104 144.37C81.7757 147.471 84.6424 149.81 88.0797 149.81C90.3744 149.81 92.3917 148.752 93.6904 147.142C95.3357 150.564 98.9423 152.946 103.132 152.946C106.504 152.946 109.48 151.4 111.384 149.018C112.876 149.532 114.449 149.792 115.969 149.672C116.426 149.638 116.828 149.558 117.185 149.432C117.828 149.587 118.486 149.667 119.174 149.667C122.266 149.667 124.956 148.051 126.39 145.656C129.05 146.192 132.216 145.46 133.736 143.615L133.825 143.619C139.125 143.619 143.492 139.891 144.257 135.035C146.164 135.24 148.054 134.682 149.584 132.856C150.744 131.475 151.758 129.427 152.213 127.318C152.61 127.362 153.009 127.41 153.422 127.41C158.262 127.41 162.306 124.135 163.276 119.772C163.946 119.523 164.562 119.112 165.064 118.483C165.962 117.356 166.408 115.779 166.386 114.198C168.633 113.85 170.316 112.326 170.506 109.356C170.601 107.767 170.104 105.554 168.962 104.07C172.154 102.275 174.313 98.9657 174.313 95.1577C174.313 94.5683 174.241 93.999 174.148 93.4377C176.63 90.4203 176.926 85.1657 174.376 83.439Z" fill="#C54A20"/>
<path d="M136.392 66.995C153.645 64.0177 142.439 25.4043 139.845 33.6457C137.241 41.8897 117.293 37.571 118.093 50.5363C125.515 53.9883 131.265 61.6643 136.392 66.995Z" fill="#F08C2B"/>
<path d="M134.802 61.9576C145.818 62.8256 144.142 31.9056 140.662 40.3176C138.068 46.6003 123.926 41.6736 120.873 51.9083C126.161 54.7016 130.78 58.127 134.802 61.9576Z" fill="#F2D7BB"/>
<path d="M40.8558 66.995C23.6052 64.0177 34.8091 25.4043 37.4065 33.6457C40.0038 41.8897 59.9598 37.571 59.1585 50.5363C51.7358 53.9883 45.9878 61.6643 40.8558 66.995Z" fill="#F08C2B"/>
<path d="M42.4452 61.9576C31.4332 62.8256 33.1066 31.9056 36.5879 40.3176C39.1852 46.6003 53.3212 41.6736 56.3759 51.9083C51.0905 54.7016 46.4625 58.127 42.4452 61.9576Z" fill="#F2D7BB"/>
<path d="M140.829 102.223C140.829 115.252 123.121 140.476 88.6599 140.476C54.2106 140.476 36.4985 114.98 36.4985 102.223C36.4985 89.4656 47.2466 48.627 88.6599 48.627C130.083 48.627 140.829 89.195 140.829 102.223Z" fill="#F08C2B"/>
<path d="M118.579 112.488C111.784 100.912 95.5735 109.554 87.8548 109.554C80.1282 109.554 65.5775 99.3842 57.9948 111.33C53.2802 118.759 58.0322 135.826 87.8548 135.826C117.675 135.826 125.375 124.063 118.579 112.488Z" fill="#F2D2AA"/>
<path d="M69.3238 94.6723C69.3238 96.9816 67.3665 98.8536 64.9518 98.8536C62.5452 98.8536 60.5918 96.9816 60.5918 94.6723C60.5918 92.3656 62.5452 90.4909 64.9518 90.4909C67.3665 90.4909 69.3238 92.3656 69.3238 94.6723Z" fill="#FFFBFD"/>
<path d="M64.0893 95.175C63.608 95.175 63.2187 94.803 63.2187 94.3457C63.2187 93.8843 63.608 93.5083 64.0893 93.5083C64.5666 93.5083 64.952 93.8843 64.952 94.3457C64.952 94.803 64.5666 95.175 64.0893 95.175ZM63.6706 96.2137C63.4253 96.2137 63.2226 96.0203 63.2226 95.787C63.2226 95.551 63.4253 95.3603 63.6706 95.3603C63.9146 95.3603 64.1146 95.551 64.1146 95.787C64.1146 96.0203 63.9146 96.2137 63.6706 96.2137ZM64.8853 92.9963C63.2813 92.9963 62.5093 94.119 62.5093 95.2737C62.5093 96.5323 63.5707 97.5483 64.8853 97.5483C66.2 97.5483 67.2666 96.5323 67.2666 95.2737C67.2666 94.015 66.2 92.9963 64.8853 92.9963Z" fill="#212121"/>
<path d="M58.5904 90.703C58.5624 90.703 58.533 90.7003 58.5036 90.695C58.2343 90.647 58.053 90.3897 58.101 90.1204C58.4516 88.091 60.217 86.6657 62.4036 86.6657C62.4116 86.6657 62.421 86.6657 62.429 86.6657C63.033 86.6657 63.6704 86.7697 64.321 86.9923C64.5797 87.0803 64.7183 87.363 64.6303 87.6217C64.5597 87.8283 64.3664 87.9577 64.1597 87.9577C64.1077 87.9577 64.053 87.9497 64.001 87.931C63.4463 87.743 62.9197 87.6577 62.429 87.6577C60.649 87.6683 59.3596 88.7403 59.0783 90.2923C59.0356 90.5337 58.8264 90.703 58.5904 90.703Z" fill="#54391C"/>
<path d="M108.001 94.6723C108.001 96.9816 109.957 98.8536 112.369 98.8536C114.783 98.8536 116.732 96.9816 116.732 94.6723C116.732 92.3656 114.783 90.4909 112.369 90.4909C109.957 90.4909 108.001 92.3656 108.001 94.6723Z" fill="#FFFBFD"/>
<path d="M112.369 94.3457C112.369 93.8843 112.757 93.5083 113.236 93.5083C113.72 93.5083 114.106 93.8843 114.106 94.3457C114.106 94.803 113.72 95.175 113.236 95.175C112.757 95.175 112.369 94.803 112.369 94.3457ZM113.213 95.787C113.213 95.551 113.414 95.3603 113.654 95.3603C113.901 95.3603 114.1 95.551 114.1 95.787C114.1 96.0203 113.901 96.2137 113.654 96.2137C113.414 96.2137 113.213 96.0203 113.213 95.787ZM110.065 95.2737C110.065 96.5323 111.125 97.5483 112.44 97.5483C113.756 97.5483 114.82 96.5323 114.82 95.2737C114.82 94.119 114.044 92.9963 112.44 92.9963C111.125 92.9963 110.065 94.015 110.065 95.2737Z" fill="#212121"/>
<path d="M118.741 90.703C118.505 90.703 118.296 90.5337 118.253 90.2937C117.965 88.7403 116.677 87.6683 114.899 87.6577C114.408 87.6577 113.881 87.743 113.331 87.931C113.277 87.9497 113.223 87.9577 113.169 87.9577C112.964 87.9577 112.771 87.8283 112.7 87.623C112.612 87.363 112.749 87.0803 113.009 86.9923C113.657 86.7697 114.295 86.6657 114.899 86.6657C114.907 86.6657 114.916 86.6657 114.924 86.6657C117.109 86.6657 118.872 88.091 119.229 90.119C119.277 90.3884 119.099 90.6457 118.829 90.695C118.8 90.7003 118.771 90.703 118.741 90.703Z" fill="#54391C"/>
<path d="M79.0239 126.899C79.0532 126.963 79.3492 127.575 80.1158 128.186C80.8785 128.798 82.1225 129.383 83.9212 129.379C85.2505 129.379 86.8785 129.068 88.8718 128.26C89.1225 128.159 89.2852 127.918 89.2852 127.648V116.463C89.2852 116.098 88.9892 115.802 88.6239 115.802C88.2585 115.802 87.9625 116.098 87.9625 116.463V127.648H88.6239L88.3758 127.035C86.5038 127.794 85.0425 128.056 83.9212 128.056C82.4012 128.054 81.4958 127.588 80.9398 127.151C80.6625 126.931 80.4758 126.714 80.3612 126.558L80.2438 126.378L80.2212 126.338L80.1798 126.359L80.2225 126.339L80.2212 126.338L80.1798 126.359L80.2225 126.339C80.0678 126.008 79.6731 125.866 79.3425 126.02C79.0118 126.174 78.8692 126.568 79.0239 126.899Z" fill="#1C0B0F"/>
<path d="M97.076 126.346H97.0747C97.0467 126.404 96.8027 126.858 96.2414 127.286C95.6774 127.714 94.804 128.135 93.404 128.139C92.2827 128.139 90.8174 127.858 88.9361 127.042L88.6721 127.648H89.3334V116.463C89.3334 116.098 89.0374 115.802 88.6721 115.802C88.3067 115.802 88.0107 116.098 88.0107 116.463V127.648C88.0107 127.911 88.168 128.15 88.4094 128.255C90.4174 129.127 92.0614 129.462 93.404 129.462C95.192 129.466 96.4334 128.852 97.1934 128.219C97.9561 127.586 98.2507 126.954 98.2801 126.894C98.4307 126.56 98.2841 126.168 97.9521 126.018C97.6188 125.866 97.2267 126.012 97.076 126.346Z" fill="#1C0B0F"/>
<path d="M66.0907 115.106C66.0907 115.512 65.7413 115.842 65.3173 115.842C64.8933 115.842 64.5493 115.512 64.5493 115.106C64.5493 114.696 64.8933 114.366 65.3173 114.366C65.7413 114.366 66.0907 114.696 66.0907 115.106Z" fill="#1C0B0F"/>
<path d="M71.4735 114.686C71.4735 115.096 71.1295 115.426 70.7002 115.426C70.2802 115.426 69.9321 115.096 69.9321 114.686C69.9321 114.282 70.2802 113.952 70.7002 113.952C71.1295 113.952 71.4735 114.282 71.4735 114.686Z" fill="#1C0B0F"/>
<path d="M68.9427 118.459C68.9427 118.87 68.6014 119.198 68.1761 119.198C67.7521 119.198 67.4067 118.87 67.4067 118.459C67.4067 118.052 67.7521 117.723 68.1761 117.723C68.6014 117.723 68.9427 118.052 68.9427 118.459Z" fill="#1C0B0F"/>
<path d="M67.4064 122.472C67.4064 122.88 67.0611 123.21 66.6371 123.21C66.2117 123.21 65.8638 122.88 65.8638 122.472C65.8638 122.064 66.2117 121.731 66.6371 121.731C67.0611 121.731 67.4064 122.064 67.4064 122.472Z" fill="#1C0B0F"/>
<path d="M73.8159 121.898C73.8159 122.304 73.4705 122.632 73.0412 122.632C72.6185 122.632 72.2705 122.304 72.2705 121.898C72.2705 121.487 72.6185 121.158 73.0412 121.158C73.4705 121.158 73.8159 121.487 73.8159 121.898Z" fill="#1C0B0F"/>
<path d="M64.3172 119.936C64.3172 120.343 63.9746 120.674 63.5532 120.674C63.1199 120.674 62.7759 120.343 62.7759 119.936C62.7759 119.528 63.1199 119.198 63.5532 119.198C63.9746 119.198 64.3172 119.528 64.3172 119.936Z" fill="#1C0B0F"/>
<path d="M74.4308 117.848C74.4308 118.255 74.0842 118.586 73.6562 118.586C73.2322 118.586 72.8882 118.255 72.8882 117.848C72.8882 117.442 73.2322 117.11 73.6562 117.11C74.0842 117.11 74.4308 117.442 74.4308 117.848Z" fill="#1C0B0F"/>
<path d="M105.761 115.724C105.761 116.131 105.416 116.459 104.988 116.459C104.564 116.459 104.214 116.131 104.214 115.724C104.214 115.315 104.564 114.984 104.988 114.984C105.416 114.984 105.761 115.315 105.761 115.724Z" fill="#1C0B0F"/>
<path d="M111.148 115.307C111.148 115.714 110.796 116.044 110.377 116.044C109.952 116.044 109.608 115.714 109.608 115.307C109.608 114.899 109.952 114.57 110.377 114.57C110.796 114.57 111.148 114.899 111.148 115.307Z" fill="#1C0B0F"/>
<path d="M108.617 119.08C108.617 119.49 108.273 119.818 107.845 119.818C107.421 119.818 107.075 119.49 107.075 119.08C107.075 118.672 107.421 118.343 107.845 118.343C108.273 118.343 108.617 118.672 108.617 119.08Z" fill="#1C0B0F"/>
<path d="M107.074 123.091C107.074 123.496 106.736 123.826 106.309 123.826C105.882 123.826 105.536 123.496 105.536 123.091C105.536 122.682 105.882 122.354 106.309 122.354C106.736 122.354 107.074 122.682 107.074 123.091Z" fill="#1C0B0F"/>
<path d="M113.488 122.514C113.488 122.922 113.145 123.251 112.719 123.251C112.288 123.251 111.947 122.922 111.947 122.514C111.947 122.104 112.288 121.772 112.719 121.772C113.145 121.772 113.488 122.104 113.488 122.514Z" fill="#1C0B0F"/>
<path d="M103.993 120.555C103.993 120.964 103.644 121.292 103.22 121.292C102.797 121.292 102.449 120.964 102.449 120.555C102.449 120.148 102.797 119.818 103.22 119.818C103.644 119.818 103.993 120.148 103.993 120.555Z" fill="#1C0B0F"/>
<path d="M114.1 118.466C114.1 118.876 113.756 119.203 113.328 119.203C112.907 119.203 112.559 118.876 112.559 118.466C112.559 118.059 112.907 117.728 113.328 117.728C113.756 117.728 114.1 118.059 114.1 118.466Z" fill="#1C0B0F"/>
<path d="M74.4706 59.3416C84.7226 66.0376 81.4772 75.8722 78.9119 85.8469C76.3506 95.8203 73.8799 107.964 73.8799 107.964L88.66 107.278L103.452 107.964C103.452 107.964 100.977 95.8203 98.4119 85.8469C95.8493 75.8722 92.6013 66.0376 102.853 59.3416C107.525 56.2896 112.197 55.8096 115.905 56.1882C108.792 51.6069 99.8613 48.6269 88.66 48.6269C77.5066 48.6269 68.5986 51.6043 61.5039 56.1816C65.1959 55.8176 69.8359 56.3122 74.4706 59.3416Z" fill="#B65921"/>
<path d="M103.549 109.168C103.549 114.108 95.0413 121.848 87.9533 121.848C80.864 121.848 73.7773 114.108 73.7773 109.168C73.7773 104.226 77.9627 103.955 83.124 103.955H94.2053C99.364 103.955 103.549 104.226 103.549 109.168Z" fill="#1C0B0F"/>
</svg>
