<svg width="162" height="107" viewBox="0 0 162 107" fill="none" xmlns="http://www.w3.org/2000/svg">
<path d="M18.9527 44.595C24.0073 52.111 33.006 47.5964 41.2153 40.2977C49.418 32.999 55.634 27.979 49.3233 21.3924C39.8153 11.479 5.86465 -3.3303 1.28198 1.3377C-3.30068 6.01103 10.7753 32.4337 18.9527 44.595Z" fill="#F14926"/>
<path d="M24.4471 41.1629C28.4871 45.3269 35.9938 44.9389 41.2151 40.2976C46.4311 35.6562 47.3885 28.5176 43.3485 24.3536C39.3058 20.1883 16.5498 12.0176 13.9698 14.3149C11.3912 16.6109 20.4071 36.9962 24.4471 41.1629Z" fill="#DEDFB5"/>
<path d="M142.863 44.595C137.81 52.111 128.809 47.5964 120.602 40.2977C112.394 32.999 106.181 27.979 112.495 21.3924C121.999 11.479 155.949 -3.3303 160.53 1.3377C165.115 6.01103 151.039 32.4337 142.863 44.595Z" fill="#F14926"/>
<path d="M137.366 41.1629C133.329 45.3269 125.822 44.9389 120.602 40.2976C115.381 35.6562 114.428 28.5176 118.468 24.3536C122.506 20.1883 145.268 12.0176 147.846 14.3149C150.421 16.6109 141.408 36.9962 137.366 41.1629Z" fill="#DEDFB5"/>
<path d="M145.005 55.727C131.645 88.9924 96.1285 102.722 80.5512 102.722C64.9725 102.722 29.2046 91.4097 16.0992 55.727C4.48056 24.0924 44.8419 20.679 80.4392 20.679C116.035 20.679 157.179 25.4057 145.005 55.727Z" fill="#DEDFB5"/>
<path d="M81.5887 102.676C82.094 102.634 82.6127 102.559 83.15 102.452C87.4247 50.8044 123.507 48.9177 146.079 39.4124C139.681 23.5804 108.397 17.5004 80.514 17.5004C52.3327 17.5004 21.1714 22.823 15.1714 39.4097C37.7341 48.943 73.966 50.9044 78.25 102.5C78.7607 102.591 79.2567 102.651 79.7327 102.687C80.0127 102.704 80.2887 102.72 80.5594 102.722H80.614C80.9314 102.722 81.262 102.7 81.5887 102.676Z" fill="#F14926"/>
<path d="M91.9623 96.115C91.9623 100.042 86.8863 106.223 80.6263 106.223C74.3636 106.223 69.2876 100.042 69.2876 96.115C69.2876 92.1924 74.3636 91.2897 80.6263 91.2897C86.8863 91.2897 91.9623 92.1924 91.9623 96.115Z" fill="#311813"/>
<path d="M72.1556 95.0337C69.9836 97.1924 72.4302 103.124 75.5596 100.894C76.3916 100.31 76.8942 99.647 77.4236 98.803C78.3289 97.3564 79.5156 96.715 81.1996 96.3644C82.3689 96.123 84.8916 95.9283 84.8182 94.259C84.7196 91.9043 75.0302 92.1737 72.1556 95.0337Z" fill="#572E28"/>
<path d="M45.5167 74.2284C45.5167 75.8271 44.1661 77.1244 42.4967 77.1244C40.8261 77.1244 39.4688 75.8271 39.4688 74.2284C39.4688 72.6297 40.8261 71.3351 42.4967 71.3351C44.1661 71.3351 45.5167 72.6297 45.5167 74.2284Z" fill="#311813"/>
<path d="M44.7499 73.0763C44.7499 73.5937 44.3113 74.0123 43.7699 74.0123C43.2259 74.0123 42.7886 73.5937 42.7886 73.0763C42.7886 72.5563 43.2259 72.135 43.7699 72.135C44.3113 72.135 44.7499 72.5563 44.7499 73.0763Z" fill="white"/>
<path d="M45.4995 71.8456C44.7822 71.2536 43.9195 71.0376 43.0808 71.0176C42.6582 71.0176 42.2355 71.0483 41.8142 71.1376C41.3835 71.2123 41.0235 71.3256 40.6422 71.5003C40.2622 71.6736 39.9008 71.9016 39.5008 72.1323C39.1008 72.3576 38.6675 72.6136 38.1595 72.7443C37.6568 72.8883 37.1115 72.8803 36.6302 72.7576C36.1502 72.6269 35.7195 72.4136 35.3462 72.1349C36.2675 72.3296 37.1742 72.3963 37.8968 72.0483C38.6275 71.723 39.2795 71.0696 40.2049 70.6403C40.6529 70.4269 41.1848 70.2829 41.6675 70.2309C42.1608 70.1883 42.6662 70.1683 43.1648 70.2643C44.1515 70.4216 45.1262 70.987 45.4995 71.8456Z" fill="#311813"/>
<path d="M36.7129 71.335C37.3316 71.463 37.8835 71.4897 38.4369 71.411C38.9915 71.343 39.5182 71.1537 40.1209 70.959C39.7609 71.4603 39.1595 71.795 38.5049 71.8857C38.1795 71.9244 37.8435 71.911 37.5289 71.8177C37.2195 71.7257 36.9249 71.5724 36.7129 71.335Z" fill="#311813"/>
<path d="M37.6846 70.7084C37.9939 70.7724 38.2833 70.7684 38.5739 70.7604C38.8633 70.747 39.1526 70.7231 39.4406 70.6857C40.0219 70.6244 40.6033 70.5124 41.2446 70.4964C40.7379 70.871 40.1326 71.079 39.5019 71.1604C39.1846 71.1937 38.8593 71.1977 38.5406 71.1297C38.2273 71.0697 37.8966 70.9524 37.6846 70.7084Z" fill="#311813"/>
<path d="M115.733 74.2284C115.733 75.8271 117.088 77.1244 118.756 77.1244C120.426 77.1244 121.78 75.8271 121.78 74.2284C121.78 72.6297 120.426 71.3351 118.756 71.3351C117.088 71.3351 115.733 72.6297 115.733 74.2284Z" fill="#311813"/>
<path d="M116.502 73.0763C116.502 73.5937 116.941 74.0123 117.483 74.0123C118.023 74.0123 118.463 73.5937 118.463 73.0763C118.463 72.5563 118.023 72.135 117.483 72.135C116.941 72.135 116.502 72.5563 116.502 73.0763Z" fill="white"/>
<path d="M115.749 71.8456C116.122 70.987 117.101 70.4216 118.085 70.2643C118.583 70.1683 119.089 70.1883 119.583 70.2309C120.063 70.2829 120.601 70.4269 121.046 70.6403C121.97 71.0696 122.623 71.723 123.354 72.0483C124.077 72.3963 124.982 72.3296 125.903 72.1349C125.53 72.4136 125.103 72.6269 124.621 72.7576C124.142 72.8803 123.594 72.8883 123.093 72.7443C122.583 72.6136 122.15 72.3576 121.751 72.1323C121.35 71.9016 120.989 71.6736 120.609 71.5003C120.226 71.3256 119.87 71.2123 119.437 71.1376C119.014 71.0483 118.591 71.0176 118.167 71.0176C117.334 71.0376 116.467 71.2536 115.749 71.8456Z" fill="#311813"/>
<path d="M124.538 71.335C124.33 71.5724 124.034 71.7257 123.719 71.8177C123.407 71.911 123.067 71.9244 122.745 71.8857C122.093 71.795 121.493 71.4603 121.127 70.959C121.73 71.1537 122.259 71.343 122.811 71.411C123.367 71.4897 123.918 71.463 124.538 71.335Z" fill="#311813"/>
<path d="M123.565 70.7084C123.354 70.9524 123.025 71.0697 122.712 71.1297C122.39 71.1977 122.066 71.1937 121.75 71.1604C121.121 71.079 120.514 70.871 120.005 70.4964C120.649 70.5124 121.228 70.6244 121.81 70.6857C122.1 70.7231 122.386 70.747 122.677 70.7604C122.968 70.7684 123.257 70.7724 123.565 70.7084Z" fill="#311813"/>
<path d="M105.686 95.9576C104.779 94.6096 104.251 93.011 104.251 91.2896C104.251 86.5016 108.303 82.6216 113.305 82.6216C116.534 82.6216 119.361 84.247 120.965 86.683C115.97 90.483 110.759 93.555 105.686 95.9576Z" fill="#EAB69C"/>
<path d="M54.2328 96.1483C49.1261 93.8043 43.9102 90.7496 38.9448 86.8936C40.5208 84.3416 43.4141 82.6216 46.7368 82.6216C51.7395 82.6216 55.7901 86.5016 55.7901 91.2896C55.7901 93.091 55.2168 94.763 54.2328 96.1483Z" fill="#EAB69C"/>
</svg>
