<svg width="148" height="108" viewBox="0 0 148 108" fill="none" xmlns="http://www.w3.org/2000/svg">
<path d="M4.00955 30.807C8.95741 38.383 20.6653 39.919 30.1658 34.2337C39.6637 28.5497 43.3517 17.799 38.4038 10.219C33.4564 2.64434 19.383 -5.26232 6.52728 4.99635C-0.372323 10.5003 -0.940989 23.227 4.00955 30.807Z" fill="#A76B49"/>
<path d="M13.5309 32.0549C16.6788 36.8736 24.1252 37.8509 30.1658 34.2336C36.2064 30.6203 38.5538 23.7829 35.4033 18.9629C32.2569 14.1443 24.344 7.97094 15.133 15.6403C10.823 19.2283 10.3834 27.2349 13.5309 32.0549Z" fill="#D4A77C"/>
<path d="M144.53 30.807C139.581 38.383 127.87 39.919 118.369 34.2337C108.87 28.5497 105.185 17.799 110.133 10.219C115.08 2.64434 129.154 -5.26232 142.01 4.99635C148.91 10.5003 149.478 23.227 144.53 30.807Z" fill="#A76B49"/>
<path d="M135.004 32.0549C131.859 36.8736 124.412 37.8509 118.369 34.2336C112.332 30.6203 109.985 23.7829 113.132 18.9629C116.28 14.1443 124.192 7.97094 133.404 15.6403C137.715 19.2283 138.153 27.2349 135.004 32.0549Z" fill="#D4A77C"/>
<path d="M138.721 59.8483C138.721 79.6963 126.271 107.111 74.268 107.111C22.2628 107.111 9.81445 80.007 9.81445 59.8483C9.81445 29.639 38.6732 8.90559 74.268 8.90559C109.866 8.90559 138.721 29.639 138.721 59.8483Z" fill="#A76B49"/>
<path d="M89.1836 81.9364C85.0352 70.827 59.7603 69.3217 54.656 81.9364C51.7357 89.1577 58.4841 94.547 63.5936 94.2577C70.3633 93.875 71.7185 90.1657 71.9201 87.9084C72.1212 90.1657 73.466 94.2443 80.2472 94.2577C86.3051 94.2697 91.906 89.2297 89.1836 81.9364Z" fill="#D4A77C"/>
<path d="M77.2411 93.5723H77.2151C75.2208 93.5723 73.9219 92.2803 72.9291 91.1457L72.764 90.8723C72.7416 90.739 72.725 90.603 72.6875 90.4723C72.6452 90.3283 72.564 90.2283 72.4676 90.1483C72.2348 89.4803 72.0239 88.7057 71.9233 88.451V90.0097L71.9151 90.0123V88.451C71.749 88.8723 71.2854 90.7137 70.9104 91.1457C69.9182 92.2803 68.6171 93.5723 66.625 93.5723H66.599C66.2203 93.5723 65.8802 93.8896 65.5547 93.827V94.723C65.5547 95.8656 66.6848 99.923 71.9151 99.923C77.1463 99.923 78.2854 95.8656 78.2854 94.723V93.827C77.9599 93.8896 77.6187 93.5723 77.2411 93.5723Z" fill="#E9E9E9"/>
<path d="M71.9 88.451C71.9756 90.363 71.9557 92.275 71.9865 94.1857C71.9557 96.1003 71.9756 98.011 71.9 99.923C71.8256 98.011 71.8438 96.1003 71.8125 94.1857C71.8453 92.275 71.8256 90.363 71.9 88.451Z" fill="#BDBCBC"/>
<path d="M82.2948 87.8603C83.086 87.8603 83.086 89.0389 82.2948 89.0389C81.5 89.0389 81.5 87.8603 82.2948 87.8603Z" fill="#311813"/>
<path d="M79.283 88.451C80.0773 88.451 80.0773 89.6296 79.283 89.6296C78.4897 89.6296 78.4897 88.451 79.283 88.451Z" fill="#311813"/>
<path d="M77.9054 90.4696C78.6977 90.4696 78.6977 91.6483 77.9054 91.6483C77.1122 91.6483 77.1122 90.4696 77.9054 90.4696Z" fill="#311813"/>
<path d="M81.3129 90.7577C82.1118 90.7577 82.1118 91.9364 81.3129 91.9364C80.5233 91.9364 80.5233 90.7577 81.3129 90.7577Z" fill="#311813"/>
<path d="M84.0795 89.5804C84.8743 89.5804 84.8743 90.7577 84.0795 90.7577C83.2873 90.7577 83.2873 89.5804 84.0795 89.5804Z" fill="#311813"/>
<path d="M71.7721 83.591C71.9201 85.9176 72.5586 88.3696 71.5488 90.731C71.0122 91.883 70.057 92.779 68.9748 93.3723C67.8868 93.9643 66.6805 94.303 65.4664 94.4243C63.0414 94.6376 60.5508 94.1963 58.419 93.0176C57.3617 92.4296 56.3914 91.6563 55.6445 90.7016C54.9097 89.739 54.4024 88.6056 54.2461 87.4243C54.8248 89.755 56.594 91.5536 58.6612 92.5563C60.7384 93.5616 63.1092 93.999 65.395 93.7416C67.6393 93.5256 70.0102 92.5336 71.0253 90.4883C72.069 88.4363 71.6169 85.935 71.7721 83.591Z" fill="#311813"/>
<path d="M72.0976 83.591C72.2517 85.935 71.7997 88.4363 72.8424 90.4883C73.8585 92.5336 76.2282 93.5256 78.4736 93.7416C80.7601 93.999 83.1277 93.5616 85.2058 92.5563C87.2752 91.5536 89.0429 89.755 89.623 87.4243C89.4668 88.6056 88.9596 89.739 88.2241 90.7016C87.4782 91.6563 86.509 92.4296 85.4501 93.0176C83.3178 94.1963 80.8252 94.6376 78.4001 94.4243C77.1877 94.303 75.982 93.9643 74.8929 93.3723C73.8116 92.779 72.8558 91.883 72.3205 90.731C71.3085 88.3696 71.9497 85.9176 72.0976 83.591Z" fill="#311813"/>
<path d="M61.545 87.8603C60.7545 87.8603 60.7545 89.0389 61.545 89.0389C62.3393 89.0389 62.3393 87.8603 61.545 87.8603Z" fill="#311813"/>
<path d="M64.5566 88.451C63.7624 88.451 63.7624 89.6296 64.5566 89.6296C65.3504 89.6296 65.3504 88.451 64.5566 88.451Z" fill="#311813"/>
<path d="M65.9353 90.4696C65.1427 90.4696 65.1427 91.6483 65.9353 91.6483C66.7296 91.6483 66.7296 90.4696 65.9353 90.4696Z" fill="#311813"/>
<path d="M62.5251 90.7577C61.7293 90.7577 61.7293 91.9364 62.5251 91.9364C63.3163 91.9364 63.3163 90.7577 62.5251 90.7577Z" fill="#311813"/>
<path d="M59.7606 89.5804C58.9652 89.5804 58.9652 90.7577 59.7606 90.7577C60.5563 90.7577 60.5563 89.5804 59.7606 89.5804Z" fill="#311813"/>
<path d="M82.2369 77.487C82.2369 81.111 77.5514 86.8203 71.7722 86.8203C65.991 86.8203 61.3066 81.111 61.3066 77.487C61.3066 73.8656 65.991 73.031 71.7722 73.031C77.5514 73.031 82.2369 73.8656 82.2369 77.487Z" fill="#311813"/>
<path d="M63.9536 76.4884C61.9473 78.4804 64.2057 83.9591 67.0968 81.8977C67.8645 81.3564 68.3301 80.7471 68.8176 79.9671C69.653 78.6337 70.7457 78.0417 72.3025 77.7177C73.3806 77.4937 75.7077 77.3124 75.6446 75.7737C75.5514 73.5991 66.6057 73.8471 63.9536 76.4884Z" fill="#572E28"/>
<path d="M34.4679 65.555C34.4679 67.1537 33.1148 68.4484 31.4424 68.4484C29.7752 68.4484 28.4189 67.1537 28.4189 65.555C28.4189 63.9537 29.7752 62.6603 31.4424 62.6603C33.1148 62.6603 34.4679 63.9537 34.4679 65.555Z" fill="#311813"/>
<path d="M33.7008 64.3976C33.7008 64.9176 33.2581 65.3363 32.7169 65.3363C32.1758 65.3363 31.7373 64.9176 31.7373 64.3976C31.7373 63.8803 32.1758 63.4603 32.7169 63.4603C33.2581 63.4603 33.7008 63.8803 33.7008 64.3976Z" fill="white"/>
<path d="M34.4492 63.1669C33.7315 62.5776 32.8674 62.3616 32.0326 62.3416C31.6096 62.3416 31.1831 62.3723 30.7674 62.4616C30.334 62.5389 29.9736 62.6509 29.5892 62.8269C29.2127 62.9989 28.8482 63.2256 28.4498 63.4563C28.0482 63.6816 27.6168 63.9363 27.1086 64.0683C26.607 64.2136 26.0611 64.2043 25.5799 64.0803C25.0982 63.951 24.6706 63.7363 24.2944 63.4603C25.2184 63.6536 26.1242 63.7203 26.846 63.3723C27.5758 63.047 28.2315 62.3909 29.1539 61.9656C29.6007 61.7509 30.1331 61.6056 30.6174 61.5563C31.1086 61.5123 31.6164 61.4936 32.1168 61.5883C33.0992 61.7443 34.0783 62.3123 34.4492 63.1669Z" fill="#311813"/>
<path d="M25.6636 62.6603C26.2824 62.787 26.8308 62.8123 27.3844 62.7363C27.9401 62.6657 28.4677 62.4763 29.0724 62.283C28.7084 62.7843 28.1084 63.119 27.4542 63.211C27.1292 63.2483 26.7917 63.2337 26.4766 63.143C26.1672 63.0497 25.8724 62.8976 25.6636 62.6603Z" fill="#311813"/>
<path d="M26.6328 62.0324C26.9447 62.0991 27.2332 62.0911 27.5239 62.0858C27.8108 62.0698 28.0995 62.0484 28.3905 62.0098C28.9713 61.9471 29.552 61.8377 30.1927 61.8217C29.6837 62.1951 29.0823 62.4031 28.4495 62.4858C28.1343 62.5178 27.8088 62.5204 27.4895 62.4551C27.1765 62.3911 26.8441 62.2764 26.6328 62.0324Z" fill="#311813"/>
<path d="M114.069 65.555C114.069 67.1537 115.425 68.4484 117.093 68.4484C118.763 68.4484 120.117 67.1537 120.117 65.555C120.117 63.9537 118.763 62.6603 117.093 62.6603C115.425 62.6603 114.069 63.9537 114.069 65.555Z" fill="#311813"/>
<path d="M114.837 64.3976C114.837 64.9176 115.278 65.3363 115.818 65.3363C116.361 65.3363 116.801 64.9176 116.801 64.3976C116.801 63.8803 116.361 63.4603 115.818 63.4603C115.278 63.4603 114.837 63.8803 114.837 64.3976Z" fill="white"/>
<path d="M114.088 63.1669C114.461 62.3123 115.437 61.7443 116.424 61.5883C116.921 61.4936 117.425 61.5123 117.92 61.5563C118.401 61.6056 118.936 61.7509 119.383 61.9656C120.307 62.3909 120.959 63.047 121.691 63.3723C122.415 63.7203 123.319 63.6536 124.244 63.4603C123.868 63.7363 123.439 63.951 122.957 64.0803C122.479 64.2043 121.929 64.2136 121.431 64.0683C120.917 63.9363 120.489 63.6816 120.089 63.4563C119.689 63.2256 119.323 62.9989 118.947 62.8269C118.563 62.6509 118.203 62.5389 117.771 62.4616C117.352 62.3723 116.928 62.3416 116.507 62.3416C115.672 62.3616 114.803 62.5776 114.088 63.1669Z" fill="#311813"/>
<path d="M122.873 62.6603C122.666 62.8976 122.37 63.0497 122.058 63.143C121.744 63.2337 121.408 63.2483 121.081 63.211C120.426 63.119 119.83 62.7843 119.462 62.283C120.069 62.4763 120.596 62.6657 121.149 62.7363C121.704 62.8123 122.258 62.787 122.873 62.6603Z" fill="#311813"/>
<path d="M121.903 62.0324C121.691 62.2764 121.359 62.3911 121.049 62.4551C120.729 62.5204 120.401 62.5178 120.085 62.4858C119.454 62.4031 118.851 62.1951 118.341 61.8217C118.985 61.8377 119.565 61.9471 120.147 62.0098C120.437 62.0484 120.723 62.0698 121.011 62.0858C121.302 62.0911 121.591 62.0991 121.903 62.0324Z" fill="#311813"/>
<path d="M38.2763 91.0204C33.2778 91.0204 29.2236 87.1417 29.2236 82.3537C29.2236 77.5684 33.2778 73.6871 38.2763 73.6871C43.2763 73.6871 47.331 77.5684 47.331 82.3537C47.331 87.1417 43.2763 91.0204 38.2763 91.0204Z" fill="#A76248"/>
<path d="M110.259 91.0204C105.259 91.0204 101.206 87.1417 101.206 82.3537C101.206 77.5684 105.259 73.6871 110.259 73.6871C115.258 73.6871 119.313 77.5684 119.313 82.3537C119.313 87.1417 115.258 91.0204 110.259 91.0204Z" fill="#A76248"/>
</svg>
