<svg width="143" height="129" viewBox="0 0 143 129" fill="none" xmlns="http://www.w3.org/2000/svg">
<path d="M139.114 83.3776C132.838 104.41 115.989 128.336 71.0131 128.336C26.0371 128.336 7.26381 105.524 2.91181 83.3776C-1.42285 61.2336 -3.19218 14.2709 71.0131 14.2709C145.221 14.2709 145.388 62.3509 139.114 83.3776Z" fill="#454747"/>
<path d="M70.4627 116.796C68.8 117.666 67.0587 118.151 65.4707 118.412C66.3054 120.31 68.272 121.643 70.5614 121.643C72.8307 121.643 74.7827 120.322 75.6307 118.442C74 118.186 72.1907 117.702 70.4627 116.796Z" fill="#C1B6A3"/>
<path d="M81.0292 97.5364C74.7679 97.5364 66.1532 97.5364 59.8972 97.5364C52.5679 97.5364 49.2065 102.348 49.2065 108.064C49.2065 113.78 53.9679 118.423 59.8972 118.583V118.591C59.8972 118.591 65.5399 119.375 70.4625 116.796C75.3865 119.375 81.0292 118.591 81.0292 118.591V118.583C86.9585 118.423 91.7185 113.78 91.7185 108.064C91.7185 102.348 88.3612 97.5364 81.0292 97.5364Z" fill="#F1E3D6"/>
<path d="M70.4626 116.796C69.9959 114.566 69.8906 112.335 69.8706 110.103C69.8879 107.874 69.9933 105.643 70.4626 103.412C70.9319 105.643 71.0359 107.874 71.0533 110.103C71.0333 112.335 70.9293 114.566 70.4626 116.796Z" fill="#1C0B0F"/>
<path d="M77.7442 98.887C77.7442 101.16 73.8308 104.723 70.5682 104.723C67.3015 104.723 64.0415 101.16 64.0415 98.887C64.0415 96.6137 65.9642 96.4897 68.3402 96.4897H73.4455C75.8215 96.4897 77.7442 96.6137 77.7442 98.887Z" fill="#E56286"/>
<path d="M56.1654 104.16C56.1654 104.459 55.9187 104.7 55.6081 104.7C55.2907 104.7 55.0454 104.459 55.0454 104.16C55.0454 103.867 55.2907 103.624 55.6081 103.624C55.9187 103.624 56.1654 103.867 56.1654 104.16Z" fill="#1C0B0F"/>
<path d="M60.0931 103.862C60.0931 104.156 59.8438 104.396 59.5371 104.396C59.2264 104.396 58.9678 104.156 58.9678 103.862C58.9678 103.562 59.2264 103.32 59.5371 103.32C59.8438 103.32 60.0931 103.562 60.0931 103.862Z" fill="#1C0B0F"/>
<path d="M58.2519 106.611C58.2519 106.908 57.9986 107.148 57.6879 107.148C57.3839 107.148 57.1279 106.908 57.1279 106.611C57.1279 106.314 57.3839 106.072 57.6879 106.072C57.9986 106.072 58.2519 106.314 58.2519 106.611Z" fill="#1C0B0F"/>
<path d="M57.1278 109.538C57.1278 109.832 56.8718 110.076 56.5638 110.076C56.2518 110.076 56.0024 109.832 56.0024 109.538C56.0024 109.238 56.2518 108.999 56.5638 108.999C56.8718 108.999 57.1278 109.238 57.1278 109.538Z" fill="#1C0B0F"/>
<path d="M61.8028 109.119C61.8028 109.414 61.5495 109.658 61.2415 109.658C60.9308 109.658 60.6802 109.414 60.6802 109.119C60.6802 108.822 60.9308 108.576 61.2415 108.576C61.5495 108.576 61.8028 108.822 61.8028 109.119Z" fill="#1C0B0F"/>
<path d="M54.8745 107.69C54.8745 107.984 54.6212 108.223 54.3158 108.223C54.0038 108.223 53.7505 107.984 53.7505 107.69C53.7505 107.392 54.0038 107.148 54.3158 107.148C54.6212 107.148 54.8745 107.392 54.8745 107.69Z" fill="#1C0B0F"/>
<path d="M62.2506 106.163C62.2506 106.463 61.9999 106.703 61.6879 106.703C61.3786 106.703 61.1279 106.463 61.1279 106.163C61.1279 105.867 61.3786 105.627 61.6879 105.627C61.9999 105.627 62.2506 105.867 62.2506 106.163Z" fill="#1C0B0F"/>
<path d="M84.6279 104.16C84.6279 104.459 84.8826 104.7 85.1919 104.7C85.5013 104.7 85.7546 104.459 85.7546 104.16C85.7546 103.867 85.5013 103.624 85.1919 103.624C84.8826 103.624 84.6279 103.867 84.6279 104.16Z" fill="#1C0B0F"/>
<path d="M80.6987 103.862C80.6987 104.156 80.9521 104.396 81.2601 104.396C81.5707 104.396 81.8227 104.156 81.8227 103.862C81.8227 103.562 81.5707 103.32 81.2601 103.32C80.9521 103.32 80.6987 103.562 80.6987 103.862Z" fill="#1C0B0F"/>
<path d="M82.5347 106.611C82.5347 106.908 82.7973 107.148 83.108 107.148C83.4147 107.148 83.6707 106.908 83.6707 106.611C83.6707 106.314 83.4147 106.072 83.108 106.072C82.7973 106.072 82.5347 106.314 82.5347 106.611Z" fill="#1C0B0F"/>
<path d="M83.6704 109.538C83.6704 109.832 83.9224 110.076 84.2277 110.076C84.5397 110.076 84.7957 109.832 84.7957 109.538C84.7957 109.238 84.5397 108.999 84.2277 108.999C83.9224 108.999 83.6704 109.238 83.6704 109.538Z" fill="#1C0B0F"/>
<path d="M78.9946 109.119C78.9946 109.414 79.244 109.658 79.556 109.658C79.8666 109.658 80.1173 109.414 80.1173 109.119C80.1173 108.822 79.8666 108.576 79.556 108.576C79.244 108.576 78.9946 108.822 78.9946 109.119Z" fill="#1C0B0F"/>
<path d="M85.9146 107.69C85.9146 107.984 86.1692 108.223 86.4799 108.223C86.7906 108.223 87.0412 107.984 87.0412 107.69C87.0412 107.392 86.7906 107.148 86.4799 107.148C86.1692 107.148 85.9146 107.392 85.9146 107.69Z" fill="#1C0B0F"/>
<path d="M78.5439 106.163C78.5439 106.463 78.7946 106.703 79.1079 106.703C79.4146 106.703 79.6679 106.463 79.6679 106.163C79.6679 105.867 79.4146 105.627 79.1079 105.627C78.7946 105.627 78.5439 105.867 78.5439 106.163Z" fill="#1C0B0F"/>
<path d="M70.4624 116.796C69.3384 117.383 68.181 117.791 67.061 118.08C67.7144 119.296 69.033 120.136 70.561 120.136C72.065 120.136 73.3664 119.315 74.0317 118.122C72.8624 117.832 71.6384 117.414 70.4624 116.796Z" fill="#B13557"/>
<path d="M132.124 40.9857C151.252 25.2111 137.041 0.663063 137.041 0.663063C137.041 0.663063 135.91 4.81107 130.664 6.34041C124.536 8.12174 111.685 12.2364 108.13 23.7604C117.63 28.1764 125.558 34.1577 132.124 40.9857Z" fill="#363737"/>
<path d="M129.513 38.3776C136.896 33.7296 137.877 15.3869 133.852 13.6536C126.48 10.4709 112.348 22.1496 111.685 25.5176C118.449 29.0909 124.373 33.4749 129.513 38.3776Z" fill="#1B1A19"/>
<path d="M10.6187 40.9857C-8.5066 25.2111 5.70009 0.663063 5.70009 0.663063C5.70009 0.663063 6.8374 4.81107 12.0814 6.34041C18.2054 8.12174 31.0588 12.2364 34.6108 23.7604C25.1134 28.1764 17.1841 34.1577 10.6187 40.9857Z" fill="#363737"/>
<path d="M13.2264 38.3776C5.84511 33.7296 4.85977 15.3869 8.88777 13.6536C16.2598 10.4709 30.3958 22.1496 31.0584 25.5176C24.2904 29.0909 18.3704 33.4749 13.2264 38.3776Z" fill="#1B1A19"/>
<path d="M40.4437 87.0856C40.4437 90.507 37.5437 93.283 33.9664 93.283C30.3957 93.283 27.4971 90.507 27.4971 87.0856C27.4971 83.663 30.3957 80.8856 33.9664 80.8856C37.5437 80.8856 40.4437 83.663 40.4437 87.0856Z" fill="#FFFBFD"/>
<path d="M32.68 87.8283C31.9746 87.8283 31.3893 87.2749 31.3893 86.5963C31.3893 85.9123 31.9746 85.3576 32.68 85.3576C33.3906 85.3576 33.9666 85.9123 33.9666 86.5963C33.9666 87.2749 33.3906 87.8283 32.68 87.8283ZM32.0533 89.367C31.696 89.367 31.4053 89.083 31.4053 88.7363C31.4053 88.3843 31.696 88.103 32.0533 88.103C32.4253 88.103 32.7173 88.3843 32.7173 88.7363C32.7173 89.083 32.4253 89.367 32.0533 89.367ZM33.8653 84.603C31.488 84.603 30.3413 86.2682 30.3413 87.9776C30.3413 89.8389 31.9133 91.351 33.8653 91.351C35.8066 91.351 37.388 89.8389 37.388 87.9776C37.388 86.1082 35.8066 84.603 33.8653 84.603Z" fill="#212121"/>
<path d="M24.5253 81.199C24.4826 81.199 24.4386 81.195 24.396 81.187C23.996 81.115 23.7293 80.7337 23.8013 80.3337C24.3253 77.3297 26.9413 75.2163 30.1826 75.2163C30.1946 75.2163 30.2066 75.2163 30.2186 75.2163C31.1146 75.2163 32.0573 75.371 33.0213 75.7003C33.4053 75.8323 33.6093 76.2496 33.4786 76.635C33.3746 76.9403 33.0879 77.1323 32.7826 77.1323C32.7039 77.1323 32.624 77.119 32.5453 77.0923C31.7266 76.8123 30.9439 76.6883 30.2186 76.687C27.5813 76.703 25.6693 78.2937 25.2479 80.5923C25.1853 80.9483 24.8746 81.199 24.5253 81.199Z" fill="#1C201F"/>
<path d="M97.7773 87.0856C97.7773 90.507 100.673 93.283 104.251 93.283C107.825 93.283 110.728 90.507 110.728 87.0856C110.728 83.663 107.825 80.8856 104.251 80.8856C100.673 80.8856 97.7773 83.663 97.7773 87.0856Z" fill="#FFFBFD"/>
<path d="M104.251 86.5963C104.251 85.9123 104.828 85.3576 105.543 85.3576C106.252 85.3576 106.832 85.9123 106.832 86.5963C106.832 87.2749 106.252 87.8283 105.543 87.8283C104.828 87.8283 104.251 87.2749 104.251 86.5963ZM105.5 88.7363C105.5 88.3843 105.796 88.103 106.161 88.103C106.527 88.103 106.817 88.3843 106.817 88.7363C106.817 89.083 106.527 89.367 106.161 89.367C105.796 89.367 105.5 89.083 105.5 88.7363ZM100.831 87.9776C100.831 89.8389 102.409 91.351 104.357 91.351C106.305 91.351 107.881 89.8389 107.881 87.9776C107.881 86.2682 106.737 84.603 104.357 84.603C102.409 84.603 100.831 86.1082 100.831 87.9776Z" fill="#212121"/>
<path d="M113.693 81.199C113.344 81.199 113.033 80.9483 112.971 80.591C112.551 78.2936 110.643 76.703 108.003 76.687C107.273 76.6883 106.489 76.8123 105.671 77.0923C105.592 77.119 105.512 77.1323 105.433 77.1323C105.127 77.1323 104.841 76.939 104.737 76.6337C104.605 76.2497 104.811 75.8323 105.195 75.7003C106.159 75.3723 107.104 75.2163 108 75.2163C108.001 75.2163 108.001 75.2163 108.003 75.2163C108.015 75.2163 108.027 75.2163 108.039 75.2163C111.283 75.2163 113.896 77.331 114.419 80.3337V80.335C114.489 80.735 114.223 81.1163 113.823 81.187C113.78 81.195 113.736 81.199 113.693 81.199Z" fill="#1C201F"/>
</svg>
