<svg width="175" height="103" viewBox="0 0 175 103" fill="none" xmlns="http://www.w3.org/2000/svg">
<path d="M151.302 1.71361C129.115 -4.79439 114.973 8.64033 105.949 18.5003C123.903 26.0937 129.115 45.2043 129.115 62.3643C129.115 67.935 127.285 72.671 124.351 76.6363C166.537 95.6617 196.898 15.0843 151.302 1.71361Z" fill="#849492"/>
<path d="M145.058 12.2016C132.658 8.92693 121.181 15.2656 112.863 22.4216C125.274 31.5122 129.115 47.651 129.115 62.3643C129.115 67.3403 127.653 71.643 125.247 75.3363C160.265 89.607 183.211 22.2656 145.058 12.2016Z" fill="#687471"/>
<path d="M23.6259 1.71361C45.8165 -4.79439 59.9592 8.64033 68.9845 18.5003C51.0285 26.0937 45.8165 45.2043 45.8165 62.3643C45.8165 67.935 47.6458 72.671 50.5792 76.6363C8.39518 95.6617 -21.9648 15.0843 23.6259 1.71361Z" fill="#849492"/>
<path d="M29.8715 12.2016C42.2742 8.92693 53.7488 15.2656 62.0701 22.4216C49.6568 31.5122 45.8168 47.651 45.8168 62.3643C45.8168 67.3403 47.2808 71.643 49.6808 75.3363C14.6675 89.607 -8.27784 22.2656 29.8715 12.2016Z" fill="#687471"/>
<path d="M148.254 95.1097C148.66 93.699 149.233 90.331 147.421 89.3523C145.297 88.207 144.817 90.1096 143.753 90.3163C138.329 91.343 132.549 84.7483 124.998 77.151C125.55 76.3017 125.52 76.291 125.969 75.403C127.266 73.003 128.34 70.4123 129.116 67.615C134.757 47.3257 135.384 14.4083 87.4835 14.4083C39.5795 14.4083 39.4235 46.7257 45.8422 67.615C51.0169 84.4443 66.0142 94.1137 78.5555 97.3537C80.0622 99.947 83.2036 103.107 89.4916 102.583C95.6449 102.072 98.2209 98.995 99.3035 96.5563C101.5 95.851 104.573 94.4843 107.898 92.583C109.528 92.1123 111.338 91.7323 113.554 91.5576C120.144 91.0336 123.693 93.235 126.84 95.435C131.158 98.455 134.721 101.474 144.348 97.4576C144.348 97.4576 145.01 100.063 146.938 99.111C149.238 97.9763 147.844 96.523 148.254 95.1097Z" fill="#8FA19E"/>
<path d="M86.8995 95.8683C85.1088 95.6923 83.4848 95.3923 81.9941 95.0017C82.5795 96.5537 84.3661 99.6844 89.1781 99.2844C92.7848 98.9857 94.3742 97.2403 95.0795 95.783C92.8648 96.135 90.2181 96.195 86.8995 95.8683Z" fill="#4E5655"/>
<path d="M66.5952 63.395C66.5952 65.383 64.9045 66.9977 62.8285 66.9977C60.7538 66.9977 59.0645 65.383 59.0645 63.395C59.0645 61.4043 60.7538 59.7923 62.8285 59.7923C64.9045 59.7923 66.5952 61.4043 66.5952 63.395Z" fill="#FFFBFD"/>
<path d="M62.0796 63.8283C61.6676 63.8283 61.3315 63.507 61.3315 63.1097C61.3315 62.7137 61.6676 62.3897 62.0796 62.3897C62.4956 62.3897 62.8289 62.7137 62.8289 63.1097C62.8289 63.507 62.4956 63.8283 62.0796 63.8283ZM61.7196 64.719C61.5036 64.719 61.3356 64.5537 61.3356 64.3537C61.3356 64.151 61.5036 63.9897 61.7196 63.9897C61.9289 63.9897 62.1035 64.151 62.1035 64.3537C62.1035 64.5537 61.9289 64.719 61.7196 64.719ZM62.7675 61.9496C61.3849 61.9496 60.7183 62.919 60.7183 63.9123C60.7183 64.995 61.6342 65.8737 62.7675 65.8737C63.8969 65.8737 64.8142 64.995 64.8142 63.9123C64.8142 62.8283 63.8969 61.9496 62.7675 61.9496Z" fill="#212121"/>
<path d="M57.3381 59.9711C57.3128 59.9711 57.2875 59.9684 57.2621 59.9644C57.0288 59.9231 56.8741 59.7004 56.9167 59.4684C57.2221 57.7217 58.7408 56.4924 60.6274 56.4924C60.6341 56.4924 60.6408 56.4924 60.6488 56.4924C61.1688 56.4924 61.7194 56.583 62.2807 56.775C62.5047 56.851 62.6234 57.0937 62.5474 57.3177C62.4874 57.4951 62.3208 57.6071 62.1434 57.6071C62.0968 57.6071 62.0514 57.5991 62.0048 57.5844C61.5261 57.4204 61.0714 57.3484 60.6488 57.3484C59.1128 57.3564 58.0034 58.2817 57.7581 59.6191C57.7208 59.8257 57.5408 59.9711 57.3381 59.9711Z" fill="#344240"/>
<path d="M111.775 63.395C111.775 65.383 113.463 66.9977 115.541 66.9977C117.615 66.9977 119.303 65.383 119.303 63.395C119.303 61.4043 117.615 59.7923 115.541 59.7923C113.463 59.7923 111.775 61.4043 111.775 63.395Z" fill="#FFFBFD"/>
<path d="M115.541 63.1097C115.541 62.7137 115.876 62.3897 116.288 62.3897C116.705 62.3897 117.039 62.7137 117.039 63.1097C117.039 63.507 116.705 63.8283 116.288 63.8283C115.876 63.8283 115.541 63.507 115.541 63.1097ZM116.27 64.3537C116.27 64.151 116.435 63.9897 116.65 63.9897C116.861 63.9897 117.031 64.151 117.031 64.3537C117.031 64.5537 116.861 64.719 116.65 64.719C116.435 64.719 116.27 64.5537 116.27 64.3537ZM113.554 63.9123C113.554 64.995 114.47 65.8737 115.602 65.8737C116.732 65.8737 117.652 64.995 117.652 63.9123C117.652 62.919 116.981 61.9496 115.602 61.9496C114.47 61.9496 113.554 62.8283 113.554 63.9123Z" fill="#212121"/>
<path d="M121.033 59.9711C120.829 59.9711 120.647 59.8257 120.611 59.6191C120.366 58.2831 119.254 57.3564 117.718 57.3484C117.294 57.3484 116.84 57.4204 116.364 57.5844C116.318 57.5991 116.272 57.6071 116.225 57.6071C116.048 57.6071 115.882 57.4951 115.821 57.3177C115.744 57.0937 115.863 56.851 116.086 56.775C116.646 56.583 117.197 56.4924 117.718 56.4924C117.725 56.4924 117.732 56.4924 117.738 56.4924C119.625 56.4924 121.147 57.7217 121.453 59.4684H121.454C121.496 59.7017 121.34 59.9231 121.108 59.9657C121.082 59.9697 121.057 59.9711 121.033 59.9711Z" fill="#344240"/>
<path d="M88.6862 97.2163C86.5769 96.3803 84.9916 97.1857 84.0742 97.9297C85.1956 98.8283 86.8195 99.4817 89.1782 99.2844C90.9249 99.139 92.1809 98.6523 93.1102 98.027C90.7409 95.3377 88.6862 97.2163 88.6862 97.2163Z" fill="#CE5683"/>
<path d="M90.77 67.3457C92.982 65.9737 95.5261 65.1777 98.1261 64.8537C99.4314 64.7164 100.759 64.7017 102.063 64.9057C103.369 65.0963 104.642 65.5297 105.754 66.2031C103.238 65.5684 100.734 65.5431 98.2367 65.8284C95.738 66.1124 93.274 66.6897 90.77 67.3457Z" fill="#555E5C"/>
<path d="M88.6646 62.7484C90.9126 62.2311 93.2232 62.1471 95.5219 62.3551C96.6672 62.4817 97.8206 62.6791 98.9286 63.0804C99.9979 63.4684 101.193 64.0977 101.646 65.2111C100.877 64.3431 99.7646 64.0844 98.7126 63.8164C97.6366 63.5857 96.5339 63.4378 95.4233 63.3311C93.1979 63.0991 90.9512 63.0018 88.6646 62.7484Z" fill="#555E5C"/>
<path d="M67.9111 84.4737C69.4591 87.595 72.0632 90.0857 74.9872 91.8937C77.9352 93.7083 81.2778 94.7897 84.6778 95.3204C88.0831 95.815 91.5738 95.9857 94.9965 95.699C96.7098 95.5443 98.4045 95.2483 100.057 94.7883C101.715 94.3377 103.324 93.7217 104.96 93.1243C108.219 91.8777 111.726 91.0857 115.259 91.0497C117.027 91.0283 118.816 91.2164 120.536 91.703C122.259 92.179 123.884 92.967 125.378 93.9056C128.344 95.7736 130.962 98.2056 134.304 98.739C137.607 99.3043 141.016 98.3017 144.163 97.0177L144.663 96.8137L144.81 97.3403C144.99 97.9857 145.418 98.7043 145.915 98.819C146.155 98.891 146.457 98.8257 146.743 98.683C147.098 98.5043 147.364 98.3257 147.564 98.087C147.975 97.651 147.827 96.975 147.727 96.0963C147.71 95.8777 147.703 95.6444 147.73 95.403C147.754 95.1537 147.835 94.9097 147.877 94.7484C147.973 94.3777 148.052 93.9923 148.108 93.611C148.222 92.847 148.267 92.067 148.149 91.343C148.031 90.6163 147.722 89.9817 147.136 89.7097C146.466 89.359 145.884 89.3097 145.34 89.763C145.052 89.9737 144.784 90.2803 144.352 90.547C144.24 90.6097 144.118 90.667 143.982 90.7097C143.83 90.7537 143.702 90.7643 143.619 90.7763C143.428 90.8097 143.215 90.831 142.98 90.8364C141.206 90.9044 139.598 90.2163 138.164 89.4137C136.727 88.5897 135.426 87.591 134.178 86.547C131.695 84.443 129.418 82.1457 127.103 79.9004C122.486 75.447 117.774 70.8897 111.951 68.143C109.065 66.7883 105.847 66.0284 102.646 66.343C101.053 66.4977 99.4845 66.915 97.9258 67.3177C96.3778 67.751 94.8218 68.2163 93.3925 68.9737C94.8032 68.1803 96.3525 67.6763 97.8938 67.2043C99.4458 66.7643 101.002 66.3057 102.621 66.1137C105.863 65.719 109.167 66.419 112.136 67.731C115.126 69.0404 117.821 70.9123 120.351 72.9297C122.886 74.9537 125.254 77.1657 127.598 79.3857C129.94 81.6043 132.25 83.8616 134.713 85.9083C135.941 86.9296 137.218 87.8963 138.586 88.671C139.942 89.4323 141.448 90.035 142.931 89.9657C143.102 89.963 143.288 89.947 143.496 89.911C143.74 89.8803 143.748 89.871 143.908 89.7883C144.17 89.635 144.45 89.3337 144.807 89.059C145.157 88.7817 145.662 88.539 146.18 88.547C146.691 88.5443 147.152 88.7164 147.54 88.9124C148.462 89.343 148.915 90.351 149.038 91.1924C149.183 92.0644 149.13 92.9164 149.011 93.7457C148.951 94.1617 148.87 94.5697 148.764 94.9803C148.707 95.2083 148.658 95.3497 148.646 95.503C148.629 95.6644 148.631 95.8337 148.647 96.0177C148.676 96.3857 148.767 96.7897 148.768 97.263C148.782 97.7283 148.622 98.2924 148.287 98.679C147.973 99.0657 147.543 99.3284 147.179 99.515C146.754 99.731 146.219 99.8777 145.67 99.731C145.124 99.587 144.731 99.203 144.464 98.823C144.195 98.4284 144.019 98.039 143.886 97.575L144.531 97.8977C141.319 99.2217 137.762 100.326 134.134 99.687C132.339 99.375 130.671 98.5737 129.191 97.6177C127.7 96.6644 126.337 95.591 124.89 94.6817C123.449 93.7684 121.921 93.019 120.293 92.5603C118.669 92.0937 116.968 91.9057 115.267 91.9177C111.839 91.935 108.473 92.6963 105.229 93.8777C103.597 94.447 101.948 95.0524 100.244 95.4897C98.5445 95.935 96.7992 96.2137 95.0512 96.3457C91.5458 96.5857 88.0525 96.3617 84.5965 95.8137C81.1552 95.203 77.7871 94.011 74.8525 92.107C71.9405 90.2083 69.3845 87.6337 67.9111 84.4737Z" fill="#555E5C"/>
</svg>
