<svg width="133" height="213" viewBox="0 0 133 213" fill="none" xmlns="http://www.w3.org/2000/svg">
<path d="M114.622 125.222C119.041 100.506 134.677 7.75095 112.132 1.23094C89.5838 -5.28505 82.0758 110.076 82.0758 110.076C79.6611 109.327 73.2398 108.995 66.5291 108.982C59.8211 108.995 53.4078 109.327 50.9851 110.076C50.9851 110.076 43.4851 -5.28505 20.9358 1.23094C-1.61358 7.75095 14.0211 100.506 18.4437 125.222C18.4437 125.222 -8.22159 148.639 2.85708 184.482C11.6957 213.106 41.5358 212.771 66.5291 212.736C91.5304 212.771 121.365 213.106 130.216 184.482C141.282 148.639 114.622 125.222 114.622 125.222Z" fill="#E4ACB0"/>
<path d="M110.942 12.499C93.8544 10.3497 89.1838 100.871 86.1758 111.311C101.288 115.414 109.712 121.2 109.712 121.2C114.154 100.96 128.028 14.6497 110.942 12.499Z" fill="#AB6D71"/>
<path d="M22.1264 12.499C5.03839 14.6497 18.9104 100.96 23.3544 121.2C23.3544 121.2 31.7851 115.414 46.8864 111.311C43.8824 100.871 39.2077 10.3497 22.1264 12.499Z" fill="#AB6D71"/>
<path d="M37.9982 172.23C37.9982 175.635 35.1089 178.398 31.5542 178.398C27.9942 178.398 25.1089 175.635 25.1089 172.23C25.1089 168.823 27.9942 166.059 31.5542 166.059C35.1089 166.059 37.9982 168.823 37.9982 172.23Z" fill="#FFFBFD"/>
<path d="M30.2665 172.972C29.5585 172.972 28.9811 172.422 28.9811 171.743C28.9811 171.062 29.5585 170.512 30.2665 170.512C30.9758 170.512 31.5545 171.062 31.5545 171.743C31.5545 172.422 30.9758 172.972 30.2665 172.972ZM29.6598 174.499C29.2918 174.499 28.9958 174.218 28.9958 173.874C28.9958 173.522 29.2918 173.244 29.6598 173.244C30.0145 173.244 30.3078 173.522 30.3078 173.874C30.3078 174.218 30.0145 174.499 29.6598 174.499ZM31.4438 169.76C29.0838 169.76 27.9385 171.418 27.9385 173.119C27.9385 174.972 29.5091 176.476 31.4438 176.476C33.3878 176.476 34.9558 174.972 34.9558 173.119C34.9558 171.259 33.3878 169.76 31.4438 169.76Z" fill="#212121"/>
<path d="M22.1527 166.37C22.11 166.37 22.0673 166.366 22.0233 166.358C21.626 166.287 21.3607 165.907 21.4313 165.508C21.9527 162.52 24.554 160.418 27.782 160.418C27.794 160.418 27.8073 160.418 27.8193 160.418C28.7127 160.418 29.6526 160.572 30.614 160.899C30.9967 161.03 31.202 161.444 31.0713 161.828C30.9673 162.132 30.6833 162.324 30.3793 162.324C30.3006 162.324 30.2206 162.311 30.1433 162.284C29.3246 162.007 28.5433 161.882 27.8193 161.882C25.19 161.898 23.2913 163.478 22.8726 165.766C22.81 166.12 22.5007 166.37 22.1527 166.37Z" fill="#4F4445"/>
<path d="M95.0674 172.23C95.0674 175.635 97.9527 178.398 101.51 178.398C105.07 178.398 107.953 175.635 107.953 172.23C107.953 168.823 105.07 166.059 101.51 166.059C97.9527 166.059 95.0674 168.823 95.0674 172.23Z" fill="#FFFBFD"/>
<path d="M101.51 171.743C101.51 171.062 102.084 170.512 102.796 170.512C103.502 170.512 104.08 171.062 104.08 171.743C104.08 172.422 103.502 172.972 102.796 172.972C102.084 172.972 101.51 172.422 101.51 171.743ZM102.754 173.874C102.754 173.522 103.049 173.244 103.405 173.244C103.774 173.244 104.065 173.522 104.065 173.874C104.065 174.218 103.774 174.499 103.405 174.499C103.049 174.499 102.754 174.218 102.754 173.874ZM98.105 173.119C98.105 174.972 99.677 176.476 101.62 176.476C103.554 176.476 105.125 174.972 105.125 173.119C105.125 171.418 103.986 169.76 101.62 169.76C99.677 169.76 98.105 171.259 98.105 173.119Z" fill="#212121"/>
<path d="M110.907 166.37C110.559 166.37 110.25 166.12 110.187 165.766C109.769 163.478 107.869 161.898 105.242 161.882C104.517 161.882 103.737 162.007 102.922 162.284C102.843 162.311 102.763 162.324 102.686 162.324C102.381 162.324 102.097 162.132 101.993 161.828C101.862 161.446 102.066 161.03 102.449 160.899C103.409 160.572 104.349 160.418 105.242 160.418C105.254 160.418 105.266 160.418 105.278 160.418C108.505 160.418 111.106 162.52 111.629 165.508V165.51C111.699 165.907 111.434 166.287 111.037 166.358C110.993 166.366 110.95 166.37 110.907 166.37Z" fill="#4F4445"/>
<path d="M66.5291 201.53C64.8211 202.295 63.0251 202.718 61.3931 202.95C62.2517 204.619 64.2717 205.792 66.6264 205.792C68.9691 205.792 70.9811 204.635 71.8504 202.978C70.1717 202.75 68.3051 202.324 66.5291 201.53Z" fill="#C1B6A3"/>
<path d="M77.4053 184.575C72.084 185.09 70.3693 190.426 66.6613 190.426C62.864 190.426 61.7866 185.215 55.6573 184.575C48.176 183.79 44.6533 188.81 44.6533 193.842C44.6533 198.875 49.5546 202.96 55.6573 203.1V203.104C55.6573 203.104 61.4693 203.795 66.5293 201.53C71.6 203.795 77.4053 203.104 77.4053 203.104V203.1C83.5107 202.96 88.412 198.875 88.412 193.842C88.412 188.81 84.9013 183.846 77.4053 184.575Z" fill="#F1E3D6"/>
<path d="M66.529 201.53C66.0836 199.955 65.985 198.382 65.9663 196.81C65.9823 195.235 66.0823 193.66 66.529 192.088C66.9756 193.66 67.0756 195.235 67.0916 196.81C67.073 198.382 66.973 199.955 66.529 201.53Z" fill="#1C0B0F"/>
<path d="M74.0264 186.911C74.0264 189.254 69.9944 192.92 66.6384 192.92C63.2797 192.92 59.9224 189.254 59.9224 186.911C59.9224 184.571 61.9037 184.442 64.345 184.442H69.601C72.0464 184.442 74.0264 184.571 74.0264 186.911Z" fill="#E56286"/>
<path d="M51.8132 189.604C51.8132 189.914 51.5559 190.158 51.2399 190.158C50.9226 190.158 50.6572 189.914 50.6572 189.604C50.6572 189.3 50.9226 189.051 51.2399 189.051C51.5559 189.051 51.8132 189.3 51.8132 189.604Z" fill="#1C0B0F"/>
<path d="M55.8585 189.292C55.8585 189.602 55.6012 189.848 55.2838 189.848C54.9612 189.848 54.7012 189.602 54.7012 189.292C54.7012 188.987 54.9612 188.74 55.2838 188.74C55.6012 188.74 55.8585 188.987 55.8585 189.292Z" fill="#1C0B0F"/>
<path d="M53.9597 192.124C53.9597 192.432 53.7024 192.679 53.3824 192.679C53.0637 192.679 52.8037 192.432 52.8037 192.124C52.8037 191.822 53.0637 191.57 53.3824 191.57C53.7024 191.57 53.9597 191.822 53.9597 192.124Z" fill="#1C0B0F"/>
<path d="M52.8038 195.139C52.8038 195.442 52.5465 195.692 52.2251 195.692C51.9131 195.692 51.6465 195.442 51.6465 195.139C51.6465 194.831 51.9131 194.584 52.2251 194.584C52.5465 194.584 52.8038 194.831 52.8038 195.139Z" fill="#1C0B0F"/>
<path d="M57.6101 194.704C57.6101 195.01 57.3594 195.256 57.0448 195.256C56.7194 195.256 56.4541 195.01 56.4541 194.704C56.4541 194.4 56.7194 194.152 57.0448 194.152C57.3594 194.152 57.6101 194.4 57.6101 194.704Z" fill="#1C0B0F"/>
<path d="M50.4876 193.234C50.4876 193.539 50.2263 193.79 49.909 193.79C49.5916 193.79 49.3276 193.539 49.3276 193.234C49.3276 192.928 49.5916 192.679 49.909 192.679C50.2263 192.679 50.4876 192.928 50.4876 193.234Z" fill="#1C0B0F"/>
<path d="M58.0784 191.666C58.0784 191.971 57.8224 192.216 57.4997 192.216C57.185 192.216 56.9224 191.971 56.9224 191.666C56.9224 191.362 57.185 191.111 57.4997 191.111C57.8224 191.111 58.0784 191.362 58.0784 191.666Z" fill="#1C0B0F"/>
<path d="M81.1074 189.604C81.1074 189.914 81.3647 190.158 81.6901 190.158C82.0074 190.158 82.2647 189.914 82.2647 189.604C82.2647 189.3 82.0074 189.051 81.6901 189.051C81.3647 189.051 81.1074 189.3 81.1074 189.604Z" fill="#1C0B0F"/>
<path d="M77.0635 189.292C77.0635 189.602 77.3248 189.848 77.6422 189.848C77.9648 189.848 78.2208 189.602 78.2208 189.292C78.2208 188.987 77.9648 188.74 77.6422 188.74C77.3248 188.74 77.0635 188.987 77.0635 189.292Z" fill="#1C0B0F"/>
<path d="M78.9609 192.124C78.9609 192.432 79.2223 192.679 79.5436 192.679C79.8596 192.679 80.1169 192.432 80.1169 192.124C80.1169 191.822 79.8596 191.57 79.5436 191.57C79.2223 191.57 78.9609 191.822 78.9609 192.124Z" fill="#1C0B0F"/>
<path d="M80.1172 195.139C80.1172 195.442 80.3799 195.692 80.6999 195.692C81.0185 195.692 81.2812 195.442 81.2812 195.139C81.2812 194.831 81.0185 194.584 80.6999 194.584C80.3799 194.584 80.1172 194.831 80.1172 195.139Z" fill="#1C0B0F"/>
<path d="M75.3076 194.704C75.3076 195.01 75.5676 195.256 75.8889 195.256C76.2103 195.256 76.4689 195.01 76.4689 194.704C76.4689 194.4 76.2103 194.152 75.8889 194.152C75.5676 194.152 75.3076 194.4 75.3076 194.704Z" fill="#1C0B0F"/>
<path d="M82.4385 193.234C82.4385 193.539 82.6998 193.79 83.0198 193.79C83.3371 193.79 83.5945 193.539 83.5945 193.234C83.5945 192.928 83.3371 192.679 83.0198 192.679C82.6998 192.679 82.4385 192.928 82.4385 193.234Z" fill="#1C0B0F"/>
<path d="M74.8506 191.666C74.8506 191.971 75.1026 192.216 75.4279 192.216C75.7466 192.216 76.0066 191.971 76.0066 191.666C76.0066 191.362 75.7466 191.111 75.4279 191.111C75.1026 191.111 74.8506 191.362 74.8506 191.666Z" fill="#1C0B0F"/>
<path d="M66.5293 201.53C65.3733 202.047 64.1826 202.406 63.0293 202.658C63.7026 203.731 65.056 204.471 66.6266 204.471C68.1853 204.471 69.5213 203.747 70.2053 202.696C69.0013 202.439 67.7453 202.07 66.5293 201.53Z" fill="#B13557"/>
</svg>
