<svg width="117" height="118" viewBox="0 0 117 118" fill="none" xmlns="http://www.w3.org/2000/svg">
<path d="M105.371 62.6777C97.9592 82.3417 76.7486 85.619 58.8059 85.619C40.8579 85.619 22.0139 82.6817 12.2325 63.9844C-1.90879 36.9551 6.75655 7.63237 58.7992 7.63237C110.847 7.63237 115.314 36.319 105.371 62.6777Z" fill="#A58897"/>
<path d="M98.8982 59.823C99.2262 59.075 99.4076 58.2497 99.4076 57.391C99.4076 53.8977 96.4516 51.0644 92.8049 51.0644C89.3302 51.0644 86.5182 53.639 86.2449 56.8963C78.8022 55.8043 69.7942 55.3123 58.9622 55.475C48.0315 55.639 38.9142 56.4177 31.3729 57.7523C31.3822 57.6323 31.4076 57.515 31.4076 57.391C31.4076 53.8977 28.4529 51.0644 24.8049 51.0644C21.1542 51.0644 18.1982 53.8977 18.1982 57.391C18.1982 58.6563 18.5969 59.831 19.2649 60.8204C1.79555 66.9977 -1.85911 78.2297 2.26622 93.1457C8.55422 115.875 41.0115 117.846 58.9622 117.846C76.9075 117.846 110.318 117.983 115.657 93.1457C119.125 76.999 115.74 65.6097 98.8982 59.823Z" fill="#C29DAC"/>
<path d="M95.6397 57.391C95.6397 58.887 94.365 60.1017 92.805 60.1017C91.2397 60.1017 89.9717 58.887 89.9717 57.391C89.9717 55.8923 91.2397 54.679 92.805 54.679C94.365 54.679 95.6397 55.8923 95.6397 57.391Z" fill="#5C484E"/>
<path d="M44.8152 48.399C44.8152 50.6496 42.9059 52.4763 40.5539 52.4763C38.2006 52.4763 36.2886 50.6496 36.2886 48.399C36.2886 46.1416 38.2006 44.315 40.5539 44.315C42.9059 44.315 44.8152 46.1416 44.8152 48.399Z" fill="#FFFBFD"/>
<path d="M39.7036 48.8897C39.2329 48.8897 38.8556 48.5244 38.8556 48.0724C38.8556 47.6244 39.2329 47.2604 39.7036 47.2604C40.1742 47.2604 40.5542 47.6244 40.5542 48.0724C40.5542 48.5244 40.1742 48.8897 39.7036 48.8897ZM39.2942 49.8977C39.0569 49.8977 38.8636 49.7137 38.8636 49.4844C38.8636 49.2537 39.0569 49.0698 39.2942 49.0698C39.5356 49.0698 39.7302 49.2537 39.7302 49.4844C39.7302 49.7137 39.5356 49.8977 39.2942 49.8977ZM40.4822 46.7617C38.9142 46.7617 38.1636 47.8564 38.1636 48.9857C38.1636 50.211 39.2036 51.2057 40.4822 51.2057C41.7676 51.2057 42.8049 50.211 42.8049 48.9857C42.8049 47.7564 41.7676 46.7617 40.4822 46.7617Z" fill="#212121"/>
<path d="M34.3368 44.5204C34.3075 44.5204 34.2794 44.5177 34.2501 44.5124C33.9874 44.4657 33.8115 44.2137 33.8595 43.951C34.2048 41.9724 35.9275 40.5803 38.0635 40.5803C38.0715 40.5803 38.0794 40.5803 38.0874 40.5803C38.6768 40.5803 39.2981 40.6817 39.9328 40.8977C40.1861 40.9844 40.3208 41.259 40.2341 41.5124C40.1661 41.7137 39.9768 41.8404 39.7755 41.8404C39.7235 41.8404 39.6714 41.8324 39.6194 41.815C39.0794 41.631 38.5661 41.5484 38.0874 41.5484C36.3488 41.559 35.0901 42.6071 34.8128 44.1204V44.1217C34.7701 44.3564 34.5661 44.5204 34.3368 44.5204Z" fill="#706578"/>
<path d="M72.7886 48.399C72.7886 50.6496 74.6939 52.4763 77.0526 52.4763C79.4112 52.4763 81.3179 50.6496 81.3179 48.399C81.3179 46.1416 79.4112 44.315 77.0526 44.315C74.6939 44.315 72.7886 46.1416 72.7886 48.399Z" fill="#FFFBFD"/>
<path d="M77.0529 48.0724C77.0529 47.6244 77.4342 47.2604 77.9009 47.2604C78.3729 47.2604 78.7529 47.6244 78.7529 48.0724C78.7529 48.5244 78.3729 48.8897 77.9009 48.8897C77.4342 48.8897 77.0529 48.5244 77.0529 48.0724ZM77.8769 49.4844C77.8769 49.2537 78.0716 49.0698 78.3089 49.0698C78.5503 49.0698 78.7449 49.2537 78.7449 49.4844C78.7449 49.7137 78.5503 49.8977 78.3089 49.8977C78.0716 49.8977 77.8769 49.7137 77.8769 49.4844ZM74.8022 48.9857C74.8022 50.211 75.8422 51.2057 77.1262 51.2057C78.4062 51.2057 79.4409 50.211 79.4409 48.9857C79.4409 47.8564 78.6876 46.7617 77.1262 46.7617C75.8422 46.7617 74.8022 47.7564 74.8022 48.9857Z" fill="#212121"/>
<path d="M83.2753 44.5204C83.0446 44.5204 82.8406 44.3551 82.7992 44.1204C82.5219 42.6071 81.2646 41.559 79.5232 41.5484C79.0432 41.5484 78.5272 41.631 77.9886 41.815C77.9379 41.8324 77.8846 41.8404 77.8326 41.8404C77.6312 41.8404 77.4419 41.7137 77.3739 41.5124C77.2873 41.259 77.4219 40.9844 77.6766 40.8977C78.3113 40.6804 78.9326 40.5803 79.5232 40.5803C79.5312 40.5803 79.5392 40.5803 79.5472 40.5803C81.6846 40.5803 83.4072 41.9724 83.7526 43.951C83.7992 44.215 83.6232 44.4657 83.3606 44.5124C83.3312 44.5177 83.3033 44.5204 83.2753 44.5204Z" fill="#706578"/>
<path d="M85.37 12.4003C91.1927 15.0857 95.9953 18.6843 99.91 22.9403L99.926 22.9376C113.605 20.8336 112.886 3.20697 97.5687 0.706974C82.246 -1.79436 85.37 12.3749 85.37 12.3749V12.4003Z" fill="#9B7F8D"/>
<path d="M98.4917 21.4443C105.501 19.0563 104.508 9.167 95.389 7.67767C88.353 6.53367 87.4317 10.895 87.4637 13.4217C91.6957 15.6297 95.357 18.3363 98.4917 21.4443Z" fill="#856D78"/>
<path d="M32.2352 12.4003C26.4099 15.0857 21.6112 18.6843 17.6966 22.9403L17.6792 22.9376C4.00324 20.8336 4.71924 3.20697 20.0432 0.706974C35.3592 -1.79436 32.2379 12.3749 32.2379 12.3749L32.2352 12.4003Z" fill="#9B7F8D"/>
<path d="M19.1154 21.4443C12.1061 19.0563 13.1007 9.167 22.2167 7.67767C29.2527 6.53367 30.1727 10.895 30.1421 13.4217C25.9127 15.6297 22.2474 18.3363 19.1154 21.4443Z" fill="#856D78"/>
<path d="M22.7539 90.0911V99.3844C22.7539 101.103 24.2046 102.499 26.0059 102.499L32.5246 103.766C34.3219 103.766 35.7793 102.367 35.7793 100.648V95.3871C30.0966 94.0004 25.8806 92.1111 22.7539 90.0911Z" fill="#FFFBFD"/>
<path d="M81.8232 94.9671V100.648C81.8232 102.367 83.2819 103.766 85.0793 103.766L91.5979 102.499C93.3992 102.499 94.8512 101.103 94.8512 99.3844V89.7618C94.8512 89.6391 94.8299 89.5178 94.8152 89.3951C91.6819 91.4751 87.4632 93.4578 81.8232 94.9671Z" fill="#FFFBFD"/>
<path d="M13.1995 78.2777C13.2035 78.3737 13.6421 83.4124 19.4888 88.3924C25.3328 93.3751 36.5088 98.259 57.8741 98.2577C79.2368 98.259 90.8701 93.3737 97.1715 88.407C103.474 83.443 104.39 78.4244 104.403 78.3311C104.458 78.0217 104.251 77.7283 103.943 77.675C103.635 77.6203 103.342 77.827 103.289 78.135L103.281 78.171C103.178 78.6457 102.066 83.3484 95.8875 87.9644C89.7061 92.5791 78.4088 97.1257 57.8741 97.1257C36.6701 97.1257 25.7915 92.2804 20.2235 87.5311C17.4368 85.1551 15.9674 82.7977 15.1874 81.043C14.7981 80.1657 14.5821 79.4403 14.4648 78.939C14.4061 78.6883 14.3714 78.4937 14.3514 78.3657L14.3328 78.2231L14.3288 78.1871C14.3035 77.8764 14.0314 77.643 13.7194 77.6684C13.4074 77.6924 13.1755 77.9657 13.1995 78.2777Z" fill="#9B7F8D"/>
<path d="M27.6357 57.391C27.6357 58.887 26.3623 60.1017 24.805 60.1017C23.2397 60.1017 21.9717 58.887 21.9717 57.391C21.9717 55.8923 23.2397 54.679 24.805 54.679C26.3623 54.679 27.6357 55.8923 27.6357 57.391Z" fill="#5C484E"/>
</svg>
