<svg width="158" height="139" viewBox="0 0 158 139" fill="none" xmlns="http://www.w3.org/2000/svg">
<path d="M145.473 50.707C149.056 50.4577 153.076 50.7443 157.412 51.9563C157.412 51.9563 153.69 44.887 142.873 43.7377L150.445 38.7203C150.445 38.7203 140.972 35.3523 130.78 37.487C134.94 35.0777 140.476 33.047 147.426 32.8857C147.426 32.8857 141.637 27.2297 130.968 29.2803L136.588 22.2963C136.588 22.2963 130.4 22.015 123.377 24.2883C126.426 22.391 130.142 20.759 134.637 19.823C134.637 19.823 127.836 15.3203 117.761 19.2683L121.905 11.3937C121.905 11.3937 111.901 12.7723 104.026 19.315C106.471 15.2923 110.313 10.9724 116.337 7.65236C116.337 7.65236 108.429 5.33632 100.082 12.0243L101.531 3.31902C101.531 3.31902 94.1157 6.75633 88.6761 13.6937C88.6281 8.45633 88.3688 5.05766 88.3688 5.05766L84.3063 10.3017C84.8496 7.30167 85.8933 4.09767 87.686 0.803009C87.686 0.803009 81.8933 2.34833 78.1557 8.963C74.4808 3.81099 69.7287 2.54434 69.7287 2.54434C71.7652 6.283 72.8376 9.91365 73.3021 13.2563L67.6136 7.37502C67.6136 7.37502 66.9677 8.62567 67.8948 14.407C62.5641 8.15634 55.8849 5.05766 55.8849 5.05766L57.3339 13.7657C48.9865 7.07634 41.0781 9.38966 41.0781 9.38966C47.1037 12.7137 50.9407 17.0337 53.3953 21.0537C45.5147 14.5123 35.5131 13.1297 35.5131 13.1297L39.65 21.0057C29.5776 17.059 22.7772 21.5617 22.7772 21.5617C27.272 22.499 30.9891 24.1283 34.0412 26.0283C27.0163 23.755 20.8281 24.0363 20.8281 24.0363L26.4491 31.0177C15.7776 28.967 9.99173 34.6217 9.99173 34.6217C16.9401 34.7817 22.4699 36.8163 26.6313 39.223C16.4443 37.0883 6.97293 40.459 6.97293 40.459L14.5448 45.4763C3.7276 46.6243 0 53.695 0 53.695C4.34013 52.4803 8.35893 52.1977 11.9428 52.4443C5.4896 55.5563 1.45427 59.7777 1.45427 59.7777L10.5797 60.9363C1.50573 66.683 1.56093 74.603 1.56093 74.603C6.60893 70.023 12.0287 67.731 16.7548 66.631C7.95533 71.9963 3.7188 80.775 3.7188 80.775L12.7803 79.2257C5.9532 87.3403 8.52093 94.871 8.52093 94.871C10.7396 91.0123 13.4355 88.067 16.21 85.811C11.9261 91.6057 10.4428 97.3643 10.4428 97.3643L19.0339 94.2017C13.9349 103.406 17.9469 110.33 17.9469 110.33C20.0887 103.998 23.7032 99.5043 27.3043 96.375C22.2579 105.114 22.9224 114.767 22.9224 114.767L30.1073 109.252C28.1657 119.506 34.1824 124.942 34.1824 124.942C34.2349 115.267 38.4729 108.384 42.1016 104.251C35.6631 113.93 37.1683 125.663 37.1683 125.663L44.0183 119.776C42.6819 130.118 48.9996 135.226 48.9996 135.226C48.7735 130.899 49.4141 127.094 50.4969 123.815C52.162 130.544 55.5193 135.282 55.5193 135.282L58.812 127.048C62.5439 136.834 70.6068 138.615 70.6068 138.615C69.3496 136.539 68.4183 134.487 67.724 132.49L71.2964 129.508C71.2387 131.787 71.2704 134.239 71.448 136.879C71.448 136.879 76.3543 136.879 79.5089 127.499L80.0329 136.299C80.0329 136.299 87.972 130.316 91.3849 120.878C91.3657 125.535 90.2917 131.116 86.8043 136.879C86.8043 136.879 94.8688 135.096 98.6043 125.31L101.895 133.542C101.895 133.542 105.25 128.807 106.919 122.076C107.998 125.356 108.641 129.162 108.41 133.484C108.41 133.484 114.734 128.379 113.393 118.04L120.246 123.926C120.246 123.926 121.753 112.188 115.314 102.51C118.942 106.643 123.18 113.528 123.23 123.203C123.23 123.203 129.245 117.768 127.306 107.515L134.49 113.028C134.49 113.028 135.158 103.375 130.108 94.6363C133.713 97.7657 137.328 102.259 139.47 108.594C139.47 108.594 143.481 101.666 138.382 92.4603L146.973 95.627C146.973 95.627 145.493 89.8657 141.204 84.0697C143.978 86.327 146.673 89.2723 148.893 93.1297C148.893 93.1297 151.462 85.603 144.629 77.4883L153.697 79.0363C153.697 79.0363 149.46 70.2577 140.658 64.8937C145.386 65.9937 150.805 68.283 155.854 72.8643C155.854 72.8643 155.912 64.9443 146.832 59.1977L155.961 58.0403C155.961 58.0403 151.924 53.819 145.473 50.707Z" fill="#5D2C18"/>
<path d="M116.233 61.8976C111.506 52.1856 107.21 50.223 98.3985 46.151C79.4662 37.415 50.4557 41.1643 39.1297 64.2496C33.7979 75.119 33.7979 84.6963 43.0818 96.6843C60.5906 119.303 94.3818 124.55 111.498 99.4683C123.277 82.2056 122.174 74.0856 116.233 61.8976Z" fill="#C68B3B"/>
<path d="M39.5598 64.995C40.5504 65.0403 41.5385 65.583 42.5306 65.3003C42.778 65.2283 42.7604 64.8936 42.5306 64.8163C41.5994 64.499 40.5348 64.483 39.5598 64.4776C39.2244 64.4763 39.228 64.9803 39.5598 64.995Z" fill="#8C6128"/>
<path d="M41.8326 62.3284C42.716 62.5937 43.6456 63.2137 44.5873 63.1524C44.8201 63.1377 44.9076 62.8444 44.7054 62.7137C43.931 62.2164 42.8706 61.9884 41.9784 61.7977C41.6326 61.7244 41.4909 62.2257 41.8326 62.3284Z" fill="#8C6128"/>
<path d="M43.6098 58.8323C44.3128 58.979 44.9894 59.351 45.7051 59.3897C45.903 59.4004 45.9847 59.1483 45.8592 59.0163C45.3363 58.4697 44.4972 58.3324 43.7779 58.223C43.3847 58.163 43.2051 58.7483 43.6098 58.8323Z" fill="#8C6128"/>
<path d="M46.356 60.2496C47.0175 60.4016 47.6639 60.8736 48.3341 60.8682C48.5685 60.8656 48.6461 60.6029 48.5123 60.4389C48.0556 59.8842 47.1071 59.7802 46.4316 59.6922C46.1117 59.6522 46.0499 60.1789 46.356 60.2496Z" fill="#8C6128"/>
<path d="M47.2647 55.8804C47.8439 56.1577 48.5625 56.7897 49.2235 56.7337C49.45 56.7137 49.5776 56.5017 49.4756 56.295C49.1652 55.667 48.1448 55.4537 47.5272 55.2577C47.1631 55.143 46.9157 55.711 47.2647 55.8804Z" fill="#8C6128"/>
<path d="M52.9348 56.8656C53.2771 57.2416 53.3875 57.635 53.9203 57.6896C54.0427 57.7016 54.164 57.5936 54.1927 57.4816C54.3296 56.9563 53.9114 56.591 53.5651 56.235C53.1614 55.823 52.552 56.4416 52.9348 56.8656Z" fill="#8C6128"/>
<path d="M51.8593 52.9642C52.1989 53.3402 52.4889 53.7829 52.9738 53.9629C53.1613 54.0322 53.2629 53.8096 53.202 53.6656C53.0104 53.2176 52.5462 52.9482 52.1796 52.6442C51.9572 52.4589 51.6608 52.7442 51.8593 52.9642Z" fill="#8C6128"/>
<path d="M55.6745 49.959C56.2844 50.5043 56.5079 51.5697 57.2866 51.8803C57.4699 51.9523 57.7032 51.8017 57.7443 51.619C57.9606 50.671 56.8538 49.775 56.1158 49.387C55.762 49.2003 55.3543 49.6723 55.6745 49.959Z" fill="#8C6128"/>
<path d="M56.4646 54.087C56.8333 54.5723 57.1609 55.311 57.7682 55.5084C57.9365 55.563 58.0693 55.4203 58.0854 55.267C58.1537 54.6217 57.5015 54.047 57.125 53.5777C56.8281 53.2057 56.1761 53.7083 56.4646 54.087Z" fill="#8C6128"/>
<path d="M60.3274 47.6137C60.5378 48.143 60.8846 48.775 61.4013 49.047C61.5852 49.1443 61.7961 48.987 61.7466 48.7817C61.6076 48.2137 61.0789 47.7217 60.6122 47.3937C60.4789 47.3003 60.2654 47.4577 60.3274 47.6137Z" fill="#8C6128"/>
<path d="M61.316 51.9497C61.4086 52.7137 61.6368 53.7497 62.4518 54.0257C62.607 54.0777 62.8045 53.9363 62.7893 53.7683C62.7278 53.0697 62.1502 52.5337 61.9362 51.867C61.8321 51.5443 61.2717 51.5817 61.316 51.9497Z" fill="#8C6128"/>
<path d="M65.7635 49.915C65.7661 50.583 65.6463 51.731 66.388 52.0297L66.6072 51.939C66.9755 51.3603 66.4176 50.4337 66.2088 49.855C66.1244 49.6217 65.7624 49.6483 65.7635 49.915Z" fill="#8C6128"/>
<path d="M68.9993 46.2056C69.1534 46.8816 69.2883 47.5229 69.5826 48.1563C69.6389 48.2776 69.8143 48.1869 69.7893 48.0683C69.6482 47.3896 69.5081 46.7443 69.2362 46.1043C69.1764 45.9643 68.9679 46.0683 68.9993 46.2056Z" fill="#8C6128"/>
<path d="M69.5346 49.915C69.5914 50.623 69.5258 51.591 70.0679 52.1217C70.1878 52.239 70.443 52.2017 70.4742 52.015C70.593 51.307 70.2231 50.5283 70.0435 49.8457C69.9706 49.5683 69.5111 49.619 69.5346 49.915Z" fill="#8C6128"/>
<path d="M65.2065 46.1696C65.2706 46.8923 65.3508 47.9883 66.057 48.371C66.2878 48.495 66.5002 48.3323 66.5326 48.099C66.6212 47.435 66.0586 46.7136 65.8742 46.0803C65.7706 45.7216 65.1722 45.7776 65.2065 46.1696Z" fill="#8C6128"/>
<path d="M73.0071 44.7777C73.0753 45.503 73.0551 46.2684 73.4065 46.9244C73.492 47.083 73.7721 47.059 73.8065 46.8724C73.9425 46.1324 73.6789 45.4244 73.4997 44.7124C73.4316 44.4417 72.9795 44.491 73.0071 44.7777Z" fill="#8C6128"/>
<path d="M77.9531 44.8869C77.989 45.4856 77.8255 46.1589 78.09 46.7136C78.1608 46.8603 78.4108 46.8616 78.4818 46.7136C78.7578 46.1323 78.5666 45.4163 78.3828 44.8296C78.3114 44.6016 77.9386 44.6323 77.9531 44.8869Z" fill="#8C6128"/>
<path d="M82.9872 45.5296C82.9664 45.9043 82.8778 46.2963 83.0258 46.6483C83.0998 46.8243 83.3111 46.8243 83.3851 46.6483C83.5331 46.2963 83.4444 45.9043 83.4236 45.5296C83.4085 45.2483 83.0023 45.2483 82.9872 45.5296Z" fill="#8C6128"/>
<path d="M89.7227 46.6536C89.5587 47.3563 89.2836 48.019 89.2003 48.7376C89.1816 48.8976 89.4139 48.9363 89.4868 48.815C89.866 48.1843 89.9915 47.479 90.0978 46.7576C90.1327 46.5163 89.7811 46.4043 89.7227 46.6536Z" fill="#8C6128"/>
<path d="M95.9027 46.9777C95.1683 47.7497 94.9115 48.7737 94.8376 49.8097C94.8204 50.0483 95.1281 50.0763 95.2448 49.9203C95.8485 49.107 96.0204 48.151 96.2677 47.1897C96.3204 46.9843 96.0563 46.8163 95.9027 46.9777Z" fill="#8C6128"/>
<path d="M101.213 52.4083C101.713 51.6483 102.45 50.9456 102.758 50.083C102.822 49.903 102.584 49.7123 102.425 49.827C101.671 50.3776 101.187 51.331 100.737 52.1296C100.562 52.4416 101.019 52.703 101.213 52.4083Z" fill="#8C6128"/>
<path d="M106.206 54.7536C106.875 54.343 107.769 54.0963 108.316 53.5296C108.479 53.3616 108.363 53.0763 108.128 53.0736C107.305 53.0616 106.474 53.6403 105.807 54.0683C105.378 54.343 105.768 55.023 106.206 54.7536Z" fill="#8C6128"/>
<path d="M109.394 58.695C110.233 58.6483 111.007 58.5616 111.743 58.1363C111.906 58.043 111.883 57.7656 111.689 57.7216C110.835 57.535 110.129 57.8536 109.307 58.0576C108.957 58.147 109.026 58.7137 109.394 58.695Z" fill="#8C6128"/>
<path d="M48.5552 63.467C49.702 63.5243 50.7728 64.3497 51.9104 64.2137C52.2208 64.1763 52.4572 63.807 52.1848 63.5497C51.2416 62.663 49.6785 62.5097 48.452 62.7043C47.9999 62.775 48.1395 63.447 48.5552 63.467Z" fill="#8C6128"/>
<path d="M52.8152 60.6576C53.5043 61.1163 54.2808 61.8896 55.1511 61.887C55.4287 61.887 55.5459 61.5576 55.3688 61.3629C55.086 61.0509 54.7152 60.8816 54.3606 60.6656C53.9792 60.4336 53.6163 60.1723 53.2396 59.9323C52.7803 59.6376 52.3663 60.3603 52.8152 60.6576Z" fill="#8C6128"/>
<path d="M59.4328 58.3963C59.6952 58.9243 60.0463 59.5283 60.601 59.783C60.825 59.887 61.0536 59.7203 61.0047 59.4736C60.9015 58.9443 60.5099 58.523 60.3052 58.0283C60.04 57.3896 59.1244 57.7776 59.4328 58.3963Z" fill="#8C6128"/>
<path d="M64.6711 56.0576C65.0059 56.9029 65.2987 58.0869 66.0534 58.6509C66.2127 58.7696 66.495 58.6496 66.5288 58.4563C66.6872 57.5509 66.0731 56.5803 65.7476 55.7616C65.4851 55.1003 64.4055 55.3869 64.6711 56.0576Z" fill="#8C6128"/>
<path d="M70.7753 54.9363C70.9753 55.7136 71.0456 56.7496 71.4816 57.4229C71.5956 57.5989 71.8638 57.5709 71.9258 57.3643C72.169 56.5483 71.704 55.5296 71.493 54.7389C71.369 54.2749 70.655 54.4723 70.7753 54.9363Z" fill="#8C6128"/>
<path d="M74.7606 49.4869C74.8173 49.9936 74.9116 50.4909 75.0106 50.9909C75.1058 51.4776 75.133 51.9656 75.3689 52.4083C75.4601 52.5789 75.7574 52.5963 75.844 52.4083C76.271 51.4816 75.6888 50.3269 75.5392 49.3803C75.4705 48.9403 74.711 49.0443 74.7606 49.4869Z" fill="#8C6128"/>
<path d="M80.2363 51.307C80.2363 52.0204 80.2681 52.6724 80.3869 53.3777C80.4087 53.5084 80.6301 53.5084 80.6525 53.3777C80.7707 52.6724 80.803 52.0204 80.803 51.307C80.803 50.9417 80.2363 50.9417 80.2363 51.307Z" fill="#8C6128"/>
<path d="M87.2371 52.3776C87.1448 53.1923 87.1767 53.9216 87.2735 54.7296C87.2986 54.9296 87.5511 54.9723 87.624 54.7763C87.911 54.0096 87.971 53.2963 88.0954 52.4923C88.1928 51.8643 87.3084 51.747 87.2371 52.3776Z" fill="#8C6128"/>
<path d="M79.7877 48.9363C79.547 49.5723 79.3325 50.2563 79.5601 50.927C79.621 51.103 79.859 51.103 79.9194 50.927C80.1382 50.287 79.9549 49.6083 79.9142 48.9523L79.7877 48.9363Z" fill="#8C6128"/>
<path d="M83.9949 48.935C84.1887 50.0416 83.6418 51.443 84.2221 52.4563C84.361 52.699 84.7267 52.699 84.8658 52.4563C85.4819 51.3803 84.8454 49.8696 84.6511 48.755C84.5757 48.323 83.921 48.5056 83.9949 48.935Z" fill="#8C6128"/>
<path d="M75.8747 56.1243C76.3804 57.4243 76.0512 59.087 76.895 60.2417C77.0356 60.435 77.4236 60.467 77.4716 60.1657C77.7007 58.7537 77.2148 57.195 76.6706 55.9057C76.469 55.427 75.6788 55.623 75.8747 56.1243Z" fill="#8C6128"/>
<path d="M89.8617 56.7777C89.4587 57.307 89.2784 57.8217 89.2414 58.479C89.2336 58.611 89.4258 58.6257 89.4638 58.5083C89.6389 57.9723 89.854 57.427 90.1832 56.9657C90.3248 56.7683 90.004 56.591 89.8617 56.7777Z" fill="#8C6128"/>
<path d="M84.8141 56.607C84.6417 57.4723 84.2761 58.4429 84.3573 59.3296C84.3745 59.5136 84.5985 59.5856 84.7048 59.4243C85.21 58.6563 85.1214 57.5403 85.1797 56.6576C85.1938 56.447 84.8557 56.4016 84.8141 56.607Z" fill="#8C6128"/>
<path d="M92.9557 49.9149C92.8699 51.0256 92.2453 52.0043 92.2043 53.1256C92.1959 53.3483 92.5235 53.5136 92.674 53.3203C93.4688 52.2989 93.8131 51.1136 93.56 49.8323C93.4887 49.4723 92.9808 49.5883 92.9557 49.9149Z" fill="#8C6128"/>
<path d="M97.547 53.6576C96.8287 54.9322 96.0647 56.0882 95.5584 57.4682C95.4871 57.6616 95.7647 57.7456 95.8688 57.6002C96.7366 56.3909 97.4558 55.2402 97.947 53.8242C98.0287 53.5882 97.6667 53.4442 97.547 53.6576Z" fill="#8C6128"/>
<path d="M101.281 57.4323C100.694 58.2056 99.8789 58.8376 99.4336 59.7096L99.5988 59.8363C100.243 59.1056 100.936 58.395 101.535 57.6283C101.679 57.443 101.422 57.2456 101.281 57.4323Z" fill="#8C6128"/>
<path d="M105.724 58.9469C104.894 59.6163 103.606 60.2603 103.099 61.2336C103 61.4269 103.164 61.6869 103.392 61.6149C104.471 61.2776 105.336 60.1003 106.068 59.2909C106.281 59.0536 105.965 58.7549 105.724 58.9469Z" fill="#8C6128"/>
<path d="M102.236 55.499C102.036 55.707 101.92 55.9136 101.832 56.187C101.783 56.335 101.983 56.4416 102.088 56.335C102.252 56.1683 102.45 56.0456 102.625 55.887C102.888 55.6523 102.483 55.2416 102.236 55.499Z" fill="#8C6128"/>
<path d="M94.8092 60.4857C94.2753 61.1417 93.293 61.7017 93.1112 62.5777C93.0722 62.7657 93.2384 62.9923 93.4493 62.9163C94.3545 62.587 94.7373 61.515 95.1013 60.711C95.1816 60.5337 94.9529 60.3083 94.8092 60.4857Z" fill="#8C6128"/>
<path d="M56.3039 64.7096C57.2673 65.2083 58.2809 65.9883 59.396 66.0469C59.5877 66.0576 59.6408 65.7936 59.4897 65.7003C58.5892 65.1469 57.4664 64.6189 56.4221 64.4283C56.2601 64.3976 56.1397 64.6243 56.3039 64.7096Z" fill="#8C6128"/>
<path d="M59.8749 63.059C60.7224 63.7777 61.5416 64.6763 62.5515 65.1577C62.7337 65.2457 62.9052 65.0337 62.7667 64.879C62.0285 64.047 61.24 62.9723 60.1427 62.599C59.8875 62.5123 59.6661 62.8803 59.8749 63.059Z" fill="#8C6128"/>
<path d="M64.6297 61.9363C64.9584 62.8803 65.4 63.7309 65.9917 64.5349C66.0724 64.6443 66.2824 64.5843 66.2287 64.4349C65.8923 63.4976 65.309 62.7243 64.8819 61.8309C64.8142 61.6909 64.5787 61.7896 64.6297 61.9363Z" fill="#8C6128"/>
<path d="M68.9444 60.559C69.2413 61.595 69.4523 62.923 70.0929 63.8043C70.2101 63.9643 70.4325 63.8656 70.4039 63.6723C70.3184 63.115 70.044 62.5856 69.8497 62.0563C69.6559 61.5283 69.4793 60.9936 69.3039 60.4603C69.2288 60.2336 68.8777 60.327 68.9444 60.559Z" fill="#8C6128"/>
<path d="M72.0884 60.5856C72.1914 61.1643 72.2936 61.7443 72.3826 62.327C72.4628 62.8483 72.4868 63.3563 72.7164 63.8363C72.8045 64.0203 73.1013 63.971 73.1456 63.7803C73.3878 62.7323 72.8773 61.4523 72.6341 60.435C72.5482 60.075 72.0248 60.231 72.0884 60.5856Z" fill="#8C6128"/>
<path d="M78.7244 60.9377C78.6926 61.7337 78.5421 62.547 78.7166 63.327L78.9681 63.3604C79.3588 62.6124 79.2265 61.759 79.1946 60.9377C79.1822 60.635 78.7369 60.6363 78.7244 60.9377Z" fill="#8C6128"/>
<path d="M79.623 56.123C79.6085 56.7684 79.5058 57.4657 79.6939 58.0897C79.7402 58.2444 79.9595 58.2444 80.0058 58.0897C80.1939 57.4657 80.0913 56.7684 80.0767 56.123C80.0694 55.8297 79.6303 55.8297 79.623 56.123Z" fill="#8C6128"/>
<path d="M82.6943 62.1417C82.5287 63.0577 82.0439 64.471 82.56 65.331C82.6486 65.4804 82.861 65.4764 82.9506 65.331C83.1954 64.9377 83.1891 64.523 83.2147 64.0697C83.2475 63.455 83.2486 62.8364 83.2824 62.2204C83.3 61.8857 82.7543 61.8084 82.6943 62.1417Z" fill="#8C6128"/>
<path d="M86.7942 62.9137C86.6692 63.4977 86.4573 64.0897 86.3947 64.6817C86.375 64.859 86.6119 64.8777 86.6958 64.7643C87.049 64.2803 87.0995 63.603 87.2162 63.0283C87.2719 62.755 86.8536 62.6363 86.7942 62.9137Z" fill="#8C6128"/>
<path d="M89.2494 65.371C89.0259 65.7257 88.817 66.0937 88.6279 66.4683L88.7295 66.547C89.0035 66.2177 89.2098 65.8403 89.4593 65.4923C89.5494 65.367 89.3331 65.2363 89.2494 65.371Z" fill="#8C6128"/>
<path d="M71.6579 68.9417C72.1579 69.843 72.3125 71.1123 73.0199 71.875C73.1193 71.9817 73.3391 71.9043 73.3229 71.7483C73.2204 70.731 72.5235 69.5937 71.9505 68.7697C71.8272 68.5937 71.5496 68.7483 71.6579 68.9417Z" fill="#8C6128"/>
<path d="M74.7838 66.7137C74.9208 67.9937 75.2474 69.227 75.7381 70.4123C75.8073 70.5803 76.1042 70.643 76.1442 70.4123C76.375 69.051 75.6526 67.919 75.2933 66.6457C75.2157 66.3737 74.752 66.4163 74.7838 66.7137Z" fill="#8C6128"/>
<path d="M79.6459 69.271C79.398 70.335 79.1954 71.3817 79.521 72.4457C79.5882 72.6643 79.8896 72.659 79.9584 72.4457C80.2678 71.4897 80.2934 70.491 80.5043 69.5083C80.6246 68.9497 79.7762 68.711 79.6459 69.271Z" fill="#8C6128"/>
<path d="M74.8335 76.3616C74.9768 76.5856 75.1028 76.7856 75.284 76.979C75.3835 77.083 75.5435 76.9736 75.5148 76.8443C75.4564 76.5856 75.3559 76.3589 75.2528 76.1163C75.1331 75.8336 74.6607 76.091 74.8335 76.3616Z" fill="#8C6128"/>
<path d="M76.5939 73.9523C76.7063 74.559 76.7653 75.2243 77.0277 75.7857C77.1033 75.9457 77.3163 75.847 77.3298 75.7043C77.3866 75.0857 77.1777 74.4283 77.0773 73.8203C77.0251 73.5017 76.5339 73.635 76.5939 73.9523Z" fill="#8C6128"/>
<path d="M76.9734 78.699C76.9338 79.555 76.7261 80.8257 77.2255 81.579C77.3089 81.7044 77.5521 81.7137 77.5807 81.5337C77.6458 81.1164 77.5343 80.739 77.4818 80.3204C77.4151 79.7804 77.387 79.2404 77.3614 78.699C77.3495 78.4484 76.9843 78.4484 76.9734 78.699Z" fill="#8C6128"/>
<path d="M80.1433 75.2323C79.6969 76.391 79.4912 77.5697 79.5938 78.8097C79.6068 78.9683 79.8338 79.0137 79.8802 78.8483C80.2005 77.6897 80.2094 76.491 80.4557 75.319C80.4996 75.111 80.2177 75.0403 80.1433 75.2323Z" fill="#8C6128"/>
<path d="M83.5018 71.4164C83.0669 72.515 82.5232 73.7724 82.4092 74.9564L82.6352 75.0177C83.1665 73.955 83.369 72.599 83.58 71.4364L83.5018 71.4164Z" fill="#8C6128"/>
<path d="M86.7187 68.1789C86.1613 69.1496 85.5395 70.1856 85.4129 71.3162C85.3973 71.4562 85.6056 71.4976 85.6692 71.3842C86.2156 70.4136 86.476 69.2802 86.8515 68.2349L86.7187 68.1789Z" fill="#8C6128"/>
<path d="M83.0669 67.3963C82.8665 68.419 82.6764 69.5323 82.7477 70.5697L82.9737 70.631C83.4341 69.6816 83.3649 68.5603 83.5655 67.535C83.63 67.2083 83.1305 67.0696 83.0669 67.3963Z" fill="#8C6128"/>
<path d="M78.1093 65.3083C77.9165 66.2803 77.5733 67.651 77.9607 68.5936C78.0462 68.8016 78.2978 68.8016 78.3827 68.5936C78.7702 67.651 78.427 66.2803 78.2342 65.3083H78.1093Z" fill="#8C6128"/>
<path d="M68.7513 66.1789C68.8191 67.1029 69.1185 68.1949 69.8071 68.8456C69.9155 68.9469 70.0551 68.8416 70.0373 68.7123C69.9117 67.8269 69.4207 66.8976 69.0227 66.1056C68.9592 65.9789 68.7409 66.0363 68.7513 66.1789Z" fill="#8C6128"/>
<path d="M64.8952 67.6643C65.2995 68.0976 65.6613 68.5136 66.1031 68.9123C66.4999 69.2696 66.8687 69.7563 67.3817 69.9363C67.5681 70.0016 67.6947 69.8083 67.6708 69.6483C67.5015 68.5443 65.8323 68.079 65.0785 67.483C64.9504 67.3803 64.7785 67.5416 64.8952 67.6643Z" fill="#8C6128"/>
<path d="M68.6831 72.2777C69.1377 72.7937 69.3747 73.4363 69.8949 73.8976C70.02 74.0083 70.2241 73.903 70.1793 73.7323C69.9793 72.9803 69.5236 72.447 68.8596 72.0483C68.7116 71.9603 68.5768 72.1577 68.6831 72.2777Z" fill="#8C6128"/>
<path d="M71.8286 73.5643C71.9089 74.2709 72.1381 75.1243 72.6786 75.6216C72.8266 75.7576 73.0146 75.6189 72.9896 75.4403C72.8933 74.7496 72.372 74.0909 71.9948 73.5203L71.8286 73.5643Z" fill="#8C6128"/>
<path d="M94.1443 63.9123C93.6465 64.5376 92.9235 65.0616 92.5663 65.7789C92.4991 65.9149 92.6429 66.0989 92.7882 66.0003C93.4601 65.5496 93.9839 64.8003 94.4235 64.1283C94.533 63.9603 94.2705 63.7536 94.1443 63.9123Z" fill="#8C6128"/>
<path d="M90.0102 60.3056C89.5513 61.1483 88.8092 62.1016 88.7362 63.0789C88.716 63.3483 89.0488 63.4216 89.2201 63.2789C89.9393 62.6789 90.2936 61.5363 90.7097 60.7136C90.943 60.2509 90.2612 59.8456 90.0102 60.3056Z" fill="#8C6128"/>
<path d="M98.1095 60.5336C97.5069 61.2803 96.9246 61.9896 96.6215 62.9109C96.5549 63.1083 96.7882 63.2549 96.9543 63.1656C97.8407 62.6989 98.2314 61.8469 98.7705 61.0429C99.0345 60.6483 98.4101 60.1589 98.1095 60.5336Z" fill="#8C6128"/>
<path d="M98.3865 48.5003C98.2047 48.9909 97.989 49.4976 97.9453 50.0229C97.9261 50.2483 98.2047 50.3043 98.3458 50.1896C98.7578 49.8523 99.0411 49.3456 99.2734 48.8749C99.5854 48.2416 98.6302 47.8403 98.3865 48.5003Z" fill="#8C6128"/>
<path d="M41.6687 92.6897C42.587 92.683 43.5933 92.6577 44.4662 92.3497C44.689 92.271 44.7078 91.951 44.4662 91.8803C43.5291 91.6057 42.6031 92.143 41.6687 92.187C41.3463 92.203 41.3433 92.6924 41.6687 92.6897Z" fill="#8C6128"/>
<path d="M43.9474 95.371C44.7881 95.1763 45.7979 94.939 46.5182 94.451C46.7078 94.323 46.6349 94.0403 46.4037 94.027C45.5094 93.9763 44.6343 94.5897 43.8053 94.855C43.4781 94.9603 43.6114 95.447 43.9474 95.371Z" fill="#8C6128"/>
<path d="M45.6429 98.9376C46.3246 98.831 47.1251 98.687 47.6063 98.1523C47.721 98.0256 47.6533 97.775 47.4563 97.7896C46.7782 97.8376 46.1475 98.2056 45.4798 98.347C45.0877 98.4323 45.261 98.9963 45.6429 98.9376Z" fill="#8C6128"/>
<path d="M48.2138 97.463C48.8389 97.375 49.6851 97.2443 50.1007 96.7283C50.2242 96.575 50.1591 96.307 49.9278 96.3136C49.2826 96.3296 48.7007 96.7763 48.0679 96.935C47.7154 97.0216 47.8742 97.5123 48.2138 97.463Z" fill="#8C6128"/>
<path d="M49.1736 101.904C49.7569 101.708 50.7383 101.482 51.0111 100.872C51.1007 100.674 50.9949 100.462 50.7673 100.447C50.1331 100.407 49.4684 101.023 48.9189 101.302C48.5861 101.471 48.8195 102.024 49.1736 101.904Z" fill="#8C6128"/>
<path d="M54.8615 100.93C55.1948 100.578 55.5928 100.204 55.4554 99.695C55.4131 99.5364 55.2647 99.4817 55.1172 99.5017C54.6511 99.5697 54.5407 99.9897 54.2506 100.318C53.885 100.732 54.4756 101.335 54.8615 100.93Z" fill="#8C6128"/>
<path d="M53.5554 104.526C53.9257 104.2 54.3563 103.927 54.5361 103.458C54.5861 103.326 54.4287 103.16 54.2943 103.215C53.8298 103.408 53.5653 103.839 53.2443 104.214C53.0601 104.43 53.3413 104.714 53.5554 104.526Z" fill="#8C6128"/>
<path d="M57.263 107.778C57.9662 107.378 59.0229 106.471 58.801 105.556C58.7401 105.31 58.4755 105.254 58.2703 105.34C57.5829 105.636 57.3687 106.715 56.8349 107.223C56.5395 107.504 56.9171 107.976 57.263 107.778Z" fill="#8C6128"/>
<path d="M58.2788 103.504C58.6331 103.035 59.1638 102.532 59.1138 101.908C59.0982 101.711 58.9222 101.623 58.7471 101.698C58.2023 101.932 57.9091 102.626 57.5731 103.094C57.2632 103.526 57.9679 103.918 58.2788 103.504Z" fill="#8C6128"/>
<path d="M61.4912 109.776C61.9349 109.439 62.4391 108.947 62.5652 108.39C62.6095 108.195 62.4105 108.032 62.2308 108.132C61.7297 108.414 61.4053 109.038 61.2147 109.564C61.1605 109.712 61.3605 109.876 61.4912 109.776Z" fill="#8C6128"/>
<path d="M62.7448 105.307C62.9428 104.646 63.4991 104.094 63.548 103.406C63.559 103.247 63.372 103.099 63.2199 103.156C62.4267 103.459 62.2235 104.462 62.1434 105.224C62.1068 105.58 62.65 105.624 62.7448 105.307Z" fill="#8C6128"/>
<path d="M66.7681 107.318C66.9661 106.735 67.4962 105.816 67.1369 105.238L66.879 105.17C66.2004 105.476 66.3322 106.639 66.3358 107.259C66.338 107.515 66.6894 107.547 66.7681 107.318Z" fill="#8C6128"/>
<path d="M69.6224 111.038C69.8813 110.406 70.0094 109.775 70.1324 109.108C70.1532 108.994 69.9838 108.902 69.9313 109.023C69.6584 109.658 69.5261 110.298 69.3802 110.97C69.3453 111.132 69.5625 111.184 69.6224 111.038Z" fill="#8C6128"/>
<path d="M70.3747 107.324C70.5435 106.646 70.9013 105.866 70.7789 105.162C70.7477 104.986 70.4998 104.939 70.3851 105.058C69.8638 105.602 69.931 106.552 69.8815 107.259C69.8611 107.544 70.3075 107.598 70.3747 107.324Z" fill="#8C6128"/>
<path d="M66.4498 111.091C66.6425 110.422 67.1669 109.7 67.0602 108.996C67.0294 108.799 66.7654 108.723 66.6097 108.815C65.9242 109.218 65.8674 110.282 65.8013 111.003C65.7665 111.383 66.3493 111.438 66.4498 111.091Z" fill="#8C6128"/>
<path d="M73.6291 112.459C73.8015 111.75 74.051 111.04 73.9157 110.307C73.8823 110.127 73.6083 110.099 73.5281 110.256C73.1895 110.915 73.2162 111.671 73.1505 112.394C73.125 112.671 73.5646 112.72 73.6291 112.459Z" fill="#8C6128"/>
<path d="M78.2274 112.342C78.403 111.755 78.5868 111.047 78.3202 110.464C78.254 110.32 78.0066 110.32 77.9399 110.464C77.6842 111.02 77.8426 111.688 77.8107 112.286C77.7983 112.531 78.1603 112.566 78.2274 112.342Z" fill="#8C6128"/>
<path d="M82.9716 111.646C82.9914 111.27 83.0773 110.88 82.934 110.527C82.8643 110.356 82.6549 110.356 82.5851 110.527C82.4419 110.88 82.5277 111.27 82.5471 111.646C82.5616 111.919 82.9575 111.919 82.9716 111.646Z" fill="#8C6128"/>
<path d="M89.2545 110.419C89.1554 109.699 89.0388 108.996 88.6769 108.36C88.6081 108.239 88.3826 108.283 88.3993 108.436C88.4737 109.152 88.7357 109.818 88.8914 110.518C88.945 110.762 89.2862 110.651 89.2545 110.419Z" fill="#8C6128"/>
<path d="M95.0647 109.986C94.835 109.022 94.6721 108.086 94.0975 107.259C93.9871 107.099 93.6871 107.138 93.7022 107.366C93.7699 108.395 94.0043 109.4 94.7106 110.191C94.8585 110.356 95.1115 110.18 95.0647 109.986Z" fill="#8C6128"/>
<path d="M99.2611 105.039C99.6695 105.811 100.106 106.759 100.806 107.307C100.963 107.431 101.25 107.324 101.174 107.094C100.895 106.242 100.191 105.527 99.7222 104.768C99.5408 104.475 99.1007 104.734 99.2611 105.039Z" fill="#8C6128"/>
<path d="M104.037 103.098C104.664 103.523 105.44 104.095 106.228 104.095C106.461 104.095 106.56 103.816 106.411 103.652C105.905 103.099 105.053 102.84 104.425 102.434C104.005 102.16 103.63 102.822 104.037 103.098Z" fill="#8C6128"/>
<path d="M107.337 99.1057C108.112 99.315 108.772 99.619 109.581 99.443C109.772 99.4017 109.79 99.135 109.633 99.0417C108.942 98.631 108.214 98.543 107.421 98.491C107.062 98.467 107.001 99.0177 107.337 99.1057Z" fill="#8C6128"/>
<path d="M50.0377 94.459C51.1939 94.651 52.697 94.4856 53.561 93.6149C53.8121 93.3616 53.6063 93.0056 53.2943 92.971C52.2163 92.851 51.2257 93.6656 50.1377 93.7176C49.7334 93.739 49.5991 94.387 50.0377 94.459Z" fill="#8C6128"/>
<path d="M54.5522 97.2309C54.9069 96.9896 55.2528 96.7362 55.6074 96.4949C55.9377 96.2696 56.2929 96.1082 56.5564 95.8042C56.72 95.6136 56.621 95.2922 56.3454 95.2949C55.508 95.3029 54.7888 96.0682 54.1408 96.5256C53.7158 96.8242 54.1142 97.5296 54.5522 97.2309Z" fill="#8C6128"/>
<path d="M61.2112 99.1404C61.405 98.6497 61.7778 98.2204 61.8674 97.6977C61.9065 97.4657 61.6956 97.2844 61.4753 97.3964C60.9378 97.6684 60.6149 98.2577 60.3649 98.783C60.0753 99.3897 60.9654 99.7644 61.2112 99.1404Z" fill="#8C6128"/>
<path d="M66.3387 101.411C66.6433 100.592 67.2333 99.615 67.0672 98.7203C67.0199 98.4643 66.7079 98.4483 66.5428 98.583C65.8584 99.1323 65.5887 100.328 65.2933 101.124C65.0496 101.78 66.0975 102.06 66.3387 101.411Z" fill="#8C6128"/>
<path d="M71.7424 102.432C71.9418 101.64 72.3872 100.624 72.1481 99.8123C72.0902 99.6136 71.8252 99.5816 71.7178 99.7563C71.2944 100.436 71.235 101.462 71.046 102.239C70.9361 102.692 71.6282 102.883 71.7424 102.432Z" fill="#8C6128"/>
<path d="M75.556 107.788C75.6951 106.84 76.2462 105.695 75.8331 104.768C75.7524 104.587 75.4582 104.602 75.3722 104.768C75.1446 105.214 75.116 105.698 75.0311 106.184C74.9451 106.684 74.8524 107.18 74.7998 107.686C74.7555 108.115 75.4936 108.215 75.556 107.788Z" fill="#8C6128"/>
<path d="M80.5065 105.867C80.5065 105.156 80.4753 104.502 80.3606 103.8C80.3398 103.671 80.1237 103.671 80.1029 103.8C79.9884 104.502 79.957 105.156 79.957 105.867C79.957 106.22 80.5065 106.22 80.5065 105.867Z" fill="#8C6128"/>
<path d="M87.3781 104.684C87.2589 103.883 87.2005 103.166 86.9256 102.398C86.8568 102.207 86.6089 102.252 86.586 102.443C86.4886 103.251 86.4573 103.983 86.5458 104.796C86.6119 105.408 87.4703 105.294 87.3781 104.684Z" fill="#8C6128"/>
<path d="M79.6657 108.222C79.7048 107.564 79.8818 106.887 79.6693 106.247C79.6136 106.075 79.3776 106.075 79.322 106.247C79.101 106.919 79.3089 107.599 79.5428 108.239L79.6657 108.222Z" fill="#8C6128"/>
<path d="M84.1279 108.416C84.3155 107.295 84.9311 105.807 84.3337 104.72C84.2051 104.487 83.839 104.487 83.7103 104.72C83.1462 105.744 83.6779 107.13 83.4926 108.242C83.4227 108.658 84.0587 108.835 84.1279 108.416Z" fill="#8C6128"/>
<path d="M76.6214 101.264C77.1329 99.9683 77.5995 98.415 77.3687 97.0097C77.3214 96.723 76.9427 96.7444 76.8089 96.9364C75.9963 98.1044 76.3229 99.7483 75.849 101.05C75.6709 101.542 76.4349 101.735 76.6214 101.264Z" fill="#8C6128"/>
<path d="M89.3324 100.211C89.0199 99.7429 88.8246 99.2016 88.6548 98.6682C88.6178 98.5536 88.4314 98.5696 88.4387 98.6976C88.473 99.3429 88.6434 99.8629 89.021 100.392C89.1538 100.58 89.4636 100.406 89.3324 100.211Z" fill="#8C6128"/>
<path d="M84.6244 100.516C84.5733 99.6324 84.6624 98.5297 84.1776 97.751C84.0776 97.5897 83.8588 97.667 83.8416 97.8417C83.7552 98.7284 84.1072 99.6977 84.2686 100.564C84.3066 100.766 84.6353 100.718 84.6244 100.516Z" fill="#8C6128"/>
<path d="M92.5173 107.338C92.7538 106.103 92.4637 104.926 91.723 103.914C91.5767 103.714 91.2189 103.762 91.2257 104.048C91.2506 105.164 91.8459 106.154 91.9314 107.259C91.9554 107.575 92.4501 107.688 92.5173 107.338Z" fill="#8C6128"/>
<path d="M96.6426 103.35C96.1894 101.942 95.5123 100.79 94.6879 99.5763C94.5879 99.4296 94.3227 99.5176 94.3868 99.7043C94.856 101.076 95.5779 102.236 96.2551 103.512C96.3675 103.724 96.7166 103.579 96.6426 103.35Z" fill="#8C6128"/>
<path d="M100.047 99.5804C99.475 98.8057 98.813 98.083 98.1979 97.3404L98.0381 97.4657C98.448 98.3257 99.2239 98.971 99.7761 99.739C99.8933 99.9017 100.167 99.743 100.047 99.5804Z" fill="#8C6128"/>
<path d="M104.287 97.8883C103.606 97.0803 102.804 95.9216 101.767 95.5669C101.541 95.4896 101.396 95.7536 101.484 95.9363C101.946 96.8949 103.165 97.5416 103.953 98.2216C104.185 98.4216 104.482 98.1203 104.287 97.8883Z" fill="#8C6128"/>
<path d="M101.047 101.29C100.883 101.132 100.697 101.004 100.541 100.839C100.439 100.731 100.248 100.842 100.292 100.984C100.373 101.252 100.48 101.46 100.669 101.667C100.9 101.922 101.295 101.531 101.047 101.29Z" fill="#8C6128"/>
<path d="M93.9809 96.5083C93.6377 95.695 93.2997 94.6243 92.4069 94.2657C92.1997 94.1817 92.0471 94.4177 92.0783 94.5937C92.2331 95.439 93.1564 96.0043 93.6501 96.6483C93.7621 96.7937 94.0668 96.7137 93.9809 96.5083Z" fill="#8C6128"/>
<path d="M57.5427 92.7389C58.5291 92.5456 59.5932 92.0122 60.4348 91.4709C60.5771 91.3802 60.5328 91.1216 60.3438 91.1336C59.2823 91.2016 58.3338 91.9749 57.4271 92.4669C57.2719 92.5509 57.3828 92.7709 57.5427 92.7389Z" fill="#8C6128"/>
<path d="M61.0468 94.5669C62.1031 94.1789 62.8233 93.1216 63.5145 92.2909C63.6395 92.1416 63.4859 91.9269 63.3052 92.0202C62.3441 92.5136 61.5875 93.4029 60.7875 94.1202C60.5932 94.2936 60.7957 94.6576 61.0468 94.5669Z" fill="#8C6128"/>
<path d="M65.5103 95.3417C65.9155 94.4497 66.4718 93.671 66.7817 92.7376C66.829 92.595 66.6295 92.5297 66.5519 92.6403C65.9915 93.4497 65.5749 94.3016 65.2661 95.239C65.2191 95.3803 65.4473 95.4803 65.5103 95.3417Z" fill="#8C6128"/>
<path d="M69.6759 96.7123C69.8322 96.219 69.9894 95.727 70.153 95.2377C70.3431 94.667 70.6295 94.0963 70.7103 93.499C70.7347 93.3177 70.5207 93.211 70.4087 93.3723C69.7946 94.267 69.6134 95.5803 69.327 96.615C69.2644 96.8403 69.6051 96.9323 69.6759 96.7123Z" fill="#8C6128"/>
<path d="M72.8175 96.7363C73.0493 95.7149 73.5347 94.4416 73.2951 93.3949C73.254 93.2136 72.9617 93.1589 72.8795 93.3403C72.6816 93.7723 72.6431 94.2203 72.5852 94.6883C72.5056 95.3243 72.3936 95.9576 72.2879 96.5909C72.2295 96.9336 72.7384 97.0869 72.8175 96.7363Z" fill="#8C6128"/>
<path d="M78.9847 96.2363C79.0161 95.4189 79.1426 94.5669 78.7722 93.8149L78.5279 93.8469C78.353 94.6296 78.4989 95.4389 78.529 96.2363C78.541 96.5309 78.9738 96.5309 78.9847 96.2363Z" fill="#8C6128"/>
<path d="M79.8232 101.054C79.8379 100.407 79.9368 99.7109 79.7545 99.0829C79.7112 98.9336 79.4951 98.9336 79.4524 99.0829C79.2701 99.7109 79.3691 100.407 79.3832 101.054C79.3899 101.338 79.8169 101.338 79.8232 101.054Z" fill="#8C6128"/>
<path d="M82.8401 94.9523C82.8131 94.4136 82.7912 93.8763 82.7813 93.3363C82.772 92.8216 82.7964 92.2976 82.5251 91.8443C82.4401 91.7043 82.2281 91.7003 82.1448 91.8443C81.6453 92.7109 82.1109 94.1056 82.2699 95.0296C82.3251 95.3549 82.8563 95.2763 82.8401 94.9523Z" fill="#8C6128"/>
<path d="M86.5397 94.1483C86.434 93.5737 86.3897 92.903 86.0517 92.4137C85.9716 92.2977 85.744 92.3244 85.7596 92.4924C85.8132 93.0844 86.0164 93.675 86.1314 94.2604C86.184 94.5297 86.5892 94.4137 86.5397 94.1483Z" fill="#8C6128"/>
<path d="M88.6501 91.6817C88.4153 91.3337 88.2216 90.959 87.9627 90.6283L87.8643 90.7043C88.0408 91.0777 88.2367 91.4443 88.4471 91.8017C88.5241 91.9323 88.7345 91.8083 88.6501 91.6817Z" fill="#8C6128"/>
<path d="M72.1672 88.4017C72.7115 87.5737 73.3776 86.4363 73.4631 85.4297C73.4761 85.2803 73.2647 85.1977 73.1683 85.307C72.4891 86.079 72.3557 87.331 71.8824 88.235C71.7833 88.4243 72.0511 88.579 72.1672 88.4017Z" fill="#8C6128"/>
<path d="M75.3192 90.5243C75.6588 89.255 76.3473 88.1123 76.1186 86.7643C76.0806 86.543 75.7905 86.599 75.7238 86.7643C75.2525 87.9497 74.9498 89.1843 74.8254 90.4577C74.7978 90.7457 75.2473 90.7923 75.3192 90.5243Z" fill="#8C6128"/>
<path d="M80.2282 87.6669C80.0314 86.6829 80.0079 85.687 79.7079 84.727C79.6429 84.5203 79.3465 84.515 79.2834 84.727C78.9689 85.7883 79.1642 86.8336 79.3949 87.8963C79.5131 88.4429 80.3361 88.2096 80.2282 87.6669Z" fill="#8C6128"/>
<path d="M75.3044 80.9977C75.3944 80.7723 75.4757 80.5683 75.5236 80.3283C75.5481 80.2083 75.3955 80.0923 75.3001 80.2003C75.1277 80.3937 75.0096 80.5937 74.8741 80.8177C74.7007 81.103 75.1747 81.3243 75.3044 80.9977Z" fill="#8C6128"/>
<path d="M76.9947 83.3536C77.0921 82.7443 77.288 82.0856 77.2296 81.4669C77.2176 81.3296 77.0077 81.2296 76.9375 81.3869C76.6848 81.9536 76.6348 82.6163 76.526 83.2229C76.4703 83.5323 76.9468 83.6603 76.9947 83.3536Z" fill="#8C6128"/>
<path d="M83.1112 85.739C82.9166 84.567 82.7232 83.2457 82.229 82.1577L82.0098 82.2177C82.1243 83.4057 82.6212 84.647 83.0358 85.7604L83.1112 85.739Z" fill="#8C6128"/>
<path d="M86.1944 88.939C85.846 87.8896 85.6006 86.7696 85.085 85.7883C85.0257 85.6763 84.8225 85.7216 84.8361 85.8563C84.9512 86.9816 85.5377 88.0123 86.0648 88.9937L86.1944 88.939Z" fill="#8C6128"/>
<path d="M83.1044 89.643C82.9168 88.615 82.9872 87.5016 82.544 86.547L82.3247 86.6056C82.2502 87.6443 82.4326 88.751 82.62 89.775C82.6778 90.095 83.1622 89.959 83.1044 89.643Z" fill="#8C6128"/>
<path d="M78.0836 91.8656C78.2712 90.8869 78.6056 89.5336 78.2279 88.5829C78.1478 88.3816 77.8988 88.3816 77.8186 88.5829C77.441 89.5336 77.7754 90.8869 77.9628 91.8656H78.0836Z" fill="#8C6128"/>
<path d="M69.4112 91.063C69.7997 90.247 70.2644 89.327 70.3674 88.4257L70.1398 88.3296C69.4868 88.999 69.205 90.075 69.1477 90.991C69.1393 91.1283 69.3508 91.1896 69.4112 91.063Z" fill="#8C6128"/>
<path d="M65.6929 89.691C66.4492 89.0564 68.0074 88.5937 68.1481 87.4617C68.1653 87.323 67.9882 87.1924 67.8596 87.2417C67.4241 87.4137 67.1293 87.799 66.8001 88.123C66.3402 88.5777 65.9418 89.031 65.5158 89.5137C65.408 89.6363 65.57 89.795 65.6929 89.691Z" fill="#8C6128"/>
<path d="M69.2571 85.1217C69.8925 84.7137 70.3223 84.179 70.5008 83.4403C70.5409 83.2777 70.3467 83.1657 70.2259 83.2803C69.7269 83.747 69.5175 84.3817 69.0863 84.899C68.9889 85.0163 69.1139 85.2137 69.2571 85.1217Z" fill="#8C6128"/>
<path d="M72.2059 83.6537C72.582 83.0564 73.0673 82.395 73.1539 81.683C73.1741 81.5177 72.9481 81.455 72.846 81.555C72.3247 82.0644 72.1164 82.9044 72.0449 83.6084L72.2059 83.6537Z" fill="#8C6128"/>
<path d="M117.656 83.379C116.952 83.2403 116.268 83.223 115.553 83.223C115.43 83.223 115.4 83.411 115.524 83.439C116.228 83.595 116.904 83.6057 117.622 83.6243C117.762 83.6283 117.797 83.4057 117.656 83.379Z" fill="#8C6128"/>
<path d="M113.661 83.2923C112.965 83.2469 112.103 83.0283 111.436 83.2683C111.247 83.3349 111.197 83.5856 111.38 83.6976C112.029 84.1016 112.943 83.8669 113.661 83.7949C113.981 83.7629 113.989 83.3149 113.661 83.2923Z" fill="#8C6128"/>
<path d="M118.392 79.3443C117.659 79.3043 116.891 79.1789 116.185 79.4362C115.995 79.5042 115.973 79.7829 116.185 79.8443C116.904 80.0496 117.66 79.8949 118.392 79.8309C118.703 79.8042 118.708 79.3616 118.392 79.3443Z" fill="#8C6128"/>
<path d="M117.49 75.027C116.888 74.9656 116.128 74.8976 115.598 75.2443C115.444 75.3443 115.457 75.5989 115.65 75.6469C116.245 75.7963 116.896 75.5256 117.49 75.4509C117.761 75.4176 117.766 75.055 117.49 75.027Z" fill="#8C6128"/>
<path d="M108.38 82.8296C107.54 82.7803 106.416 82.5149 105.641 82.9136C105.439 83.0163 105.526 83.2723 105.697 83.343C106.093 83.507 106.522 83.4696 106.947 83.4816C107.425 83.4936 107.902 83.5283 108.38 83.5536C108.845 83.5776 108.841 82.8589 108.38 82.8296Z" fill="#8C6128"/>
<path d="M113.237 78.3204C112.282 78.3457 111.017 78.0097 110.17 78.5524C109.976 78.6764 110.006 78.9737 110.234 79.0417C110.66 79.1657 111.084 79.135 111.524 79.1244C112.096 79.1097 112.665 79.1284 113.237 79.0884C113.726 79.0537 113.737 78.3044 113.237 78.3204Z" fill="#8C6128"/>
<path d="M110.436 73.987C109.722 74.103 109.062 74.243 108.378 74.471C108.238 74.5176 108.258 74.735 108.414 74.7336C109.16 74.7243 109.845 74.6376 110.581 74.515C110.93 74.4576 110.781 73.9296 110.436 73.987Z" fill="#8C6128"/>
<path d="M113.036 74.383C112.34 74.455 111.619 74.395 110.98 74.7163C110.849 74.783 110.867 75.0257 111.023 75.047C111.768 75.1523 112.423 74.847 113.068 74.5003L113.036 74.383Z" fill="#8C6128"/>
<path d="M106.444 78.4416C105.016 78.1803 103.337 77.9523 101.933 78.4323C101.711 78.5069 101.595 78.8776 101.859 78.991C103.239 79.591 104.788 78.9883 106.232 79.2136C106.733 79.2923 106.956 78.5363 106.444 78.4416Z" fill="#8C6128"/>
<path d="M102.868 85.767C102.263 85.6963 101.659 85.6216 101.056 85.539C100.502 85.4603 99.9426 85.3096 99.3827 85.339C99.1863 85.3496 99.1718 85.5936 99.3389 85.663C100.382 86.1003 101.752 86.039 102.868 86.1283C103.103 86.147 103.094 85.7936 102.868 85.767Z" fill="#8C6128"/>
<path d="M102.344 82.7963C101.274 82.751 99.9065 82.4937 98.8914 82.9003C98.6966 82.979 98.6529 83.2803 98.8914 83.3403C99.4253 83.4737 99.966 83.4057 100.51 83.3817C101.121 83.3577 101.733 83.3523 102.344 83.3457C102.699 83.3417 102.697 82.8123 102.344 82.7963Z" fill="#8C6128"/>
<path d="M100.846 77.0577C100.004 77.1643 99.0876 77.1777 98.374 77.671C98.2652 77.747 98.3037 77.915 98.4407 77.9217C99.2751 77.9563 100.091 77.671 100.907 77.5057C101.156 77.455 101.102 77.0257 100.846 77.0577Z" fill="#8C6128"/>
<path d="M105.597 75.4576C104.93 75.5536 104.211 75.5776 103.594 75.8629C103.437 75.9363 103.536 76.1403 103.673 76.1563C104.349 76.2256 105.052 76.0069 105.714 75.8816C105.997 75.8283 105.871 75.4189 105.597 75.4576Z" fill="#8C6128"/>
<path d="M98.7999 73.6496C98.2472 73.7656 97.6931 73.8776 97.1374 73.9763C96.606 74.0723 96.1019 74.1416 95.6743 74.4843C95.5347 74.5963 95.6322 74.8043 95.7712 74.8523C96.7384 75.1883 98.0394 74.515 98.9551 74.2096C99.3103 74.091 99.167 73.5723 98.7999 73.6496Z" fill="#8C6128"/>
<path d="M93.8885 84.831C92.9473 84.4577 91.6791 84.0177 90.6561 84.1177C90.4947 84.135 90.4083 84.3484 90.5692 84.439C91.4973 84.967 92.7806 84.8537 93.8014 85.1497C94.0104 85.211 94.0817 84.9084 93.8885 84.831Z" fill="#8C6128"/>
<path d="M95.5284 81.495C94.1894 81.387 92.906 80.9296 91.5868 81.3776C91.4103 81.4363 91.3738 81.7296 91.5868 81.7696C92.8884 82.023 94.203 82.1003 95.5284 81.9976C95.853 81.9736 95.8514 81.5216 95.5284 81.495Z" fill="#8C6128"/>
<path d="M91.8506 77.319C90.8407 77.6843 89.7907 77.8777 88.8257 78.3564C88.6085 78.4644 88.7418 78.7443 88.9366 78.767C90.0418 78.895 91.0563 78.5417 92.0798 78.1523C92.5929 77.955 92.3777 77.127 91.8506 77.319Z" fill="#8C6128"/>
<path d="M85.789 83.1457C85.5224 83.0964 85.2817 83.0497 85.0109 83.0483C84.8796 83.0483 84.827 83.2323 84.9432 83.299C85.178 83.431 85.4093 83.5083 85.664 83.599C85.953 83.7017 86.0874 83.199 85.789 83.1457Z" fill="#8C6128"/>
<path d="M87.8582 81.139C87.215 81.1523 86.5197 81.0763 85.8941 81.243C85.7462 81.2816 85.741 81.5083 85.8941 81.5456C86.5222 81.6963 87.215 81.627 87.8582 81.6256C88.1718 81.6256 88.1718 81.1323 87.8582 81.139Z" fill="#8C6128"/>
<path d="M89.3064 74.967C88.1497 75.3417 86.8049 75.731 85.7825 76.399C85.6705 76.4723 85.7402 76.6457 85.8725 76.6137C87.0626 76.3323 88.2684 75.6217 89.3361 75.039L89.3064 74.967Z" fill="#8C6128"/>
<path d="M96.4573 78.667C95.4245 78.6483 93.9682 78.5563 93.0464 79.0937C92.8953 79.1817 92.912 79.443 93.0964 79.4817C94.163 79.6977 95.4829 79.1483 96.474 78.791L96.4573 78.667Z" fill="#8C6128"/>
<path d="M97.1057 86.979C96.2171 86.7456 95.1817 86.4656 94.2624 86.5256C94.1301 86.535 94.0801 86.7016 94.1947 86.775C94.9885 87.2816 96.1463 87.375 97.0676 87.2576C97.2161 87.2376 97.2713 87.023 97.1057 86.979Z" fill="#8C6128"/>
<path d="M96.3257 90.7217C95.57 90.1403 94.7653 88.699 93.6667 88.779C93.5069 88.791 93.3673 88.9683 93.4705 89.1217C93.7314 89.5137 94.1839 89.727 94.5725 89.9816C95.1106 90.331 95.6402 90.627 96.1981 90.9377C96.3443 91.0203 96.4497 90.8177 96.3257 90.7217Z" fill="#8C6128"/>
<path d="M91.0157 88.1376C90.4703 87.595 89.837 87.2843 89.0646 87.2536C88.8895 87.247 88.8542 87.4736 88.9813 87.5603C89.5562 87.9563 90.2343 88.039 90.8438 88.3603C90.9843 88.4336 91.1323 88.255 91.0157 88.1376Z" fill="#8C6128"/>
<path d="M89.0061 85.6123C88.3468 85.3603 87.5738 84.999 86.8561 85.0483C86.676 85.0617 86.6113 85.2843 86.765 85.3857C87.3822 85.7937 88.2634 85.8403 88.9837 85.7817L89.0061 85.6123Z" fill="#8C6128"/>
<path d="M93.3243 93.0457C92.9164 92.383 92.4212 91.6337 91.7811 91.179C91.6399 91.079 91.5066 91.267 91.5665 91.3937C91.8921 92.0883 92.5675 92.6083 93.0259 93.219C93.156 93.3923 93.444 93.239 93.3243 93.0457Z" fill="#8C6128"/>
<path d="M89.83 96.4656C89.442 95.6416 89.1226 94.5136 88.4264 93.9016C88.2602 93.7549 87.942 93.8389 87.9576 94.0962C88.0175 95.0562 88.7243 96.0203 89.1513 96.8616C89.3827 97.3176 90.043 96.9189 89.83 96.4656Z" fill="#8C6128"/>
<path d="M97.4191 96.1389C96.9185 95.3376 96.5545 94.4976 95.7071 94.0136C95.5431 93.9203 95.3279 94.0749 95.3841 94.2629C95.6472 95.1429 96.1664 95.8229 96.7149 96.5496C97.0221 96.9589 97.7055 96.5963 97.4191 96.1389Z" fill="#8C6128"/>
<path d="M97.8988 108.307C97.68 107.835 97.416 107.338 97.0222 106.991C96.8836 106.87 96.6217 106.939 96.6332 107.152C96.6633 107.671 96.869 108.18 97.0378 108.668C97.2597 109.312 98.1878 108.93 97.8988 108.307Z" fill="#8C6128"/>
<path d="M99.3782 90.4403C100.083 90.9883 100.713 91.655 101.635 91.763C101.817 91.783 101.878 91.5403 101.774 91.427C101.205 90.8137 100.445 90.411 99.7397 89.9723C99.4574 89.7963 99.1074 90.231 99.3782 90.4403Z" fill="#8C6128"/>
<path d="M102.937 89.187C103.623 89.2523 104.127 89.7536 104.793 89.819C104.955 89.8336 105.055 89.627 104.976 89.499C104.581 88.8563 103.65 88.6216 102.937 88.6056C102.556 88.5976 102.571 89.1536 102.937 89.187Z" fill="#8C6128"/>
<path d="M106.746 87.1976C107.361 87.3976 108.02 87.7243 108.672 87.6229C108.853 87.5963 108.92 87.3176 108.782 87.2029C108.282 86.7883 107.552 86.6936 106.939 86.4989C106.492 86.3589 106.307 87.0509 106.746 87.1976Z" fill="#8C6128"/>
<path d="M113.072 87.2643C113.786 87.4963 114.438 87.8856 115.202 87.8603C115.377 87.8536 115.497 87.6269 115.352 87.4976C114.766 86.9723 114.004 86.8016 113.252 86.6123C112.828 86.5056 112.66 87.1296 113.072 87.2643Z" fill="#8C6128"/>
<path d="M110.642 90.827C111.349 91.2256 112.062 91.6456 112.882 91.6723C113.021 91.6763 113.141 91.4976 113.052 91.3776C112.55 90.6963 111.766 90.5283 111.03 90.163C110.589 89.9443 110.206 90.583 110.642 90.827Z" fill="#8C6128"/>
<path d="M108.474 94.5469C109.058 94.8549 109.601 95.2603 110.245 95.4376C110.388 95.4776 110.472 95.3043 110.382 95.2016C109.938 94.6923 109.338 94.3843 108.736 94.0989C108.438 93.9576 108.176 94.3883 108.474 94.5469Z" fill="#8C6128"/>
<path d="M104.193 93.1323C104.63 93.475 105.109 93.999 105.661 94.1057C105.869 94.1483 106.02 93.9523 105.927 93.7617C105.676 93.247 105.041 92.9497 104.593 92.6137C104.293 92.391 103.898 92.903 104.193 93.1323Z" fill="#8C6128"/>
<path d="M106.565 91.1296C106.906 91.4403 107.284 91.7683 107.77 91.7189C107.946 91.7029 108.081 91.5243 107.98 91.3536C107.774 91.0069 107.413 90.8416 107.12 90.5749C106.748 90.2336 106.19 90.7869 106.565 91.1296Z" fill="#8C6128"/>
<path d="M89.5993 72.2336C90.5789 71.5456 91.7346 71.1976 92.6404 70.4136C92.7712 70.2989 92.6316 70.1016 92.48 70.1376C91.293 70.4282 90.2232 71.0402 89.257 71.7882C89.004 71.9856 89.3378 72.4162 89.5993 72.2336Z" fill="#8C6128"/>
<path d="M92.2341 73.0764C92.945 72.931 94.0326 72.4924 94.4835 71.9097C94.6201 71.7324 94.5487 71.459 94.2945 71.4537C93.5107 71.439 92.5253 72.0884 91.9441 72.5777C91.6971 72.7857 91.9665 73.131 92.2341 73.0764Z" fill="#8C6128"/>
<path d="M95.7939 67.6443C96.2464 67.207 96.7631 66.859 97.2329 66.443L97.1276 66.3083C96.5511 66.5697 96.048 67.0083 95.5829 67.4337C95.4407 67.5617 95.6553 67.7777 95.7939 67.6443Z" fill="#8C6128"/>
<path d="M95.7758 69.911C96.343 69.6643 96.9993 69.4817 97.469 69.0723C97.5993 68.9603 97.4565 68.7857 97.3169 68.811C96.7059 68.9177 96.145 69.323 95.6013 69.611C95.4002 69.7177 95.5774 69.9963 95.7758 69.911Z" fill="#8C6128"/>
<path d="M100.257 65.4936C101.114 65.0616 101.951 64.6616 102.72 64.087C102.825 64.0083 102.768 63.807 102.623 63.8576C101.703 64.179 100.895 64.6563 100.044 65.1296C99.8032 65.263 100.015 65.6176 100.257 65.4936Z" fill="#8C6128"/>
<path d="M106.981 63.335C107.998 63.4776 109.09 62.9816 109.881 62.359C110.043 62.2296 109.901 61.9696 109.719 61.9696C108.735 61.9723 107.817 62.655 106.941 63.035C106.815 63.0883 106.843 63.3176 106.981 63.335Z" fill="#8C6128"/>
<path d="M109.909 67.9923C110.415 67.9723 110.905 67.8923 111.401 67.7856C111.943 67.6696 112.643 67.5363 113.091 67.2016C113.278 67.0616 113.207 66.803 112.975 66.7763C112.465 66.7176 111.959 66.9816 111.478 67.1403C110.935 67.319 110.423 67.5203 109.858 67.6216C109.649 67.6603 109.698 68.0003 109.909 67.9923Z" fill="#8C6128"/>
<path d="M112.5 62.591C113.157 62.4363 113.895 62.343 114.431 61.911C114.551 61.8123 114.492 61.5643 114.333 61.543C113.643 61.4483 112.981 61.7763 112.333 61.987C111.949 62.1096 112.105 62.6857 112.5 62.591Z" fill="#8C6128"/>
<path d="M115.513 69.9083C116.24 70.1176 117.117 70.1136 117.688 69.5683C117.81 69.4496 117.75 69.2309 117.586 69.1869C116.913 69.0096 116.161 69.2283 115.513 69.4389C115.288 69.5123 115.276 69.8403 115.513 69.9083Z" fill="#8C6128"/>
<path d="M112.882 72.9589C113.476 72.9083 114.262 73.0883 114.768 72.7243C114.937 72.6029 114.91 72.3669 114.71 72.2936C114.149 72.0909 113.384 72.3403 112.813 72.4496C112.528 72.5043 112.592 72.9843 112.882 72.9589Z" fill="#8C6128"/>
<path d="M114.896 65.3723C115.342 65.2083 115.817 65.2602 116.236 65.0469C116.362 64.9816 116.377 64.7536 116.236 64.6923C115.721 64.4723 115.194 64.6896 114.709 64.9269C114.462 65.0469 114.637 65.4683 114.896 65.3723Z" fill="#8C6128"/>
<path d="M102.935 71.3497C103.492 71.1817 104.093 71.139 104.329 70.551L104.196 70.223C103.601 69.947 103.152 70.3763 102.663 70.7043C102.34 70.919 102.535 71.4697 102.935 71.3497Z" fill="#8C6128"/>
<path d="M104.237 67.5243C104.969 67.295 106.044 67.1736 106.574 66.583C106.7 66.4403 106.675 66.1443 106.45 66.1097C105.642 65.9897 104.783 66.5443 104.049 66.8417C103.639 67.0083 103.791 67.663 104.237 67.5243Z" fill="#8C6128"/>
<path d="M106.823 71.9924C107.59 71.8764 108.748 71.8457 109.302 71.2417C109.482 71.0457 109.386 70.783 109.157 70.691C108.337 70.363 107.29 71.0644 106.605 71.4764C106.313 71.6537 106.52 72.0404 106.823 71.9924Z" fill="#8C6128"/>
<path d="M98.352 72.4296C98.99 72.067 100.232 72.1243 100.461 71.2723C100.499 71.131 100.437 70.9843 100.313 70.9083C99.6192 70.4856 98.041 71.2923 97.903 72.083C97.8572 72.3403 98.102 72.571 98.352 72.4296Z" fill="#8C6128"/>
<path d="M48.4038 90.9683C49.0148 90.679 49.6585 90.523 50.309 90.3536C50.8658 90.2096 51.4549 90.151 51.9408 89.8243C52.1012 89.715 52.1148 89.4003 51.8804 89.3643C50.6476 89.1683 49.1538 89.8736 48.1668 90.5616C47.9168 90.7363 48.1293 91.099 48.4038 90.9683Z" fill="#8C6128"/>
<path d="M54.9254 90.2816C55.6164 89.9443 56.4598 89.9656 57.0607 89.4736L57.0222 89.1776C56.1967 88.8283 55.3623 89.4163 54.6555 89.8216C54.3535 89.9936 54.6186 90.4323 54.9254 90.2816Z" fill="#8C6128"/>
<path d="M66.0588 83.8416C66.6228 83.4936 67.2249 83.2349 67.7681 82.8563C67.8801 82.7776 67.8108 82.6163 67.6775 82.6416C66.9864 82.7683 66.4208 83.0749 65.8296 83.4483C65.5823 83.6043 65.8083 83.9963 66.0588 83.8416Z" fill="#8C6128"/>
<path d="M71.3779 79.8883C71.8779 79.7177 72.4316 79.6603 72.891 79.4003C73.003 79.3363 72.9598 79.143 72.8238 79.151C72.3014 79.187 71.7784 79.3843 71.291 79.571C71.0956 79.6457 71.1748 79.9577 71.3779 79.8883Z" fill="#8C6128"/>
<path d="M40.2705 68.3176C41.2054 68.4603 42.1741 69.0216 43.1388 68.8243C43.3424 68.7803 43.3492 68.5056 43.1929 68.4069C42.3392 67.8683 41.232 68.2163 40.2892 68.1789L40.2705 68.3176Z" fill="#8C6128"/>
<path d="M45.19 66.671C45.9244 67.1644 47.0108 68.2337 47.9635 67.7017C48.1271 67.6097 48.1547 67.375 48.0223 67.2444C47.7208 66.947 47.3072 66.8537 46.9078 66.743C46.3922 66.6017 45.8796 66.411 45.3719 66.2417C45.1062 66.1524 44.9786 66.5297 45.19 66.671Z" fill="#8C6128"/>
<path d="M53.8559 68.843C54.5585 69.2963 55.5049 69.9523 56.3465 69.5043C56.4913 69.4269 56.5611 69.2029 56.4616 69.0629C55.9372 68.3256 54.9195 68.4576 54.146 68.1549C53.7315 67.9909 53.5132 68.6216 53.8559 68.843Z" fill="#8C6128"/>
<path d="M50.9762 70.727C51.5861 70.9257 52.3533 71.4644 52.9798 71.0777C53.1011 71.0017 53.1741 70.8177 53.0819 70.6897C52.6538 70.1044 51.7418 70.071 51.0699 70.0337C50.6558 70.0097 50.611 70.607 50.9762 70.727Z" fill="#8C6128"/>
<path d="M49.9098 66.7016C50.3817 67.1216 51.0415 67.6256 51.6998 67.3509C51.8749 67.2776 51.9779 67.0576 51.8175 66.9043C51.4129 66.5163 50.7905 66.4589 50.3093 66.1829C49.9899 66.0003 49.6238 66.4469 49.9098 66.7016Z" fill="#8C6128"/>
<path d="M60.8269 70.9029C61.5841 71.3976 62.4499 72.3483 63.4321 72.2296C63.6477 72.2043 63.7477 71.9869 63.6045 71.8149C63.0201 71.1136 61.8248 70.9243 61.0165 70.5776C60.7983 70.4843 60.618 70.7669 60.8269 70.9029Z" fill="#8C6128"/>
<path d="M65.794 74.7363C66.3935 75.1297 67.3086 75.935 68.0679 75.747C68.2555 75.7003 68.3414 75.4724 68.2466 75.3084C67.8794 74.6817 66.7222 74.495 66.0944 74.2203C65.7487 74.0697 65.4654 74.5203 65.794 74.7363Z" fill="#8C6128"/>
<path d="M57.3066 74.5149C58.0077 74.9349 59.253 75.4869 60.0675 75.1803C60.2467 75.1123 60.3426 74.8816 60.1853 74.7336C59.5645 74.1456 58.4275 74.2883 57.6634 73.9056C57.2582 73.7029 56.9118 74.2803 57.3066 74.5149Z" fill="#8C6128"/>
<path d="M38.1878 71.7376C38.9055 71.867 39.7034 72.2203 40.432 72.0736C40.5826 72.043 40.6111 71.8123 40.4752 71.743C39.8299 71.4176 38.9575 71.403 38.2419 71.3363C38.0132 71.3163 37.9616 71.6976 38.1878 71.7376Z" fill="#8C6128"/>
<path d="M38.8942 75.2057C39.6505 75.2257 40.2881 75.195 40.9865 74.9057C41.1166 74.8524 41.1687 74.6164 40.9865 74.5884C40.2619 74.475 39.6245 74.599 38.8942 74.6404C38.5313 74.6604 38.5275 75.195 38.8942 75.2057Z" fill="#8C6128"/>
<path d="M36.9443 79.5203C37.7125 79.5203 38.5953 79.6296 39.0829 78.9123C39.1959 78.7456 39.086 78.4816 38.8907 78.4389C38.1396 78.2789 37.5652 78.8363 36.8819 79.0563C36.6319 79.1376 36.672 79.5203 36.9443 79.5203Z" fill="#8C6128"/>
<path d="M38.7841 84.8416C39.5059 84.5283 40.2388 84.215 40.9722 83.9296C41.1059 83.8776 41.0539 83.6976 40.9138 83.7176C40.0674 83.8376 39.3856 84.1923 38.6331 84.5843C38.4596 84.6736 38.6122 84.9163 38.7841 84.8416Z" fill="#8C6128"/>
<path d="M40.011 87.5536C40.873 87.4803 42.011 87.2856 42.7158 86.7576C42.8699 86.643 42.8324 86.379 42.6126 86.3776C41.7032 86.3723 40.8584 87.0429 39.9652 87.2136C39.7751 87.2509 39.8172 87.5696 40.011 87.5536Z" fill="#8C6128"/>
<path d="M44.4053 88.547C45.1631 88.2697 46.2095 88.2323 46.8152 87.6697C46.9105 87.583 46.8428 87.387 46.7048 87.403C45.9115 87.487 45.0209 87.9803 44.3267 88.3603L44.4053 88.547Z" fill="#8C6128"/>
<path d="M45.5334 85.203C46.185 84.8843 47.0549 84.7337 47.585 84.2257C47.7158 84.103 47.6096 83.9017 47.446 83.891C46.6944 83.8457 45.9001 84.3897 45.2721 84.755C44.9793 84.9243 45.2361 85.347 45.5334 85.203Z" fill="#8C6128"/>
<path d="M43.0339 80.9789C43.5902 80.8042 44.1167 80.6456 44.6221 80.3562L44.5667 80.1509C43.9902 80.2176 43.4814 80.4282 42.9339 80.6136C42.7058 80.6922 42.8001 81.0509 43.0339 80.9789Z" fill="#8C6128"/>
<path d="M42.1479 78.235C42.8192 78.2577 43.7041 78.3217 44.2832 77.9297C44.4385 77.8243 44.3713 77.6097 44.1921 77.5923C43.5275 77.527 42.8192 77.8003 42.1479 77.8417C41.8963 77.859 41.8932 78.2257 42.1479 78.235Z" fill="#8C6128"/>
<path d="M43.2641 74.2097C44.1239 74.243 45.1958 74.543 46.0171 74.2364C46.2203 74.1604 46.2151 73.9057 46.0171 73.827C45.2114 73.5124 44.1171 73.6564 43.2641 73.675C42.9187 73.683 42.9209 74.195 43.2641 74.2097Z" fill="#8C6128"/>
<path d="M44.7787 70.263C45.6276 70.4363 46.3038 71.031 47.1636 71.107C47.3376 71.123 47.3996 70.895 47.297 70.7857C46.6866 70.127 45.7178 69.863 44.8439 69.7843C44.5699 69.7603 44.512 70.2083 44.7787 70.263Z" fill="#8C6128"/>
<path d="M49.8669 74.2523C50.3571 74.3483 50.8503 74.5216 51.3508 74.5043C51.5155 74.499 51.6384 74.2776 51.4951 74.1563C51.08 73.803 50.5639 73.7336 50.0388 73.6323C49.6327 73.5523 49.4603 74.1736 49.8669 74.2523Z" fill="#8C6128"/>
<path d="M48.6075 77.2417C49.0044 77.319 49.3695 77.339 49.7726 77.3403C49.896 77.3403 49.9002 77.1817 49.7998 77.1403C49.4315 76.987 49.0992 76.9537 48.708 76.8777C48.4706 76.831 48.3695 77.195 48.6075 77.2417Z" fill="#8C6128"/>
<path d="M48.9321 80.8456C49.6612 80.8176 50.5497 80.7563 51.181 80.3643C51.3404 80.2643 51.3149 80.0136 51.1278 79.9616C50.3748 79.7536 49.5925 80.2136 48.8717 80.3976C48.6242 80.4616 48.6737 80.8563 48.9321 80.8456Z" fill="#8C6128"/>
<path d="M50.9505 84.2363C51.7651 84.0777 52.9223 83.9683 53.4833 83.2937C53.6015 83.1523 53.5729 82.9097 53.3693 82.8603C52.4562 82.6403 51.5463 83.4137 50.7625 83.791C50.4999 83.919 50.6947 84.287 50.9505 84.2363Z" fill="#8C6128"/>
<path d="M53.3693 86.2096C54.3235 85.9603 55.6417 85.7936 56.3615 85.0669C56.5276 84.9003 56.3933 84.6603 56.1839 84.6389C55.1657 84.5336 54.1584 85.3909 53.2313 85.7096C52.9183 85.8176 53.0433 86.2936 53.3693 86.2096Z" fill="#8C6128"/>
<path d="M60.9031 81.5883C61.6109 81.411 62.4329 81.247 63.0594 80.8643C63.2166 80.7683 63.1458 80.5363 62.9682 80.527C62.2255 80.491 61.4734 80.887 60.7609 81.0723C60.4275 81.159 60.5693 81.671 60.9031 81.5883Z" fill="#8C6128"/>
<path d="M55.1611 78.4603C55.9236 78.403 56.9143 78.5297 57.5913 78.1323C57.7528 78.039 57.7153 77.799 57.5408 77.7457C56.7992 77.5203 55.8429 77.8603 55.0965 77.983C54.8257 78.027 54.8888 78.4817 55.1611 78.4603Z" fill="#8C6128"/>
<path d="M52.9322 75.7657C53.6176 75.7603 54.3385 75.8097 54.977 75.5297C55.1228 75.4657 55.0874 75.211 54.9322 75.1843C54.2785 75.0763 53.5937 75.1577 52.9322 75.1537C52.5369 75.151 52.5369 75.7683 52.9322 75.7657Z" fill="#8C6128"/>
<path d="M56.0001 80.8176C56.7664 80.8283 57.8164 80.9043 58.4247 80.3683C58.5835 80.2269 58.4913 79.9629 58.3033 79.9083C57.5944 79.7043 56.7331 80.0336 56.0001 80.0643C55.5159 80.0843 55.5127 80.8109 56.0001 80.8176Z" fill="#8C6128"/>
<path d="M63.6173 78.4483C64.0798 78.4603 64.5235 78.6056 64.9782 78.5096C65.1705 78.4683 65.1694 78.2176 65.0282 78.1216C64.6225 77.8483 64.0965 77.8243 63.6173 77.8056C63.2027 77.7883 63.2022 78.4389 63.6173 78.4483Z" fill="#8C6128"/>
<path d="M66.9678 80.5363C67.4767 80.5363 68.0178 80.6216 68.4756 80.371C68.624 80.2896 68.624 80.0576 68.4756 79.9776C68.0178 79.7256 67.4767 79.8123 66.9678 79.8123C66.5016 79.8123 66.5016 80.5363 66.9678 80.5363Z" fill="#8C6128"/>
<path d="M81.8375 80.3017C83.2057 80.3497 84.6329 79.471 85.7999 78.851C85.9261 78.7844 85.8338 78.6137 85.7099 78.6364C84.4162 78.8604 82.8062 78.999 81.6823 79.731C81.4266 79.8977 81.5275 80.291 81.8375 80.3017Z" fill="#8C6128"/>
<path d="M84.7731 75.263C84.9872 75.135 85.12 75.047 85.2528 74.8416C85.331 74.7203 85.2283 74.5576 85.0903 74.5576C84.8335 74.559 84.7116 74.647 84.4799 74.7603C84.146 74.9243 84.4482 75.4563 84.7731 75.263Z" fill="#8C6128"/>
<path d="M116.686 39.679C107.096 31.2523 96.5058 38.3497 96.6459 47.2377C96.6496 47.4257 102.904 52.335 104.564 53.7763C106.401 55.371 111.162 57.4297 111.414 57.459C118.121 58.2537 126.278 48.1083 116.686 39.679Z" fill="#C68B3B"/>
<path d="M113.046 43.667C108.508 39.0323 101.161 39.3777 99.1247 48.9163C99.0955 49.0443 103.47 52.455 104.627 53.4563C105.901 54.5657 109.212 56.023 109.386 56.0163C113.578 55.9003 117.754 48.4723 113.046 43.667Z" fill="#8A5320"/>
<path d="M41.3573 60.1096C41.6062 60.0736 46.3256 57.9189 48.1245 56.2882C49.7573 54.8122 55.8958 49.7763 55.8958 49.5909C55.839 40.7016 45.0942 33.8203 35.6922 42.4416C26.2854 51.0629 34.6709 61.0416 41.3573 60.1096Z" fill="#C68B3B"/>
<path d="M43.6591 58.5856C43.8331 58.5869 47.1111 57.0616 48.3617 55.9296C49.4941 54.9029 53.7883 51.4042 53.7607 51.2776C51.5148 41.7802 44.1555 41.5856 39.7216 46.3122C35.1247 51.2136 39.4654 58.5509 43.6591 58.5856Z" fill="#8A5320"/>
<path d="M100.764 110.174C100.764 110.174 99.1008 89.0069 79.4956 89.0069C59.8925 89.0069 57.4873 109.462 57.4873 109.462C68.7862 123.054 87.0056 122.882 100.764 110.174Z" fill="#E9E3BB"/>
<path d="M77.7866 92.4656C77.7866 92.471 77.7866 94.755 77.7866 97.5536C77.7866 100.352 77.7866 103.66 77.7866 105.699C77.7981 106.887 76.9205 108.66 75.2777 110.083C73.6382 111.511 71.2678 112.611 68.3288 112.611C65.594 112.611 62.3486 111.659 58.7184 109.076C58.5121 108.93 58.2257 108.978 58.0788 109.184C57.9325 109.391 57.9804 109.676 58.1872 109.824C61.9382 112.495 65.3773 113.528 68.3288 113.528C71.5012 113.528 74.0892 112.336 75.8804 110.774C77.6673 109.207 78.6924 107.295 78.7038 105.699C78.7038 103.66 78.7038 100.352 78.7038 97.5536C78.7038 94.755 78.7038 92.471 78.7038 92.4656C78.7038 92.2123 78.4981 92.007 78.2449 92.007C77.9918 92.007 77.7866 92.2123 77.7866 92.4656Z" fill="#3A1D19"/>
<path d="M77.7866 92.4656C77.7866 92.4709 77.7866 94.755 77.7866 97.5536C77.7866 100.352 77.7866 103.66 77.7866 105.699C77.7929 107.282 78.6388 109.312 80.3716 110.991C82.1049 112.667 84.7492 113.958 88.311 113.955C91.4334 113.955 95.2517 112.971 99.8116 110.442C100.033 110.319 100.113 110.04 99.9902 109.819C99.8673 109.598 99.5882 109.518 99.3673 109.64C94.9069 112.115 91.2382 113.039 88.311 113.038C84.971 113.036 82.582 111.846 81.008 110.331C79.4334 108.82 78.697 106.952 78.7038 105.699C78.7038 103.66 78.7038 100.352 78.7038 97.5536C78.7038 94.755 78.7038 92.4709 78.7038 92.4656C78.7038 92.2123 78.4981 92.007 78.2449 92.007C77.9918 92.007 77.7866 92.2123 77.7866 92.4656Z" fill="#3A1D19"/>
<path d="M58.3341 74.567C58.3341 77.0203 56.2591 79.0083 53.6945 79.0083C51.1346 79.0083 49.0586 77.0203 49.0586 74.567C49.0586 72.115 51.1346 70.127 53.6945 70.127C56.2591 70.127 58.3341 72.115 58.3341 74.567Z" fill="#1E1C22"/>
<path d="M56.5329 75.4163C56.5329 76.6629 55.4698 77.679 54.1641 77.679C52.8614 77.679 51.8037 76.6629 51.8037 75.4163C51.8037 74.1629 52.8614 73.1496 54.1641 73.1496C55.4698 73.1496 56.5329 74.1629 56.5329 75.4163Z" fill="#18151A"/>
<path d="M50.5261 75.3096C50.5261 73.3136 52.2209 71.6963 54.3042 71.6963C56 71.6963 57.4313 72.7616 57.913 74.231C57.5876 72.4083 55.9349 71.0163 53.9417 71.0163C51.7166 71.0163 49.9136 72.7483 49.9136 74.8763C49.9136 76.5043 50.9666 77.8896 52.4553 78.4576C51.3073 77.8403 50.5261 76.663 50.5261 75.3096Z" fill="#FEF5E9"/>
<path d="M54.1269 73.551C54.1269 74.075 53.6811 74.4977 53.1347 74.4977C52.5884 74.4977 52.1445 74.075 52.1445 73.551C52.1445 73.0257 52.5884 72.603 53.1347 72.603C53.6811 72.603 54.1269 73.0257 54.1269 73.551Z" fill="#FEF5E9"/>
<path d="M52.8033 75.1296C52.8033 75.4816 52.5106 75.7629 52.1449 75.7629C51.7782 75.7629 51.4834 75.4816 51.4834 75.1296C51.4834 74.7816 51.7782 74.4976 52.1449 74.4976C52.5106 74.4976 52.8033 74.7816 52.8033 75.1296Z" fill="#FEF5E9"/>
<path d="M97.5601 74.567C97.5601 77.0203 99.635 79.0083 102.201 79.0083C104.764 79.0083 106.843 77.0203 106.843 74.567C106.843 72.115 104.764 70.127 102.201 70.127C99.635 70.127 97.5601 72.115 97.5601 74.567Z" fill="#1E1C22"/>
<path d="M99.3638 75.4163C99.3638 76.6629 100.418 77.679 101.727 77.679C103.034 77.679 104.091 76.6629 104.091 75.4163C104.091 74.1629 103.034 73.1496 101.727 73.1496C100.418 73.1496 99.3638 74.1629 99.3638 75.4163Z" fill="#18151A"/>
<path d="M105.369 75.3096C105.369 73.3136 103.673 71.6963 101.59 71.6963C99.8951 71.6963 98.4639 72.7616 97.9863 74.231C98.3087 72.4083 99.9603 71.0163 101.958 71.0163C104.179 71.0163 105.982 72.7483 105.982 74.8763C105.982 76.5043 104.929 77.8896 103.44 78.4576C104.588 77.8403 105.369 76.663 105.369 75.3096Z" fill="#FEF5E9"/>
<path d="M101.772 73.551C101.772 74.075 102.211 74.4977 102.761 74.4977C103.307 74.4977 103.748 74.075 103.748 73.551C103.748 73.0257 103.307 72.603 102.761 72.603C102.211 72.603 101.772 73.0257 101.772 73.551Z" fill="#FEF5E9"/>
<path d="M103.089 75.1296C103.089 75.4816 103.388 75.7629 103.748 75.7629C104.115 75.7629 104.413 75.4816 104.413 75.1296C104.413 74.7816 104.115 74.4976 103.748 74.4976C103.388 74.4976 103.089 74.7816 103.089 75.1296Z" fill="#FEF5E9"/>
<path d="M70.6555 104.67C70.6555 106.758 68.8868 108.447 66.7071 108.447C64.5273 108.447 62.7617 106.758 62.7617 104.67C62.7617 102.584 64.5273 100.892 66.7071 100.892C68.8868 100.892 70.6555 102.584 70.6555 104.67Z" fill="#F6BB85"/>
<path d="M95.488 104.67C95.488 106.758 93.7233 108.447 91.5426 108.447C89.3634 108.447 87.5957 106.758 87.5957 104.67C87.5957 102.584 89.3634 100.892 91.5426 100.892C93.7233 100.892 95.488 102.584 95.488 104.67Z" fill="#F6BB85"/>
<path d="M66.2891 93.4603C66.2891 93.4603 68.5985 84.8616 72.3615 71.1176C76.1267 57.379 82.986 61.699 85.072 72.4496C87.1553 83.2016 89.9105 93.7363 89.9105 93.7363C89.9105 93.7363 78.9448 96.703 66.2891 93.4603Z" fill="#D09E56"/>
<path d="M89.344 96.7336C87.7184 99.0642 84.9351 101.186 81.6944 102.358C80.0288 102.964 76.1919 102.966 74.5231 102.366C71.2883 101.2 68.4998 99.0803 66.8716 96.7563C65.8944 95.3589 63.6763 88.6642 78.1007 88.6642C92.5236 88.6642 90.3168 95.3442 89.344 96.7336Z" fill="#3A1D19"/>
<path d="M74.2041 102.246C74.9342 101.635 75.2916 100.843 75.2916 99.9856C75.2916 98.0269 73.5374 96.4416 69.5124 96.4416C68.4832 96.4416 67.6004 96.5456 66.8604 96.7336C68.4312 98.9909 71.0932 101.054 74.2041 102.246Z" fill="#200E0B"/>
<path d="M89.3441 96.7336C88.6029 96.5456 87.7217 96.4416 86.6904 96.4416C82.6638 96.4416 80.9092 98.027 80.9092 99.9856C80.9092 100.843 81.266 101.635 81.9941 102.247C85.107 101.054 87.7701 98.991 89.3441 96.7336Z" fill="#200E0B"/>
<path d="M84.4484 90.679C84.4484 90.679 81.3807 88.2684 73.8239 90.1004C67.1921 91.703 67.1812 95.2657 67.7323 95.3017C68.2848 95.3364 72.3249 94.375 74.99 96.6737C77.6567 98.9764 69.9744 92.2897 84.4484 90.679Z" fill="#502A25"/>
</svg>
