<svg width="131" height="100" viewBox="0 0 131 100" fill="none" xmlns="http://www.w3.org/2000/svg">
<path d="M119.598 1.49366C114.973 -1.25168 94.9372 4.74165 91.6865 15.9856C91.6052 16.2523 101.788 22.3697 104.488 24.199C107.477 26.2137 114.905 28.619 115.204 28.411C120.299 24.883 125.851 5.21366 119.598 1.49366Z" fill="#DAD8D5"/>
<path d="M115.76 6.94694C112.551 5.03894 98.6266 9.20698 96.3719 17.015C96.3159 17.203 103.387 21.451 105.265 22.7203C107.343 24.1203 112.497 25.791 112.711 25.6483C116.245 23.1963 120.104 9.53361 115.76 6.94694Z" fill="#38373F"/>
<path d="M14.5481 32.1657C14.8614 32.3817 22.5161 29.9003 25.5961 27.823C28.3815 25.9417 38.8734 19.6323 38.7948 19.359C35.4441 7.76968 14.7855 1.58834 10.0241 4.42034C3.57881 8.25234 9.3041 28.531 14.5481 32.1657Z" fill="#6C7376"/>
<path d="M17.1251 29.3189C17.3384 29.4683 22.6544 27.743 24.7944 26.3003C26.7318 24.991 34.0197 20.6083 33.9651 20.4189C31.6384 12.3696 17.2904 8.07493 13.9784 10.0416C9.49975 12.7056 13.4758 26.7896 17.1251 29.3189Z" fill="#38373F"/>
<path d="M123.772 37.0776C116.588 25.8429 109.965 19.895 96.5812 15.1923C67.8399 5.08431 30.1558 9.82166 6.70384 39.8003C-3.06683 53.031 -1.39213 63.4443 12.6972 77.3123C39.2839 103.471 90.5878 109.542 116.576 80.5283C134.46 60.567 132.784 51.1736 123.772 37.0776Z" fill="#D0CFCC"/>
<path d="M96.5811 15.1924C67.8398 5.08442 30.1558 9.82176 6.70378 39.8004C5.86911 40.9284 5.12113 42.0391 4.45312 43.1271C21.4678 39.3777 48.1505 31.5017 65.4451 71.1791C65.4451 71.1791 70.9345 31.1057 122.374 34.9551C115.698 25.0791 109.093 19.5911 96.5811 15.1924Z" fill="#6E7679"/>
<path d="M43.9464 77.723C56.9638 73.547 55.3091 49.2883 34.5278 49.6576C13.7478 50.0309 3.41846 65.7136 3.41846 65.7136C5.43446 69.3842 8.5171 73.1976 12.6971 77.3123C15.4251 79.9896 18.4091 82.4563 21.5984 84.6976C21.6797 84.6683 30.9865 81.879 43.9464 77.723Z" fill="#38373F"/>
<path d="M97.5146 49.6577C76.7306 49.2884 75.0826 73.5471 88.0986 77.7231C98.8306 81.1644 108.9 84.0471 112.108 84.9537C113.669 83.5791 115.161 82.1071 116.576 80.5284C122.073 74.3951 125.716 69.2644 127.871 64.683C125.145 61.1844 115.052 49.9737 97.5146 49.6577Z" fill="#38373F"/>
<path d="M65.0255 79.0416C65.0255 79.0469 65.0255 81.8829 65.0255 84.9563C65.0255 88.0283 65.0255 91.3336 65.0255 92.2589C65.0268 92.6389 64.8455 93.0602 64.5175 93.3802C64.1882 93.7002 63.7295 93.9176 63.1695 93.9189C62.3095 93.9202 61.1322 93.3909 59.8775 91.6536C59.7295 91.4483 59.4428 91.4029 59.2388 91.5496C59.0335 91.6976 58.9868 91.9842 59.1348 92.1882C60.4855 94.0682 61.9175 94.8323 63.1695 94.8336C64.7828 94.827 65.9321 93.5723 65.9401 92.2589C65.9401 90.4083 65.9401 79.0402 65.9401 79.0416C65.9401 78.7882 65.7349 78.5843 65.4829 78.5843C65.2295 78.5843 65.0255 78.7882 65.0255 79.0416Z" fill="#242327"/>
<path d="M64.9492 79.0416C64.9492 79.0469 64.9492 81.8829 64.9492 84.9563C64.9492 88.0283 64.9492 91.3336 64.9492 92.2589C64.9559 93.5723 66.1052 94.827 67.7199 94.8336C68.9719 94.8323 70.4025 94.0682 71.7559 92.1882C71.9025 91.9842 71.8572 91.6976 71.6519 91.5509C71.4466 91.4029 71.1612 91.4483 71.0132 91.6536C69.7559 93.3909 68.5785 93.9202 67.7199 93.9189C67.1599 93.9176 66.6999 93.7002 66.3719 93.3802C66.0439 93.0602 65.8625 92.6389 65.8639 92.2589C65.8639 90.4083 65.8639 79.0402 65.8639 79.0416C65.8639 78.7882 65.6585 78.5843 65.4065 78.5843C65.1545 78.5843 64.9492 78.7882 64.9492 79.0416Z" fill="#242327"/>
<path d="M77.1146 73.3177C75.428 75.7364 72.5387 77.9404 69.1747 79.1577C67.4413 79.7857 63.4547 79.7897 61.728 79.1657C58.368 77.9551 55.476 75.7564 53.78 73.3377C52.7627 71.8884 50.4613 64.9364 65.44 64.9364C80.424 64.9364 78.124 71.8711 77.1146 73.3177Z" fill="#3A3941"/>
<path d="M61.3918 79.0416C62.1518 78.4056 62.5198 77.5883 62.5198 76.6923C62.5198 74.659 60.7039 73.0123 56.5212 73.0123C55.4492 73.0123 54.5345 73.1217 53.7651 73.3177C55.3998 75.6617 58.1638 77.8043 61.3918 79.0416Z" fill="#242327"/>
<path d="M77.1146 73.3177C76.3453 73.1217 75.4333 73.0123 74.3586 73.0123C70.1786 73.0123 68.356 74.659 68.356 76.6923C68.356 77.5843 68.7253 78.4056 69.4866 79.0416C72.7186 77.8043 75.4799 75.6617 77.1146 73.3177Z" fill="#242327"/>
<path d="M72.0291 67.0284C72.0291 67.0284 68.8451 64.5257 60.9971 66.4257C54.1144 68.0897 54.0998 71.795 54.6718 71.8284C55.2464 71.863 59.4438 70.867 62.2105 73.255C64.9798 75.6417 57.0011 68.7057 72.0291 67.0284Z" fill="#4A4954"/>
<path d="M45.3972 63.1338C45.3972 67.5751 41.6346 71.1791 36.9946 71.1791C32.3559 71.1791 28.5933 67.5751 28.5933 63.1338C28.5933 58.6924 32.3559 55.0911 36.9946 55.0911C41.6346 55.0911 45.3972 58.6924 45.3972 63.1338Z" fill="#1E1C22"/>
<path d="M42.1317 64.6656C42.1317 66.9323 40.2157 68.767 37.8504 68.767C35.4851 68.767 33.5664 66.9323 33.5664 64.6656C33.5664 62.4016 35.4851 60.567 37.8504 60.567C40.2157 60.567 42.1317 62.4016 42.1317 64.6656Z" fill="#18151A"/>
<path d="M31.2627 64.4763C31.2627 60.863 34.3253 57.9296 38.1 57.9296C41.1666 57.9296 43.76 59.8656 44.6267 62.523C44.048 59.223 41.056 56.707 37.4386 56.707C33.4106 56.707 30.1479 59.8336 30.1479 63.6963C30.1479 66.6403 32.056 69.1563 34.7547 70.1816C32.6707 69.0563 31.2627 66.927 31.2627 64.4763Z" fill="#FEF5E9"/>
<path d="M37.773 61.2924C37.773 62.239 36.9731 63.0083 35.9811 63.0083C34.9917 63.0083 34.1904 62.239 34.1904 61.2924C34.1904 60.3457 34.9917 59.575 35.9811 59.575C36.9731 59.575 37.773 60.3457 37.773 61.2924Z" fill="#FEF5E9"/>
<path d="M35.3852 64.1536C35.3852 64.7856 34.8505 65.299 34.1905 65.299C33.5292 65.299 32.9932 64.7856 32.9932 64.1536C32.9932 63.5203 33.5292 63.0083 34.1905 63.0083C34.8505 63.0083 35.3852 63.5203 35.3852 64.1536Z" fill="#FEF5E9"/>
<path d="M85.4907 63.1338C85.4907 67.5751 89.252 71.1791 93.8947 71.1791C98.5334 71.1791 102.296 67.5751 102.296 63.1338C102.296 58.6924 98.5334 55.0911 93.8947 55.0911C89.252 55.0911 85.4907 58.6924 85.4907 63.1338Z" fill="#1E1C22"/>
<path d="M88.752 64.6656C88.752 66.9323 90.6706 68.767 93.0372 68.767C95.4039 68.767 97.3199 66.9323 97.3199 64.6656C97.3199 62.4016 95.4039 60.567 93.0372 60.567C90.6706 60.567 88.752 62.4016 88.752 64.6656Z" fill="#18151A"/>
<path d="M99.6267 64.4763C99.6267 60.863 96.5614 57.9296 92.788 57.9296C89.72 57.9296 87.1294 59.8656 86.2627 62.523C86.8427 59.223 89.8347 56.707 93.4467 56.707C97.476 56.707 100.741 59.8336 100.741 63.6963C100.741 66.6403 98.832 69.1563 96.1373 70.1816C98.22 69.0563 99.6267 66.927 99.6267 64.4763Z" fill="#FEF5E9"/>
<path d="M93.1118 61.2924C93.1118 62.239 93.9145 63.0083 94.9091 63.0083C95.8958 63.0083 96.6985 62.239 96.6985 61.2924C96.6985 60.3457 95.8958 59.575 94.9091 59.575C93.9145 59.575 93.1118 60.3457 93.1118 61.2924Z" fill="#FEF5E9"/>
<path d="M95.5015 64.1536C95.5015 64.7856 96.0428 65.299 96.6988 65.299C97.3601 65.299 97.8935 64.7856 97.8935 64.1536C97.8935 63.5203 97.3601 63.0083 96.6988 63.0083C96.0428 63.0083 95.5015 63.5203 95.5015 64.1536Z" fill="#FEF5E9"/>
<path d="M53.8602 85.419C53.8602 88.271 51.4468 90.5844 48.4681 90.5844C45.4868 90.5844 43.0708 88.271 43.0708 85.419C43.0708 82.567 45.4868 80.255 48.4681 80.255C51.4468 80.255 53.8602 82.567 53.8602 85.419Z" fill="#D8A5A7"/>
<path d="M87.8147 85.419C87.8147 88.271 85.4001 90.5844 82.4187 90.5844C79.4414 90.5844 77.0254 88.271 77.0254 85.419C77.0254 82.567 79.4414 80.255 82.4187 80.255C85.4001 80.255 87.8147 82.567 87.8147 85.419Z" fill="#D8A5A7"/>
<path d="M13.3852 36.8017C14.7012 36.8563 16.0065 37.5857 17.3225 37.207C17.6492 37.1123 17.6292 36.6683 17.3225 36.5657C16.0879 36.151 14.6786 36.1176 13.3852 36.1136C12.9412 36.1136 12.9439 36.783 13.3852 36.8017Z" fill="#555B5C"/>
<path d="M16.3972 33.2671C17.5705 33.6165 18.7985 34.4445 20.0492 34.3618C20.3572 34.3405 20.4732 33.9538 20.2052 33.7818C19.1785 33.1231 17.7745 32.8124 16.5905 32.5631C16.1332 32.4671 15.9439 33.1311 16.3972 33.2671Z" fill="#555B5C"/>
<path d="M18.7543 28.639C19.6823 28.8243 20.5836 29.3323 21.529 29.3763C21.793 29.387 21.8943 29.0577 21.7329 28.8817C21.0623 28.151 19.9129 27.9684 18.9756 27.831C18.4556 27.7577 18.2156 28.531 18.7543 28.639Z" fill="#555B5C"/>
<path d="M23.7986 32.1416C24.2239 32.2389 24.6346 32.3643 25.0426 32.523C25.52 32.7097 25.892 32.967 26.4187 32.9643C26.7307 32.963 26.8306 32.6123 26.6533 32.3977C26.0546 31.6617 24.784 31.515 23.8973 31.4043C23.4746 31.351 23.3906 32.0483 23.7986 32.1416Z" fill="#555B5C"/>
<path d="M25.004 26.3537C25.46 26.5723 25.9026 26.8097 26.34 27.0617C26.7653 27.3097 27.2066 27.5923 27.704 27.4763C27.9026 27.4297 28.0346 27.1964 27.9733 27.0004C27.6893 26.103 26.1507 25.7817 25.352 25.531C24.8693 25.379 24.5413 26.131 25.004 26.3537Z" fill="#555B5C"/>
<path d="M32.5185 27.6591C32.7532 27.9137 32.9492 28.1924 33.1532 28.471C33.2705 28.631 33.4532 28.7937 33.6732 28.7697C33.9305 28.7404 34.0718 28.7124 34.1945 28.471C34.2878 28.2857 34.3212 28.0431 34.1945 27.8617C33.9412 27.4937 33.6679 27.1431 33.3519 26.8257C32.8132 26.2857 32.0025 27.1031 32.5185 27.6591Z" fill="#555B5C"/>
<path d="M31.092 22.491C31.524 22.971 31.9267 23.627 32.5653 23.8177C32.7547 23.8724 32.9627 23.6804 32.8947 23.487C32.676 22.8524 32.0161 22.4844 31.5161 22.067C31.2201 21.8217 30.8294 22.2003 31.092 22.491Z" fill="#555B5C"/>
<path d="M36.1468 18.5097C36.6188 18.923 36.9255 19.4097 37.2228 19.9537C37.4922 20.4457 37.7522 20.843 38.2815 21.0537C38.5255 21.151 38.8335 20.951 38.8882 20.711C39.1735 19.463 37.7148 18.2577 36.7308 17.7523C36.2642 17.5123 35.7162 18.1324 36.1468 18.5097Z" fill="#555B5C"/>
<path d="M37.189 23.979C37.6477 24.575 38.133 25.695 38.917 25.8604C39.0877 25.8964 39.2837 25.8124 39.3264 25.6284C39.525 24.7577 38.569 23.9284 38.065 23.3031C37.6676 22.8124 36.8037 23.4777 37.189 23.979Z" fill="#555B5C"/>
<path d="M42.3118 15.4004C42.5904 16.103 43.0798 17.0377 43.8091 17.3323C44.0558 17.4337 44.2211 17.1537 44.1918 16.9497C44.0878 16.223 43.2625 15.515 42.6905 15.1097C42.5118 14.9857 42.2304 15.195 42.3118 15.4004Z" fill="#555B5C"/>
<path d="M43.6227 21.1458C43.7187 22.0418 44.0587 23.7084 45.1334 23.8991C45.3641 23.9404 45.5707 23.8031 45.5814 23.5577C45.5987 23.1577 45.4028 22.8431 45.1828 22.5164C44.8681 22.0484 44.6094 21.5765 44.4441 21.0338C44.3121 20.6018 43.5707 20.6591 43.6227 21.1458Z" fill="#555B5C"/>
<path d="M49.5199 18.4523C49.5159 19.279 49.3652 20.8137 50.2786 21.227C50.4052 21.283 50.5572 21.267 50.6319 21.135C51.0799 20.3377 50.3839 19.1483 50.1079 18.3737C49.9986 18.0603 49.5199 18.1016 49.5199 18.4523Z" fill="#555B5C"/>
<path d="M53.7999 13.535C54.0119 14.4283 54.1865 15.2803 54.5745 16.1163C54.6505 16.2789 54.8825 16.1577 54.8492 16.0003C54.6639 15.1017 54.4839 14.2497 54.1132 13.403C54.0332 13.2177 53.7572 13.3536 53.7999 13.535Z" fill="#555B5C"/>
<path d="M54.5066 18.4523C54.5853 19.367 54.4786 20.8137 55.2813 21.423C55.4533 21.5537 55.7013 21.4111 55.7546 21.2311C55.8906 20.7777 55.7226 20.3457 55.6013 19.9031C55.4573 19.3897 55.3199 18.8764 55.1813 18.3617C55.0826 17.9951 54.4746 18.059 54.5066 18.4523Z" fill="#555B5C"/>
<path d="M48.7748 13.4897C48.8602 14.4417 48.9748 16.0564 50.0041 16.4444C50.2188 16.5257 50.4615 16.3564 50.5188 16.1537C50.6508 15.6831 50.4562 15.3844 50.2775 14.9511C50.0588 14.4244 49.8201 13.9218 49.6615 13.3698C49.5228 12.8951 48.7295 12.9684 48.7748 13.4897Z" fill="#555B5C"/>
<path d="M59.1119 11.6443C59.2026 12.603 59.1759 13.6164 59.6372 14.4871C59.7492 14.6991 60.1186 14.6644 60.1652 14.4177C60.3519 13.439 60.0012 12.4964 59.7652 11.555C59.6746 11.199 59.0759 11.2657 59.1119 11.6443Z" fill="#555B5C"/>
<path d="M65.6706 11.7884C65.7172 12.575 65.4973 13.4763 65.8466 14.2083C65.9413 14.4043 66.2719 14.4043 66.3652 14.2083C66.7279 13.443 66.4799 12.4817 66.2386 11.7124C66.1453 11.4097 65.6506 11.451 65.6706 11.7884Z" fill="#555B5C"/>
<path d="M72.3343 12.6376C72.3063 13.147 72.1784 13.711 72.4104 14.1816C72.4917 14.3416 72.757 14.3416 72.837 14.1816C73.069 13.711 72.941 13.147 72.913 12.6376C72.893 12.2656 72.3543 12.2656 72.3343 12.6376Z" fill="#555B5C"/>
<path d="M81.2627 14.1297C81.052 15.0617 80.6653 15.9377 80.5666 16.8924C80.544 17.1057 80.8466 17.1551 80.9453 16.9951C81.46 16.1724 81.6253 15.2164 81.7573 14.2657C81.8013 13.947 81.336 13.7964 81.2627 14.1297Z" fill="#555B5C"/>
<path d="M89.4507 14.5604C88.4853 15.5631 88.1093 16.9537 88.036 18.3124C88.0227 18.5484 88.372 18.7164 88.5294 18.5164C89.3774 17.4377 89.5933 16.1364 89.9346 14.8417C90.0066 14.5657 89.656 14.3484 89.4507 14.5604Z" fill="#555B5C"/>
<path d="M96.4908 21.7549C97.1494 20.7442 98.1294 19.8176 98.5361 18.6722C98.6201 18.4349 98.3068 18.1789 98.0961 18.3336C97.1001 19.0616 96.4521 20.3269 95.8601 21.3869C95.6294 21.8003 96.2334 22.1482 96.4908 21.7549Z" fill="#555B5C"/>
<path d="M103.101 24.8617C103.989 24.3164 105.172 23.991 105.9 23.239C106.116 23.0163 105.96 22.6403 105.651 22.635C104.563 22.619 103.455 23.387 102.569 23.9523C102.001 24.3177 102.52 25.2164 103.101 24.8617Z" fill="#555B5C"/>
<path d="M110.39 29.7991C111.492 29.7391 112.542 29.6297 113.504 29.0631C113.722 28.9351 113.688 28.5777 113.432 28.5151C112.314 28.2391 111.352 28.6897 110.277 28.955C109.812 29.071 109.904 29.8244 110.39 29.7991Z" fill="#555B5C"/>
<path d="M26.7132 36.407C28.2332 36.4844 29.6505 37.5764 31.1585 37.4004C31.5718 37.3524 31.8812 36.8617 31.5225 36.523C30.2745 35.343 28.1998 35.139 26.5758 35.3964C25.9758 35.491 26.1625 36.3804 26.7132 36.407Z" fill="#555B5C"/>
<path d="M32.356 32.6856C33.268 33.2896 34.3013 34.327 35.4507 34.315C35.816 34.311 35.9787 33.8789 35.7387 33.6189C35.3494 33.1949 34.8547 32.9749 34.3707 32.6749C33.8787 32.3709 33.4067 32.0336 32.9187 31.7216C32.3094 31.3323 31.7613 32.2909 32.356 32.6856Z" fill="#555B5C"/>
<path d="M41.1267 29.6883C41.468 30.3896 41.9413 31.1897 42.676 31.5257C42.972 31.6603 43.276 31.4416 43.212 31.1136C43.072 30.4083 42.5507 29.8603 42.2827 29.2016C41.9387 28.351 40.7227 28.8643 41.1267 29.6883Z" fill="#555B5C"/>
<path d="M48.0706 26.5897C48.5039 27.6924 48.8972 29.3017 49.8986 30.0257C50.1146 30.1804 50.4786 30.0257 50.5293 29.7683C50.76 28.5897 49.9159 27.263 49.4973 26.1963C49.1533 25.319 47.7212 25.7004 48.0706 26.5897Z" fill="#555B5C"/>
<path d="M56.1559 25.107C56.2959 25.651 56.4412 26.1936 56.5732 26.739C56.7105 27.2976 56.7519 27.919 57.0945 28.3977C57.2585 28.6284 57.5852 28.595 57.6812 28.3217C58.0438 27.2937 57.3745 25.8443 57.1065 24.8443C56.9412 24.231 55.9959 24.491 56.1559 25.107Z" fill="#555B5C"/>
<path d="M61.4343 17.8844C61.5077 18.5564 61.6357 19.215 61.7677 19.8804C61.8917 20.5217 61.9317 21.1684 62.241 21.755C62.3624 21.9844 62.7557 22.0017 62.8717 21.755C63.441 20.5324 62.661 18.9937 62.465 17.7457C62.3743 17.1617 61.3677 17.2977 61.4343 17.8844Z" fill="#555B5C"/>
<path d="M68.6948 20.2963C68.6948 21.239 68.7375 22.107 68.8935 23.0377C68.9242 23.2137 69.2161 23.2137 69.2455 23.0377C69.4015 22.107 69.4442 21.239 69.4442 20.2963C69.4442 19.8123 68.6948 19.8123 68.6948 20.2963Z" fill="#555B5C"/>
<path d="M77.9693 21.7136C77.8427 22.791 77.8894 23.7603 78.016 24.8296C78.048 25.0963 78.3827 25.151 78.48 24.8923C78.6574 24.4243 78.8227 23.9763 78.9093 23.4817C79.004 22.9483 79.0214 22.403 79.108 21.8683C79.24 21.0363 78.068 20.8803 77.9693 21.7136Z" fill="#555B5C"/>
<path d="M68.0984 17.1536C67.7878 17.9603 67.4531 18.9469 67.7945 19.7936C67.8891 20.0283 68.1758 20.0283 68.2718 19.7936C68.5985 18.9843 68.3131 18.0176 68.2678 17.1763L68.0984 17.1536Z" fill="#555B5C"/>
<path d="M73.6704 17.1536C73.9317 18.619 73.2077 20.4776 73.9771 21.8203C74.1611 22.1403 74.6451 22.1403 74.8291 21.8203C75.6464 20.391 74.8011 18.3896 74.5411 16.9136C74.4397 16.3416 73.5704 16.5856 73.6704 17.1536Z" fill="#555B5C"/>
<path d="M62.9175 26.679C63.5801 28.3977 63.1455 30.607 64.2668 32.1337C64.4522 32.387 64.9668 32.4337 65.0308 32.0337C65.3295 30.1617 64.6868 28.099 63.9722 26.387C63.7068 25.7523 62.6615 26.0123 62.9175 26.679Z" fill="#555B5C"/>
<path d="M81.4467 27.5443C80.9147 28.2376 80.672 28.9296 80.62 29.7936C80.608 29.971 80.864 29.9883 80.9147 29.8337C81.1507 29.127 81.4361 28.399 81.8721 27.7936C82.0601 27.5323 81.6347 27.2976 81.4467 27.5443Z" fill="#555B5C"/>
<path d="M74.7574 27.3217C74.5307 28.467 74.0467 29.755 74.156 30.9297C74.1787 31.171 74.476 31.2684 74.616 31.0537C75.28 30.039 75.1653 28.551 75.2413 27.3857C75.26 27.1083 74.812 27.047 74.7574 27.3217Z" fill="#555B5C"/>
<path d="M85.5468 18.4524C85.4348 19.9244 84.6015 21.2203 84.5535 22.7057C84.5402 23.1057 85.0308 23.1524 85.2321 22.8884C86.2521 21.567 86.6762 19.991 86.3468 18.3443C86.2522 17.867 85.5788 18.0203 85.5468 18.4524Z" fill="#555B5C"/>
<path d="M91.6292 23.4124C90.6798 25.1017 89.6638 26.6284 88.9958 28.4591C88.9012 28.7151 89.2691 28.8257 89.4065 28.6324C90.5531 27.035 91.5118 25.507 92.1585 23.635C92.2678 23.3217 91.7878 23.1297 91.6292 23.4124Z" fill="#555B5C"/>
<path d="M96.5788 28.411C95.8028 29.4363 94.7148 30.2696 94.1268 31.427C94.0588 31.5616 94.2375 31.7203 94.3468 31.5963C95.1975 30.6243 96.1242 29.6897 96.9162 28.671C97.1068 28.4257 96.7655 28.163 96.5788 28.411Z" fill="#555B5C"/>
<path d="M102.461 30.419C101.849 30.9136 101.222 31.3883 100.588 31.8537C99.9917 32.2923 99.3317 32.783 98.9864 33.451C98.853 33.707 99.0704 34.0483 99.373 33.955C100.801 33.511 101.952 31.9443 102.917 30.8749C103.2 30.5603 102.78 30.1616 102.461 30.419Z" fill="#555B5C"/>
<path d="M97.8399 25.8497C97.5719 26.111 97.4159 26.4057 97.3106 26.763C97.2546 26.9564 97.5106 27.1111 97.652 26.9617C97.864 26.7324 98.1319 26.583 98.3559 26.3657C98.6933 26.0377 98.1772 25.5217 97.8399 25.8497Z" fill="#555B5C"/>
<path d="M87.9983 32.4576C87.2983 33.3269 85.9917 34.0643 85.7503 35.2256C85.6983 35.4763 85.9183 35.7736 86.1997 35.6736C87.397 35.2469 87.913 33.8176 88.3863 32.7576C88.4917 32.5229 88.189 32.2216 87.9983 32.4576Z" fill="#555B5C"/>
<path d="M36.9786 38.0497C38.2546 38.711 39.6012 39.7523 41.0786 39.8243C41.3319 39.8377 41.4039 39.4897 41.2026 39.367C40.0106 38.6404 38.5146 37.9297 37.1346 37.6777C36.9212 37.639 36.7612 37.9377 36.9786 38.0497Z" fill="#555B5C"/>
<path d="M41.7104 35.8656C42.3064 36.3669 42.921 36.8229 43.481 37.3696C44.033 37.9083 44.5517 38.3176 45.2517 38.6482C45.4944 38.7616 45.7224 38.4829 45.5384 38.2762C44.5557 37.1789 43.521 35.7416 42.0637 35.2563C41.7277 35.1443 41.4304 35.6296 41.7104 35.8656Z" fill="#555B5C"/>
<path d="M48.012 34.3803C48.4414 35.6323 49.036 36.7563 49.8147 37.8203C49.9214 37.9656 50.1987 37.8843 50.128 37.6883C49.6867 36.447 48.9067 35.4243 48.3454 34.2403C48.2574 34.0536 47.944 34.1869 48.012 34.3803Z" fill="#555B5C"/>
<path d="M53.7266 32.5537C54.128 33.927 54.3999 35.687 55.2506 36.8564C55.4053 37.0697 55.7 36.9377 55.6626 36.683C55.5493 35.9417 55.1853 35.239 54.9306 34.5377C54.6746 33.8377 54.4412 33.1297 54.2039 32.4244C54.1039 32.1244 53.6373 32.247 53.7266 32.5537Z" fill="#555B5C"/>
<path d="M57.8947 32.5884C58.0347 33.3564 58.1694 34.1244 58.2881 34.8964C58.3948 35.5884 58.4267 36.2631 58.7307 36.9004C58.8467 37.1431 59.2414 37.0777 59.2987 36.8244C59.62 35.4364 58.9441 33.7377 58.6188 32.3897C58.5041 31.9137 57.8107 32.119 57.8947 32.5884Z" fill="#555B5C"/>
<path d="M66.6824 33.0563C66.6411 34.1109 66.4438 35.1883 66.6744 36.2229C66.7091 36.3763 66.9371 36.4043 67.0078 36.2683C67.5224 35.2803 67.3478 34.1376 67.3051 33.0563C67.2891 32.6563 66.6998 32.6563 66.6824 33.0563Z" fill="#555B5C"/>
<path d="M67.8827 26.6763C67.8614 27.5069 67.692 28.4896 67.9747 29.2829C68.048 29.4869 68.316 29.4869 68.388 29.2829C68.6707 28.4896 68.5013 27.5069 68.4813 26.6763C68.4733 26.2896 67.8894 26.2896 67.8827 26.6763Z" fill="#555B5C"/>
<path d="M71.944 34.6536C71.8133 35.3963 71.6866 36.1403 71.5813 36.887C71.4866 37.5563 71.3919 38.2816 71.7706 38.8776C71.8932 39.0736 72.164 39.0682 72.288 38.8776C72.6413 38.3389 72.6346 37.6576 72.6399 37.031C72.6453 36.2723 72.6853 35.515 72.724 34.759C72.7466 34.3163 72.0226 34.211 71.944 34.6536Z" fill="#555B5C"/>
<path d="M77.3825 35.6737C77.2171 36.4497 76.9411 37.2324 76.8545 38.0177C76.8291 38.255 77.1438 38.275 77.2545 38.1257C77.7225 37.491 77.7878 36.5843 77.9398 35.827C78.0131 35.4643 77.4585 35.3084 77.3825 35.6737Z" fill="#555B5C"/>
<path d="M80.6304 38.9323C80.3358 39.4029 80.0637 39.8923 79.8091 40.3856L79.9438 40.4896C80.3104 40.0576 80.5797 39.5536 80.9091 39.0936C81.0277 38.9269 80.7411 38.7549 80.6304 38.9323Z" fill="#555B5C"/>
<path d="M57.3252 43.659C57.6959 44.327 57.9745 45.031 58.2319 45.747C58.4559 46.3697 58.6652 47.0563 59.1252 47.5443C59.2585 47.6857 59.5479 47.5857 59.5279 47.3777C59.4026 46.039 58.4666 44.5124 57.7132 43.4337C57.5492 43.1977 57.1812 43.403 57.3252 43.659Z" fill="#555B5C"/>
<path d="M61.4732 40.7137C61.6505 42.407 62.0825 44.0377 62.7279 45.6071C62.8199 45.8297 63.2132 45.9124 63.2652 45.6071C63.5798 43.8071 62.6186 42.3071 62.1466 40.6217C62.0452 40.2604 61.4319 40.319 61.4732 40.7137Z" fill="#555B5C"/>
<path d="M67.9104 44.099C67.5824 45.499 67.3037 46.9056 67.7437 48.307C67.8331 48.5963 68.2291 48.591 68.3224 48.307C68.7411 47.0403 68.7678 45.7136 69.0491 44.4109C69.2078 43.6709 68.0851 43.355 67.9104 44.099Z" fill="#555B5C"/>
<path d="M61.5387 53.4963C61.72 53.7883 61.8773 54.075 62.128 54.3124C62.2707 54.4457 62.46 54.3083 62.4334 54.135C62.3854 53.819 62.2467 53.5444 62.1253 53.2484C61.9427 52.8044 61.2974 53.1123 61.5387 53.4963Z" fill="#555B5C"/>
<path d="M63.8625 50.303C64.0145 51.103 64.0931 51.9897 64.4411 52.731C64.5411 52.943 64.8251 52.815 64.8411 52.623C64.9145 51.8017 64.6398 50.9337 64.5025 50.1257C64.4318 49.707 63.7812 49.8817 63.8625 50.303Z" fill="#555B5C"/>
<path d="M64.3691 56.5923C64.3371 57.2936 64.3091 57.9923 64.3278 58.695C64.3398 59.2497 64.3611 59.9603 64.7038 60.4096C64.8278 60.571 65.1198 60.5896 65.1731 60.3483C65.2971 59.8016 65.1078 59.2457 65.0385 58.695C64.9478 57.9963 64.9171 57.2936 64.8851 56.5923C64.8691 56.2603 64.3851 56.2603 64.3691 56.5923Z" fill="#555B5C"/>
<path d="M68.5651 52.0016C67.9744 53.5363 67.7064 55.095 67.8397 56.735C67.8571 56.9456 68.1584 57.0056 68.2198 56.7856C68.6451 55.2536 68.6531 53.6656 68.9798 52.1163C69.0371 51.8416 68.6637 51.747 68.5651 52.0016Z" fill="#555B5C"/>
<path d="M73.0197 46.9376C72.441 48.395 71.7224 50.063 71.5744 51.6337C71.5597 51.7923 71.8063 51.8536 71.8757 51.7136C72.5757 50.3043 72.841 48.507 73.1237 46.967L73.0197 46.9376Z" fill="#555B5C"/>
<path d="M77.2798 42.6484C76.5451 43.9324 75.7118 45.3137 75.5518 46.8097C75.5318 46.9951 75.8065 47.0497 75.8905 46.9017C76.6212 45.6164 76.9598 44.1084 77.4572 42.7231L77.2798 42.6484Z" fill="#555B5C"/>
<path d="M72.4453 41.6136C72.1786 42.9683 71.9293 44.439 72.02 45.8177C72.0306 45.9643 72.2453 46.0523 72.3213 45.8977C72.9333 44.643 72.84 43.1536 73.108 41.7963C73.1933 41.3643 72.532 41.1803 72.4453 41.6136Z" fill="#555B5C"/>
<path d="M65.8771 38.8456C65.6211 40.1349 65.1664 41.9482 65.6811 43.1989C65.7931 43.4736 66.1265 43.4736 66.2385 43.1989C66.7531 41.9482 66.2985 40.1349 66.0438 38.8456H65.8771Z" fill="#555B5C"/>
<path d="M53.4762 40.0044C53.5095 41.2044 53.9961 42.7044 54.8735 43.5377C55.0161 43.6737 55.2029 43.5324 55.1775 43.3604C55.0882 42.7164 54.8535 42.2204 54.5895 41.6338C54.3322 41.0618 54.1348 40.4551 53.8348 39.9071C53.7441 39.7391 53.4708 39.8151 53.4762 40.0044Z" fill="#555B5C"/>
<path d="M48.3638 41.967C48.9118 42.559 49.4158 43.1244 50.0158 43.6697C50.4785 44.091 51.0278 44.8603 51.6611 44.9817C51.8585 45.0203 52.0505 44.895 52.0531 44.6817C52.0638 44.0483 51.4065 43.5257 50.9292 43.191C50.5745 42.9417 50.2131 42.7096 49.8505 42.475C49.4398 42.2083 48.9918 42.0337 48.6065 41.7243C48.4371 41.5883 48.2105 41.8017 48.3638 41.967Z" fill="#555B5C"/>
<path d="M53.3866 48.0817C53.992 48.7577 54.2853 49.6377 54.992 50.2297C55.1613 50.3723 55.4239 50.2417 55.3679 50.011C55.1279 49.023 54.4853 48.287 53.62 47.7777C53.4253 47.663 53.2426 47.9217 53.3866 48.0817Z" fill="#555B5C"/>
<path d="M57.5491 49.7857C57.6517 50.687 57.9517 51.903 58.6784 52.5137C58.825 52.6377 59.121 52.575 59.101 52.339C59.0117 51.4003 58.2744 50.491 57.7691 49.7257C57.7104 49.6377 57.5357 49.6603 57.5491 49.7857Z" fill="#555B5C"/>
<path d="M87.1186 37.0017C86.4679 37.8244 85.4866 38.5177 85.0292 39.471C84.9412 39.651 85.1279 39.8897 85.3225 39.7644C86.2105 39.1857 86.9172 38.1683 87.4892 37.2883C87.6345 37.0657 87.2852 36.791 87.1186 37.0017Z" fill="#555B5C"/>
<path d="M81.6424 32.2177C81.0358 33.3337 80.0545 34.6017 79.9491 35.8923C79.9198 36.2523 80.3638 36.3443 80.5905 36.1576C81.0958 35.7416 81.3558 35.1643 81.6451 34.591C81.9518 33.9816 82.2598 33.3696 82.5665 32.7603C82.8771 32.147 81.9731 31.607 81.6424 32.2177Z" fill="#555B5C"/>
<path d="M92.372 32.5204C91.58 33.5044 90.7773 34.451 90.4053 35.671C90.324 35.9377 90.6213 36.1217 90.8453 36.0097C92.02 35.4217 92.544 34.247 93.248 33.1963C93.5986 32.6737 92.7707 32.0257 92.372 32.5204Z" fill="#555B5C"/>
<path d="M92.7385 16.579C92.5012 17.2257 92.2132 17.9003 92.1612 18.5936C92.1385 18.8896 92.5025 18.9683 92.6918 18.8136C93.2332 18.3656 93.6092 17.6976 93.9145 17.075C94.3252 16.2336 93.0572 15.703 92.7385 16.579Z" fill="#555B5C"/>
</svg>
