<svg width="160" height="125" viewBox="0 0 160 125" fill="none" xmlns="http://www.w3.org/2000/svg">
<path d="M13.6542 42.3736C19.4835 50.2056 28.4115 46.8896 37.9435 39.8283C47.4742 32.7669 54.6848 27.9283 48.5422 20.319C37.6182 6.79897 10.2262 0.138954 10.2262 0.138954C10.2262 0.138954 1.17149 25.599 13.6542 42.3736Z" fill="#2E2228"/>
<path d="M19.8916 39.203C23.7982 44.0416 31.8823 44.3203 37.9436 39.8283C44.0023 35.3363 45.7516 27.7736 41.8423 22.939C37.9303 18.1016 21.4569 9.06164 18.4596 11.2843C15.4649 13.507 15.9796 34.367 19.8916 39.203Z" fill="#85737A"/>
<path d="M147.016 42.3736C141.188 50.2056 132.256 46.8896 122.725 39.8283C113.197 32.7669 105.985 27.9283 112.132 20.319C123.049 6.79897 150.441 0.138954 150.441 0.138954C150.441 0.138954 159.5 25.599 147.016 42.3736Z" fill="#2E2228"/>
<path d="M140.779 39.203C136.871 44.0416 128.785 44.3203 122.725 39.8283C116.665 35.3363 114.915 27.7736 118.83 22.939C122.735 18.1016 139.213 9.06164 142.21 11.2843C145.203 13.507 144.686 34.367 140.779 39.203Z" fill="#85737A"/>
<path d="M159.786 68.243C159.786 59.1763 138.23 14.8656 80.3433 14.8656C22.458 14.8656 0.883301 59.1763 0.883301 68.243C0.883301 77.307 20.966 124.544 80.278 124.578H80.326H80.334H80.3433H80.3447H80.3873H80.3886C139.702 124.544 159.786 77.307 159.786 68.243Z" fill="#2E2228"/>
<path d="M59.4125 68.243C67.3659 52.9537 37.2472 47.7057 8.2845 50.9577C2.19917 58.3017 0.881836 65.0284 0.881836 68.243C0.881836 73.5844 7.85783 92.171 25.7138 106.551C40.5565 99.651 50.5605 85.2684 59.4125 68.243Z" fill="#85737A"/>
<path d="M101.257 68.243C93.3034 52.9537 123.481 47.7057 152.446 50.9577C158.53 58.3017 159.786 65.0284 159.786 68.243C159.786 73.5844 152.811 92.171 134.949 106.551C120.111 99.651 110.11 85.2684 101.257 68.243Z" fill="#85737A"/>
<path d="M101.843 89.4243C96.798 75.911 59.9313 74.0763 53.7206 89.4243C51.9406 93.815 49.6526 108.734 77.6913 108.734C105.729 108.734 103.499 93.8603 101.843 89.4243Z" fill="#85737A"/>
<path d="M88.9701 96.1016C89.8248 96.1016 89.8248 97.3696 88.9701 97.3696C88.1154 97.3696 88.1154 96.1016 88.9701 96.1016Z" fill="#2E2228"/>
<path d="M85.7313 96.7351C86.5833 96.7351 86.5833 98.0031 85.7313 98.0031C84.878 98.0031 84.878 96.7351 85.7313 96.7351Z" fill="#2E2228"/>
<path d="M84.2499 98.9083C85.0992 98.9083 85.0992 100.175 84.2499 100.175C83.3952 100.175 83.3952 98.9083 84.2499 98.9083Z" fill="#2E2228"/>
<path d="M87.9168 99.2163C88.7715 99.2163 88.7715 100.487 87.9168 100.487C87.0661 100.487 87.0661 99.2163 87.9168 99.2163Z" fill="#2E2228"/>
<path d="M90.889 97.9483C91.7463 97.9483 91.7463 99.2163 90.889 99.2163C90.0396 99.2163 90.0396 97.9483 90.889 97.9483Z" fill="#2E2228"/>
<path d="M77.6474 91.5056C77.806 94.0096 78.4967 96.6483 77.4074 99.1909C76.8341 100.431 75.8047 101.394 74.6407 102.034C73.4687 102.668 72.17 103.034 70.8647 103.164C68.2567 103.395 65.5754 102.916 63.2807 101.651C62.1434 101.016 61.1007 100.186 60.2954 99.1563C59.5087 98.1216 58.9607 96.9016 58.79 95.6323C59.4167 98.1376 61.3167 100.076 63.5421 101.154C65.7794 102.236 68.326 102.707 70.7874 102.431C73.2034 102.196 75.7527 101.13 76.8447 98.9283C77.9661 96.7203 77.482 94.0296 77.6474 91.5056Z" fill="#2E2228"/>
<path d="M77.9966 91.5057C78.1633 94.0297 77.678 96.7203 78.8006 98.9283C79.8913 101.13 82.4446 102.196 84.8593 102.431C87.322 102.707 89.8687 102.236 92.106 101.154C94.33 100.076 96.2313 98.1377 96.8566 95.6323C96.6886 96.9017 96.1406 98.1216 95.3526 99.1563C94.5473 100.186 93.5046 101.016 92.366 101.651C90.0713 102.918 87.3913 103.395 84.7806 103.164C83.474 103.034 82.178 102.668 81.0073 102.034C79.842 101.394 78.8126 100.431 78.238 99.1923C77.1513 96.6483 77.838 94.0097 77.9966 91.5057Z" fill="#2E2228"/>
<path d="M66.6458 96.1016C65.7938 96.1016 65.7938 97.3696 66.6458 97.3696C67.4992 97.3696 67.4992 96.1016 66.6458 96.1016Z" fill="#2E2228"/>
<path d="M69.8846 96.7351C69.0339 96.7351 69.0339 98.0031 69.8846 98.0031C70.7392 98.0031 70.7392 96.7351 69.8846 96.7351Z" fill="#2E2228"/>
<path d="M71.3685 98.9083C70.5152 98.9083 70.5152 100.175 71.3685 100.175C72.2192 100.175 72.2192 98.9083 71.3685 98.9083Z" fill="#2E2228"/>
<path d="M67.6981 99.2163C66.8448 99.2163 66.8448 100.487 67.6981 100.487C68.5541 100.487 68.5541 99.2163 67.6981 99.2163Z" fill="#2E2228"/>
<path d="M64.7235 97.9483C63.8702 97.9483 63.8702 99.2163 64.7235 99.2163C65.5808 99.2163 65.5808 97.9483 64.7235 97.9483Z" fill="#2E2228"/>
<path d="M87.1247 86.527C87.1247 89.8083 82.882 94.9803 77.6473 94.9803C72.414 94.9803 68.166 89.8083 68.166 86.527C68.166 83.2457 72.414 81.183 77.6473 81.183C82.882 81.183 87.1247 83.2457 87.1247 86.527Z" fill="#2E2228"/>
<path d="M70.5647 84.6897C68.7487 86.4923 70.7926 91.455 73.414 89.591C74.1086 89.099 74.53 88.547 74.974 87.8403C75.726 86.6323 76.7206 86.095 78.1273 85.8017C79.1047 85.6003 81.2153 85.4363 81.154 84.043C81.0713 82.0697 72.9687 82.2963 70.5647 84.6897Z" fill="#3E2F38"/>
<path d="M40.5703 68.3723C40.5703 70.0923 39.1156 71.4869 37.3183 71.4869C35.5209 71.4869 34.0649 70.0923 34.0649 68.3723C34.0649 66.6509 35.5209 65.2562 37.3183 65.2562C39.1156 65.2562 40.5703 66.6509 40.5703 68.3723Z" fill="#2E2228"/>
<path d="M39.7446 67.1296C39.7446 67.6869 39.2726 68.1403 38.6886 68.1403C38.1046 68.1403 37.6353 67.6869 37.6353 67.1296C37.6353 66.5696 38.1046 66.1176 38.6886 66.1176C39.2726 66.1176 39.7446 66.5696 39.7446 67.1296Z" fill="white"/>
<path d="M40.5529 65.8044C39.7795 65.1671 38.8516 64.9364 37.9462 64.9151C37.4956 64.9151 37.0395 64.9471 36.5889 65.0457C36.1235 65.1257 35.7369 65.2471 35.3235 65.4364C34.9169 65.6217 34.5222 65.8671 34.0955 66.1164C33.6649 66.3591 33.1995 66.6351 32.6555 66.7711C32.1115 66.9271 31.5222 66.9204 31.0076 66.7831C30.4902 66.6484 30.0262 66.4177 29.6235 66.1177C30.6169 66.3271 31.5942 66.3991 32.3715 66.0231C33.1529 65.6751 33.8582 64.9697 34.8542 64.5097C35.3355 64.2804 35.9075 64.1244 36.4275 64.0684C36.9582 64.0204 37.5009 64.0017 38.0382 64.1017C39.0982 64.2724 40.1489 64.8804 40.5529 65.8044Z" fill="#2E2228"/>
<path d="M31.0967 65.2563C31.7607 65.3923 32.3567 65.4216 32.9473 65.3403C33.55 65.2656 34.1153 65.0603 34.766 64.8523C34.3727 65.3883 33.7287 65.7497 33.026 65.851C32.674 65.8923 32.314 65.875 31.9754 65.7736C31.6434 65.679 31.3193 65.5123 31.0967 65.2563Z" fill="#2E2228"/>
<path d="M32.1406 64.5804C32.474 64.6537 32.7886 64.6444 33.0979 64.639C33.4099 64.6217 33.7193 64.599 34.034 64.5564C34.6553 64.491 35.282 64.3724 35.9726 64.355C35.426 64.759 34.7766 64.983 34.0953 65.071C33.7539 65.103 33.4059 65.1057 33.0619 65.0377C32.7246 64.9697 32.3686 64.843 32.1406 64.5804Z" fill="#2E2228"/>
<path d="M120.1 68.3723C120.1 70.0923 121.556 71.4869 123.352 71.4869C125.149 71.4869 126.606 70.0923 126.606 68.3723C126.606 66.6509 125.149 65.2562 123.352 65.2562C121.556 65.2562 120.1 66.6509 120.1 68.3723Z" fill="#2E2228"/>
<path d="M120.925 67.1296C120.925 67.6869 121.397 68.1403 121.982 68.1403C122.563 68.1403 123.037 67.6869 123.037 67.1296C123.037 66.5696 122.563 66.1176 121.982 66.1176C121.397 66.1176 120.925 66.5696 120.925 67.1296Z" fill="white"/>
<path d="M120.117 65.8044C120.519 64.8804 121.57 64.2724 122.629 64.1017C123.167 64.0017 123.71 64.0204 124.242 64.0684C124.761 64.1244 125.334 64.2804 125.817 64.5097C126.809 64.9697 127.515 65.6751 128.298 66.0231C129.077 66.3991 130.051 66.3271 131.046 66.1177C130.641 66.4177 130.178 66.6484 129.663 66.7831C129.147 66.9204 128.557 66.9271 128.017 66.7711C127.47 66.6351 127.003 66.3591 126.577 66.1164C126.146 65.8671 125.751 65.6217 125.345 65.4364C124.935 65.2471 124.549 65.1257 124.083 65.0457C123.631 64.9471 123.174 64.9151 122.719 64.9151C121.823 64.9364 120.887 65.1671 120.117 65.8044Z" fill="#2E2228"/>
<path d="M129.573 65.2563C129.348 65.5123 129.029 65.679 128.694 65.7736C128.358 65.875 127.994 65.8923 127.642 65.851C126.941 65.7497 126.296 65.3883 125.901 64.8523C126.553 65.0603 127.121 65.2656 127.718 65.3403C128.312 65.4216 128.906 65.3923 129.573 65.2563Z" fill="#2E2228"/>
<path d="M128.527 64.5804C128.298 64.843 127.941 64.9697 127.607 65.0377C127.265 65.1057 126.913 65.103 126.57 65.071C125.891 64.983 125.242 64.759 124.695 64.355C125.386 64.3724 126.01 64.491 126.638 64.5564C126.947 64.599 127.259 64.6217 127.57 64.639C127.883 64.6444 128.191 64.6537 128.527 64.5804Z" fill="#2E2228"/>
<path d="M27.2888 96.7589C21.9128 96.7589 17.5488 92.5856 17.5488 87.4336C17.5488 82.2829 21.9128 78.1083 27.2888 78.1083C32.6675 78.1083 37.0288 82.2829 37.0288 87.4336C37.0288 92.5856 32.6675 96.7589 27.2888 96.7589Z" fill="#BB5C63"/>
<path d="M133.379 96.7589C127.998 96.7589 123.637 92.5856 123.637 87.4336C123.637 82.2829 127.998 78.1083 133.379 78.1083C138.759 78.1083 143.121 82.2829 143.121 87.4336C143.121 92.5856 138.759 96.7589 133.379 96.7589Z" fill="#BB5C63"/>
</svg>
