<svg width="125" height="123" viewBox="0 0 125 123" fill="none" xmlns="http://www.w3.org/2000/svg">
<path d="M16.0042 36.9896C23.4942 29.195 32.5286 22.3563 43.3537 17.2976C43.7177 11.1283 42.2833 -1.84376 23.0026 1.30557C-0.832857 5.19224 -3.05526 31.4403 16.0042 36.9896Z" fill="#C0933C"/>
<path d="M108.204 36.1323C127.149 30.5163 124.883 4.36701 101.097 0.484344C81.8639 -2.65166 80.3879 10.2297 80.7473 16.423C91.6213 21.4817 100.697 28.323 108.204 36.1323Z" fill="#C0933C"/>
<path d="M105.218 33.151C113.67 27.8323 111.177 14.127 97.5329 11.9017C88.4089 10.4097 85.5772 14.5777 84.8125 18.4323C92.5662 22.5217 99.3316 27.5403 105.218 33.151Z" fill="#7C5E26"/>
<path d="M18.9615 34.031C24.8339 28.4217 31.583 23.4057 39.2981 19.3123C38.5497 15.4377 35.7334 11.223 26.5601 12.7216C12.8689 14.9523 10.4011 28.7577 18.9615 34.031Z" fill="#7C5E26"/>
<path d="M124.284 77.2417C124.284 92.699 103.269 122.635 62.383 122.635C21.497 122.635 0.483398 92.3803 0.483398 77.2417C0.483398 62.1017 13.2402 13.6457 62.383 13.6457C111.538 13.6457 124.284 61.7777 124.284 77.2417Z" fill="#DDA946"/>
<path d="M62.4585 110.77C59.8793 112.119 57.1777 112.867 54.7158 113.271C56.0184 116.214 59.0626 118.275 62.6074 118.275C66.1334 118.275 69.1533 116.234 70.4658 113.316C67.9388 112.919 65.1402 112.168 62.4585 110.77Z" fill="#F1E3D6"/>
<path d="M78.835 80.923C69.1325 80.923 55.7877 80.923 46.0887 80.923C34.7314 80.923 29.5225 88.3803 29.5225 97.239C29.5225 106.096 36.9011 113.29 46.0887 113.531V113.546C46.0887 113.546 54.8319 114.762 62.4585 110.77C70.0923 114.762 78.835 113.546 78.835 113.546V113.531C88.0225 113.29 95.405 106.096 95.405 97.239C95.405 88.3803 90.1939 80.923 78.835 80.923Z" fill="#F1E3D6"/>
<path d="M62.4587 110.77C62.0789 109.042 61.8805 107.314 61.7451 105.584C61.5993 103.855 61.5603 102.127 61.542 100.398C61.5576 98.6683 61.5967 96.9403 61.7425 95.2109C61.8775 93.4829 62.0769 91.755 62.4587 90.0256C62.8409 91.755 63.0399 93.4829 63.1748 95.2109C63.3207 96.9403 63.3597 98.6683 63.3753 100.398C63.3571 102.127 63.318 103.855 63.1723 105.584C63.0368 107.314 62.8384 109.042 62.4587 110.77Z" fill="#1C0B0F"/>
<path d="M40.3063 91.1897C40.3063 91.6524 39.912 92.0231 39.4339 92.0231C38.9548 92.0231 38.5693 91.6524 38.5693 91.1897C38.5693 90.7284 38.9548 90.3577 39.4339 90.3577C39.912 90.3577 40.3063 90.7284 40.3063 91.1897Z" fill="#1C0B0F"/>
<path d="M46.3951 90.7217C46.3951 91.183 46.0019 91.5537 45.5232 91.5537C45.0436 91.5537 44.6514 91.183 44.6514 90.7217C44.6514 90.2603 45.0436 89.8857 45.5232 89.8857C46.0019 89.8857 46.3951 90.2603 46.3951 90.7217Z" fill="#1C0B0F"/>
<path d="M43.536 94.9871C43.536 95.4444 43.1485 95.8204 42.6641 95.8204C42.1824 95.8204 41.7891 95.4444 41.7891 94.9871C41.7891 94.5231 42.1824 94.1511 42.6641 94.1511C43.1485 94.1511 43.536 94.5231 43.536 94.9871Z" fill="#1C0B0F"/>
<path d="M41.7892 99.5189C41.7892 99.9816 41.4038 100.351 40.921 100.351C40.4377 100.351 40.0522 99.9816 40.0522 99.5189C40.0522 99.0563 40.4377 98.6856 40.921 98.6856C41.4038 98.6856 41.7892 99.0563 41.7892 99.5189Z" fill="#1C0B0F"/>
<path d="M49.0352 98.8683C49.0352 99.3283 48.6451 99.703 48.1664 99.703C47.6874 99.703 47.2988 99.3283 47.2988 98.8683C47.2988 98.4083 47.6874 98.035 48.1664 98.035C48.6451 98.035 49.0352 98.4083 49.0352 98.8683Z" fill="#1C0B0F"/>
<path d="M38.3053 96.6537C38.3053 97.1124 37.9167 97.4871 37.4313 97.4871C36.9496 97.4871 36.5693 97.1124 36.5693 96.6537C36.5693 96.1924 36.9496 95.8204 37.4313 95.8204C37.9167 95.8204 38.3053 96.1924 38.3053 96.6537Z" fill="#1C0B0F"/>
<path d="M49.7293 94.2937C49.7293 94.751 49.3455 95.1257 48.8585 95.1257C48.3804 95.1257 47.9897 94.751 47.9897 94.2937C47.9897 93.8324 48.3804 93.4591 48.8585 93.4591C49.3455 93.4591 49.7293 93.8324 49.7293 94.2937Z" fill="#1C0B0F"/>
<path d="M84.4048 91.1897C84.4048 91.6524 84.798 92.0231 85.2802 92.0231C85.7625 92.0231 86.1527 91.6524 86.1527 91.1897C86.1527 90.7284 85.7625 90.3577 85.2802 90.3577C84.798 90.3577 84.4048 90.7284 84.4048 91.1897Z" fill="#1C0B0F"/>
<path d="M78.3184 90.7217C78.3184 91.183 78.7074 91.5537 79.1924 91.5537C79.6668 91.5537 80.0632 91.183 80.0632 90.7217C80.0632 90.2603 79.6668 89.8857 79.1924 89.8857C78.7074 89.8857 78.3184 90.2603 78.3184 90.7217Z" fill="#1C0B0F"/>
<path d="M81.1797 94.9871C81.1797 95.4444 81.5682 95.8204 82.051 95.8204C82.5338 95.8204 82.9193 95.4444 82.9193 94.9871C82.9193 94.5231 82.5338 94.1511 82.051 94.1511C81.5682 94.1511 81.1797 94.5231 81.1797 94.9871Z" fill="#1C0B0F"/>
<path d="M82.9194 99.5189C82.9194 99.9816 83.3132 100.351 83.7882 100.351C84.273 100.351 84.6601 99.9816 84.6601 99.5189C84.6601 99.0563 84.273 98.6856 83.7882 98.6856C83.3132 98.6856 82.9194 99.0563 82.9194 99.5189Z" fill="#1C0B0F"/>
<path d="M75.6748 98.8683C75.6748 99.3283 76.068 99.703 76.5436 99.703C77.0264 99.703 77.4196 99.3283 77.4196 98.8683C77.4196 98.4083 77.0264 98.035 76.5436 98.035C76.068 98.035 75.6748 98.4083 75.6748 98.8683Z" fill="#1C0B0F"/>
<path d="M86.4131 96.6537C86.4131 97.1124 86.7996 97.4871 87.2787 97.4871C87.762 97.4871 88.148 97.1124 88.148 96.6537C88.148 96.1924 87.762 95.8204 87.2787 95.8204C86.7996 95.8204 86.4131 96.1924 86.4131 96.6537Z" fill="#1C0B0F"/>
<path d="M74.9795 94.2937C74.9795 94.751 75.3718 95.1257 75.8514 95.1257C76.3295 95.1257 76.7202 94.751 76.7202 94.2937C76.7202 93.8324 76.3295 93.4591 75.8514 93.4591C75.3718 93.4591 74.9795 93.8324 74.9795 94.2937Z" fill="#1C0B0F"/>
<path d="M62.4584 110.77C60.7188 111.68 58.9214 112.308 57.1797 112.758C58.2005 114.642 60.2338 115.947 62.6073 115.947C64.9496 115.947 66.96 114.672 67.9942 112.823C66.1772 112.375 64.286 111.723 62.4584 110.77Z" fill="#B13557"/>
<path d="M0.767851 72.8377C0.634517 74.0244 0.54345 75.1164 0.513184 76.1017L9.84078 74.6523L0.767851 72.8377Z" fill="#1C0B0F"/>
<path d="M2.35082 85.8523L12.4524 81.151H0.916016C1.22588 82.6617 1.70508 84.2363 2.35082 85.8523Z" fill="#1C0B0F"/>
<path d="M7.70334 49.219C6.98974 50.723 6.33095 52.2283 5.73975 53.719L18.9116 52.2564L7.70334 49.219Z" fill="#1C0B0F"/>
<path d="M12.9951 39.7776L28.2816 44.391L16.368 35.1723C15.1675 36.679 14.0333 38.2136 12.9951 39.7776Z" fill="#1C0B0F"/>
<path d="M2.66908 63.0017C2.09042 65.1777 1.64308 67.2417 1.30762 69.1564L18.9118 64.963L2.66908 63.0017Z" fill="#1C0B0F"/>
<path d="M124.192 74.843C124.108 73.6297 123.969 72.2963 123.758 70.855L107.322 70.3377L124.192 74.843Z" fill="#1C0B0F"/>
<path d="M118.813 53.0123C118.271 51.675 117.666 50.331 117.029 48.9803L102.79 50.3323L118.813 53.0123Z" fill="#1C0B0F"/>
<path d="M102.588 42.0297L112.172 40.2803C111.368 39.0496 110.524 37.8337 109.629 36.6377L102.588 42.0297Z" fill="#1C0B0F"/>
<path d="M123.049 66.8937C122.81 65.7523 122.548 64.583 122.234 63.3603L115.417 64.1844L123.049 66.8937Z" fill="#1C0B0F"/>
<path d="M124.003 80.4817L109.746 79.299L122.781 85.0364C123.347 83.4724 123.755 81.9444 124.003 80.4817Z" fill="#1C0B0F"/>
<path d="M39.4377 68.2829C39.4377 71.0203 37.1147 73.2416 34.2569 73.2416C31.3949 73.2416 29.0757 71.0203 29.0757 68.2829C29.0757 65.5416 31.3949 63.3203 34.2569 63.3203C37.1147 63.3203 39.4377 65.5416 39.4377 68.2829Z" fill="#FFFBFD"/>
<path d="M33.2255 68.8804C32.6531 68.8804 32.1905 68.4377 32.1905 67.891C32.1905 67.343 32.6531 66.9017 33.2255 66.9017C33.7941 66.9017 34.2567 67.343 34.2567 67.891C34.2567 68.4377 33.7941 68.8804 33.2255 68.8804ZM32.7249 70.107C32.4395 70.107 32.1979 69.8804 32.1979 69.6044C32.1979 69.323 32.4395 69.099 32.7249 69.099C33.0203 69.099 33.2608 69.323 33.2608 69.6044C33.2608 69.8804 33.0203 70.107 32.7249 70.107ZM34.1681 66.2937C32.2692 66.2937 31.3525 67.6257 31.3525 68.9951C31.3525 70.4897 32.6171 71.6951 34.1681 71.6951C35.7332 71.6951 36.99 70.4897 36.99 68.9951C36.99 67.5044 35.7332 66.2937 34.1681 66.2937Z" fill="#212121"/>
<path d="M26.6993 63.5697C26.6649 63.5697 26.63 63.567 26.5956 63.5603C26.2753 63.5043 26.0617 63.1976 26.1185 62.8776C26.5363 60.4723 28.6321 58.7817 31.2284 58.7817C31.2379 58.7817 31.2472 58.7817 31.2565 58.7817C31.9743 58.7817 32.73 58.9057 33.5013 59.1683C33.8092 59.2737 33.9732 59.6083 33.8685 59.9163C33.7852 60.1603 33.5565 60.315 33.3112 60.315C33.2488 60.315 33.1847 60.3043 33.1217 60.283C32.4655 60.059 31.8393 59.959 31.2565 59.959C29.1431 59.9724 27.6128 61.2444 27.2779 63.0844C27.2269 63.3697 26.9789 63.5697 26.6993 63.5697Z" fill="#4D4424"/>
<path d="M85.3311 68.2829C85.3311 71.0203 87.6513 73.2416 90.5108 73.2416C93.3772 73.2416 95.6945 71.0203 95.6945 68.2829C95.6945 65.5416 93.3772 63.3203 90.5108 63.3203C87.6513 63.3203 85.3311 65.5416 85.3311 68.2829Z" fill="#FFFBFD"/>
<path d="M90.5105 67.891C90.5105 67.343 90.972 66.9017 91.5489 66.9017C92.1143 66.9017 92.5796 67.343 92.5796 67.891C92.5796 68.4377 92.1143 68.8804 91.5489 68.8804C90.972 68.8804 90.5105 68.4377 90.5105 67.891ZM91.5156 69.6044C91.5156 69.323 91.7516 69.099 92.0463 69.099C92.3356 69.099 92.5729 69.323 92.5729 69.6044C92.5729 69.8804 92.3356 70.107 92.0463 70.107C91.7516 70.107 91.5156 69.8804 91.5156 69.6044ZM87.7803 68.9951C87.7803 70.4897 89.0407 71.6951 90.6016 71.6951C92.1609 71.6951 93.4209 70.4897 93.4209 68.9951C93.4209 67.6257 92.5009 66.2937 90.6016 66.2937C89.0407 66.2937 87.7803 67.5044 87.7803 68.9951Z" fill="#212121"/>
<path d="M98.0728 63.5697C97.7914 63.5697 97.5434 63.3683 97.4928 63.083C97.1608 61.2443 95.6288 59.9724 93.5141 59.959C92.9301 59.959 92.3034 60.059 91.6488 60.283C91.5861 60.3043 91.5221 60.315 91.4581 60.315C91.2128 60.315 90.9848 60.1617 90.9009 59.9163C90.7957 59.6083 90.9604 59.2737 91.2688 59.1683C92.0394 58.9057 92.7954 58.7817 93.5141 58.7817C93.5234 58.7817 93.5328 58.7817 93.5421 58.7817C96.1394 58.7817 98.2368 60.4723 98.6528 62.879C98.7088 63.199 98.4954 63.5044 98.1754 63.5617C98.1408 63.567 98.1061 63.5697 98.0728 63.5697Z" fill="#4D4424"/>
<path d="M45.5444 26.3577C57.7101 34.3044 53.8586 45.971 50.8231 57.8083C47.7778 69.6457 44.8383 84.0537 44.8383 84.0537L62.3831 83.2377L79.931 84.0537C79.931 84.0537 76.9898 69.6457 73.9528 57.8083C70.9116 45.971 67.057 34.3044 79.2216 26.3577C84.7643 22.7337 90.3121 22.1643 94.7091 22.6163C86.2757 17.179 75.6664 13.6457 62.3831 13.6457C49.1498 13.6457 38.5758 17.1764 30.1602 22.607C34.5444 22.1724 40.046 22.763 45.5444 26.3577Z" fill="#C0933C"/>
<path d="M80.0469 85.487C80.0469 91.3443 69.9531 100.531 61.5365 100.531C53.1323 100.531 44.7188 91.3443 44.7188 85.487C44.7188 79.6203 49.6906 79.299 55.8073 79.299H68.9583C75.0838 79.299 80.0469 79.6203 80.0469 85.487Z" fill="#1C0B0F"/>
<path d="M60.3797 28.1163L57.9922 13.7817C55.9338 13.9084 53.9698 14.1484 52.0537 14.443L60.3797 28.1163Z" fill="#1C0B0F"/>
<path d="M73.1224 24.5577L73.0387 14.4898C71.5459 14.2551 70.0183 14.0658 68.4365 13.9284L73.1224 24.5577Z" fill="#1C0B0F"/>
<path d="M46.5016 24.5577L39.6125 17.7631C38.2115 18.3124 36.8553 18.9004 35.5464 19.5444L46.5016 24.5577Z" fill="#1C0B0F"/>
<path d="M83.9364 17.2764L78.002 24.5577L88.7317 19.2818C87.1973 18.5498 85.5968 17.8804 83.9364 17.2764Z" fill="#1C0B0F"/>
<path d="M48.1269 22.495L47.5393 15.315C46.6384 15.523 45.7493 15.7336 44.8857 15.979L48.1269 22.495Z" fill="#1C0B0F"/>
</svg>
